<svg xmlns="http://www.w3.org/2000/svg" xml:space="preserve" width="17.301" height="17.301" style="shape-rendering:geometricPrecision;text-rendering:geometricPrecision;image-rendering:optimizeQuality;fill-rule:evenodd;clip-rule:evenodd" viewBox="0 0 458 458"><path d="M221 436c110 0 199-89 199-199S331 38 221 38 22 127 22 237s89 199 199 199zm8-286c-4-4-11-4-15 0l-69 69c-4 4-4 11 0 15s11 4 15 0l50-50v132h22V184l50 50c4 4 11 4 15 0s4-11 0-15l-69-69zm-8 303c119 0 216-97 216-216S340 21 221 21 5 118 5 237s97 216 216 216z" style="fill:#ccc"/></svg>