<?xml version="1.0" encoding="UTF-8"?>
<!DOCTYPE svg PUBLIC "-//W3C//DTD SVG 1.1//EN" "http://www.w3.org/Graphics/SVG/1.1/DTD/svg11.dtd">
<!-- Creator: CorelDRAW -->
<svg xmlns="http://www.w3.org/2000/svg" xml:space="preserve" width="187.556mm" height="67.3942mm" version="1.1" style="shape-rendering:geometricPrecision; text-rendering:geometricPrecision; image-rendering:optimizeQuality; fill-rule:evenodd; clip-rule:evenodd"
viewBox="0 0 3075.58 1061.43"
 xmlns:xlink="http://www.w3.org/1999/xlink"
 xmlns:xodm="http://www.corel.com/coreldraw/odm/2003">
 <defs>
  <style type="text/css">
   <![CDATA[
    .fil0 {fill:white;fill-rule:nonzero}
   ]]>
  </style>
 </defs>
 <g id="Слой_x0020_1">
  <metadata id="CorelCorpID_0Corel-Layer"/>
  <path class="fil0" d="M69.39 6.53c0,1.09 -0.95,2.72 -2.86,4.9 -3.26,3.54 -9.93,12.79 -20,27.76 4.9,0 7.35,2.99 7.35,8.98 0,7.35 -4.63,11.02 -13.88,11.02 -5.44,0 -8.16,-3.4 -8.16,-10.2 0,-5.44 4.9,-14.01 14.69,-25.72 9.8,-11.7 17.14,-17.55 22.04,-17.55 0.54,0 0.82,0.27 0.82,0.82zm-31.84 0c0,1.09 -0.95,2.72 -2.86,4.9 -3.26,3.54 -9.93,12.79 -20,27.76 4.9,0 7.35,2.99 7.35,8.98 0,7.35 -4.63,11.02 -13.88,11.02 -5.44,0 -8.16,-3.4 -8.16,-10.2 0,-5.44 4.9,-14.01 14.69,-25.72 9.8,-11.7 17.14,-17.55 22.04,-17.55 0.54,0 0.82,0.27 0.82,0.82z"/>
  <path id="_1" class="fil0" d="M343.27 31.84c0,18.5 -10.2,35.51 -30.61,51.02 -19.05,14.97 -38.23,22.45 -57.55,22.45 -19.87,0 -29.8,-7.62 -29.8,-22.86 0,-10.88 2.45,-16.33 7.35,-16.33 1.91,0 2.86,1.23 2.86,3.67 0,0.82 -0.14,2.04 -0.41,3.67 -0.27,1.63 -0.41,2.86 -0.41,3.67 0,10.61 6.94,15.92 20.82,15.92 14.42,0 30.75,-6.94 48.98,-20.82 18.23,-13.88 27.35,-27.62 27.35,-41.23 0,-13.33 -11.29,-20 -33.88,-20 -4.63,0 -9.12,0.27 -13.47,0.82 -23.4,2.45 -50.07,12.31 -80,29.59 -29.93,17.28 -54.83,37.48 -74.7,60.61 -22.04,26.12 -33.06,51.16 -33.06,75.1 0,14.97 5.03,26.39 15.1,34.29 8.98,7.08 21.22,10.61 36.74,10.61 49.52,0 97.55,-19.32 144.08,-57.96 1.09,-0.82 2.18,-1.23 3.26,-1.23 3.27,0 4.9,1.77 4.9,5.31 0,1.36 -0.54,2.59 -1.63,3.67 -19.87,18.23 -43.4,33.74 -70.62,46.53 -29.93,14.15 -57.01,21.23 -81.23,21.23 -19.87,0 -35.92,-4.08 -48.16,-12.25 -14.42,-9.52 -21.63,-23.67 -21.63,-42.45 0,-22.31 9.12,-46.67 27.35,-73.06 21.5,-31.29 49.39,-57.28 83.68,-77.96 36.73,-22.59 72.93,-33.88 108.57,-33.88 30.75,0 46.12,10.61 46.12,31.84z"/>
  <path id="_2" class="fil0" d="M472.26 175.51c0,1.09 -0.27,1.9 -0.82,2.45 -6.8,9.52 -14.42,18.37 -22.86,26.53 -11.7,10.88 -21.5,16.33 -29.39,16.33 -12.79,0 -19.18,-14.15 -19.18,-42.45 0,-4.35 0.14,-9.25 0.41,-14.69 -9.8,8.71 -20.82,24.36 -33.06,46.94 -4.08,7.62 -8.57,11.43 -13.47,11.43 -1.63,0 -2.86,-0.54 -3.67,-1.63 -0.82,-2.99 -1.23,-6.8 -1.23,-11.43 0,-7.89 1.77,-22.31 5.31,-43.27 1.9,-10.61 2.86,-17.41 2.86,-20.41 0,-2.18 -0.41,-3.26 -1.23,-3.26 -4.63,4.08 -12.11,12.93 -22.45,26.53 -11.16,14.69 -23.13,31.97 -35.92,51.84 -1.63,2.45 -2.99,3.67 -4.08,3.67 -2.18,0 -3.26,-2.45 -3.26,-7.35 0,-1.36 0.14,-2.45 0.41,-3.27 6.26,-14.69 12.65,-35.38 19.18,-62.04 0.54,-3.81 1.63,-9.25 3.26,-16.33 0.54,-1.9 2.38,-3.81 5.51,-5.71 3.13,-1.91 5.78,-2.86 7.96,-2.86 1.9,0 2.86,0.82 2.86,2.45 0,2.72 -6.4,23.4 -19.18,62.04 9.8,-13.06 19.87,-26.53 30.2,-40.41 3.26,-4.35 8.16,-10.88 14.69,-19.59 4.08,-4.9 8.3,-7.35 12.65,-7.35 4.35,0 6.53,2.45 6.53,7.35 0,3.54 -0.95,10.54 -2.86,21.02 -1.9,10.48 -4.08,25.78 -6.53,45.92 7.62,-10.88 19.46,-26.8 35.51,-47.76 4.35,-5.17 8.71,-7.76 13.06,-7.76 4.08,0 6.12,2.58 6.12,7.76 0,4.35 -0.68,10.82 -2.04,19.39 -1.36,8.57 -2.04,15.03 -2.04,19.39 0,14.15 3.67,21.23 11.02,21.23 10.34,0 23.54,-11.43 39.59,-34.29 1.63,-2.72 2.99,-4.08 4.08,-4.08 1.36,0 2.04,1.22 2.04,3.67zm-41.23 -75.92c-34.29,-8.16 -59.46,-7.76 -75.51,1.22 -2.99,1.63 -5.44,4.22 -7.35,7.76 -0.82,1.91 -1.22,4.49 -1.22,7.76 0,3.27 -0.41,5.72 -1.23,7.35l-1.63 1.23c-2.72,1.9 -3.88,-0.07 -3.47,-5.92 0.41,-5.85 1.7,-10.82 3.88,-14.9 2.72,-6.26 7.35,-11.02 13.88,-14.29 11.97,-7.07 27.76,-9.8 47.35,-8.16 4.9,0 21.36,2.31 49.39,6.94 17.14,2.99 28.44,2.99 33.88,0 3.27,-1.9 5.58,-4.35 6.94,-7.35 1.63,-3.54 1.97,-6.8 1.02,-9.79 -0.95,-2.99 -0.88,-5.58 0.2,-7.76 0.54,-0.27 0.82,-0.41 0.82,-0.41 2.18,-1.36 3.2,1.36 3.06,8.16 -0.14,6.8 -1.02,11.84 -2.65,15.1 -4.08,7.89 -8.44,13.33 -13.06,16.33 -6.8,3.81 -17.55,4.49 -32.25,2.04 -1.63,-0.82 -4.9,-1.5 -9.8,-2.04 -2.18,0 -6.26,-1.09 -12.25,-3.26z"/>
  <path id="_3" class="fil0" d="M606.14 171.84c0,1.9 -0.82,4.22 -2.45,6.94 -7.07,11.7 -18.78,23.4 -35.1,35.1 -17.42,13.06 -32.11,19.59 -44.08,19.59 -2.45,0 -6.12,-0.14 -11.02,-0.41 -4.63,0 -8.16,0 -10.61,0 -1.09,0 -5.17,-0.95 -12.25,-2.86 -8.44,21.77 -19.87,44.63 -34.29,68.57 -20.41,33.2 -37.01,49.8 -49.8,49.8 -6.8,0 -10.2,-5.03 -10.2,-15.1 0,-13.33 12.25,-38.1 36.74,-74.29 17.41,-23.95 34.97,-48.03 52.65,-72.25l0 -2.45c0,-9.8 -0.14,-18.37 -0.41,-25.72 -10.34,16.87 -16.87,25.31 -19.59,25.31 -1.63,0 -2.45,-0.95 -2.45,-2.86 0,-1.09 0.41,-2.18 1.22,-3.26 11.97,-16.87 17.96,-31.97 17.96,-45.31 0,-2.72 -0.75,-4.97 -2.25,-6.73 -1.5,-1.77 -2.24,-3.2 -2.24,-4.29 0,-1.09 4.22,-1.63 12.65,-1.63 9.25,0 13.88,9.25 13.88,27.76 0,2.72 -0.2,6.73 -0.61,12.04 -0.41,5.31 -0.61,9.18 -0.61,11.63 7.62,-13.88 16.06,-26.67 25.31,-38.37 14.15,-17.42 25.99,-26.12 35.51,-26.12 8.71,0 13.06,6.39 13.06,19.18 0,16.06 -5.65,34.69 -16.94,55.92 -11.29,21.22 -23.61,36.05 -36.94,44.49 23.67,-0.54 49.93,-18.91 78.78,-55.1 1.09,-1.36 1.91,-2.04 2.45,-2.04 1.09,0 1.63,0.82 1.63,2.45zm-46.94 -37.14c0,-8.44 -2.31,-12.65 -6.94,-12.65 -1.36,0 -2.72,0.27 -4.08,0.82 -9.8,4.35 -20.14,17.01 -31.02,37.96 -8.16,15.51 -14.69,31.43 -19.59,47.76 2.72,4.08 7.48,9.25 14.28,15.51 11.97,-5.17 22.99,-18.09 33.06,-38.78 9.53,-19.59 14.29,-36.46 14.29,-50.61zm-77.14 74.29c-0.27,-0.27 -0.54,-0.41 -0.82,-0.41 -1.09,0 -2.58,1.36 -4.49,4.08 -6.53,9.8 -16.33,24.22 -29.39,43.27 -5.71,8.16 -12.92,20.55 -21.63,37.14 -10.07,19.32 -15.1,31.84 -15.1,37.55 0,2.45 0.82,3.67 2.45,3.67 11.97,0 28.44,-19.59 49.39,-58.78 5.44,-10.34 11.29,-28.16 17.55,-53.47 -0.27,-1.36 -0.41,-2.72 -0.41,-4.08 0,-3.26 0.82,-6.26 2.45,-8.98z"/>
  <path id="_4" class="fil0" d="M722.46 174.7c0,1.36 -0.82,3.26 -2.45,5.71 -11.97,19.32 -23.27,31.7 -33.88,37.14 -4.9,2.45 -9.8,3.67 -14.69,3.67 -16.6,0 -24.9,-11.7 -24.9,-35.1 0,-3.81 0.27,-7.89 0.82,-12.25 -18.23,32.38 -34.42,48.57 -48.57,48.57 -8.44,0 -12.65,-4.63 -12.65,-13.88 0,-14.15 6.8,-31.23 20.41,-51.23 13.61,-20 26.8,-32.18 39.59,-36.53 4.63,-1.9 9.12,-2.86 13.47,-2.86 9.8,0 16.87,3.4 21.22,10.2 0.82,1.36 1.23,2.31 1.23,2.86 0,0.27 -0.95,0.68 -2.86,1.23 -1.91,0.54 -3.27,1.5 -4.08,2.86 -6.53,10.61 -9.8,26.53 -9.8,47.76 0,19.59 4.22,29.39 12.65,29.39 5.99,0 14.49,-6.6 25.51,-19.8 11.02,-13.2 16.94,-19.8 17.76,-19.8 0.82,0 1.22,0.68 1.22,2.04zm-60 -42.86c-1.09,-0.27 -2.31,-0.41 -3.67,-0.41 -10.88,0 -22.18,6.94 -33.88,20.82 -16.6,20.14 -24.9,36.6 -24.9,49.39 0,5.71 1.91,8.57 5.71,8.57 5.99,0 13.74,-6.26 23.27,-18.78 13.33,-16.87 24.49,-36.73 33.47,-59.59z"/>
  <path id="_5" class="fil0" d="M815.12 172.25c0,1.09 -0.82,2.58 -2.45,4.49 -9.52,13.88 -22.72,26.53 -39.59,37.96 -9.8,6.26 -20.14,9.39 -31.02,9.39 -20.14,0 -30.2,-10.75 -30.2,-32.24 0,-13.33 7.41,-28.03 22.24,-44.08 14.83,-16.06 28.78,-24.08 41.84,-24.08 8.71,0 13.06,3.4 13.06,10.2 0,2.72 -1.97,7.42 -5.92,14.08 -3.95,6.67 -7.14,10 -9.59,10 -1.09,0 -1.63,-0.68 -1.63,-2.04 0,-1.09 0.48,-2.86 1.43,-5.31 0.95,-2.45 1.43,-4.35 1.43,-5.71 0,-5.71 -3.54,-8.57 -10.61,-8.57 -9.8,0 -18.64,6.4 -26.53,19.18 -7.35,11.7 -11.02,22.72 -11.02,33.06 0,16.87 7.35,25.31 22.04,25.31 18.5,0 37.82,-12.65 57.96,-37.96 2.72,-3.26 5.03,-4.9 6.94,-4.9 1.09,0 1.63,0.41 1.63,1.23z"/>
  <path id="_6" class="fil0" d="M969 175.51c0,1.09 -0.27,1.9 -0.82,2.45 -6.8,9.52 -14.42,18.37 -22.86,26.53 -11.7,10.88 -21.5,16.33 -29.39,16.33 -12.79,0 -19.18,-14.15 -19.18,-42.45 0,-4.35 0.14,-9.25 0.41,-14.69 -9.8,8.71 -20.82,24.36 -33.06,46.94 -4.08,7.62 -8.57,11.43 -13.47,11.43 -1.63,0 -2.86,-0.54 -3.67,-1.63 -0.82,-2.99 -1.23,-6.8 -1.23,-11.43 0,-7.89 1.77,-22.31 5.31,-43.27 1.9,-10.61 2.86,-17.41 2.86,-20.41 0,-2.18 -0.41,-3.26 -1.23,-3.26 -4.63,4.08 -12.11,12.93 -22.45,26.53 -11.16,14.69 -23.13,31.97 -35.92,51.84 -1.63,2.45 -2.99,3.67 -4.08,3.67 -2.18,0 -3.26,-2.45 -3.26,-7.35 0,-1.36 0.14,-2.45 0.41,-3.27 6.26,-14.69 12.65,-35.38 19.18,-62.04 0.54,-3.81 1.63,-9.25 3.26,-16.33 0.54,-1.9 2.38,-3.81 5.51,-5.71 3.13,-1.91 5.78,-2.86 7.96,-2.86 1.9,0 2.86,0.82 2.86,2.45 0,2.72 -6.4,23.4 -19.18,62.04 9.8,-13.06 19.87,-26.53 30.2,-40.41 3.26,-4.35 8.16,-10.88 14.69,-19.59 4.08,-4.9 8.3,-7.35 12.65,-7.35 4.35,0 6.53,2.45 6.53,7.35 0,3.54 -0.95,10.54 -2.86,21.02 -1.9,10.48 -4.08,25.78 -6.53,45.92 7.62,-10.88 19.46,-26.8 35.51,-47.76 4.35,-5.17 8.71,-7.76 13.06,-7.76 4.08,0 6.12,2.58 6.12,7.76 0,4.35 -0.68,10.82 -2.04,19.39 -1.36,8.57 -2.04,15.03 -2.04,19.39 0,14.15 3.67,21.23 11.02,21.23 10.34,0 23.54,-11.43 39.59,-34.29 1.63,-2.72 2.99,-4.08 4.08,-4.08 1.36,0 2.04,1.22 2.04,3.67zm-41.23 -75.92c-34.29,-8.16 -59.46,-7.76 -75.51,1.22 -2.99,1.63 -5.44,4.22 -7.35,7.76 -0.82,1.91 -1.22,4.49 -1.22,7.76 0,3.27 -0.41,5.72 -1.23,7.35l-1.63 1.23c-2.72,1.9 -3.88,-0.07 -3.47,-5.92 0.41,-5.85 1.7,-10.82 3.88,-14.9 2.72,-6.26 7.35,-11.02 13.88,-14.29 11.97,-7.07 27.76,-9.8 47.35,-8.16 4.9,0 21.36,2.31 49.39,6.94 17.14,2.99 28.44,2.99 33.88,0 3.27,-1.9 5.58,-4.35 6.94,-7.35 1.63,-3.54 1.97,-6.8 1.02,-9.79 -0.95,-2.99 -0.88,-5.58 0.2,-7.76 0.54,-0.27 0.82,-0.41 0.82,-0.41 2.18,-1.36 3.2,1.36 3.06,8.16 -0.14,6.8 -1.02,11.84 -2.65,15.1 -4.08,7.89 -8.44,13.33 -13.06,16.33 -6.8,3.81 -17.55,4.49 -32.25,2.04 -1.63,-0.82 -4.9,-1.5 -9.8,-2.04 -2.18,0 -6.26,-1.09 -12.25,-3.26z"/>
  <path id="_7" class="fil0" d="M987.37 154.29c-4.63,9.25 -8.84,18.78 -12.65,28.57 -3.81,9.8 -5.72,17.28 -5.72,22.45 0,9.52 4.49,14.29 13.47,14.29 5.71,0 12.18,-2.38 19.39,-7.14 7.21,-4.76 13.54,-10.27 18.98,-16.53 -7.07,0.54 -12.99,-0.68 -17.75,-3.67 -4.76,-2.99 -7.28,-8.84 -7.55,-17.55 -0.54,-4.9 0.41,-9.59 2.86,-14.08 2.45,-4.49 5.65,-8.3 9.59,-11.43 3.95,-3.13 8.3,-5.37 13.06,-6.73 4.76,-1.36 9.12,-1.43 13.06,-0.2 3.95,1.23 7.14,4.01 9.59,8.37 2.45,4.35 3.4,10.61 2.86,18.78 -0.27,3.81 -1.09,7.62 -2.45,11.43 6.26,-2.99 12.25,-6.6 17.96,-10.82 5.71,-4.22 10.61,-8.64 14.69,-13.26l5.31 1.22c-1.09,2.72 -3.06,5.65 -5.92,8.78 -2.86,3.13 -6.26,6.19 -10.2,9.18 -3.95,2.99 -8.23,5.85 -12.86,8.57 -4.63,2.72 -9.39,5.03 -14.29,6.94 -3.26,4.9 -7.21,9.32 -11.84,13.27 -4.63,3.95 -9.66,7.41 -15.1,10.41 -5.44,2.99 -11.09,5.44 -16.94,7.35 -5.85,1.9 -11.5,3.13 -16.94,3.67 -15.78,1.63 -23.67,-6.26 -23.67,-23.67 0,-7.35 1.36,-15.51 4.08,-24.49 2.72,-8.98 6.19,-18.03 10.41,-27.14 4.22,-9.12 8.78,-17.82 13.67,-26.12 4.9,-8.3 9.52,-15.31 13.88,-21.02 1.09,-1.36 2.59,-1.9 4.49,-1.63 1.91,0.27 3.81,1.02 5.71,2.24 1.91,1.23 3.47,2.72 4.69,4.49 1.22,1.77 1.84,3.33 1.84,4.69 0,1.63 -0.54,3.13 -1.63,4.49 -0.82,1.36 -2.38,3.74 -4.69,7.14 -2.31,3.4 -4.76,7.08 -7.35,11.02 -2.58,3.95 -5.03,7.69 -7.35,11.22 -2.31,3.54 -3.88,5.85 -4.69,6.94zm43.27 27.76c2.99,-5.99 4.29,-10.75 3.88,-14.29 -0.41,-3.54 -1.84,-6.19 -4.29,-7.96 -2.45,-1.77 -5.44,-2.52 -8.98,-2.24 -3.54,0.27 -6.8,1.29 -9.8,3.06 -2.99,1.77 -5.31,4.22 -6.94,7.35 -1.63,3.13 -1.63,6.87 0,11.22 1.36,4.35 4.15,7.07 8.37,8.16 4.22,1.09 9.19,0.95 14.9,-0.41 0.54,-0.82 1.02,-1.63 1.43,-2.45 0.41,-0.82 0.88,-1.63 1.43,-2.45z"/>
  <path id="_8" class="fil0" d="M1251.87 171.84c0,1.9 -0.82,4.22 -2.45,6.94 -18.5,30.75 -37.69,46.12 -57.55,46.12 -15.51,0 -23.27,-9.8 -23.27,-29.39 0,-17.42 3.95,-32.79 11.84,-46.12 -19.05,17.14 -38.5,40.82 -58.37,71.02 -1.63,2.45 -2.86,3.67 -3.67,3.67 -2.45,0 -3.67,-2.45 -3.67,-7.35 0,-1.36 0.27,-2.45 0.82,-3.27 5.72,-13.88 11.7,-33.61 17.96,-59.18 0.82,-4.35 2.18,-10.75 4.08,-19.18 0.82,-1.9 2.72,-3.81 5.72,-5.71 2.99,-1.91 5.71,-2.86 8.16,-2.86 1.9,0 2.86,0.82 2.86,2.45 0,2.72 -6.39,23.4 -19.18,62.04 3.27,-4.35 13.47,-15.92 30.61,-34.69 5.71,-6.53 14.15,-15.78 25.31,-27.76 2.18,-1.9 4.35,-2.86 6.53,-2.86 6.26,0 9.39,3.13 9.39,9.39 0,1.36 -0.54,2.99 -1.63,4.9 -15.24,25.03 -22.86,44.9 -22.86,59.59 0,10.34 4.9,15.51 14.69,15.51 7.62,0 15.78,-3.95 24.49,-11.84 5.71,-4.9 12.11,-12.25 19.18,-22.04 5.71,-7.89 8.98,-11.84 9.79,-11.84 0.82,0 1.23,0.82 1.23,2.45z"/>
  <path id="_9" class="fil0" d="M1344.11 176.33c0,0.54 -0.27,1.09 -0.82,1.63 -3.81,6.53 -9.59,12.11 -17.35,16.74 -7.76,4.63 -15.31,6.94 -22.65,6.94 -5.44,0 -10.48,-1.36 -15.1,-4.08 -12.52,19.86 -25.44,29.8 -38.78,29.8 -9.53,0 -14.29,-5.58 -14.29,-16.74 0,-15.51 6.8,-33.74 20.41,-54.7 -0.54,-2.99 -0.82,-5.99 -0.82,-8.98 0,-9.8 3.26,-19.32 9.8,-28.57 6.53,-9.25 14.56,-13.88 24.08,-13.88 6.26,0 11.29,3.67 15.1,11.02 2.99,6.26 4.49,12.79 4.49,19.59 0,14.69 -5.71,33.33 -17.14,55.92 4.08,2.45 8.71,3.67 13.88,3.67 8.98,0 17.41,-3.54 25.31,-10.61 7.89,-7.07 11.56,-10.61 11.02,-10.61 1.91,0 2.86,0.95 2.86,2.86zm-48.16 -31.02c0,-5.99 -0.95,-12.11 -2.86,-18.37 -2.72,-8.71 -6.26,-13.06 -10.61,-13.06 -6.26,0 -11.16,3.81 -14.69,11.43 -2.72,5.99 -3.95,12.52 -3.67,19.59 4.35,-5.17 8.71,-7.76 13.06,-7.76 4.08,0 7.07,1.36 8.98,4.08 0,0.27 0,0.95 0,2.04 0.27,0.82 0.41,1.5 0.41,2.04 0,0.82 -1.36,1.22 -4.08,1.22 -4.9,0 -10.07,5.17 -15.51,15.51 3.54,10.34 9.8,18.78 18.78,25.31 6.8,-17.14 10.2,-31.16 10.2,-42.04zm-13.47 47.76c-8.98,-5.99 -15.78,-12.93 -20.41,-20.82 -8.16,17.14 -12.25,29.52 -12.25,37.14 0,5.44 2.04,8.16 6.12,8.16 3.81,0 8.84,-3.26 15.1,-9.8 5.44,-5.17 9.25,-10.07 11.43,-14.69z"/>
  <path id="_10" class="fil0" d="M1416.77 148.57c-5.44,11.43 -11.29,22.79 -17.55,34.08 -6.26,11.29 -12.11,19.66 -17.55,25.1 -7.62,7.35 -14.83,12.11 -21.63,14.29 -6.8,2.18 -12.52,2.11 -17.14,-0.2 -4.63,-2.31 -7.96,-6.8 -10,-13.47 -2.04,-6.67 -2.11,-15.31 -0.2,-25.92 0.82,-5.17 2.31,-8.71 4.49,-10.61 2.18,-1.91 4.49,-2.86 6.94,-2.86 2.45,0 4.63,0.75 6.53,2.25 1.9,1.5 3.13,3.2 3.67,5.1 -4.35,11.16 -6.46,20.14 -6.33,26.94 0.14,6.8 2.04,10.88 5.71,12.25 3.67,1.36 8.78,-0.2 15.31,-4.69 6.53,-4.49 13.88,-12.45 22.04,-23.88 2.99,-4.08 6.46,-9.8 10.41,-17.14 3.95,-7.35 7.96,-17.96 12.04,-31.84 10.07,-5.17 17.28,-7.69 21.63,-7.55 4.35,0.14 6.74,1.9 7.14,5.31 0.41,3.4 -0.61,8.03 -3.06,13.88 -2.45,5.85 -5.17,11.97 -8.16,18.37 -2.99,6.39 -5.78,12.52 -8.37,18.37 -2.58,5.85 -3.88,10.54 -3.88,14.08 0.82,-1.09 2.31,-3.06 4.49,-5.92 2.18,-2.86 4.9,-6.26 8.16,-10.2 3.26,-3.95 6.87,-8.23 10.82,-12.86 3.95,-4.63 8.1,-9.25 12.45,-13.88 5.44,-6.26 13.88,-15.51 25.31,-27.76 1.09,-1.09 2.31,-2.04 3.67,-2.86 1.36,-0.82 2.58,-1.23 3.67,-1.23 6.26,0 9.39,3.13 9.39,9.39 0,1.36 -0.54,2.99 -1.63,4.9 -15.24,25.03 -22.86,44.9 -22.86,59.59 0,10.34 4.9,15.51 14.69,15.51 7.62,0 15.78,-3.95 24.49,-11.84 5.99,-5.17 12.38,-12.52 19.18,-22.04 5.71,-7.89 8.98,-11.84 9.8,-11.84 0.82,0 1.22,0.82 1.22,2.45 0,1.9 -0.82,4.22 -2.45,6.94 -18.5,30.75 -37.69,46.12 -57.55,46.12 -15.51,0 -23.27,-9.8 -23.27,-29.39 0,-8.71 0.88,-16.67 2.65,-23.88 1.77,-7.21 4.56,-14.22 8.37,-21.02 -5.44,5.17 -10.41,10.34 -14.9,15.51 -4.49,5.17 -9.59,11.29 -15.31,18.37 -2.45,3.26 -4.9,6.67 -7.35,10.2 -2.45,3.54 -4.9,6.67 -7.35,9.39 -2.45,2.72 -4.9,4.76 -7.35,6.12 -2.45,1.36 -5.03,1.22 -7.76,-0.41 -2.99,-1.91 -3.88,-5.99 -2.65,-12.25 1.22,-6.26 3.13,-12.93 5.71,-20 2.58,-7.07 5.1,-13.47 7.55,-19.18 2.45,-5.71 3.27,-8.98 2.45,-9.8 0,-1.36 -0.95,-2.04 -2.86,-2.04 -1.9,0 -2.86,0.68 -2.86,2.04z"/>
  <path id="_11" class="fil0" d="M1633.1 176.33c0,0.54 -0.27,1.09 -0.82,1.63 -3.81,6.53 -9.59,12.11 -17.35,16.74 -7.76,4.63 -15.31,6.94 -22.65,6.94 -5.44,0 -10.48,-1.36 -15.1,-4.08 -12.52,19.86 -25.44,29.8 -38.78,29.8 -9.53,0 -14.29,-5.58 -14.29,-16.74 0,-15.51 6.8,-33.74 20.41,-54.7 -0.54,-2.99 -0.82,-5.99 -0.82,-8.98 0,-9.8 3.26,-19.32 9.8,-28.57 6.53,-9.25 14.56,-13.88 24.08,-13.88 6.26,0 11.29,3.67 15.1,11.02 2.99,6.26 4.49,12.79 4.49,19.59 0,14.69 -5.71,33.33 -17.14,55.92 4.08,2.45 8.71,3.67 13.88,3.67 8.98,0 17.41,-3.54 25.31,-10.61 7.89,-7.07 11.56,-10.61 11.02,-10.61 1.91,0 2.86,0.95 2.86,2.86zm-48.16 -31.02c0,-5.99 -0.95,-12.11 -2.86,-18.37 -2.72,-8.71 -6.26,-13.06 -10.61,-13.06 -6.26,0 -11.16,3.81 -14.69,11.43 -2.72,5.99 -3.95,12.52 -3.67,19.59 4.35,-5.17 8.71,-7.76 13.06,-7.76 4.08,0 7.07,1.36 8.98,4.08 0,0.27 0,0.95 0,2.04 0.27,0.82 0.41,1.5 0.41,2.04 0,0.82 -1.36,1.22 -4.08,1.22 -4.9,0 -10.07,5.17 -15.51,15.51 3.54,10.34 9.8,18.78 18.78,25.31 6.8,-17.14 10.2,-31.16 10.2,-42.04zm-13.47 47.76c-8.98,-5.99 -15.78,-12.93 -20.41,-20.82 -8.16,17.14 -12.25,29.52 -12.25,37.14 0,5.44 2.04,8.16 6.12,8.16 3.81,0 8.84,-3.26 15.1,-9.8 5.44,-5.17 9.25,-10.07 11.43,-14.69z"/>
  <path id="_12" class="fil0" d="M1688.2 162.45c-4.08,3.26 -7.48,6.94 -10.2,11.02 -2.72,4.08 -4.83,8.16 -6.33,12.25 -1.5,4.08 -2.52,7.89 -3.06,11.43 -0.54,3.54 -0.82,6.53 -0.82,8.98 0,9.25 4.49,13.61 13.47,13.06 3.81,-0.27 6.94,-0.95 9.39,-2.04 2.45,-1.09 5.99,-3.95 10.61,-8.57l32.65 -43.67c2.99,1.36 4.08,2.58 3.27,3.67 -0.82,1.09 -2.31,2.72 -4.49,4.9 -10.34,16.87 -19.87,30 -28.57,39.39 -8.71,9.39 -18.23,14.35 -28.57,14.9 -6.53,-0.27 -12.72,-1.77 -18.57,-4.49 -5.85,-2.72 -9.46,-7.48 -10.82,-14.29 -1.09,-4.08 -0.68,-8.23 1.23,-12.45 1.9,-4.22 4.69,-8.57 8.37,-13.06 3.67,-4.49 8.1,-9.32 13.26,-14.49 5.17,-5.17 10.48,-10.88 15.92,-17.14 4.35,-3.54 6.46,-7.14 6.33,-10.82 -0.14,-3.67 -1.7,-6.46 -4.69,-8.37 -2.99,-1.9 -6.87,-2.45 -11.63,-1.63 -4.76,0.82 -9.46,3.81 -14.08,8.98 -2.45,2.72 -4.56,5.17 -6.33,7.35 -1.77,2.18 -3.33,4.35 -4.69,6.53 -1.36,2.18 -2.72,4.42 -4.08,6.74 -1.36,2.31 -2.99,4.97 -4.9,7.96 -9.8,14.97 -16.19,22.45 -19.18,22.45 -1.09,0 -1.77,-0.54 -2.04,-1.63 0.27,-0.27 0.54,-0.75 0.82,-1.43 0.27,-0.68 0.68,-1.7 1.23,-3.06 3.26,-4.08 6.53,-8.78 9.79,-14.08 3.27,-5.31 6.8,-10.75 10.61,-16.33 3.81,-5.58 8.1,-11.02 12.86,-16.33 4.76,-5.31 10.27,-10 16.53,-14.08 10.07,-3.54 18.3,-5.17 24.7,-4.9 6.39,0.27 10.48,2.18 12.25,5.71 1.77,3.54 1.02,8.5 -2.25,14.9 -3.26,6.4 -9.25,13.95 -17.96,22.65z"/>
  <path id="_13" class="fil0" d="M1855.55 174.7c0,1.36 -0.82,3.26 -2.45,5.71 -11.97,19.32 -23.27,31.7 -33.88,37.14 -4.9,2.45 -9.8,3.67 -14.69,3.67 -16.6,0 -24.9,-11.7 -24.9,-35.1 0,-3.81 0.27,-7.89 0.82,-12.25 -18.23,32.38 -34.42,48.57 -48.57,48.57 -8.44,0 -12.65,-4.63 -12.65,-13.88 0,-14.15 6.8,-31.23 20.41,-51.23 13.61,-20 26.8,-32.18 39.59,-36.53 4.63,-1.9 9.12,-2.86 13.47,-2.86 9.8,0 16.87,3.4 21.22,10.2 0.82,1.36 1.23,2.31 1.23,2.86 0,0.27 -0.95,0.68 -2.86,1.23 -1.91,0.54 -3.27,1.5 -4.08,2.86 -6.53,10.61 -9.8,26.53 -9.8,47.76 0,19.59 4.22,29.39 12.65,29.39 5.99,0 14.49,-6.6 25.51,-19.8 11.02,-13.2 16.94,-19.8 17.76,-19.8 0.82,0 1.22,0.68 1.22,2.04zm-60 -42.86c-1.09,-0.27 -2.31,-0.41 -3.67,-0.41 -10.88,0 -22.18,6.94 -33.88,20.82 -16.6,20.14 -24.9,36.6 -24.9,49.39 0,5.71 1.91,8.57 5.71,8.57 5.99,0 13.74,-6.26 23.27,-18.78 13.33,-16.87 24.49,-36.73 33.47,-59.59z"/>
  <path id="_14" class="fil0" d="M2012.29 175.51c0,1.09 -0.27,1.9 -0.82,2.45 -6.8,9.52 -14.42,18.37 -22.86,26.53 -11.7,10.88 -21.5,16.33 -29.39,16.33 -12.79,0 -19.18,-14.15 -19.18,-42.45 0,-4.35 0.14,-9.25 0.41,-14.69 -9.8,8.71 -20.82,24.36 -33.06,46.94 -4.08,7.62 -8.57,11.43 -13.47,11.43 -1.63,0 -2.86,-0.54 -3.67,-1.63 -0.82,-2.99 -1.23,-6.8 -1.23,-11.43 0,-7.89 1.77,-22.31 5.31,-43.27 1.9,-10.61 2.86,-17.41 2.86,-20.41 0,-2.18 -0.41,-3.26 -1.23,-3.26 -4.63,4.08 -12.11,12.93 -22.45,26.53 -11.16,14.69 -23.13,31.97 -35.92,51.84 -1.63,2.45 -2.99,3.67 -4.08,3.67 -2.18,0 -3.26,-2.45 -3.26,-7.35 0,-1.36 0.14,-2.45 0.41,-3.27 6.26,-14.69 12.65,-35.38 19.18,-62.04 0.54,-3.81 1.63,-9.25 3.26,-16.33 0.54,-1.9 2.38,-3.81 5.51,-5.71 3.13,-1.91 5.78,-2.86 7.96,-2.86 1.9,0 2.86,0.82 2.86,2.45 0,2.72 -6.4,23.4 -19.18,62.04 9.8,-13.06 19.87,-26.53 30.2,-40.41 3.26,-4.35 8.16,-10.88 14.69,-19.59 4.08,-4.9 8.3,-7.35 12.65,-7.35 4.35,0 6.53,2.45 6.53,7.35 0,3.54 -0.95,10.54 -2.86,21.02 -1.9,10.48 -4.08,25.78 -6.53,45.92 7.62,-10.88 19.46,-26.8 35.51,-47.76 4.35,-5.17 8.71,-7.76 13.06,-7.76 4.08,0 6.12,2.58 6.12,7.76 0,4.35 -0.68,10.82 -2.04,19.39 -1.36,8.57 -2.04,15.03 -2.04,19.39 0,14.15 3.67,21.23 11.02,21.23 10.34,0 23.54,-11.43 39.59,-34.29 1.63,-2.72 2.99,-4.08 4.08,-4.08 1.36,0 2.04,1.22 2.04,3.67zm-41.23 -75.92c-34.29,-8.16 -59.46,-7.76 -75.51,1.22 -2.99,1.63 -5.44,4.22 -7.35,7.76 -0.82,1.91 -1.22,4.49 -1.22,7.76 0,3.27 -0.41,5.72 -1.23,7.35l-1.63 1.23c-2.72,1.9 -3.88,-0.07 -3.47,-5.92 0.41,-5.85 1.7,-10.82 3.88,-14.9 2.72,-6.26 7.35,-11.02 13.88,-14.29 11.97,-7.07 27.76,-9.8 47.35,-8.16 4.9,0 21.36,2.31 49.39,6.94 17.14,2.99 28.44,2.99 33.88,0 3.27,-1.9 5.58,-4.35 6.94,-7.35 1.63,-3.54 1.97,-6.8 1.02,-9.79 -0.95,-2.99 -0.88,-5.58 0.2,-7.76 0.54,-0.27 0.82,-0.41 0.82,-0.41 2.18,-1.36 3.2,1.36 3.06,8.16 -0.14,6.8 -1.02,11.84 -2.65,15.1 -4.08,7.89 -8.44,13.33 -13.06,16.33 -6.8,3.81 -17.55,4.49 -32.25,2.04 -1.63,-0.82 -4.9,-1.5 -9.8,-2.04 -2.18,0 -6.26,-1.09 -12.25,-3.26z"/>
  <path id="_15" class="fil0" d="M2030.66 154.29c-4.63,9.25 -8.84,18.78 -12.65,28.57 -3.81,9.8 -5.72,17.28 -5.72,22.45 0,9.52 4.49,14.29 13.47,14.29 5.71,0 12.18,-2.38 19.39,-7.14 7.21,-4.76 13.54,-10.27 18.98,-16.53 -7.07,0.54 -12.99,-0.68 -17.75,-3.67 -4.76,-2.99 -7.28,-8.84 -7.55,-17.55 -0.54,-4.9 0.41,-9.59 2.86,-14.08 2.45,-4.49 5.65,-8.3 9.59,-11.43 3.95,-3.13 8.3,-5.37 13.06,-6.73 4.76,-1.36 9.12,-1.43 13.06,-0.2 3.95,1.23 7.14,4.01 9.59,8.37 2.45,4.35 3.4,10.61 2.86,18.78 -0.27,3.81 -1.09,7.62 -2.45,11.43 6.26,-2.99 12.25,-6.6 17.96,-10.82 5.71,-4.22 10.61,-8.64 14.69,-13.26l5.31 1.22c-1.09,2.72 -3.06,5.65 -5.92,8.78 -2.86,3.13 -6.26,6.19 -10.2,9.18 -3.95,2.99 -8.23,5.85 -12.86,8.57 -4.63,2.72 -9.39,5.03 -14.29,6.94 -3.26,4.9 -7.21,9.32 -11.84,13.27 -4.63,3.95 -9.66,7.41 -15.1,10.41 -5.44,2.99 -11.09,5.44 -16.94,7.35 -5.85,1.9 -11.5,3.13 -16.94,3.67 -15.78,1.63 -23.67,-6.26 -23.67,-23.67 0,-7.35 1.36,-15.51 4.08,-24.49 2.72,-8.98 6.19,-18.03 10.41,-27.14 4.22,-9.12 8.78,-17.82 13.67,-26.12 4.9,-8.3 9.52,-15.31 13.88,-21.02 1.09,-1.36 2.59,-1.9 4.49,-1.63 1.91,0.27 3.81,1.02 5.71,2.24 1.91,1.23 3.47,2.72 4.69,4.49 1.22,1.77 1.84,3.33 1.84,4.69 0,1.63 -0.54,3.13 -1.63,4.49 -0.82,1.36 -2.38,3.74 -4.69,7.14 -2.31,3.4 -4.76,7.08 -7.35,11.02 -2.58,3.95 -5.03,7.69 -7.35,11.22 -2.31,3.54 -3.88,5.85 -4.69,6.94zm43.27 27.76c2.99,-5.99 4.29,-10.75 3.88,-14.29 -0.41,-3.54 -1.84,-6.19 -4.29,-7.96 -2.45,-1.77 -5.44,-2.52 -8.98,-2.24 -3.54,0.27 -6.8,1.29 -9.8,3.06 -2.99,1.77 -5.31,4.22 -6.94,7.35 -1.63,3.13 -1.63,6.87 0,11.22 1.36,4.35 4.15,7.07 8.37,8.16 4.22,1.09 9.19,0.95 14.9,-0.41 0.54,-0.82 1.02,-1.63 1.43,-2.45 0.41,-0.82 0.88,-1.63 1.43,-2.45z"/>
  <path id="_16" class="fil0" d="M2259.23 130.61c0,1.09 -1.23,2.04 -3.67,2.86 -2.45,0.82 -4.08,2.04 -4.9,3.67 -1.36,5.99 -2.86,12.93 -4.49,20.82 -3.26,13.88 -8.03,34.69 -14.28,62.45l1.63 0c14.42,-0.54 21.63,2.58 21.63,9.39 0,1.63 -0.54,2.45 -1.63,2.45 -0.27,0 -1.43,-0.68 -3.47,-2.04 -2.04,-1.36 -5.92,-2.04 -11.63,-2.04 -2.72,0 -5.44,0.14 -8.16,0.41 -10.07,40.82 -22.99,72.52 -38.78,95.1 -29.39,42.99 -60.68,64.49 -93.88,64.49 -13.06,0 -24.01,-3.81 -32.86,-11.43 -8.84,-7.62 -13.26,-17.82 -13.26,-30.61 0,-29.12 20.68,-57.01 62.04,-83.67 35.1,-22.59 69.12,-36.46 102.04,-41.63 1.91,-10.34 5.03,-25.99 9.39,-46.94 -18.23,32.38 -34.42,48.57 -48.57,48.57 -8.44,0 -12.65,-4.63 -12.65,-13.88 0,-13.88 6.8,-30.89 20.41,-51.02 13.6,-20.14 26.8,-32.38 39.59,-36.74 4.9,-1.9 9.39,-2.86 13.47,-2.86 3.81,0 8.44,1.29 13.88,3.88 5.44,2.59 8.16,5.51 8.16,8.78zm-19.18 1.23c-1.09,-0.27 -2.31,-0.41 -3.67,-0.41 -10.88,0 -22.18,6.94 -33.88,20.82 -16.6,20.14 -24.9,36.6 -24.9,49.39 0,5.71 1.9,8.57 5.71,8.57 5.99,0 13.74,-6.26 23.27,-18.78 13.33,-16.87 24.49,-36.73 33.47,-59.59zm-24.9 96.33c-17.96,2.99 -39.32,10.75 -64.08,23.27 -24.76,12.52 -43.81,25.04 -57.14,37.55 -20.41,19.59 -30.61,39.05 -30.61,58.37 0,10.61 3.33,19.12 10,25.51 6.67,6.4 15.31,9.59 25.92,9.59 16.87,0 33.47,-7.07 49.8,-21.23 13.06,-11.16 24.63,-25.44 34.69,-42.86 14.42,-24.49 24.9,-54.56 31.43,-90.21z"/>
  <path id="_17" class="fil0" d="M2422.1 171.84c0,1.9 -0.82,4.22 -2.45,6.94 -7.07,11.7 -18.78,23.4 -35.1,35.1 -17.42,13.06 -32.11,19.59 -44.08,19.59 -2.45,0 -6.12,-0.14 -11.02,-0.41 -4.63,0 -8.16,0 -10.61,0 -1.09,0 -5.17,-0.95 -12.25,-2.86 -8.44,21.77 -19.87,44.63 -34.29,68.57 -20.41,33.2 -37.01,49.8 -49.8,49.8 -6.8,0 -10.2,-5.03 -10.2,-15.1 0,-13.33 12.25,-38.1 36.74,-74.29 17.41,-23.95 34.97,-48.03 52.65,-72.25l0 -2.45c0,-9.8 -0.14,-18.37 -0.41,-25.72 -10.34,16.87 -16.87,25.31 -19.59,25.31 -1.63,0 -2.45,-0.95 -2.45,-2.86 0,-1.09 0.41,-2.18 1.22,-3.26 11.97,-16.87 17.96,-31.97 17.96,-45.31 0,-2.72 -0.75,-4.97 -2.25,-6.73 -1.5,-1.77 -2.24,-3.2 -2.24,-4.29 0,-1.09 4.22,-1.63 12.65,-1.63 9.25,0 13.88,9.25 13.88,27.76 0,2.72 -0.2,6.73 -0.61,12.04 -0.41,5.31 -0.61,9.18 -0.61,11.63 7.62,-13.88 16.06,-26.67 25.31,-38.37 14.15,-17.42 25.99,-26.12 35.51,-26.12 8.71,0 13.06,6.39 13.06,19.18 0,16.06 -5.65,34.69 -16.94,55.92 -11.29,21.22 -23.61,36.05 -36.94,44.49 23.67,-0.54 49.93,-18.91 78.78,-55.1 1.09,-1.36 1.91,-2.04 2.45,-2.04 1.09,0 1.63,0.82 1.63,2.45zm-46.94 -37.14c0,-8.44 -2.31,-12.65 -6.94,-12.65 -1.36,0 -2.72,0.27 -4.08,0.82 -9.8,4.35 -20.14,17.01 -31.02,37.96 -8.16,15.51 -14.69,31.43 -19.59,47.76 2.72,4.08 7.48,9.25 14.28,15.51 11.97,-5.17 22.99,-18.09 33.06,-38.78 9.53,-19.59 14.29,-36.46 14.29,-50.61zm-77.14 74.29c-0.27,-0.27 -0.54,-0.41 -0.82,-0.41 -1.09,0 -2.58,1.36 -4.49,4.08 -6.53,9.8 -16.33,24.22 -29.39,43.27 -5.71,8.16 -12.92,20.55 -21.63,37.14 -10.07,19.32 -15.1,31.84 -15.1,37.55 0,2.45 0.82,3.67 2.45,3.67 11.97,0 28.44,-19.59 49.39,-58.78 5.44,-10.34 11.29,-28.16 17.55,-53.47 -0.27,-1.36 -0.41,-2.72 -0.41,-4.08 0,-3.26 0.82,-6.26 2.45,-8.98z"/>
  <path id="_18" class="fil0" d="M2503.32 229.8c0,1.63 -0.41,2.45 -1.22,2.45 -0.27,0 -1.5,-0.68 -3.67,-2.04 -2.18,-1.36 -6.12,-2.04 -11.84,-2.04 -2.72,0 -5.31,0.14 -7.76,0.41 -10.34,40.82 -23.27,72.52 -38.78,95.1 -29.39,42.99 -60.82,64.49 -94.29,64.49 -13.06,0 -24.01,-3.81 -32.86,-11.43 -8.84,-7.62 -13.26,-17.82 -13.26,-30.61 0,-29.12 20.82,-57.01 62.45,-83.67 34.83,-22.59 68.71,-36.46 101.63,-41.63 3.81,-16.87 8.16,-41.91 13.06,-75.1 -3.26,7.89 -9.12,18.3 -17.55,31.23 -8.44,12.93 -15.65,22.52 -21.63,28.78 -7.07,7.35 -13.74,11.02 -20,11.02 -8.71,0 -13.06,-7.62 -13.06,-22.86 0,-8.71 2.72,-19.18 8.16,-31.43 6.26,-14.15 13.2,-21.23 20.82,-21.23 3.81,0 5.71,1.09 5.71,3.27 0,0.27 -3.4,6.46 -10.2,18.57 -6.8,12.11 -10.2,21.43 -10.2,27.96 0,8.71 2.45,13.06 7.35,13.06 8.44,0 26.8,-27.35 55.1,-82.04 0.54,-4.08 3.95,-6.12 10.2,-6.12 4.9,0 7.35,1.09 7.35,3.27 0,3.54 -1.77,15.1 -5.31,34.69 -4.08,23.13 -8.57,45.31 -13.47,66.53l1.63 0c14.42,-0.54 21.63,2.58 21.63,9.39zm-40 -1.63c-17.96,2.99 -39.32,10.75 -64.08,23.27 -24.76,12.52 -43.67,25.04 -56.73,37.55 -20.68,19.59 -31.02,39.05 -31.02,58.37 0,10.61 3.33,19.12 10,25.51 6.67,6.4 15.44,9.59 26.33,9.59 16.6,0 33.06,-7.07 49.39,-21.23 13.06,-11.16 24.63,-25.44 34.69,-42.86 14.42,-24.49 24.9,-54.56 31.43,-90.21z"/>
  <path id="_19" class="fil0" d="M2587.81 162.45c-4.08,3.26 -7.48,6.94 -10.2,11.02 -2.72,4.08 -4.83,8.16 -6.33,12.25 -1.5,4.08 -2.52,7.89 -3.06,11.43 -0.54,3.54 -0.82,6.53 -0.82,8.98 0,9.25 4.49,13.61 13.47,13.06 3.81,-0.27 6.94,-0.95 9.39,-2.04 2.45,-1.09 5.99,-3.95 10.61,-8.57l32.65 -43.67c2.99,1.36 4.08,2.58 3.27,3.67 -0.82,1.09 -2.31,2.72 -4.49,4.9 -10.34,16.87 -19.87,30 -28.57,39.39 -8.71,9.39 -18.23,14.35 -28.57,14.9 -6.53,-0.27 -12.72,-1.77 -18.57,-4.49 -5.85,-2.72 -9.46,-7.48 -10.82,-14.29 -1.09,-4.08 -0.68,-8.23 1.23,-12.45 1.9,-4.22 4.69,-8.57 8.37,-13.06 3.67,-4.49 8.1,-9.32 13.26,-14.49 5.17,-5.17 10.48,-10.88 15.92,-17.14 4.35,-3.54 6.46,-7.14 6.33,-10.82 -0.14,-3.67 -1.7,-6.46 -4.69,-8.37 -2.99,-1.9 -6.87,-2.45 -11.63,-1.63 -4.76,0.82 -9.46,3.81 -14.08,8.98 -2.45,2.72 -4.56,5.17 -6.33,7.35 -1.77,2.18 -3.33,4.35 -4.69,6.53 -1.36,2.18 -2.72,4.42 -4.08,6.74 -1.36,2.31 -2.99,4.97 -4.9,7.96 -9.8,14.97 -16.19,22.45 -19.18,22.45 -1.09,0 -1.77,-0.54 -2.04,-1.63 0.27,-0.27 0.54,-0.75 0.82,-1.43 0.27,-0.68 0.68,-1.7 1.23,-3.06 3.26,-4.08 6.53,-8.78 9.79,-14.08 3.27,-5.31 6.8,-10.75 10.61,-16.33 3.81,-5.58 8.1,-11.02 12.86,-16.33 4.76,-5.31 10.27,-10 16.53,-14.08 10.07,-3.54 18.3,-5.17 24.7,-4.9 6.39,0.27 10.48,2.18 12.25,5.71 1.77,3.54 1.02,8.5 -2.25,14.9 -3.26,6.4 -9.25,13.95 -17.96,22.65z"/>
  <path id="_20" class="fil0" d="M2758.84 171.84c0,1.9 -0.82,4.22 -2.45,6.94 -7.62,12.52 -16.46,23.4 -26.53,32.65 -13.06,11.97 -25.31,17.96 -36.74,17.96 -15.24,0 -22.86,-9.53 -22.86,-28.57 0,-4.35 2.04,-12.93 6.12,-25.71 -9.53,13.88 -15.65,22.45 -18.37,25.71 -8.98,10.61 -17.01,15.92 -24.08,15.92 -8.98,0 -13.47,-7.62 -13.47,-22.86 0,-8.71 2.86,-19.18 8.57,-31.43 6.26,-14.15 13.06,-21.23 20.41,-21.23 4.08,0 6.12,1.09 6.12,3.27 0,0.27 -3.47,6.46 -10.41,18.57 -6.94,12.11 -10.41,21.43 -10.41,27.96 0,8.71 2.58,13.06 7.76,13.06 8.71,0 24.35,-19.86 46.94,-59.59 1.9,-3.81 4.76,-9.12 8.57,-15.92 1.91,-2.18 3.95,-3.26 6.12,-3.26 2.45,0 4.69,1.02 6.73,3.06 2.04,2.04 3.06,4.42 3.06,7.14 0,-0.27 -4.83,8.84 -14.49,27.35 -9.66,18.5 -14.49,32.79 -14.49,42.86 0,9.52 4.49,14.29 13.47,14.29 7.62,0 16.33,-4.35 26.12,-13.06 6.53,-5.72 13.88,-13.88 22.04,-24.49 6.8,-8.71 10.48,-13.06 11.02,-13.06 0.82,0 1.23,0.82 1.23,2.45z"/>
  <path id="_21" class="fil0" d="M2829.04 148.57c-5.44,11.43 -11.29,22.79 -17.55,34.08 -6.26,11.29 -12.11,19.66 -17.55,25.1 -7.62,7.35 -14.83,12.11 -21.63,14.29 -6.8,2.18 -12.52,2.11 -17.14,-0.2 -4.63,-2.31 -7.96,-6.8 -10,-13.47 -2.04,-6.67 -2.11,-15.31 -0.2,-25.92 0.82,-5.17 2.31,-8.71 4.49,-10.61 2.18,-1.91 4.49,-2.86 6.94,-2.86 2.45,0 4.63,0.75 6.53,2.25 1.9,1.5 3.13,3.2 3.67,5.1 -4.35,11.16 -6.46,20.14 -6.33,26.94 0.14,6.8 2.04,10.88 5.71,12.25 3.67,1.36 8.78,-0.2 15.31,-4.69 6.53,-4.49 13.88,-12.45 22.04,-23.88 2.99,-4.08 6.46,-9.8 10.41,-17.14 3.95,-7.35 7.96,-17.96 12.04,-31.84 10.07,-5.17 17.28,-7.69 21.63,-7.55 4.35,0.14 6.74,1.9 7.14,5.31 0.41,3.4 -0.61,8.03 -3.06,13.88 -2.45,5.85 -5.17,11.97 -8.16,18.37 -2.99,6.39 -5.78,12.52 -8.37,18.37 -2.58,5.85 -3.88,10.54 -3.88,14.08 0.82,-1.09 2.31,-3.06 4.49,-5.92 2.18,-2.86 4.9,-6.26 8.16,-10.2 3.26,-3.95 6.87,-8.23 10.82,-12.86 3.95,-4.63 8.1,-9.25 12.45,-13.88 5.44,-6.26 13.88,-15.51 25.31,-27.76 1.09,-1.09 2.31,-2.04 3.67,-2.86 1.36,-0.82 2.58,-1.23 3.67,-1.23 6.26,0 9.39,3.13 9.39,9.39 0,1.36 -0.54,2.99 -1.63,4.9 -15.24,25.03 -22.86,44.9 -22.86,59.59 0,10.34 4.9,15.51 14.69,15.51 7.62,0 15.78,-3.95 24.49,-11.84 5.99,-5.17 12.38,-12.52 19.18,-22.04 5.71,-7.89 8.98,-11.84 9.8,-11.84 0.82,0 1.22,0.82 1.22,2.45 0,1.9 -0.82,4.22 -2.45,6.94 -18.5,30.75 -37.69,46.12 -57.55,46.12 -15.51,0 -23.27,-9.8 -23.27,-29.39 0,-8.71 0.88,-16.67 2.65,-23.88 1.77,-7.21 4.56,-14.22 8.37,-21.02 -5.44,5.17 -10.41,10.34 -14.9,15.51 -4.49,5.17 -9.59,11.29 -15.31,18.37 -2.45,3.26 -4.9,6.67 -7.35,10.2 -2.45,3.54 -4.9,6.67 -7.35,9.39 -2.45,2.72 -4.9,4.76 -7.35,6.12 -2.45,1.36 -5.03,1.22 -7.76,-0.41 -2.99,-1.91 -3.88,-5.99 -2.65,-12.25 1.22,-6.26 3.13,-12.93 5.71,-20 2.58,-7.07 5.1,-13.47 7.55,-19.18 2.45,-5.71 3.27,-8.98 2.45,-9.8 0,-1.36 -0.95,-2.04 -2.86,-2.04 -1.9,0 -2.86,0.68 -2.86,2.04z"/>
  <path id="_22" class="fil0" d="M3075.58 171.02c0,1.91 -3.54,2.99 -10.61,3.27 -4.9,0.27 -12.25,0.68 -22.04,1.22 -8.16,1.09 -20.95,2.31 -38.37,3.67l-2.04 0c-5.44,0.27 -8.16,-0.68 -8.16,-2.86 0,-3.81 4.76,-7.21 14.29,-10.2 4.35,-1.63 10.48,-2.45 18.37,-2.45 9.52,0 22.18,1.09 37.96,3.27 7.07,1.09 10.61,2.45 10.61,4.08z"/>
  <path id="_23" class="fil0" d="M547.15 485.21c-5.44,11.43 -11.29,22.79 -17.55,34.08 -6.26,11.29 -12.11,19.66 -17.55,25.1 -7.62,7.35 -14.83,12.11 -21.63,14.29 -6.8,2.18 -12.52,2.11 -17.14,-0.2 -4.63,-2.31 -7.96,-6.8 -10,-13.47 -2.04,-6.67 -2.11,-15.31 -0.2,-25.92 0.82,-5.17 2.31,-8.71 4.49,-10.61 2.18,-1.91 4.49,-2.86 6.94,-2.86 2.45,0 4.63,0.75 6.53,2.25 1.9,1.5 3.13,3.2 3.67,5.1 -4.35,11.16 -6.46,20.14 -6.33,26.94 0.14,6.8 2.04,10.88 5.71,12.25 3.67,1.36 8.78,-0.2 15.31,-4.69 6.53,-4.49 13.88,-12.45 22.04,-23.88 2.99,-4.08 6.46,-9.8 10.41,-17.14 3.95,-7.35 7.96,-17.96 12.04,-31.84 10.07,-5.17 17.28,-7.69 21.63,-7.55 4.35,0.14 6.74,1.9 7.14,5.31 0.41,3.4 -0.61,8.03 -3.06,13.88 -2.45,5.85 -5.17,11.97 -8.16,18.37 -2.99,6.39 -5.78,12.52 -8.37,18.37 -2.58,5.85 -3.88,10.54 -3.88,14.08 0.82,-1.09 2.31,-3.06 4.49,-5.92 2.18,-2.86 4.9,-6.26 8.16,-10.2 3.26,-3.95 6.87,-8.23 10.82,-12.86 3.95,-4.63 8.1,-9.25 12.45,-13.88 5.44,-6.26 13.88,-15.51 25.31,-27.76 1.09,-1.09 2.31,-2.04 3.67,-2.86 1.36,-0.82 2.58,-1.23 3.67,-1.23 6.26,0 9.39,3.13 9.39,9.39 0,1.36 -0.54,2.99 -1.63,4.9 -15.24,25.03 -22.86,44.9 -22.86,59.59 0,10.34 4.9,15.51 14.69,15.51 7.62,0 15.78,-3.95 24.49,-11.84 5.99,-5.17 12.38,-12.52 19.18,-22.04 5.71,-7.89 8.98,-11.84 9.8,-11.84 0.82,0 1.22,0.82 1.22,2.45 0,1.9 -0.82,4.22 -2.45,6.94 -18.5,30.75 -37.69,46.12 -57.55,46.12 -15.51,0 -23.27,-9.8 -23.27,-29.39 0,-8.71 0.88,-16.67 2.65,-23.88 1.77,-7.21 4.56,-14.22 8.37,-21.02 -5.44,5.17 -10.41,10.34 -14.9,15.51 -4.49,5.17 -9.59,11.29 -15.31,18.37 -2.45,3.26 -4.9,6.67 -7.35,10.2 -2.45,3.54 -4.9,6.67 -7.35,9.39 -2.45,2.72 -4.9,4.76 -7.35,6.12 -2.45,1.36 -5.03,1.22 -7.76,-0.41 -2.99,-1.91 -3.88,-5.99 -2.65,-12.25 1.22,-6.26 3.13,-12.93 5.71,-20 2.58,-7.07 5.1,-13.47 7.55,-19.18 2.45,-5.71 3.27,-8.98 2.45,-9.8 0,-1.36 -0.95,-2.04 -2.86,-2.04 -1.9,0 -2.86,0.68 -2.86,2.04z"/>
  <path id="_24" class="fil0" d="M763.48 512.96c0,0.54 -0.27,1.09 -0.82,1.63 -3.81,6.53 -9.59,12.11 -17.35,16.74 -7.76,4.63 -15.31,6.94 -22.65,6.94 -5.44,0 -10.48,-1.36 -15.1,-4.08 -12.52,19.86 -25.44,29.8 -38.78,29.8 -9.53,0 -14.29,-5.58 -14.29,-16.74 0,-15.51 6.8,-33.74 20.41,-54.7 -0.54,-2.99 -0.82,-5.99 -0.82,-8.98 0,-9.8 3.26,-19.32 9.8,-28.57 6.53,-9.25 14.56,-13.88 24.08,-13.88 6.26,0 11.29,3.67 15.1,11.02 2.99,6.26 4.49,12.79 4.49,19.59 0,14.69 -5.71,33.33 -17.14,55.92 4.08,2.45 8.71,3.67 13.88,3.67 8.98,0 17.41,-3.54 25.31,-10.61 7.89,-7.07 11.56,-10.61 11.02,-10.61 1.91,0 2.86,0.95 2.86,2.86zm-48.16 -31.02c0,-5.99 -0.95,-12.11 -2.86,-18.37 -2.72,-8.71 -6.26,-13.06 -10.61,-13.06 -6.26,0 -11.16,3.81 -14.69,11.43 -2.72,5.99 -3.95,12.52 -3.67,19.59 4.35,-5.17 8.71,-7.76 13.06,-7.76 4.08,0 7.07,1.36 8.98,4.08 0,0.27 0,0.95 0,2.04 0.27,0.82 0.41,1.5 0.41,2.04 0,0.82 -1.36,1.22 -4.08,1.22 -4.9,0 -10.07,5.17 -15.51,15.51 3.54,10.34 9.8,18.78 18.78,25.31 6.8,-17.14 10.2,-31.16 10.2,-42.04zm-13.47 47.76c-8.98,-5.99 -15.78,-12.93 -20.41,-20.82 -8.16,17.14 -12.25,29.52 -12.25,37.14 0,5.44 2.04,8.16 6.12,8.16 3.81,0 8.84,-3.26 15.1,-9.8 5.44,-5.17 9.25,-10.07 11.43,-14.69z"/>
  <path id="_25" class="fil0" d="M859.4 492.55c5.99,0.54 8.98,3.67 8.98,9.39 0,0.54 -0.54,2.18 -1.63,4.9 -2.99,6.26 -5.78,11.7 -8.37,16.33 -2.59,4.63 -3.88,9.53 -3.88,14.69 0,10.34 4.9,15.51 14.69,15.51 7.62,0 15.78,-3.95 24.49,-11.84 5.99,-5.17 12.38,-12.52 19.18,-22.04 5.71,-7.89 8.98,-11.84 9.8,-11.84 0.82,0 1.22,0.82 1.22,2.45 0,1.91 -0.82,4.22 -2.45,6.94 -18.5,30.75 -37.69,46.12 -57.55,46.12 -15.51,0 -23.27,-9.79 -23.27,-29.39 0,-1.91 0,-3.74 0,-5.51 0,-1.77 0.14,-3.47 0.41,-5.1 1.09,-3.81 2.58,-7.89 4.49,-12.24 -1.63,0.54 -3.26,0.95 -4.9,1.22 -1.63,0.27 -3.13,0.41 -4.49,0.41 -4.63,6.26 -9.25,12.18 -13.88,17.76 -4.63,5.58 -7.62,9.05 -8.98,10.41 -7.62,7.35 -15.1,12.31 -22.45,14.9 -7.35,2.58 -13.74,2.92 -19.18,1.02 -5.44,-1.91 -9.46,-5.99 -12.04,-12.25 -2.58,-6.26 -2.92,-14.69 -1.02,-25.31 0.82,-5.17 2.31,-8.71 4.49,-10.61 2.18,-1.91 4.49,-2.86 6.94,-2.86 2.45,0 4.63,0.75 6.53,2.25 1.91,1.5 3.13,3.2 3.67,5.1 -4.35,11.16 -6.46,20.14 -6.33,26.94 0.14,6.8 2.04,10.88 5.71,12.25 3.67,1.36 8.78,-0.2 15.31,-4.69 6.53,-4.49 13.88,-12.45 22.04,-23.88 1.63,-2.18 4.08,-5.72 7.35,-10.61 -8.16,-0.27 -15.44,-2.18 -21.84,-5.71 -6.39,-3.54 -10.68,-8.1 -12.86,-13.67 -2.18,-5.58 -1.77,-11.56 1.22,-17.96 2.99,-6.39 9.66,-12.59 20,-18.57 7.35,-4.08 13.61,-6.19 18.78,-6.33 5.17,-0.14 9.32,1.09 12.45,3.67 3.13,2.58 5.31,6.12 6.53,10.61 1.22,4.49 1.7,9.32 1.43,14.49 -0.27,5.17 -1.23,10.14 -2.86,14.9 -1.63,4.76 -3.95,8.78 -6.94,12.04 1.36,0 2.72,0 4.08,0 1.36,0 2.72,-0.27 4.08,-0.82 3.81,-6.8 6.53,-10.68 8.16,-11.63 1.63,-0.95 2.59,-1.43 2.86,-1.43zm-20.41 -24.08c-11.43,-3.81 -19.66,-4.42 -24.69,-1.84 -5.03,2.59 -7.69,6.4 -7.96,11.43 -0.27,5.03 1.7,10.34 5.92,15.92 4.22,5.58 10,9.32 17.35,11.22 2.45,-3.81 4.69,-7.76 6.73,-11.84 2.04,-4.08 3.54,-7.82 4.49,-11.22 0.95,-3.4 1.36,-6.4 1.23,-8.98 -0.14,-2.58 -1.16,-4.15 -3.06,-4.69z"/>
  <path id="_26" class="fil0" d="M1062.68 467.25c0,1.09 -1.23,2.04 -3.67,2.86 -2.45,0.82 -4.08,2.04 -4.9,3.67 -1.36,5.99 -2.86,12.93 -4.49,20.82 -3.26,13.88 -8.03,34.69 -14.28,62.45l1.63 0c14.42,-0.54 21.63,2.58 21.63,9.39 0,1.63 -0.54,2.45 -1.63,2.45 -0.27,0 -1.43,-0.68 -3.47,-2.04 -2.04,-1.36 -5.92,-2.04 -11.63,-2.04 -2.72,0 -5.44,0.14 -8.16,0.41 -10.07,40.82 -22.99,72.52 -38.78,95.1 -29.39,42.99 -60.68,64.49 -93.88,64.49 -13.06,0 -24.01,-3.81 -32.86,-11.43 -8.84,-7.62 -13.26,-17.82 -13.26,-30.61 0,-29.12 20.68,-57.01 62.04,-83.67 35.1,-22.59 69.12,-36.46 102.04,-41.63 1.91,-10.34 5.03,-25.99 9.39,-46.94 -18.23,32.38 -34.42,48.57 -48.57,48.57 -8.44,0 -12.65,-4.63 -12.65,-13.88 0,-13.88 6.8,-30.89 20.41,-51.02 13.6,-20.14 26.8,-32.38 39.59,-36.74 4.9,-1.9 9.39,-2.86 13.47,-2.86 3.81,0 8.44,1.29 13.88,3.88 5.44,2.59 8.16,5.51 8.16,8.78zm-19.18 1.23c-1.09,-0.27 -2.31,-0.41 -3.67,-0.41 -10.88,0 -22.18,6.94 -33.88,20.82 -16.6,20.14 -24.9,36.6 -24.9,49.39 0,5.71 1.9,8.57 5.71,8.57 5.99,0 13.74,-6.26 23.27,-18.78 13.33,-16.87 24.49,-36.73 33.47,-59.59zm-24.9 96.33c-17.96,2.99 -39.32,10.75 -64.08,23.27 -24.76,12.52 -43.81,25.04 -57.14,37.55 -20.41,19.59 -30.61,39.05 -30.61,58.37 0,10.61 3.33,19.12 10,25.51 6.67,6.4 15.31,9.59 25.92,9.59 16.87,0 33.47,-7.07 49.8,-21.23 13.06,-11.16 24.63,-25.44 34.69,-42.86 14.42,-24.49 24.9,-54.56 31.43,-90.21z"/>
  <path id="_27" class="fil0" d="M1126.76 444.39c-4.63,7.35 -9.32,16.26 -14.08,26.74 -4.76,10.48 -8.5,20.48 -11.22,30 6.8,-12.25 15.1,-23.95 24.9,-35.1 13.06,-14.97 24.63,-22.45 34.69,-22.45 8.16,0 12.25,5.85 12.25,17.55 0,16.87 -5.31,36.05 -15.92,57.55 -7.07,14.69 -16.33,27.48 -27.76,38.37 -13.61,12.79 -27.48,19.18 -41.63,19.18 -10.88,0 -16.33,-2.04 -16.33,-6.12 0,-1.63 0.82,-2.45 2.45,-2.45 0.82,0 2.79,0.48 5.92,1.43 3.13,0.95 5.78,1.43 7.96,1.43 12.25,0 24.35,-6.94 36.33,-20.82 8.98,-10.61 16.33,-22.99 22.04,-37.14 5.17,-12.25 7.76,-25.71 7.76,-40.41 0,-8.98 -2.04,-13.47 -6.12,-13.47 -8.98,0 -20.95,12.38 -35.92,37.14 -14.15,23.13 -21.23,40.41 -21.23,51.84 0,2.99 1.02,5.31 3.06,6.94 2.04,1.63 3.06,2.99 3.06,4.08 0,1.09 -0.68,1.63 -2.04,1.63 -10.07,0 -15.1,-7.35 -15.1,-22.04 0,-10.34 2.52,-23.74 7.55,-40.21 5.04,-16.46 12.72,-35.31 23.06,-56.53 8.71,-17.14 23.81,-42.86 45.31,-77.14 33.2,-53.06 60.27,-79.59 81.23,-79.59 12.25,0 18.37,5.58 18.37,16.74 0,19.59 -17.14,46.94 -51.43,82.04 -22.04,22.31 -47.76,42.59 -77.14,60.82zm120.82 -135.51c0,-5.71 -2.31,-8.71 -6.94,-8.98 -7.07,0 -18.1,5.99 -33.06,17.96 -26.39,20.95 -49.12,53.06 -68.16,96.33 -2.99,7.35 -5.17,13.06 -6.53,17.14 19.59,-11.43 42.18,-29.8 67.76,-55.1 30.75,-29.66 46.4,-52.11 46.94,-67.35z"/>
  <path id="_28" class="fil0" d="M1311.25 508.47c0,1.9 -0.82,4.22 -2.45,6.94 -7.62,12.52 -16.46,23.4 -26.53,32.65 -13.06,11.97 -25.31,17.96 -36.74,17.96 -15.24,0 -22.86,-9.53 -22.86,-28.57 0,-4.35 2.04,-12.93 6.12,-25.71 -9.53,13.88 -15.65,22.45 -18.37,25.71 -8.98,10.61 -17.01,15.92 -24.08,15.92 -8.98,0 -13.47,-7.62 -13.47,-22.86 0,-8.71 2.86,-19.18 8.57,-31.43 6.26,-14.15 13.06,-21.23 20.41,-21.23 4.08,0 6.12,1.09 6.12,3.27 0,0.27 -3.47,6.46 -10.41,18.57 -6.94,12.11 -10.41,21.43 -10.41,27.96 0,8.71 2.58,13.06 7.76,13.06 8.71,0 24.35,-19.86 46.94,-59.59 1.9,-3.81 4.76,-9.12 8.57,-15.92 1.91,-2.18 3.95,-3.26 6.12,-3.26 2.45,0 4.69,1.02 6.73,3.06 2.04,2.04 3.06,4.42 3.06,7.14 0,-0.27 -4.83,8.84 -14.49,27.35 -9.66,18.5 -14.49,32.79 -14.49,42.86 0,9.52 4.49,14.29 13.47,14.29 7.62,0 16.33,-4.35 26.12,-13.06 6.53,-5.72 13.88,-13.88 22.04,-24.49 6.8,-8.71 10.48,-13.06 11.02,-13.06 0.82,0 1.23,0.82 1.23,2.45z"/>
  <path id="_29" class="fil0" d="M1300.23 508.06c-2.99,3.27 -5.31,4.9 -6.94,4.9 -1.09,0 -1.63,-0.41 -1.63,-1.22 0,-0.82 0.82,-2.31 2.45,-4.49 2.99,-5.71 6.19,-11.29 9.59,-16.74 3.4,-5.44 7.21,-10.2 11.43,-14.28 4.22,-4.08 8.84,-7.41 13.88,-10 5.03,-2.58 10.54,-3.88 16.53,-3.88 20.14,0 30.2,10.75 30.2,32.25 0,5.17 -1.09,10.48 -3.26,15.92l1.63 -1.63c16.87,-11.7 27.76,-23.81 32.65,-36.33 0.82,-2.72 0.82,-5.31 0,-7.76 -0.27,-1.09 -0.54,-2.04 -0.82,-2.86 -0.27,-0.82 -0.14,-1.43 0.41,-1.84 0.54,-0.41 1.63,-0.41 3.26,0 1.63,0.41 4.22,1.43 7.76,3.06 7.35,2.99 8.3,12.92 2.86,29.8 -0.27,1.36 -0.82,2.99 -1.63,4.9 -0.82,1.91 -1.63,3.95 -2.45,6.12 -0.82,2.18 -1.63,4.22 -2.45,6.12 -0.82,1.91 -1.36,3.4 -1.63,4.49 -1.63,4.35 -2.92,7.55 -3.88,9.59 -0.95,2.04 -1.97,4.83 -3.06,8.37 10.34,-8.16 17.55,-13.33 21.63,-15.51 2.99,-10.07 9.8,-20.95 20.41,-32.65 15.24,-16.06 29.25,-24.08 42.04,-24.08 8.71,0 13.06,3.4 13.06,10.2 0,2.72 -2.04,7.48 -6.12,14.29 -3.81,6.53 -6.94,9.8 -9.39,9.8 -1.09,0 -1.63,-0.68 -1.63,-2.04 0,-1.09 0.48,-2.86 1.43,-5.31 0.95,-2.45 1.43,-4.35 1.43,-5.71 0,-5.71 -3.54,-8.57 -10.61,-8.57 -9.79,0 -18.64,6.4 -26.53,19.18 -7.35,11.97 -11.02,22.99 -11.02,33.06 0,16.87 7.35,25.31 22.04,25.31 18.5,0 37.82,-12.65 57.96,-37.96 2.72,-3.26 5.04,-4.9 6.94,-4.9 1.09,0 1.63,0.41 1.63,1.23 0,1.09 -0.82,2.58 -2.45,4.49 -9.25,13.6 -22.45,26.26 -39.59,37.96 -10.07,6.26 -20.41,9.39 -31.02,9.39 -20.14,0 -30.2,-10.75 -30.2,-32.24 0,-1.09 0,-2.18 0,-3.27 -14.42,10.61 -23.81,21.63 -28.17,33.06 -0.54,1.36 -0.14,2.59 1.23,3.67 1.36,1.09 2.31,2.31 2.86,3.67 0.27,1.09 0.54,2.04 0.82,2.86 0.27,0.82 0.07,1.43 -0.61,1.84 -0.68,0.41 -1.84,0.41 -3.47,0 -1.63,-0.41 -4.08,-1.43 -7.35,-3.06 -7.35,-2.72 -8.3,-12.65 -2.86,-29.8 0.54,-2.45 1.56,-5.37 3.06,-8.78 1.5,-3.4 2.52,-6.19 3.06,-8.37 1.63,-4.35 2.92,-8.3 3.88,-11.84 0.95,-3.54 1.84,-7.08 2.65,-10.61 -15.24,12.25 -24.22,17.96 -26.94,17.14 -1.09,0 -1.77,-0.54 -2.04,-1.63 -3.54,8.16 -9.39,16.6 -17.55,25.31 -15.24,16.05 -29.25,24.08 -42.04,24.08 -8.71,0 -13.06,-3.4 -13.06,-10.2 0,-2.45 2.04,-7.21 6.12,-14.28 3.54,-6.53 6.67,-9.8 9.39,-9.8 1.09,0 1.63,0.68 1.63,2.04 0,1.09 -0.48,2.86 -1.43,5.31 -0.95,2.45 -1.43,4.35 -1.43,5.71 0,5.71 3.54,8.57 10.61,8.57 9.8,0 18.64,-6.39 26.53,-19.18 7.35,-11.7 11.02,-22.72 11.02,-33.06 0,-16.87 -7.35,-25.31 -22.04,-25.31 -4.63,0 -8.64,0.82 -12.04,2.45 -3.4,1.63 -6.53,4.01 -9.39,7.14 -2.86,3.13 -5.58,6.8 -8.16,11.02 -2.59,4.22 -5.37,8.91 -8.37,14.08l-0.82 0.82z"/>
  <path id="_30" class="fil0" d="M1612.08 566.43c0,1.63 -0.41,2.45 -1.22,2.45 -0.27,0 -1.5,-0.68 -3.67,-2.04 -2.18,-1.36 -6.12,-2.04 -11.84,-2.04 -2.72,0 -5.31,0.14 -7.76,0.41 -10.34,40.82 -23.27,72.52 -38.78,95.1 -29.39,42.99 -60.82,64.49 -94.29,64.49 -13.06,0 -24.01,-3.81 -32.86,-11.43 -8.84,-7.62 -13.26,-17.82 -13.26,-30.61 0,-29.12 20.82,-57.01 62.45,-83.67 34.83,-22.59 68.71,-36.46 101.63,-41.63 3.81,-16.87 8.16,-41.91 13.06,-75.1 -3.26,7.89 -9.12,18.3 -17.55,31.23 -8.44,12.93 -15.65,22.52 -21.63,28.78 -7.07,7.35 -13.74,11.02 -20,11.02 -8.71,0 -13.06,-7.62 -13.06,-22.86 0,-8.71 2.72,-19.18 8.16,-31.43 6.26,-14.15 13.2,-21.23 20.82,-21.23 3.81,0 5.71,1.09 5.71,3.27 0,0.27 -3.4,6.46 -10.2,18.57 -6.8,12.11 -10.2,21.43 -10.2,27.96 0,8.71 2.45,13.06 7.35,13.06 8.44,0 26.8,-27.35 55.1,-82.04 0.54,-4.08 3.95,-6.12 10.2,-6.12 4.9,0 7.35,1.09 7.35,3.27 0,3.54 -1.77,15.1 -5.31,34.69 -4.08,23.13 -8.57,45.31 -13.47,66.53l1.63 0c14.42,-0.54 21.63,2.58 21.63,9.39zm-40 -1.63c-17.96,2.99 -39.32,10.75 -64.08,23.27 -24.76,12.52 -43.67,25.04 -56.73,37.55 -20.68,19.59 -31.02,39.05 -31.02,58.37 0,10.61 3.33,19.12 10,25.51 6.67,6.4 15.44,9.59 26.33,9.59 16.6,0 33.06,-7.07 49.39,-21.23 13.06,-11.16 24.63,-25.44 34.69,-42.86 14.42,-24.49 24.9,-54.56 31.43,-90.21z"/>
  <path id="_31" class="fil0" d="M1772.08 542.35c-5.44,5.44 -10.48,9.12 -15.1,11.02 -4.63,1.9 -8.64,2.52 -12.04,1.84 -3.4,-0.68 -6.12,-2.59 -8.16,-5.72 -2.04,-3.13 -3.06,-7.14 -3.06,-12.04 0,-2.18 0.68,-5.51 2.04,-10 1.36,-4.49 3.13,-9.86 5.31,-16.12 -4.63,7.07 -8.71,12.79 -12.25,17.14 -3.54,4.35 -5.99,7.35 -7.35,8.98 -8.98,10.61 -17.01,15.92 -24.08,15.92 -8.98,0 -13.47,-7.62 -13.47,-22.86 0,-3.81 0.41,-7.76 1.23,-11.84 -3.27,4.9 -5.99,8.91 -8.16,12.04 -2.18,3.13 -3.95,5.37 -5.31,6.73 -8.98,10.61 -17.01,15.92 -24.08,15.92 -8.98,0 -13.47,-7.62 -13.47,-22.86 0,-8.71 2.86,-19.18 8.57,-31.43 5.99,-14.15 12.79,-21.23 20.41,-21.23 4.08,0 6.12,1.09 6.12,3.27 0,0 -3.54,6.26 -10.61,18.78 -6.8,11.7 -10.2,20.95 -10.2,27.76 0,8.71 2.58,13.06 7.76,13.06 7.07,0 18.91,-13.2 35.51,-39.59 0,-0.27 0.27,-0.95 0.82,-2.04 2.72,-6.53 5.85,-11.84 9.39,-15.92 0.27,-0.54 0.54,-0.95 0.82,-1.22 0.27,-0.27 0.54,-0.68 0.82,-1.22l-0.82 2.04c3.26,-3.26 6.67,-4.9 10.2,-4.9 4.08,0 6.12,1.09 6.12,3.27 0,0 -3.54,6.26 -10.61,18.78 -6.8,11.7 -10.2,20.95 -10.2,27.76 0,8.71 2.58,13.06 7.76,13.06 8.71,0 24.35,-19.86 46.94,-59.59 1.9,-3.54 4.76,-8.84 8.57,-15.92 2.18,-2.18 4.22,-3.26 6.12,-3.26 2.45,0 4.69,1.02 6.74,3.06 2.04,2.04 3.06,4.42 3.06,7.14 0,0 -4.9,9.12 -14.69,27.35 -9.53,18.5 -14.29,32.52 -14.29,42.04 0,2.99 0.41,5.24 1.22,6.73 0.82,1.5 2.18,2.04 4.08,1.63 1.9,-0.41 4.49,-2.04 7.76,-4.9 3.26,-2.86 7.48,-7.14 12.65,-12.86 1.36,-1.63 2.31,-1.36 2.86,0.82 0.54,2.18 -1.09,5.31 -4.9,9.39zm-67.76 61.23c1.36,-2.99 3.4,-4.49 6.12,-4.49 0,-0.54 2.45,0.88 7.35,4.29 4.9,3.4 9.12,4.83 12.65,4.29 10.34,-0.54 18.37,-7.35 24.08,-20.41 5.44,-12.25 7.62,-25.58 6.53,-40l1.63 -1.63c4.9,-0.27 6.39,6.94 4.49,21.63 -1.36,13.06 -3.95,23.81 -7.76,32.25 -5.44,12.79 -14.28,19.87 -26.53,21.22 -4.63,0 -10.75,-1.63 -18.37,-4.9 -8.71,-4.35 -12.11,-8.44 -10.2,-12.24z"/>
  <path id="_32" class="fil0" d="M1921.06 511.33c0,1.36 -0.82,3.26 -2.45,5.71 -11.97,19.32 -23.27,31.7 -33.88,37.14 -4.9,2.45 -9.8,3.67 -14.69,3.67 -16.6,0 -24.9,-11.7 -24.9,-35.1 0,-3.81 0.27,-7.89 0.82,-12.25 -18.23,32.38 -34.42,48.57 -48.57,48.57 -8.44,0 -12.65,-4.63 -12.65,-13.88 0,-14.15 6.8,-31.23 20.41,-51.23 13.61,-20 26.8,-32.18 39.59,-36.53 4.63,-1.9 9.12,-2.86 13.47,-2.86 9.8,0 16.87,3.4 21.22,10.2 0.82,1.36 1.23,2.31 1.23,2.86 0,0.27 -0.95,0.68 -2.86,1.23 -1.91,0.54 -3.27,1.5 -4.08,2.86 -6.53,10.61 -9.8,26.53 -9.8,47.76 0,19.59 4.22,29.39 12.65,29.39 5.99,0 14.49,-6.6 25.51,-19.8 11.02,-13.2 16.94,-19.8 17.76,-19.8 0.82,0 1.22,0.68 1.22,2.04zm-60 -42.86c-1.09,-0.27 -2.31,-0.41 -3.67,-0.41 -10.88,0 -22.18,6.94 -33.88,20.82 -16.6,20.14 -24.9,36.6 -24.9,49.39 0,5.71 1.91,8.57 5.71,8.57 5.99,0 13.74,-6.26 23.27,-18.78 13.33,-16.87 24.49,-36.73 33.47,-59.59z"/>
  <path id="_33" class="fil0" d="M2016.98 492.55c5.99,0.54 8.98,3.67 8.98,9.39 0,0.54 -0.54,2.18 -1.63,4.9 -2.99,6.26 -5.78,11.7 -8.37,16.33 -2.59,4.63 -3.88,9.53 -3.88,14.69 0,10.34 4.9,15.51 14.69,15.51 7.62,0 15.78,-3.95 24.49,-11.84 5.99,-5.17 12.38,-12.52 19.18,-22.04 5.71,-7.89 8.98,-11.84 9.8,-11.84 0.82,0 1.22,0.82 1.22,2.45 0,1.91 -0.82,4.22 -2.45,6.94 -18.5,30.75 -37.69,46.12 -57.55,46.12 -15.51,0 -23.27,-9.79 -23.27,-29.39 0,-1.91 0,-3.74 0,-5.51 0,-1.77 0.14,-3.47 0.41,-5.1 1.09,-3.81 2.58,-7.89 4.49,-12.24 -1.63,0.54 -3.26,0.95 -4.9,1.22 -1.63,0.27 -3.13,0.41 -4.49,0.41 -4.63,6.26 -9.25,12.18 -13.88,17.76 -4.63,5.58 -7.62,9.05 -8.98,10.41 -7.62,7.35 -15.1,12.31 -22.45,14.9 -7.35,2.58 -13.74,2.92 -19.18,1.02 -5.44,-1.91 -9.46,-5.99 -12.04,-12.25 -2.58,-6.26 -2.92,-14.69 -1.02,-25.31 0.82,-5.17 2.31,-8.71 4.49,-10.61 2.18,-1.91 4.49,-2.86 6.94,-2.86 2.45,0 4.63,0.75 6.53,2.25 1.91,1.5 3.13,3.2 3.67,5.1 -4.35,11.16 -6.46,20.14 -6.33,26.94 0.14,6.8 2.04,10.88 5.71,12.25 3.67,1.36 8.78,-0.2 15.31,-4.69 6.53,-4.49 13.88,-12.45 22.04,-23.88 1.63,-2.18 4.08,-5.72 7.35,-10.61 -8.16,-0.27 -15.44,-2.18 -21.84,-5.71 -6.39,-3.54 -10.68,-8.1 -12.86,-13.67 -2.18,-5.58 -1.77,-11.56 1.22,-17.96 2.99,-6.39 9.66,-12.59 20,-18.57 7.35,-4.08 13.61,-6.19 18.78,-6.33 5.17,-0.14 9.32,1.09 12.45,3.67 3.13,2.58 5.31,6.12 6.53,10.61 1.22,4.49 1.7,9.32 1.43,14.49 -0.27,5.17 -1.23,10.14 -2.86,14.9 -1.63,4.76 -3.95,8.78 -6.94,12.04 1.36,0 2.72,0 4.08,0 1.36,0 2.72,-0.27 4.08,-0.82 3.81,-6.8 6.53,-10.68 8.16,-11.63 1.63,-0.95 2.59,-1.43 2.86,-1.43zm-20.41 -24.08c-11.43,-3.81 -19.66,-4.42 -24.69,-1.84 -5.03,2.59 -7.69,6.4 -7.96,11.43 -0.27,5.03 1.7,10.34 5.92,15.92 4.22,5.58 10,9.32 17.35,11.22 2.45,-3.81 4.69,-7.76 6.73,-11.84 2.04,-4.08 3.54,-7.82 4.49,-11.22 0.95,-3.4 1.36,-6.4 1.23,-8.98 -0.14,-2.58 -1.16,-4.15 -3.06,-4.69z"/>
  <path id="_34" class="fil0" d="M2234.13 508.88c0,1.09 -0.82,2.58 -2.45,4.49 -9.52,13.88 -22.72,26.53 -39.59,37.96 -9.8,6.26 -20.14,9.39 -31.02,9.39 -20.14,0 -30.2,-10.75 -30.2,-32.24 0,-13.33 7.41,-28.03 22.24,-44.08 14.83,-16.06 28.78,-24.08 41.84,-24.08 8.71,0 13.06,3.4 13.06,10.2 0,2.72 -1.97,7.42 -5.92,14.08 -3.95,6.67 -7.14,10 -9.59,10 -1.09,0 -1.63,-0.68 -1.63,-2.04 0,-1.09 0.48,-2.86 1.43,-5.31 0.95,-2.45 1.43,-4.35 1.43,-5.71 0,-5.71 -3.54,-8.57 -10.61,-8.57 -9.8,0 -18.64,6.4 -26.53,19.18 -7.35,11.7 -11.02,22.72 -11.02,33.06 0,16.87 7.35,25.31 22.04,25.31 18.5,0 37.82,-12.65 57.96,-37.96 2.72,-3.26 5.03,-4.9 6.94,-4.9 1.09,0 1.63,0.41 1.63,1.23z"/>
  <path id="_35" class="fil0" d="M2352.5 508.47c0,1.9 -0.82,4.22 -2.45,6.94 -7.62,12.52 -16.46,23.4 -26.53,32.65 -13.06,11.97 -25.31,17.96 -36.74,17.96 -15.24,0 -22.86,-9.53 -22.86,-28.57 0,-4.35 2.04,-12.93 6.12,-25.71 -9.53,13.88 -15.65,22.45 -18.37,25.71 -8.98,10.61 -17.01,15.92 -24.08,15.92 -8.98,0 -13.47,-7.62 -13.47,-22.86 0,-8.71 2.86,-19.18 8.57,-31.43 6.26,-14.15 13.06,-21.23 20.41,-21.23 4.08,0 6.12,1.09 6.12,3.27 0,0.27 -3.47,6.46 -10.41,18.57 -6.94,12.11 -10.41,21.43 -10.41,27.96 0,8.71 2.58,13.06 7.76,13.06 8.71,0 24.35,-19.86 46.94,-59.59 1.9,-3.81 4.76,-9.12 8.57,-15.92 1.91,-2.18 3.95,-3.26 6.12,-3.26 2.45,0 4.69,1.02 6.73,3.06 2.04,2.04 3.06,4.42 3.06,7.14 0,-0.27 -4.83,8.84 -14.49,27.35 -9.66,18.5 -14.49,32.79 -14.49,42.86 0,9.52 4.49,14.29 13.47,14.29 7.62,0 16.33,-4.35 26.12,-13.06 6.53,-5.72 13.88,-13.88 22.04,-24.49 6.8,-8.71 10.48,-13.06 11.02,-13.06 0.82,0 1.23,0.82 1.23,2.45z"/>
  <path id="_36" class="fil0" d="M2433.73 487.65c-8.98,11.7 -17.55,22.72 -25.72,33.06 -8.16,10.34 -14.97,18.23 -20.41,23.67 -7.62,7.35 -14.83,12.11 -21.63,14.29 -6.8,2.18 -12.52,2.11 -17.14,-0.2 -4.63,-2.31 -7.96,-6.8 -10,-13.47 -2.04,-6.67 -2.11,-15.31 -0.2,-25.92 0.82,-5.17 2.31,-8.71 4.49,-10.61 2.18,-1.91 4.49,-2.86 6.94,-2.86 2.45,0 4.63,0.75 6.53,2.25 1.9,1.5 3.13,3.2 3.67,5.1 -4.35,11.16 -6.46,20.14 -6.33,26.94 0.14,6.8 2.04,10.88 5.71,12.25 3.67,1.36 8.78,-0.2 15.31,-4.69 6.53,-4.49 13.88,-12.45 22.04,-23.88 1.63,-2.18 4.69,-6.33 9.18,-12.45 4.49,-6.12 10.68,-13.54 18.57,-22.24 2.72,-3.27 5.31,-6.26 7.76,-8.98 2.45,-2.72 6.39,-7.07 11.84,-13.06 1.9,-1.9 4.08,-2.86 6.53,-2.86 6.26,0 9.39,3.13 9.39,9.39 0,1.36 -0.54,2.99 -1.63,4.9 -15.24,25.03 -22.86,44.9 -22.86,59.59 0,10.34 4.9,15.51 14.69,15.51 7.62,0 15.78,-3.95 24.49,-11.84 5.99,-5.17 12.38,-12.52 19.18,-22.04 5.71,-7.89 8.98,-11.84 9.8,-11.84 0.82,0 1.22,0.82 1.22,2.45 0,1.91 -0.82,4.22 -2.45,6.94 -18.5,30.75 -37.69,46.12 -57.55,46.12 -15.51,0 -23.27,-9.79 -23.27,-29.39 0,-17.14 3.95,-32.52 11.84,-46.12z"/>
  <path id="_37" class="fil0" d="M2629.65 511.33c0,1.36 -0.82,3.26 -2.45,5.71 -11.97,19.32 -23.27,31.7 -33.88,37.14 -4.9,2.45 -9.8,3.67 -14.69,3.67 -16.6,0 -24.9,-11.7 -24.9,-35.1 0,-3.81 0.27,-7.89 0.82,-12.25 -18.23,32.38 -34.42,48.57 -48.57,48.57 -8.44,0 -12.65,-4.63 -12.65,-13.88 0,-14.15 6.8,-31.23 20.41,-51.23 13.61,-20 26.8,-32.18 39.59,-36.53 4.63,-1.9 9.12,-2.86 13.47,-2.86 9.8,0 16.87,3.4 21.22,10.2 0.82,1.36 1.23,2.31 1.23,2.86 0,0.27 -0.95,0.68 -2.86,1.23 -1.91,0.54 -3.27,1.5 -4.08,2.86 -6.53,10.61 -9.8,26.53 -9.8,47.76 0,19.59 4.22,29.39 12.65,29.39 5.99,0 14.49,-6.6 25.51,-19.8 11.02,-13.2 16.94,-19.8 17.76,-19.8 0.82,0 1.22,0.68 1.22,2.04zm-60 -42.86c-1.09,-0.27 -2.31,-0.41 -3.67,-0.41 -10.88,0 -22.18,6.94 -33.88,20.82 -16.6,20.14 -24.9,36.6 -24.9,49.39 0,5.71 1.91,8.57 5.71,8.57 5.99,0 13.74,-6.26 23.27,-18.78 13.33,-16.87 24.49,-36.73 33.47,-59.59z"/>
  <path id="_38" class="fil0" d="M1099.41 781.02c-4.63,7.35 -9.32,16.26 -14.08,26.74 -4.76,10.48 -8.5,20.48 -11.22,30 6.8,-12.25 15.1,-23.95 24.9,-35.1 13.06,-14.97 24.63,-22.45 34.69,-22.45 8.16,0 12.25,5.85 12.25,17.55 0,16.87 -5.31,36.05 -15.92,57.55 -7.07,14.69 -16.33,27.48 -27.76,38.37 -13.61,12.79 -27.48,19.18 -41.63,19.18 -10.88,0 -16.33,-2.04 -16.33,-6.12 0,-1.63 0.82,-2.45 2.45,-2.45 0.82,0 2.79,0.48 5.92,1.43 3.13,0.95 5.78,1.43 7.96,1.43 12.25,0 24.35,-6.94 36.33,-20.82 8.98,-10.61 16.33,-22.99 22.04,-37.14 5.17,-12.25 7.76,-25.71 7.76,-40.41 0,-8.98 -2.04,-13.47 -6.12,-13.47 -8.98,0 -20.95,12.38 -35.92,37.14 -14.15,23.13 -21.23,40.41 -21.23,51.84 0,2.99 1.02,5.31 3.06,6.94 2.04,1.63 3.06,2.99 3.06,4.08 0,1.09 -0.68,1.63 -2.04,1.63 -10.07,0 -15.1,-7.35 -15.1,-22.04 0,-10.34 2.52,-23.74 7.55,-40.21 5.04,-16.46 12.72,-35.31 23.06,-56.53 8.71,-17.14 23.81,-42.86 45.31,-77.14 33.2,-53.06 60.27,-79.59 81.23,-79.59 12.25,0 18.37,5.58 18.37,16.74 0,19.59 -17.14,46.94 -51.43,82.04 -22.04,22.31 -47.76,42.59 -77.14,60.82zm120.82 -135.51c0,-5.71 -2.31,-8.71 -6.94,-8.98 -7.07,0 -18.1,5.99 -33.06,17.96 -26.39,20.95 -49.12,53.06 -68.16,96.33 -2.99,7.35 -5.17,13.06 -6.53,17.14 19.59,-11.43 42.18,-29.8 67.76,-55.1 30.75,-29.66 46.4,-52.11 46.94,-67.35z"/>
  <path id="_39" class="fil0" d="M1214.11 844.69c-2.99,3.27 -5.31,4.9 -6.94,4.9 -1.09,0 -1.63,-0.41 -1.63,-1.22 0,-0.82 0.82,-2.31 2.45,-4.49 2.99,-5.71 6.19,-11.29 9.59,-16.74 3.4,-5.44 7.21,-10.2 11.43,-14.28 4.22,-4.08 8.84,-7.41 13.88,-10 5.03,-2.58 10.54,-3.88 16.53,-3.88 20.14,0 30.2,10.75 30.2,32.25 0,5.17 -1.09,10.48 -3.26,15.92l1.63 -1.63c16.87,-11.7 27.76,-23.81 32.65,-36.33 0.82,-2.72 0.82,-5.31 0,-7.76 -0.27,-1.09 -0.54,-2.04 -0.82,-2.86 -0.27,-0.82 -0.14,-1.43 0.41,-1.84 0.54,-0.41 1.63,-0.41 3.26,0 1.63,0.41 4.22,1.43 7.76,3.06 7.35,2.99 8.3,12.92 2.86,29.8 -0.27,1.36 -0.82,2.99 -1.63,4.9 -0.82,1.91 -1.63,3.95 -2.45,6.12 -0.82,2.18 -1.63,4.22 -2.45,6.12 -0.82,1.91 -1.36,3.4 -1.63,4.49 -1.63,4.35 -2.92,7.55 -3.88,9.59 -0.95,2.04 -1.97,4.83 -3.06,8.37 10.34,-8.16 17.55,-13.33 21.63,-15.51 2.99,-10.07 9.8,-20.95 20.41,-32.65 15.24,-16.06 29.25,-24.08 42.04,-24.08 8.71,0 13.06,3.4 13.06,10.2 0,2.72 -2.04,7.48 -6.12,14.29 -3.81,6.53 -6.94,9.8 -9.39,9.8 -1.09,0 -1.63,-0.68 -1.63,-2.04 0,-1.09 0.48,-2.86 1.43,-5.31 0.95,-2.45 1.43,-4.35 1.43,-5.71 0,-5.71 -3.54,-8.57 -10.61,-8.57 -9.79,0 -18.64,6.4 -26.53,19.18 -7.35,11.97 -11.02,22.99 -11.02,33.06 0,16.87 7.35,25.31 22.04,25.31 18.5,0 37.82,-12.65 57.96,-37.96 2.72,-3.26 5.04,-4.9 6.94,-4.9 1.09,0 1.63,0.41 1.63,1.23 0,1.09 -0.82,2.58 -2.45,4.49 -9.25,13.6 -22.45,26.26 -39.59,37.96 -10.07,6.26 -20.41,9.39 -31.02,9.39 -20.14,0 -30.2,-10.75 -30.2,-32.24 0,-1.09 0,-2.18 0,-3.27 -14.42,10.61 -23.81,21.63 -28.17,33.06 -0.54,1.36 -0.14,2.59 1.23,3.67 1.36,1.09 2.31,2.31 2.86,3.67 0.27,1.09 0.54,2.04 0.82,2.86 0.27,0.82 0.07,1.43 -0.61,1.84 -0.68,0.41 -1.84,0.41 -3.47,0 -1.63,-0.41 -4.08,-1.43 -7.35,-3.06 -7.35,-2.72 -8.3,-12.65 -2.86,-29.8 0.54,-2.45 1.56,-5.37 3.06,-8.78 1.5,-3.4 2.52,-6.19 3.06,-8.37 1.63,-4.35 2.92,-8.3 3.88,-11.84 0.95,-3.54 1.84,-7.08 2.65,-10.61 -15.24,12.25 -24.22,17.96 -26.94,17.14 -1.09,0 -1.77,-0.54 -2.04,-1.63 -3.54,8.16 -9.39,16.6 -17.55,25.31 -15.24,16.05 -29.25,24.08 -42.04,24.08 -8.71,0 -13.06,-3.4 -13.06,-10.2 0,-2.45 2.04,-7.21 6.12,-14.28 3.54,-6.53 6.67,-9.8 9.39,-9.8 1.09,0 1.63,0.68 1.63,2.04 0,1.09 -0.48,2.86 -1.43,5.31 -0.95,2.45 -1.43,4.35 -1.43,5.71 0,5.71 3.54,8.57 10.61,8.57 9.8,0 18.64,-6.39 26.53,-19.18 7.35,-11.7 11.02,-22.72 11.02,-33.06 0,-16.87 -7.35,-25.31 -22.04,-25.31 -4.63,0 -8.64,0.82 -12.04,2.45 -3.4,1.63 -6.53,4.01 -9.39,7.14 -2.86,3.13 -5.58,6.8 -8.16,11.02 -2.59,4.22 -5.37,8.91 -8.37,14.08l-0.82 0.82z"/>
  <path id="_40" class="fil0" d="M1564.73 845.1c0,1.9 -0.82,4.22 -2.45,6.94 -7.62,12.52 -16.46,23.4 -26.53,32.65 -13.06,11.97 -25.31,17.96 -36.74,17.96 -15.24,0 -22.86,-9.53 -22.86,-28.57 0,-4.35 2.04,-12.93 6.12,-25.71 -9.53,13.88 -15.65,22.45 -18.37,25.71 -8.98,10.61 -17.01,15.92 -24.08,15.92 -8.98,0 -13.47,-7.62 -13.47,-22.86 0,-8.71 2.86,-19.18 8.57,-31.43 6.26,-14.15 13.06,-21.23 20.41,-21.23 4.08,0 6.12,1.09 6.12,3.27 0,0.27 -3.47,6.46 -10.41,18.57 -6.94,12.11 -10.41,21.43 -10.41,27.96 0,8.71 2.58,13.06 7.76,13.06 8.71,0 24.35,-19.86 46.94,-59.59 1.9,-3.81 4.76,-9.12 8.57,-15.92 1.91,-2.18 3.95,-3.26 6.12,-3.26 2.45,0 4.69,1.02 6.73,3.06 2.04,2.04 3.06,4.42 3.06,7.14 0,-0.27 -4.83,8.84 -14.49,27.35 -9.66,18.5 -14.49,32.79 -14.49,42.86 0,9.52 4.49,14.29 13.47,14.29 7.62,0 16.33,-4.35 26.12,-13.06 6.53,-5.72 13.88,-13.88 22.04,-24.49 6.8,-8.71 10.48,-13.06 11.02,-13.06 0.82,0 1.23,0.82 1.23,2.45z"/>
  <path id="_41" class="fil0" d="M1669.63 903.06c0,1.63 -0.41,2.45 -1.23,2.45 -0.54,0 -1.77,-0.68 -3.67,-2.04 -1.9,-1.36 -5.71,-2.04 -11.43,-2.04 -2.72,0 -5.44,0.14 -8.16,0.41 -0.54,26.39 -13.47,58.1 -38.78,95.1 -29.39,42.99 -60.82,64.49 -94.29,64.49 -13.06,0 -23.95,-3.81 -32.65,-11.43 -8.71,-7.62 -13.06,-17.82 -13.06,-30.61 0,-29.12 20.68,-57.01 62.04,-83.67 35.1,-22.59 68.98,-36.46 101.63,-41.63 -0.27,-17.14 -6.94,-25.71 -20,-25.71 -2.72,0 -6.87,1.29 -12.45,3.88 -5.58,2.58 -9.32,3.88 -11.22,3.88 -3.54,0 -5.31,-1.63 -5.31,-4.9 0,-1.63 1.22,-3.67 3.67,-6.12 29.39,-26.94 44.08,-45.04 44.08,-54.29 0,-5.99 -3.4,-8.98 -10.2,-8.98 -16.6,0 -34.01,14.56 -52.25,43.68 -1.91,2.72 -3.27,4.08 -4.08,4.08 -1.09,0 -1.63,-0.68 -1.63,-2.04 0,-1.36 0.54,-2.99 1.63,-4.9 5.99,-12.52 13.88,-23.13 23.67,-31.84 11.43,-10.07 23.13,-15.1 35.1,-15.1 14.69,0 22.04,6.12 22.04,18.37 0,13.33 -10.88,28.71 -32.65,46.12l1.23 0c8.98,-0.27 16.67,2.92 23.06,9.59 6.39,6.67 10,14.63 10.82,23.88l1.63 0c12.79,-0.27 20.14,1.63 22.04,5.71 0.27,1.09 0.41,2.31 0.41,3.67zm-39.59 -1.63c-18.23,2.99 -39.73,10.75 -64.49,23.27 -24.76,12.52 -43.67,25.04 -56.73,37.55 -20.68,19.59 -31.02,39.05 -31.02,58.37 0,10.61 3.33,19.12 10,25.51 6.67,6.4 15.44,9.59 26.33,9.59 31.02,0 59.19,-21.36 84.49,-64.08 20.41,-34.56 30.89,-64.63 31.43,-90.21z"/>
  <path id="_42" class="fil0" d="M1749.63 822.65c0.82,-0.82 1.63,-2.18 2.45,-4.08 0.82,-1.9 1.7,-3.95 2.65,-6.12 0.95,-2.18 1.9,-4.29 2.86,-6.33 0.95,-2.04 1.84,-3.47 2.65,-4.29 1.91,-1.9 4.08,-2.86 6.53,-2.86 6.26,0 9.39,3.13 9.39,9.39 0,1.36 -0.54,2.99 -1.63,4.9 -15.24,25.03 -22.86,44.9 -22.86,59.59 0,10.34 4.9,15.51 14.69,15.51 7.62,0 15.78,-3.95 24.49,-11.84 5.99,-5.17 12.38,-12.52 19.18,-22.04 5.72,-7.89 8.98,-11.84 9.8,-11.84 0.82,0 1.23,0.82 1.23,2.45 0,1.9 -0.82,4.22 -2.45,6.94 -18.5,30.75 -37.69,46.12 -57.55,46.12 -15.51,0 -23.27,-9.8 -23.27,-29.39 0,-10.88 1.63,-21.09 4.9,-30.61 -6.53,1.63 -13.2,3.54 -20,5.71 -6.8,2.18 -13.88,4.76 -21.22,7.76 -0.54,2.18 -1.23,4.29 -2.04,6.33 -0.82,2.04 -1.5,4.15 -2.04,6.33 -2.18,12.79 -4.63,21.5 -7.35,26.12 -2.72,4.63 -5.85,6.94 -9.39,6.94 -2.45,0 -3.67,-2.45 -3.67,-7.35 0,-1.09 0.27,-2.18 0.82,-3.27 2.99,-7.07 5.99,-15.44 8.98,-25.1 2.99,-9.66 5.99,-21.02 8.98,-34.08 0.54,-2.18 1.09,-4.83 1.63,-7.96 0.54,-3.13 1.36,-6.87 2.45,-11.22 0.82,-1.9 2.72,-3.81 5.72,-5.71 2.99,-1.91 5.71,-2.86 8.16,-2.86 1.9,0 2.86,0.82 2.86,2.45 0,1.36 -1.09,5.51 -3.26,12.45 -2.18,6.94 -5.31,16.94 -9.39,30 3.81,-1.36 8.44,-2.92 13.88,-4.69 5.44,-1.77 11.84,-3.74 19.18,-5.92 1.91,-0.27 4.63,-1.09 8.16,-2.45 1.36,-2.99 2.86,-5.99 4.49,-8.98z"/>
  <path id="_43" class="fil0" d="M1937.39 845.1c0,1.9 -0.82,4.22 -2.45,6.94 -7.62,12.52 -16.46,23.4 -26.53,32.65 -13.06,11.97 -25.31,17.96 -36.74,17.96 -15.24,0 -22.86,-9.53 -22.86,-28.57 0,-4.35 2.04,-12.93 6.12,-25.71 -9.53,13.88 -15.65,22.45 -18.37,25.71 -8.98,10.61 -17.01,15.92 -24.08,15.92 -8.98,0 -13.47,-7.62 -13.47,-22.86 0,-8.71 2.86,-19.18 8.57,-31.43 6.26,-14.15 13.06,-21.23 20.41,-21.23 4.08,0 6.12,1.09 6.12,3.27 0,0.27 -3.47,6.46 -10.41,18.57 -6.94,12.11 -10.41,21.43 -10.41,27.96 0,8.71 2.58,13.06 7.76,13.06 8.71,0 24.35,-19.86 46.94,-59.59 1.9,-3.81 4.76,-9.12 8.57,-15.92 1.91,-2.18 3.95,-3.26 6.12,-3.26 2.45,0 4.69,1.02 6.73,3.06 2.04,2.04 3.06,4.42 3.06,7.14 0,-0.27 -4.83,8.84 -14.49,27.35 -9.66,18.5 -14.49,32.79 -14.49,42.86 0,9.52 4.49,14.29 13.47,14.29 7.62,0 16.33,-4.35 26.12,-13.06 6.53,-5.72 13.88,-13.88 22.04,-24.49 6.8,-8.71 10.48,-13.06 11.02,-13.06 0.82,0 1.23,0.82 1.23,2.45z"/>
  <path id="_44" class="fil0" d="M2007.6 691.22c0,5.71 -4.9,14.42 -14.69,26.12 -9.8,11.7 -17.28,17.55 -22.45,17.55 -0.27,0 -0.41,-0.27 -0.41,-0.82 0,-0.82 0.95,-2.31 2.86,-4.49 3.54,-4.08 10.2,-13.6 20,-28.57l-0.82 0.41c-4.35,0 -6.53,-2.99 -6.53,-8.98 0,-7.62 4.63,-11.43 13.88,-11.43 1.9,0 3.74,1.16 5.51,3.47 1.77,2.31 2.65,4.56 2.65,6.73zm-31.84 0c0,5.44 -4.9,14.08 -14.69,25.92 -9.8,11.84 -17.14,17.76 -22.04,17.76 -0.54,-0.27 -0.82,-0.54 -0.82,-0.82 0,-1.09 0.95,-2.58 2.86,-4.49 3.54,-4.08 10.2,-13.6 20,-28.57l-0.82 0.41c-4.35,0 -6.53,-2.99 -6.53,-8.98 0,-3.27 1.43,-5.99 4.29,-8.16 2.86,-2.18 6.05,-3.26 9.59,-3.26 1.91,0 3.74,1.16 5.51,3.47 1.77,2.31 2.65,4.56 2.65,6.73z"/>
 </g>
</svg>
