<?xml version="1.0" encoding="UTF-8"?>
<!DOCTYPE svg PUBLIC "-//W3C//DTD SVG 1.1//EN" "http://www.w3.org/Graphics/SVG/1.1/DTD/svg11.dtd">
<!-- Creator: CorelDRAW -->
<svg xmlns="http://www.w3.org/2000/svg" xml:space="preserve" width="211.425mm" height="50.1387mm" version="1.1" style="shape-rendering:geometricPrecision; text-rendering:geometricPrecision; image-rendering:optimizeQuality; fill-rule:evenodd; clip-rule:evenodd"
viewBox="0 0 6036.4 1502.48"
 xmlns:xlink="http://www.w3.org/1999/xlink"
 xmlns:xodm="http://www.corel.com/coreldraw/odm/2003">
 <defs>
  <style type="text/css">
   <![CDATA[
    .fil0 {fill:white;fill-rule:nonzero}
   ]]>
  </style>
 </defs>
 <g id="Слой_x0020_1">
  <metadata id="CorelCorpID_0Corel-Layer"/>
  <path class="fil0" d="M241.27 12.43c0,2.07 -1.81,5.18 -5.44,9.32 -6.21,6.73 -18.9,24.33 -38.05,52.81 9.32,0 13.98,5.69 13.98,17.08 0,13.98 -8.8,20.97 -26.41,20.97 -10.35,0 -15.53,-6.47 -15.53,-19.42 0,-10.36 9.32,-26.66 27.96,-48.93 18.64,-22.26 32.62,-33.39 41.94,-33.39 1.03,0 1.55,0.52 1.55,1.56zm-60.58 0c0,2.07 -1.81,5.18 -5.44,9.32 -6.21,6.73 -18.9,24.33 -38.05,52.81 9.32,0 13.98,5.69 13.98,17.08 0,13.98 -8.8,20.97 -26.4,20.97 -10.36,0 -15.53,-6.47 -15.53,-19.42 0,-10.36 9.32,-26.66 27.96,-48.93 18.64,-22.26 32.62,-33.39 41.94,-33.39 1.04,0 1.55,0.52 1.55,1.56z"/>
  <path id="_1" class="fil0" d="M762.38 60.58c0,35.2 -19.42,67.57 -58.25,97.08 -36.24,28.48 -72.74,42.71 -109.5,42.71 -37.8,0 -56.69,-14.5 -56.69,-43.49 0,-20.71 4.66,-31.07 13.98,-31.07 3.63,0 5.44,2.33 5.44,6.99 0,1.55 -0.26,3.88 -0.78,6.99 -0.52,3.11 -0.78,5.44 -0.78,6.99 0,20.19 13.2,30.29 39.61,30.29 27.44,0 58.51,-13.2 93.2,-39.61 34.69,-26.41 52.03,-52.55 52.03,-78.44 0,-25.37 -21.49,-38.05 -64.46,-38.05 -8.8,0 -17.34,0.52 -25.63,1.56 -44.53,4.66 -95.27,23.43 -152.22,56.3 -56.95,32.88 -104.33,71.32 -142.12,115.33 -41.94,49.7 -62.91,97.33 -62.91,142.9 0,28.47 9.58,50.22 28.73,65.23 17.08,13.46 40.38,20.19 69.9,20.19 94.23,0 185.61,-36.76 274.14,-110.28 2.07,-1.56 4.14,-2.33 6.21,-2.33 6.22,0 9.32,3.37 9.32,10.1 0,2.59 -1.03,4.92 -3.1,6.99 -37.8,34.69 -82.58,64.2 -134.36,88.53 -56.95,26.92 -108.47,40.39 -154.55,40.39 -37.8,0 -68.34,-7.77 -91.64,-23.3 -27.44,-18.12 -41.16,-45.05 -41.16,-80.77 0,-42.46 17.34,-88.79 52.03,-139.01 40.9,-59.54 93.97,-108.99 159.21,-148.33 69.89,-42.97 138.75,-64.46 206.58,-64.46 58.5,0 87.76,20.19 87.76,60.58z"/>
  <path id="_2" class="fil0" d="M1007.79 333.95c0,2.07 -0.52,3.62 -1.56,4.66 -12.94,18.12 -27.44,34.95 -43.49,50.48 -22.26,20.71 -40.9,31.06 -55.91,31.06 -24.34,0 -36.5,-26.92 -36.5,-80.77 0,-8.28 0.26,-17.6 0.78,-27.96 -18.64,16.57 -39.61,46.34 -62.91,89.31 -7.77,14.5 -16.31,21.75 -25.63,21.75 -3.1,0 -5.44,-1.04 -6.99,-3.11 -1.55,-5.7 -2.33,-12.94 -2.33,-21.75 0,-15.01 3.37,-42.45 10.1,-82.32 3.62,-20.19 5.44,-33.13 5.44,-38.83 0,-4.14 -0.78,-6.21 -2.33,-6.21 -8.8,7.76 -23.04,24.59 -42.71,50.48 -21.23,27.96 -44.01,60.83 -68.34,98.63 -3.11,4.66 -5.7,6.99 -7.77,6.99 -4.14,0 -6.21,-4.66 -6.21,-13.98 0,-2.59 0.26,-4.66 0.78,-6.22 11.91,-27.96 24.08,-67.31 36.5,-118.05 1.03,-7.25 3.1,-17.6 6.21,-31.06 1.04,-3.62 4.53,-7.25 10.49,-10.87 5.95,-3.63 11,-5.44 15.15,-5.44 3.62,0 5.44,1.55 5.44,4.66 0,5.18 -12.17,44.53 -36.5,118.05 18.64,-24.85 37.8,-50.48 57.47,-76.88 6.21,-8.28 15.53,-20.71 27.96,-37.28 7.77,-9.32 15.79,-13.98 24.08,-13.98 8.28,0 12.43,4.66 12.43,13.98 0,6.73 -1.81,20.06 -5.44,40 -3.62,19.93 -7.76,49.06 -12.42,87.37 14.5,-20.71 37.02,-51 67.57,-90.86 8.28,-9.84 16.57,-14.76 24.85,-14.76 7.77,0 11.65,4.92 11.65,14.76 0,8.28 -1.29,20.58 -3.88,36.89 -2.59,16.31 -3.88,28.61 -3.88,36.89 0,26.92 6.99,40.39 20.97,40.39 19.68,0 44.79,-21.75 75.33,-65.24 3.11,-5.18 5.7,-7.76 7.77,-7.76 2.59,0 3.88,2.33 3.88,6.99zm-78.44 -144.45c-65.23,-15.53 -113.13,-14.76 -143.67,2.33 -5.69,3.11 -10.35,8.03 -13.98,14.76 -1.55,3.63 -2.33,8.54 -2.33,14.76 0,6.22 -0.78,10.87 -2.33,13.98l-3.1 2.33c-5.18,3.62 -7.38,-0.13 -6.6,-11.26 0.78,-11.13 3.23,-20.58 7.38,-28.35 5.18,-11.91 13.98,-20.97 26.4,-27.18 22.78,-13.46 52.81,-18.64 90.09,-15.53 9.32,0 40.64,4.4 93.97,13.2 32.62,5.7 54.1,5.7 64.46,0 6.22,-3.62 10.61,-8.28 13.2,-13.98 3.11,-6.73 3.75,-12.94 1.94,-18.64 -1.81,-5.7 -1.68,-10.61 0.39,-14.76 1.03,-0.52 1.55,-0.78 1.55,-0.78 4.14,-2.59 6.08,2.59 5.83,15.53 -0.26,12.94 -1.94,22.52 -5.05,28.73 -7.77,15.01 -16.05,25.37 -24.85,31.06 -12.94,7.25 -33.39,8.54 -61.35,3.88 -3.11,-1.55 -9.32,-2.85 -18.64,-3.88 -4.14,0 -11.91,-2.07 -23.3,-6.21z"/>
  <path id="_3" class="fil0" d="M1262.52 326.96c0,3.62 -1.55,8.03 -4.66,13.2 -13.46,22.27 -35.73,44.53 -66.79,66.79 -33.14,24.85 -61.1,37.28 -83.88,37.28 -4.66,0 -11.65,-0.26 -20.97,-0.78 -8.8,0 -15.53,0 -20.19,0 -2.07,0 -9.84,-1.81 -23.3,-5.44 -16.05,41.42 -37.8,84.91 -65.24,130.47 -38.83,63.17 -70.41,94.75 -94.75,94.75 -12.94,0 -19.42,-9.58 -19.42,-28.73 0,-25.37 23.3,-72.48 69.9,-141.35 33.13,-45.56 66.53,-91.38 100.18,-137.46l0 -4.66c0,-18.64 -0.26,-34.95 -0.78,-48.93 -19.68,32.1 -32.1,48.15 -37.28,48.15 -3.11,0 -4.66,-1.81 -4.66,-5.44 0,-2.07 0.78,-4.14 2.33,-6.21 22.78,-32.1 34.17,-60.83 34.17,-86.2 0,-5.18 -1.43,-9.45 -4.27,-12.81 -2.85,-3.37 -4.27,-6.08 -4.27,-8.15 0,-2.07 8.03,-3.11 24.08,-3.11 17.6,0 26.4,17.6 26.4,52.81 0,5.18 -0.39,12.81 -1.16,22.91 -0.78,10.1 -1.17,17.47 -1.17,22.13 14.5,-26.4 30.55,-50.74 48.15,-73 26.92,-33.14 49.44,-49.7 67.57,-49.7 16.57,0 24.85,12.17 24.85,36.5 0,30.55 -10.74,66.01 -32.23,106.4 -21.49,40.38 -44.91,68.6 -70.28,84.65 45.04,-1.03 95.01,-35.98 149.89,-104.84 2.07,-2.59 3.63,-3.88 4.66,-3.88 2.07,0 3.11,1.55 3.11,4.66zm-89.31 -70.67c0,-16.05 -4.4,-24.08 -13.2,-24.08 -2.59,0 -5.18,0.52 -7.76,1.55 -18.64,8.28 -38.32,32.36 -59.02,72.23 -15.53,29.51 -27.96,59.8 -37.28,90.86 5.18,7.77 14.24,17.61 27.18,29.51 22.78,-9.83 43.75,-34.43 62.91,-73.78 18.12,-37.28 27.18,-69.38 27.18,-96.3zm-146.78 141.34c-0.52,-0.52 -1.03,-0.78 -1.55,-0.78 -2.07,0 -4.92,2.59 -8.54,7.77 -12.42,18.64 -31.06,46.08 -55.92,82.32 -10.87,15.53 -24.59,39.09 -41.16,70.67 -19.16,36.76 -28.73,60.58 -28.73,71.45 0,4.66 1.55,6.99 4.66,6.99 22.78,0 54.1,-37.28 93.97,-111.83 10.35,-19.67 21.49,-53.59 33.39,-101.74 -0.52,-2.59 -0.78,-5.18 -0.78,-7.77 0,-6.21 1.56,-11.91 4.66,-17.09z"/>
  <path id="_4" class="fil0" d="M1483.86 332.39c0,2.59 -1.55,6.21 -4.66,10.87 -22.78,36.76 -44.27,60.32 -64.46,70.67 -9.32,4.66 -18.64,6.99 -27.96,6.99 -31.58,0 -47.37,-22.26 -47.37,-66.79 0,-7.25 0.52,-15.01 1.55,-23.3 -34.69,61.61 -65.49,92.42 -92.42,92.42 -16.05,0 -24.08,-8.8 -24.08,-26.41 0,-26.92 12.94,-59.41 38.83,-97.47 25.89,-38.05 51,-61.22 75.33,-69.51 8.8,-3.62 17.34,-5.44 25.63,-5.44 18.64,0 32.1,6.47 40.38,19.42 1.56,2.59 2.33,4.4 2.33,5.44 0,0.52 -1.81,1.29 -5.44,2.33 -3.63,1.03 -6.22,2.85 -7.77,5.44 -12.42,20.19 -18.64,50.48 -18.64,90.86 0,37.28 8.03,55.92 24.08,55.92 11.39,0 27.57,-12.56 48.54,-37.67 20.97,-25.11 32.23,-37.66 33.78,-37.66 1.55,0 2.33,1.29 2.33,3.88zm-114.16 -81.54c-2.07,-0.52 -4.4,-0.78 -6.99,-0.78 -20.71,0 -42.2,13.2 -64.46,39.61 -31.58,38.31 -47.37,69.64 -47.37,93.97 0,10.87 3.63,16.31 10.87,16.31 11.39,0 26.15,-11.91 44.27,-35.73 25.37,-32.1 46.6,-69.89 63.68,-113.38z"/>
  <path id="_5" class="fil0" d="M1660.15 327.73c0,2.07 -1.55,4.92 -4.66,8.54 -18.12,26.4 -43.23,50.48 -75.33,72.23 -18.64,11.91 -38.31,17.86 -59.02,17.86 -38.31,0 -57.47,-20.45 -57.47,-61.35 0,-25.37 14.11,-53.33 42.32,-83.88 28.22,-30.55 54.75,-45.82 79.6,-45.82 16.57,0 24.85,6.47 24.85,19.42 0,5.18 -3.75,14.11 -11.26,26.8 -7.51,12.68 -13.59,19.03 -18.25,19.03 -2.07,0 -3.1,-1.29 -3.1,-3.88 0,-2.07 0.9,-5.44 2.72,-10.1 1.81,-4.66 2.72,-8.28 2.72,-10.87 0,-10.87 -6.73,-16.31 -20.19,-16.31 -18.64,0 -35.47,12.17 -50.48,36.5 -13.98,22.26 -20.97,43.23 -20.97,62.91 0,32.1 13.98,48.15 41.94,48.15 35.2,0 71.96,-24.08 110.28,-72.23 5.18,-6.21 9.58,-9.32 13.2,-9.32 2.07,0 3.11,0.78 3.11,2.33z"/>
  <path id="_6" class="fil0" d="M1952.94 333.95c0,2.07 -0.52,3.62 -1.56,4.66 -12.94,18.12 -27.44,34.95 -43.49,50.48 -22.26,20.71 -40.9,31.06 -55.91,31.06 -24.34,0 -36.5,-26.92 -36.5,-80.77 0,-8.28 0.26,-17.6 0.78,-27.96 -18.64,16.57 -39.61,46.34 -62.91,89.31 -7.77,14.5 -16.31,21.75 -25.63,21.75 -3.1,0 -5.44,-1.04 -6.99,-3.11 -1.55,-5.7 -2.33,-12.94 -2.33,-21.75 0,-15.01 3.37,-42.45 10.1,-82.32 3.62,-20.19 5.44,-33.13 5.44,-38.83 0,-4.14 -0.78,-6.21 -2.33,-6.21 -8.8,7.76 -23.04,24.59 -42.71,50.48 -21.23,27.96 -44.01,60.83 -68.34,98.63 -3.11,4.66 -5.7,6.99 -7.77,6.99 -4.14,0 -6.21,-4.66 -6.21,-13.98 0,-2.59 0.26,-4.66 0.78,-6.22 11.91,-27.96 24.08,-67.31 36.5,-118.05 1.03,-7.25 3.1,-17.6 6.21,-31.06 1.04,-3.62 4.53,-7.25 10.49,-10.87 5.95,-3.63 11,-5.44 15.15,-5.44 3.62,0 5.44,1.55 5.44,4.66 0,5.18 -12.17,44.53 -36.5,118.05 18.64,-24.85 37.8,-50.48 57.47,-76.88 6.21,-8.28 15.53,-20.71 27.96,-37.28 7.77,-9.32 15.79,-13.98 24.08,-13.98 8.28,0 12.43,4.66 12.43,13.98 0,6.73 -1.81,20.06 -5.44,40 -3.62,19.93 -7.76,49.06 -12.42,87.37 14.5,-20.71 37.02,-51 67.57,-90.86 8.28,-9.84 16.57,-14.76 24.85,-14.76 7.77,0 11.65,4.92 11.65,14.76 0,8.28 -1.29,20.58 -3.88,36.89 -2.59,16.31 -3.88,28.61 -3.88,36.89 0,26.92 6.99,40.39 20.97,40.39 19.68,0 44.79,-21.75 75.33,-65.24 3.11,-5.18 5.7,-7.76 7.77,-7.76 2.59,0 3.88,2.33 3.88,6.99zm-78.44 -144.45c-65.23,-15.53 -113.13,-14.76 -143.67,2.33 -5.69,3.11 -10.35,8.03 -13.98,14.76 -1.55,3.63 -2.33,8.54 -2.33,14.76 0,6.22 -0.78,10.87 -2.33,13.98l-3.1 2.33c-5.18,3.62 -7.38,-0.13 -6.6,-11.26 0.78,-11.13 3.23,-20.58 7.38,-28.35 5.18,-11.91 13.98,-20.97 26.4,-27.18 22.78,-13.46 52.81,-18.64 90.09,-15.53 9.32,0 40.64,4.4 93.97,13.2 32.62,5.7 54.1,5.7 64.46,0 6.22,-3.62 10.61,-8.28 13.2,-13.98 3.11,-6.73 3.75,-12.94 1.94,-18.64 -1.81,-5.7 -1.68,-10.61 0.39,-14.76 1.03,-0.52 1.55,-0.78 1.55,-0.78 4.14,-2.59 6.08,2.59 5.83,15.53 -0.26,12.94 -1.94,22.52 -5.05,28.73 -7.77,15.01 -16.05,25.37 -24.85,31.06 -12.94,7.25 -33.39,8.54 -61.35,3.88 -3.11,-1.55 -9.32,-2.85 -18.64,-3.88 -4.14,0 -11.91,-2.07 -23.3,-6.21z"/>
  <path id="_7" class="fil0" d="M1987.89 293.56c-8.8,17.6 -16.83,35.72 -24.08,54.36 -7.25,18.64 -10.87,32.88 -10.87,42.71 0,18.12 8.54,27.18 25.63,27.18 10.87,0 23.17,-4.53 36.89,-13.59 13.72,-9.06 25.76,-19.54 36.11,-31.45 -13.46,1.04 -24.72,-1.29 -33.78,-6.99 -9.06,-5.7 -13.85,-16.83 -14.37,-33.39 -1.04,-9.32 0.78,-18.25 5.44,-26.79 4.66,-8.54 10.74,-15.79 18.25,-21.75 7.51,-5.95 15.79,-10.22 24.85,-12.81 9.06,-2.59 17.34,-2.72 24.85,-0.39 7.51,2.33 13.59,7.64 18.25,15.92 4.66,8.29 6.47,20.19 5.44,35.73 -0.52,7.25 -2.07,14.49 -4.66,21.74 11.91,-5.69 23.3,-12.56 34.17,-20.58 10.87,-8.03 20.19,-16.44 27.96,-25.24l10.1 2.33c-2.07,5.18 -5.83,10.74 -11.26,16.7 -5.44,5.95 -11.91,11.78 -19.42,17.47 -7.51,5.7 -15.66,11.13 -24.46,16.31 -8.8,5.18 -17.86,9.58 -27.18,13.2 -6.21,9.32 -13.72,17.73 -22.52,25.24 -8.8,7.51 -18.38,14.11 -28.73,19.8 -10.36,5.69 -21.1,10.35 -32.23,13.98 -11.13,3.62 -21.87,5.95 -32.23,6.99 -30.03,3.11 -45.04,-11.91 -45.04,-45.04 0,-13.98 2.59,-29.51 7.76,-46.6 5.18,-17.09 11.78,-34.3 19.8,-51.64 8.03,-17.34 16.7,-33.91 26.02,-49.71 9.32,-15.79 18.12,-29.12 26.4,-40 2.07,-2.59 4.92,-3.62 8.54,-3.1 3.63,0.52 7.25,1.94 10.87,4.27 3.63,2.33 6.6,5.18 8.93,8.54 2.33,3.37 3.49,6.34 3.49,8.93 0,3.11 -1.04,5.95 -3.11,8.54 -1.55,2.59 -4.53,7.12 -8.93,13.59 -4.4,6.47 -9.06,13.46 -13.98,20.97 -4.92,7.51 -9.58,14.63 -13.98,21.36 -4.4,6.73 -7.38,11.13 -8.93,13.2zm82.32 52.81c5.7,-11.39 8.15,-20.45 7.38,-27.18 -0.78,-6.73 -3.49,-11.78 -8.15,-15.15 -4.66,-3.37 -10.36,-4.79 -17.09,-4.27 -6.73,0.52 -12.94,2.46 -18.64,5.83 -5.69,3.37 -10.1,8.03 -13.2,13.98 -3.11,5.95 -3.11,13.07 0,21.36 2.59,8.28 7.89,13.46 15.92,15.53 8.03,2.07 17.48,1.81 28.35,-0.78 1.03,-1.56 1.94,-3.11 2.72,-4.66 0.78,-1.56 1.68,-3.11 2.72,-4.66z"/>
  <path id="_8" class="fil0" d="M2491.14 326.96c0,3.62 -1.55,8.03 -4.66,13.2 -35.21,58.51 -71.71,87.76 -109.5,87.76 -29.51,0 -44.27,-18.64 -44.27,-55.92 0,-33.14 7.51,-62.39 22.52,-87.76 -36.24,32.62 -73.26,77.66 -111.06,135.13 -3.11,4.66 -5.44,6.99 -6.99,6.99 -4.66,0 -6.99,-4.66 -6.99,-13.98 0,-2.59 0.52,-4.66 1.55,-6.22 10.87,-26.4 22.27,-63.94 34.17,-112.61 1.55,-8.29 4.14,-20.45 7.76,-36.5 1.56,-3.62 5.18,-7.25 10.87,-10.87 5.69,-3.63 10.87,-5.44 15.53,-5.44 3.62,0 5.44,1.55 5.44,4.66 0,5.18 -12.17,44.53 -36.5,118.05 6.22,-8.28 25.63,-30.29 58.25,-66.01 10.87,-12.42 26.92,-30.03 48.15,-52.81 4.14,-3.62 8.28,-5.44 12.42,-5.44 11.91,0 17.86,5.95 17.86,17.86 0,2.59 -1.04,5.69 -3.11,9.32 -28.99,47.63 -43.49,85.43 -43.49,113.39 0,19.67 9.32,29.51 27.96,29.51 14.5,0 30.03,-7.51 46.6,-22.52 10.87,-9.32 23.04,-23.3 36.5,-41.94 10.87,-15.01 17.08,-22.52 18.64,-22.52 1.56,0 2.33,1.55 2.33,4.66z"/>
  <path id="_9" class="fil0" d="M2666.65 335.5c0,1.04 -0.52,2.07 -1.55,3.11 -7.25,12.43 -18.25,23.04 -33.01,31.84 -14.76,8.8 -29.12,13.2 -43.1,13.2 -10.35,0 -19.93,-2.59 -28.73,-7.77 -23.82,37.79 -48.41,56.69 -73.78,56.69 -18.12,0 -27.18,-10.61 -27.18,-31.84 0,-29.51 12.94,-64.2 38.83,-104.07 -1.03,-5.69 -1.55,-11.39 -1.55,-17.08 0,-18.64 6.21,-36.76 18.64,-54.37 12.42,-17.6 27.7,-26.4 45.82,-26.4 11.91,0 21.49,6.99 28.73,20.97 5.7,11.91 8.54,24.34 8.54,37.28 0,27.96 -10.87,63.42 -32.62,106.4 7.77,4.66 16.57,6.99 26.41,6.99 17.08,0 33.13,-6.73 48.15,-20.19 15.01,-13.46 22,-20.19 20.97,-20.19 3.63,0 5.44,1.81 5.44,5.44zm-91.64 -59.02c0,-11.39 -1.81,-23.04 -5.44,-34.95 -5.18,-16.57 -11.91,-24.85 -20.19,-24.85 -11.91,0 -21.23,7.25 -27.96,21.75 -5.18,11.39 -7.51,23.82 -6.99,37.28 8.29,-9.84 16.57,-14.76 24.85,-14.76 7.76,0 13.46,2.59 17.08,7.76 0,0.52 0,1.81 0,3.88 0.52,1.56 0.78,2.85 0.78,3.88 0,1.55 -2.59,2.33 -7.76,2.33 -9.32,0 -19.16,9.84 -29.51,29.51 6.73,19.67 18.64,35.72 35.72,48.15 12.95,-32.62 19.42,-59.28 19.42,-79.99zm-25.63 90.86c-17.09,-11.39 -30.03,-24.59 -38.83,-39.61 -15.53,32.62 -23.3,56.18 -23.3,70.67 0,10.35 3.88,15.53 11.65,15.53 7.25,0 16.83,-6.21 28.73,-18.64 10.36,-9.84 17.61,-19.16 21.75,-27.96z"/>
  <path id="_10" class="fil0" d="M2804.89 282.69c-10.35,21.75 -21.49,43.36 -33.39,64.85 -11.91,21.49 -23.04,37.41 -33.39,47.76 -14.5,13.98 -28.22,23.04 -41.16,27.18 -12.94,4.14 -23.81,4.01 -32.62,-0.39 -8.8,-4.4 -15.15,-12.94 -19.03,-25.63 -3.88,-12.68 -4.01,-29.12 -0.39,-49.32 1.55,-9.84 4.4,-16.57 8.54,-20.19 4.14,-3.63 8.54,-5.44 13.2,-5.44 4.66,0 8.8,1.43 12.43,4.27 3.62,2.85 5.95,6.08 6.99,9.71 -8.28,21.23 -12.3,38.32 -12.04,51.26 0.26,12.95 3.88,20.71 10.87,23.3 6.99,2.59 16.7,-0.39 29.12,-8.93 12.43,-8.54 26.41,-23.69 41.94,-45.43 5.69,-7.77 12.3,-18.64 19.8,-32.62 7.51,-13.98 15.14,-34.17 22.91,-60.58 19.16,-9.84 32.88,-14.63 41.16,-14.37 8.29,0.26 12.82,3.62 13.59,10.1 0.78,6.47 -1.17,15.27 -5.83,26.4 -4.66,11.13 -9.84,22.78 -15.53,34.95 -5.7,12.17 -11,23.81 -15.92,34.95 -4.92,11.13 -7.38,20.06 -7.38,26.79 1.55,-2.07 4.4,-5.83 8.54,-11.26 4.14,-5.44 9.32,-11.91 15.53,-19.42 6.21,-7.51 13.07,-15.66 20.58,-24.46 7.51,-8.8 15.4,-17.6 23.69,-26.4 10.36,-11.91 26.41,-29.51 48.15,-52.81 2.07,-2.07 4.4,-3.88 6.99,-5.44 2.59,-1.56 4.92,-2.33 6.99,-2.33 11.91,0 17.86,5.95 17.86,17.86 0,2.59 -1.03,5.69 -3.11,9.32 -28.99,47.63 -43.49,85.43 -43.49,113.39 0,19.67 9.32,29.51 27.96,29.51 14.5,0 30.03,-7.51 46.6,-22.52 11.39,-9.84 23.56,-23.82 36.5,-41.94 10.87,-15.01 17.08,-22.52 18.64,-22.52 1.55,0 2.33,1.55 2.33,4.66 0,3.62 -1.55,8.03 -4.66,13.2 -35.21,58.51 -71.71,87.76 -109.5,87.76 -29.51,0 -44.27,-18.64 -44.27,-55.92 0,-16.57 1.68,-31.71 5.05,-45.43 3.37,-13.72 8.67,-27.05 15.92,-40 -10.35,9.84 -19.8,19.68 -28.35,29.51 -8.54,9.84 -18.25,21.49 -29.12,34.95 -4.66,6.21 -9.32,12.68 -13.98,19.42 -4.66,6.73 -9.32,12.68 -13.98,17.86 -4.66,5.18 -9.32,9.06 -13.98,11.65 -4.66,2.59 -9.58,2.33 -14.76,-0.78 -5.69,-3.63 -7.38,-11.39 -5.05,-23.3 2.33,-11.91 5.95,-24.59 10.87,-38.05 4.92,-13.46 9.71,-25.63 14.37,-36.5 4.66,-10.87 6.22,-17.08 4.66,-18.64 0,-2.59 -1.81,-3.88 -5.44,-3.88 -3.62,0 -5.44,1.29 -5.44,3.88z"/>
  <path id="_11" class="fil0" d="M3216.49 335.5c0,1.04 -0.52,2.07 -1.55,3.11 -7.25,12.43 -18.25,23.04 -33.01,31.84 -14.76,8.8 -29.12,13.2 -43.1,13.2 -10.35,0 -19.93,-2.59 -28.73,-7.77 -23.82,37.79 -48.41,56.69 -73.78,56.69 -18.12,0 -27.18,-10.61 -27.18,-31.84 0,-29.51 12.94,-64.2 38.83,-104.07 -1.03,-5.69 -1.55,-11.39 -1.55,-17.08 0,-18.64 6.21,-36.76 18.64,-54.37 12.42,-17.6 27.7,-26.4 45.82,-26.4 11.91,0 21.49,6.99 28.73,20.97 5.7,11.91 8.54,24.34 8.54,37.28 0,27.96 -10.87,63.42 -32.62,106.4 7.77,4.66 16.57,6.99 26.41,6.99 17.08,0 33.13,-6.73 48.15,-20.19 15.01,-13.46 22,-20.19 20.97,-20.19 3.63,0 5.44,1.81 5.44,5.44zm-91.64 -59.02c0,-11.39 -1.81,-23.04 -5.44,-34.95 -5.18,-16.57 -11.91,-24.85 -20.19,-24.85 -11.91,0 -21.23,7.25 -27.96,21.75 -5.18,11.39 -7.51,23.82 -6.99,37.28 8.29,-9.84 16.57,-14.76 24.85,-14.76 7.76,0 13.46,2.59 17.08,7.76 0,0.52 0,1.81 0,3.88 0.52,1.56 0.78,2.85 0.78,3.88 0,1.55 -2.59,2.33 -7.76,2.33 -9.32,0 -19.16,9.84 -29.51,29.51 6.73,19.67 18.64,35.72 35.72,48.15 12.95,-32.62 19.42,-59.28 19.42,-79.99zm-25.63 90.86c-17.09,-11.39 -30.03,-24.59 -38.83,-39.61 -15.53,32.62 -23.3,56.18 -23.3,70.67 0,10.35 3.88,15.53 11.65,15.53 7.25,0 16.83,-6.21 28.73,-18.64 10.36,-9.84 17.61,-19.16 21.75,-27.96z"/>
  <path id="_12" class="fil0" d="M3321.34 309.09c-7.77,6.21 -14.24,13.2 -19.42,20.97 -5.18,7.77 -9.19,15.53 -12.04,23.3 -2.85,7.77 -4.79,15.02 -5.83,21.75 -1.03,6.73 -1.55,12.42 -1.55,17.08 0,17.61 8.54,25.89 25.63,24.85 7.25,-0.52 13.2,-1.81 17.86,-3.88 4.66,-2.07 11.39,-7.51 20.19,-16.31l62.13 -83.1c5.7,2.59 7.77,4.92 6.22,6.99 -1.56,2.07 -4.4,5.18 -8.54,9.32 -19.68,32.1 -37.8,57.08 -54.37,74.94 -16.57,17.86 -34.69,27.31 -54.36,28.35 -12.43,-0.52 -24.2,-3.37 -35.34,-8.54 -11.13,-5.18 -17.99,-14.24 -20.58,-27.18 -2.07,-7.76 -1.29,-15.66 2.33,-23.69 3.62,-8.03 8.93,-16.31 15.92,-24.85 6.99,-8.54 15.4,-17.73 25.24,-27.57 9.84,-9.83 19.93,-20.71 30.29,-32.62 8.28,-6.73 12.3,-13.59 12.04,-20.58 -0.26,-6.99 -3.24,-12.3 -8.93,-15.92 -5.69,-3.62 -13.07,-4.66 -22.13,-3.11 -9.06,1.56 -17.99,7.25 -26.79,17.09 -4.66,5.18 -8.67,9.84 -12.04,13.98 -3.37,4.14 -6.34,8.28 -8.93,12.42 -2.59,4.14 -5.18,8.41 -7.77,12.82 -2.59,4.4 -5.69,9.45 -9.32,15.14 -18.64,28.48 -30.81,42.71 -36.5,42.71 -2.07,0 -3.37,-1.03 -3.88,-3.1 0.52,-0.52 1.03,-1.43 1.55,-2.72 0.52,-1.29 1.29,-3.24 2.33,-5.83 6.21,-7.77 12.42,-16.7 18.64,-26.79 6.22,-10.1 12.95,-20.45 20.19,-31.07 7.25,-10.61 15.4,-20.97 24.46,-31.06 9.06,-10.1 19.55,-19.03 31.45,-26.79 19.16,-6.73 34.82,-9.84 46.99,-9.32 12.17,0.52 19.93,4.14 23.3,10.87 3.37,6.73 1.94,16.18 -4.27,28.35 -6.21,12.17 -17.6,26.54 -34.17,43.1z"/>
  <path id="_13" class="fil0" d="M3639.75 332.39c0,2.59 -1.55,6.21 -4.66,10.87 -22.78,36.76 -44.27,60.32 -64.46,70.67 -9.32,4.66 -18.64,6.99 -27.96,6.99 -31.58,0 -47.37,-22.26 -47.37,-66.79 0,-7.25 0.52,-15.01 1.55,-23.3 -34.69,61.61 -65.49,92.42 -92.42,92.42 -16.05,0 -24.08,-8.8 -24.08,-26.41 0,-26.92 12.94,-59.41 38.83,-97.47 25.89,-38.05 51,-61.22 75.33,-69.51 8.8,-3.62 17.34,-5.44 25.63,-5.44 18.64,0 32.1,6.47 40.38,19.42 1.56,2.59 2.33,4.4 2.33,5.44 0,0.52 -1.81,1.29 -5.44,2.33 -3.63,1.03 -6.22,2.85 -7.77,5.44 -12.42,20.19 -18.64,50.48 -18.64,90.86 0,37.28 8.03,55.92 24.08,55.92 11.39,0 27.57,-12.56 48.54,-37.67 20.97,-25.11 32.23,-37.66 33.78,-37.66 1.55,0 2.33,1.29 2.33,3.88zm-114.16 -81.54c-2.07,-0.52 -4.4,-0.78 -6.99,-0.78 -20.71,0 -42.2,13.2 -64.46,39.61 -31.58,38.31 -47.37,69.64 -47.37,93.97 0,10.87 3.63,16.31 10.87,16.31 11.39,0 26.15,-11.91 44.27,-35.73 25.37,-32.1 46.6,-69.89 63.68,-113.38z"/>
  <path id="_14" class="fil0" d="M3937.97 333.95c0,2.07 -0.52,3.62 -1.56,4.66 -12.94,18.12 -27.44,34.95 -43.49,50.48 -22.26,20.71 -40.9,31.06 -55.91,31.06 -24.34,0 -36.5,-26.92 -36.5,-80.77 0,-8.28 0.26,-17.6 0.78,-27.96 -18.64,16.57 -39.61,46.34 -62.91,89.31 -7.77,14.5 -16.31,21.75 -25.63,21.75 -3.1,0 -5.44,-1.04 -6.99,-3.11 -1.55,-5.7 -2.33,-12.94 -2.33,-21.75 0,-15.01 3.37,-42.45 10.1,-82.32 3.62,-20.19 5.44,-33.13 5.44,-38.83 0,-4.14 -0.78,-6.21 -2.33,-6.21 -8.8,7.76 -23.04,24.59 -42.71,50.48 -21.23,27.96 -44.01,60.83 -68.34,98.63 -3.11,4.66 -5.7,6.99 -7.77,6.99 -4.14,0 -6.21,-4.66 -6.21,-13.98 0,-2.59 0.26,-4.66 0.78,-6.22 11.91,-27.96 24.08,-67.31 36.5,-118.05 1.03,-7.25 3.1,-17.6 6.21,-31.06 1.04,-3.62 4.53,-7.25 10.49,-10.87 5.95,-3.63 11,-5.44 15.15,-5.44 3.62,0 5.44,1.55 5.44,4.66 0,5.18 -12.17,44.53 -36.5,118.05 18.64,-24.85 37.8,-50.48 57.47,-76.88 6.21,-8.28 15.53,-20.71 27.96,-37.28 7.77,-9.32 15.79,-13.98 24.08,-13.98 8.28,0 12.43,4.66 12.43,13.98 0,6.73 -1.81,20.06 -5.44,40 -3.62,19.93 -7.76,49.06 -12.42,87.37 14.5,-20.71 37.02,-51 67.57,-90.86 8.28,-9.84 16.57,-14.76 24.85,-14.76 7.77,0 11.65,4.92 11.65,14.76 0,8.28 -1.29,20.58 -3.88,36.89 -2.59,16.31 -3.88,28.61 -3.88,36.89 0,26.92 6.99,40.39 20.97,40.39 19.68,0 44.79,-21.75 75.33,-65.24 3.11,-5.18 5.7,-7.76 7.77,-7.76 2.59,0 3.88,2.33 3.88,6.99zm-78.44 -144.45c-65.23,-15.53 -113.13,-14.76 -143.67,2.33 -5.69,3.11 -10.35,8.03 -13.98,14.76 -1.55,3.63 -2.33,8.54 -2.33,14.76 0,6.22 -0.78,10.87 -2.33,13.98l-3.1 2.33c-5.18,3.62 -7.38,-0.13 -6.6,-11.26 0.78,-11.13 3.23,-20.58 7.38,-28.35 5.18,-11.91 13.98,-20.97 26.4,-27.18 22.78,-13.46 52.81,-18.64 90.09,-15.53 9.32,0 40.64,4.4 93.97,13.2 32.62,5.7 54.1,5.7 64.46,0 6.22,-3.62 10.61,-8.28 13.2,-13.98 3.11,-6.73 3.75,-12.94 1.94,-18.64 -1.81,-5.7 -1.68,-10.61 0.39,-14.76 1.03,-0.52 1.55,-0.78 1.55,-0.78 4.14,-2.59 6.08,2.59 5.83,15.53 -0.26,12.94 -1.94,22.52 -5.05,28.73 -7.77,15.01 -16.05,25.37 -24.85,31.06 -12.94,7.25 -33.39,8.54 -61.35,3.88 -3.11,-1.55 -9.32,-2.85 -18.64,-3.88 -4.14,0 -11.91,-2.07 -23.3,-6.21z"/>
  <path id="_15" class="fil0" d="M3972.92 293.56c-8.8,17.6 -16.83,35.72 -24.08,54.36 -7.25,18.64 -10.87,32.88 -10.87,42.71 0,18.12 8.54,27.18 25.63,27.18 10.87,0 23.17,-4.53 36.89,-13.59 13.72,-9.06 25.76,-19.54 36.11,-31.45 -13.46,1.04 -24.72,-1.29 -33.78,-6.99 -9.06,-5.7 -13.85,-16.83 -14.37,-33.39 -1.04,-9.32 0.78,-18.25 5.44,-26.79 4.66,-8.54 10.74,-15.79 18.25,-21.75 7.51,-5.95 15.79,-10.22 24.85,-12.81 9.06,-2.59 17.34,-2.72 24.85,-0.39 7.51,2.33 13.59,7.64 18.25,15.92 4.66,8.29 6.47,20.19 5.44,35.73 -0.52,7.25 -2.07,14.49 -4.66,21.74 11.91,-5.69 23.3,-12.56 34.17,-20.58 10.87,-8.03 20.19,-16.44 27.96,-25.24l10.1 2.33c-2.07,5.18 -5.83,10.74 -11.26,16.7 -5.44,5.95 -11.91,11.78 -19.42,17.47 -7.51,5.7 -15.66,11.13 -24.46,16.31 -8.8,5.18 -17.86,9.58 -27.18,13.2 -6.21,9.32 -13.72,17.73 -22.52,25.24 -8.8,7.51 -18.38,14.11 -28.73,19.8 -10.36,5.69 -21.1,10.35 -32.23,13.98 -11.13,3.62 -21.87,5.95 -32.23,6.99 -30.03,3.11 -45.04,-11.91 -45.04,-45.04 0,-13.98 2.59,-29.51 7.76,-46.6 5.18,-17.09 11.78,-34.3 19.8,-51.64 8.03,-17.34 16.7,-33.91 26.02,-49.71 9.32,-15.79 18.12,-29.12 26.4,-40 2.07,-2.59 4.92,-3.62 8.54,-3.1 3.63,0.52 7.25,1.94 10.87,4.27 3.63,2.33 6.6,5.18 8.93,8.54 2.33,3.37 3.49,6.34 3.49,8.93 0,3.11 -1.04,5.95 -3.11,8.54 -1.55,2.59 -4.53,7.12 -8.93,13.59 -4.4,6.47 -9.06,13.46 -13.98,20.97 -4.92,7.51 -9.58,14.63 -13.98,21.36 -4.4,6.73 -7.38,11.13 -8.93,13.2zm82.32 52.81c5.7,-11.39 8.15,-20.45 7.38,-27.18 -0.78,-6.73 -3.49,-11.78 -8.15,-15.15 -4.66,-3.37 -10.36,-4.79 -17.09,-4.27 -6.73,0.52 -12.94,2.46 -18.64,5.83 -5.69,3.37 -10.1,8.03 -13.2,13.98 -3.11,5.95 -3.11,13.07 0,21.36 2.59,8.28 7.89,13.46 15.92,15.53 8.03,2.07 17.48,1.81 28.35,-0.78 1.03,-1.56 1.94,-3.11 2.72,-4.66 0.78,-1.56 1.68,-3.11 2.72,-4.66z"/>
  <path id="_16" class="fil0" d="M4407.83 248.52c0,2.07 -2.33,3.88 -6.99,5.44 -4.66,1.56 -7.77,3.88 -9.32,6.99 -2.59,11.39 -5.44,24.59 -8.54,39.61 -6.21,26.41 -15.27,66.01 -27.18,118.82l3.1 0c27.44,-1.04 41.16,4.92 41.16,17.86 0,3.1 -1.04,4.66 -3.11,4.66 -0.52,0 -2.72,-1.29 -6.6,-3.88 -3.88,-2.59 -11.26,-3.88 -22.13,-3.88 -5.18,0 -10.35,0.26 -15.53,0.78 -19.16,77.66 -43.75,137.98 -73.78,180.95 -55.92,81.81 -115.46,122.71 -178.62,122.71 -24.85,0 -45.69,-7.25 -62.52,-21.75 -16.83,-14.49 -25.24,-33.91 -25.24,-58.25 0,-55.4 39.35,-108.47 118.04,-159.21 66.79,-42.97 131.51,-69.38 194.16,-79.22 3.63,-19.67 9.58,-49.44 17.86,-89.31 -34.69,61.61 -65.49,92.42 -92.42,92.42 -16.05,0 -24.08,-8.8 -24.08,-26.41 0,-26.4 12.95,-58.76 38.83,-97.08 25.88,-38.31 51,-61.61 75.33,-69.9 9.32,-3.62 17.86,-5.44 25.63,-5.44 7.25,0 16.05,2.46 26.4,7.38 10.36,4.92 15.53,10.49 15.53,16.7zm-36.5 2.33c-2.07,-0.52 -4.4,-0.78 -6.99,-0.78 -20.71,0 -42.2,13.2 -64.46,39.61 -31.58,38.31 -47.37,69.64 -47.37,93.97 0,10.87 3.62,16.31 10.87,16.31 11.39,0 26.15,-11.91 44.27,-35.73 25.37,-32.1 46.59,-69.89 63.68,-113.38zm-47.37 183.28c-34.17,5.7 -74.81,20.45 -121.93,44.27 -47.11,23.82 -83.35,47.63 -108.72,71.45 -38.83,37.28 -58.25,74.3 -58.25,111.06 0,20.19 6.34,36.37 19.03,48.54 12.68,12.17 29.12,18.25 49.32,18.25 32.1,0 63.68,-13.46 94.75,-40.39 24.85,-21.23 46.86,-48.41 66.01,-81.54 27.44,-46.6 47.37,-103.81 59.8,-171.63z"/>
  <path id="_17" class="fil0" d="M4717.7 326.96c0,3.62 -1.55,8.03 -4.66,13.2 -13.46,22.27 -35.73,44.53 -66.79,66.79 -33.14,24.85 -61.1,37.28 -83.88,37.28 -4.66,0 -11.65,-0.26 -20.97,-0.78 -8.8,0 -15.53,0 -20.19,0 -2.07,0 -9.84,-1.81 -23.3,-5.44 -16.05,41.42 -37.8,84.91 -65.24,130.47 -38.83,63.17 -70.41,94.75 -94.75,94.75 -12.94,0 -19.42,-9.58 -19.42,-28.73 0,-25.37 23.3,-72.48 69.9,-141.35 33.13,-45.56 66.53,-91.38 100.18,-137.46l0 -4.66c0,-18.64 -0.26,-34.95 -0.78,-48.93 -19.68,32.1 -32.1,48.15 -37.28,48.15 -3.11,0 -4.66,-1.81 -4.66,-5.44 0,-2.07 0.78,-4.14 2.33,-6.21 22.78,-32.1 34.17,-60.83 34.17,-86.2 0,-5.18 -1.43,-9.45 -4.27,-12.81 -2.85,-3.37 -4.27,-6.08 -4.27,-8.15 0,-2.07 8.03,-3.11 24.08,-3.11 17.6,0 26.4,17.6 26.4,52.81 0,5.18 -0.39,12.81 -1.16,22.91 -0.78,10.1 -1.17,17.47 -1.17,22.13 14.5,-26.4 30.55,-50.74 48.15,-73 26.92,-33.14 49.44,-49.7 67.57,-49.7 16.57,0 24.85,12.17 24.85,36.5 0,30.55 -10.74,66.01 -32.23,106.4 -21.49,40.38 -44.91,68.6 -70.28,84.65 45.04,-1.03 95.01,-35.98 149.89,-104.84 2.07,-2.59 3.63,-3.88 4.66,-3.88 2.07,0 3.11,1.55 3.11,4.66zm-89.31 -70.67c0,-16.05 -4.4,-24.08 -13.2,-24.08 -2.59,0 -5.18,0.52 -7.76,1.55 -18.64,8.28 -38.32,32.36 -59.02,72.23 -15.53,29.51 -27.96,59.8 -37.28,90.86 5.18,7.77 14.24,17.61 27.18,29.51 22.78,-9.83 43.75,-34.43 62.91,-73.78 18.12,-37.28 27.18,-69.38 27.18,-96.3zm-146.78 141.34c-0.52,-0.52 -1.03,-0.78 -1.55,-0.78 -2.07,0 -4.92,2.59 -8.54,7.77 -12.42,18.64 -31.06,46.08 -55.92,82.32 -10.87,15.53 -24.59,39.09 -41.16,70.67 -19.16,36.76 -28.73,60.58 -28.73,71.45 0,4.66 1.55,6.99 4.66,6.99 22.78,0 54.1,-37.28 93.97,-111.83 10.35,-19.67 21.49,-53.59 33.39,-101.74 -0.52,-2.59 -0.78,-5.18 -0.78,-7.77 0,-6.21 1.56,-11.91 4.66,-17.09z"/>
  <path id="_18" class="fil0" d="M4872.25 437.24c0,3.1 -0.78,4.66 -2.33,4.66 -0.52,0 -2.85,-1.29 -6.99,-3.88 -4.14,-2.59 -11.65,-3.88 -22.52,-3.88 -5.18,0 -10.1,0.26 -14.76,0.78 -19.67,77.66 -44.27,137.98 -73.78,180.95 -55.92,81.81 -115.72,122.71 -179.4,122.71 -24.85,0 -45.69,-7.25 -62.52,-21.75 -16.83,-14.49 -25.24,-33.91 -25.24,-58.25 0,-55.4 39.61,-108.47 118.82,-159.21 66.27,-42.97 130.73,-69.38 193.38,-79.22 7.25,-32.1 15.53,-79.73 24.85,-142.9 -6.21,15.02 -17.34,34.82 -33.39,59.41 -16.05,24.59 -29.77,42.84 -41.16,54.75 -13.46,13.98 -26.15,20.97 -38.05,20.97 -16.57,0 -24.85,-14.5 -24.85,-43.49 0,-16.57 5.18,-36.5 15.53,-59.8 11.91,-26.92 25.11,-40.39 39.61,-40.39 7.25,0 10.87,2.07 10.87,6.22 0,0.52 -6.47,12.3 -19.42,35.34 -12.94,23.04 -19.42,40.77 -19.42,53.2 0,16.57 4.66,24.85 13.98,24.85 16.05,0 51,-52.03 104.84,-156.1 1.04,-7.77 7.51,-11.65 19.42,-11.65 9.32,0 13.98,2.07 13.98,6.22 0,6.73 -3.37,28.73 -10.1,66.01 -7.77,44.01 -16.31,86.21 -25.63,126.59l3.1 0c27.44,-1.04 41.16,4.92 41.16,17.86zm-76.11 -3.11c-34.17,5.7 -74.81,20.45 -121.93,44.27 -47.11,23.82 -83.1,47.63 -107.95,71.45 -39.35,37.28 -59.02,74.3 -59.02,111.06 0,20.19 6.34,36.37 19.03,48.54 12.68,12.17 29.38,18.25 50.09,18.25 31.58,0 62.91,-13.46 93.97,-40.39 24.85,-21.23 46.86,-48.41 66.01,-81.54 27.44,-46.6 47.37,-103.81 59.8,-171.63z"/>
  <path id="_19" class="fil0" d="M5033.01 309.09c-7.77,6.21 -14.24,13.2 -19.42,20.97 -5.18,7.77 -9.19,15.53 -12.04,23.3 -2.85,7.77 -4.79,15.02 -5.83,21.75 -1.03,6.73 -1.55,12.42 -1.55,17.08 0,17.61 8.54,25.89 25.63,24.85 7.25,-0.52 13.2,-1.81 17.86,-3.88 4.66,-2.07 11.39,-7.51 20.19,-16.31l62.13 -83.1c5.7,2.59 7.77,4.92 6.22,6.99 -1.56,2.07 -4.4,5.18 -8.54,9.32 -19.68,32.1 -37.8,57.08 -54.37,74.94 -16.57,17.86 -34.69,27.31 -54.36,28.35 -12.43,-0.52 -24.2,-3.37 -35.34,-8.54 -11.13,-5.18 -17.99,-14.24 -20.58,-27.18 -2.07,-7.76 -1.29,-15.66 2.33,-23.69 3.62,-8.03 8.93,-16.31 15.92,-24.85 6.99,-8.54 15.4,-17.73 25.24,-27.57 9.84,-9.83 19.93,-20.71 30.29,-32.62 8.28,-6.73 12.3,-13.59 12.04,-20.58 -0.26,-6.99 -3.24,-12.3 -8.93,-15.92 -5.69,-3.62 -13.07,-4.66 -22.13,-3.11 -9.06,1.56 -17.99,7.25 -26.79,17.09 -4.66,5.18 -8.67,9.84 -12.04,13.98 -3.37,4.14 -6.34,8.28 -8.93,12.42 -2.59,4.14 -5.18,8.41 -7.77,12.82 -2.59,4.4 -5.69,9.45 -9.32,15.14 -18.64,28.48 -30.81,42.71 -36.5,42.71 -2.07,0 -3.37,-1.03 -3.88,-3.1 0.52,-0.52 1.03,-1.43 1.55,-2.72 0.52,-1.29 1.29,-3.24 2.33,-5.83 6.21,-7.77 12.42,-16.7 18.64,-26.79 6.22,-10.1 12.95,-20.45 20.19,-31.07 7.25,-10.61 15.4,-20.97 24.46,-31.06 9.06,-10.1 19.55,-19.03 31.45,-26.79 19.16,-6.73 34.82,-9.84 46.99,-9.32 12.17,0.52 19.93,4.14 23.3,10.87 3.37,6.73 1.94,16.18 -4.27,28.35 -6.21,12.17 -17.6,26.54 -34.17,43.1z"/>
  <path id="_20" class="fil0" d="M5358.41 326.96c0,3.62 -1.56,8.03 -4.66,13.2 -14.5,23.82 -31.32,44.53 -50.48,62.13 -24.85,22.78 -48.15,34.17 -69.9,34.17 -28.99,0 -43.49,-18.12 -43.49,-54.37 0,-8.28 3.88,-24.59 11.65,-48.93 -18.12,26.4 -29.77,42.71 -34.95,48.93 -17.08,20.19 -32.36,30.29 -45.82,30.29 -17.09,0 -25.63,-14.5 -25.63,-43.49 0,-16.57 5.44,-36.5 16.31,-59.8 11.91,-26.92 24.85,-40.39 38.83,-40.39 7.76,0 11.65,2.07 11.65,6.22 0,0.52 -6.6,12.3 -19.8,35.34 -13.2,23.04 -19.8,40.77 -19.8,53.2 0,16.57 4.92,24.85 14.76,24.85 16.57,0 46.34,-37.79 89.31,-113.38 3.62,-7.25 9.06,-17.34 16.31,-30.29 3.63,-4.14 7.51,-6.21 11.65,-6.21 4.66,0 8.93,1.94 12.81,5.83 3.88,3.88 5.83,8.41 5.83,13.59 0,-0.52 -9.19,16.83 -27.57,52.03 -18.38,35.21 -27.57,62.39 -27.57,81.54 0,18.12 8.54,27.18 25.63,27.18 14.5,0 31.07,-8.29 49.71,-24.85 12.42,-10.87 26.4,-26.41 41.94,-46.6 12.94,-16.57 19.93,-24.85 20.97,-24.85 1.55,0 2.33,1.55 2.33,4.66z"/>
  <path id="_21" class="fil0" d="M5491.99 282.69c-10.35,21.75 -21.49,43.36 -33.39,64.85 -11.91,21.49 -23.04,37.41 -33.39,47.76 -14.5,13.98 -28.22,23.04 -41.16,27.18 -12.94,4.14 -23.81,4.01 -32.62,-0.39 -8.8,-4.4 -15.15,-12.94 -19.03,-25.63 -3.88,-12.68 -4.01,-29.12 -0.39,-49.32 1.55,-9.84 4.4,-16.57 8.54,-20.19 4.14,-3.63 8.54,-5.44 13.2,-5.44 4.66,0 8.8,1.43 12.43,4.27 3.62,2.85 5.95,6.08 6.99,9.71 -8.28,21.23 -12.3,38.32 -12.04,51.26 0.26,12.95 3.88,20.71 10.87,23.3 6.99,2.59 16.7,-0.39 29.12,-8.93 12.43,-8.54 26.41,-23.69 41.94,-45.43 5.69,-7.77 12.3,-18.64 19.8,-32.62 7.51,-13.98 15.14,-34.17 22.91,-60.58 19.16,-9.84 32.88,-14.63 41.16,-14.37 8.29,0.26 12.82,3.62 13.59,10.1 0.78,6.47 -1.17,15.27 -5.83,26.4 -4.66,11.13 -9.84,22.78 -15.53,34.95 -5.7,12.17 -11,23.81 -15.92,34.95 -4.92,11.13 -7.38,20.06 -7.38,26.79 1.55,-2.07 4.4,-5.83 8.54,-11.26 4.14,-5.44 9.32,-11.91 15.53,-19.42 6.21,-7.51 13.07,-15.66 20.58,-24.46 7.51,-8.8 15.4,-17.6 23.69,-26.4 10.36,-11.91 26.41,-29.51 48.15,-52.81 2.07,-2.07 4.4,-3.88 6.99,-5.44 2.59,-1.56 4.92,-2.33 6.99,-2.33 11.91,0 17.86,5.95 17.86,17.86 0,2.59 -1.03,5.69 -3.11,9.32 -28.99,47.63 -43.49,85.43 -43.49,113.39 0,19.67 9.32,29.51 27.96,29.51 14.5,0 30.03,-7.51 46.6,-22.52 11.39,-9.84 23.56,-23.82 36.5,-41.94 10.87,-15.01 17.08,-22.52 18.64,-22.52 1.55,0 2.33,1.55 2.33,4.66 0,3.62 -1.55,8.03 -4.66,13.2 -35.21,58.51 -71.71,87.76 -109.5,87.76 -29.51,0 -44.27,-18.64 -44.27,-55.92 0,-16.57 1.68,-31.71 5.05,-45.43 3.37,-13.72 8.67,-27.05 15.92,-40 -10.35,9.84 -19.8,19.68 -28.35,29.51 -8.54,9.84 -18.25,21.49 -29.12,34.95 -4.66,6.21 -9.32,12.68 -13.98,19.42 -4.66,6.73 -9.32,12.68 -13.98,17.86 -4.66,5.18 -9.32,9.06 -13.98,11.65 -4.66,2.59 -9.58,2.33 -14.76,-0.78 -5.69,-3.63 -7.38,-11.39 -5.05,-23.3 2.33,-11.91 5.95,-24.59 10.87,-38.05 4.92,-13.46 9.71,-25.63 14.37,-36.5 4.66,-10.87 6.22,-17.08 4.66,-18.64 0,-2.59 -1.81,-3.88 -5.44,-3.88 -3.62,0 -5.44,1.29 -5.44,3.88z"/>
  <path id="_22" class="fil0" d="M5961.07 325.4c0,3.63 -6.73,5.7 -20.19,6.22 -9.32,0.52 -23.3,1.29 -41.94,2.33 -15.53,2.07 -39.86,4.4 -73,6.99l-3.88 0c-10.35,0.52 -15.53,-1.29 -15.53,-5.44 0,-7.25 9.06,-13.72 27.18,-19.42 8.28,-3.1 19.93,-4.66 34.95,-4.66 18.12,0 42.2,2.07 72.23,6.22 13.46,2.07 20.19,4.66 20.19,7.76z"/>
  <path id="_23" class="fil0" d="M163.61 1046.6c-10.35,21.75 -21.49,43.36 -33.39,64.85 -11.91,21.49 -23.04,37.41 -33.39,47.76 -14.5,13.98 -28.22,23.04 -41.16,27.18 -12.94,4.14 -23.81,4.01 -32.62,-0.39 -8.8,-4.4 -15.15,-12.94 -19.03,-25.63 -3.88,-12.68 -4.01,-29.12 -0.39,-49.32 1.55,-9.84 4.4,-16.57 8.54,-20.19 4.14,-3.63 8.54,-5.44 13.2,-5.44 4.66,0 8.8,1.43 12.43,4.27 3.62,2.85 5.95,6.08 6.99,9.71 -8.28,21.23 -12.3,38.32 -12.04,51.26 0.26,12.95 3.88,20.71 10.87,23.3 6.99,2.59 16.7,-0.39 29.12,-8.93 12.43,-8.54 26.41,-23.69 41.94,-45.43 5.69,-7.77 12.3,-18.64 19.8,-32.62 7.51,-13.98 15.14,-34.17 22.91,-60.58 19.16,-9.84 32.88,-14.63 41.16,-14.37 8.29,0.26 12.82,3.62 13.59,10.1 0.78,6.47 -1.17,15.27 -5.83,26.4 -4.66,11.13 -9.84,22.78 -15.53,34.95 -5.7,12.17 -11,23.81 -15.92,34.95 -4.92,11.13 -7.38,20.06 -7.38,26.79 1.55,-2.07 4.4,-5.83 8.54,-11.26 4.14,-5.44 9.32,-11.91 15.53,-19.42 6.21,-7.51 13.07,-15.66 20.58,-24.46 7.51,-8.8 15.4,-17.6 23.69,-26.4 10.36,-11.91 26.41,-29.51 48.15,-52.81 2.07,-2.07 4.4,-3.88 6.99,-5.44 2.59,-1.56 4.92,-2.33 6.99,-2.33 11.91,0 17.86,5.95 17.86,17.86 0,2.59 -1.03,5.69 -3.11,9.32 -28.99,47.63 -43.49,85.43 -43.49,113.39 0,19.67 9.32,29.51 27.96,29.51 14.5,0 30.03,-7.51 46.6,-22.52 11.39,-9.84 23.56,-23.82 36.5,-41.94 10.87,-15.01 17.08,-22.52 18.64,-22.52 1.55,0 2.33,1.55 2.33,4.66 0,3.62 -1.55,8.03 -4.66,13.2 -35.21,58.51 -71.71,87.76 -109.5,87.76 -29.51,0 -44.27,-18.64 -44.27,-55.92 0,-16.57 1.68,-31.71 5.05,-45.43 3.37,-13.72 8.67,-27.05 15.92,-40 -10.35,9.84 -19.8,19.68 -28.35,29.51 -8.54,9.84 -18.25,21.49 -29.12,34.95 -4.66,6.21 -9.32,12.68 -13.98,19.42 -4.66,6.73 -9.32,12.68 -13.98,17.86 -4.66,5.18 -9.32,9.06 -13.98,11.65 -4.66,2.59 -9.58,2.33 -14.76,-0.78 -5.69,-3.63 -7.38,-11.39 -5.05,-23.3 2.33,-11.91 5.95,-24.59 10.87,-38.05 4.92,-13.46 9.71,-25.63 14.37,-36.5 4.66,-10.87 6.22,-17.08 4.66,-18.64 0,-2.59 -1.81,-3.88 -5.44,-3.88 -3.62,0 -5.44,1.29 -5.44,3.88z"/>
  <path id="_24" class="fil0" d="M575.21 1099.41c0,1.04 -0.52,2.07 -1.55,3.11 -7.25,12.43 -18.25,23.04 -33.01,31.84 -14.76,8.8 -29.12,13.2 -43.1,13.2 -10.35,0 -19.93,-2.59 -28.73,-7.77 -23.82,37.79 -48.41,56.69 -73.78,56.69 -18.12,0 -27.18,-10.61 -27.18,-31.84 0,-29.51 12.94,-64.2 38.83,-104.07 -1.03,-5.69 -1.55,-11.39 -1.55,-17.08 0,-18.64 6.21,-36.76 18.64,-54.37 12.42,-17.6 27.7,-26.4 45.82,-26.4 11.91,0 21.49,6.99 28.73,20.97 5.7,11.91 8.54,24.34 8.54,37.28 0,27.96 -10.87,63.42 -32.62,106.4 7.77,4.66 16.57,6.99 26.41,6.99 17.08,0 33.13,-6.73 48.15,-20.19 15.01,-13.46 22,-20.19 20.97,-20.19 3.63,0 5.44,1.81 5.44,5.44zm-91.64 -59.02c0,-11.39 -1.81,-23.04 -5.44,-34.95 -5.18,-16.57 -11.91,-24.85 -20.19,-24.85 -11.91,0 -21.23,7.25 -27.96,21.75 -5.18,11.39 -7.51,23.82 -6.99,37.28 8.29,-9.84 16.57,-14.76 24.85,-14.76 7.76,0 13.46,2.59 17.08,7.76 0,0.52 0,1.81 0,3.88 0.52,1.56 0.78,2.85 0.78,3.88 0,1.55 -2.59,2.33 -7.76,2.33 -9.32,0 -19.16,9.84 -29.51,29.51 6.73,19.67 18.64,35.72 35.72,48.15 12.95,-32.62 19.42,-59.28 19.42,-79.99zm-25.63 90.86c-17.09,-11.39 -30.03,-24.59 -38.83,-39.61 -15.53,32.62 -23.3,56.18 -23.3,70.67 0,10.35 3.88,15.53 11.65,15.53 7.25,0 16.83,-6.21 28.73,-18.64 10.36,-9.84 17.61,-19.16 21.75,-27.96z"/>
  <path id="_25" class="fil0" d="M757.72 1060.58c11.39,1.04 17.09,6.99 17.09,17.86 0,1.04 -1.04,4.14 -3.11,9.32 -5.69,11.91 -11,22.26 -15.92,31.06 -4.92,8.8 -7.38,18.12 -7.38,27.96 0,19.68 9.32,29.51 27.96,29.51 14.5,0 30.03,-7.51 46.6,-22.52 11.39,-9.84 23.56,-23.82 36.5,-41.94 10.87,-15.01 17.08,-22.52 18.64,-22.52 1.55,0 2.33,1.56 2.33,4.66 0,3.63 -1.55,8.03 -4.66,13.2 -35.21,58.51 -71.71,87.76 -109.5,87.76 -29.51,0 -44.27,-18.64 -44.27,-55.91 0,-3.63 0,-7.12 0,-10.49 0,-3.37 0.26,-6.6 0.78,-9.71 2.07,-7.25 4.92,-15.01 8.54,-23.3 -3.11,1.03 -6.21,1.81 -9.32,2.33 -3.11,0.52 -5.95,0.78 -8.54,0.78 -8.8,11.91 -17.6,23.17 -26.4,33.78 -8.8,10.61 -14.5,17.22 -17.09,19.8 -14.5,13.98 -28.73,23.43 -42.71,28.35 -13.98,4.92 -26.15,5.56 -36.5,1.94 -10.35,-3.63 -17.99,-11.39 -22.91,-23.3 -4.92,-11.91 -5.56,-27.96 -1.94,-48.15 1.55,-9.84 4.4,-16.57 8.54,-20.19 4.14,-3.63 8.54,-5.44 13.2,-5.44 4.66,0 8.8,1.43 12.42,4.27 3.63,2.85 5.95,6.08 6.99,9.71 -8.29,21.23 -12.3,38.32 -12.04,51.26 0.26,12.95 3.88,20.71 10.87,23.3 6.99,2.59 16.7,-0.39 29.12,-8.93 12.42,-8.54 26.4,-23.69 41.94,-45.43 3.11,-4.14 7.77,-10.87 13.98,-20.19 -15.53,-0.52 -29.38,-4.14 -41.55,-10.87 -12.17,-6.73 -20.32,-15.4 -24.46,-26.02 -4.14,-10.61 -3.37,-22 2.33,-34.17 5.7,-12.17 18.38,-23.95 38.05,-35.34 13.98,-7.77 25.89,-11.78 35.73,-12.04 9.83,-0.26 17.73,2.07 23.69,6.99 5.95,4.92 10.1,11.65 12.43,20.19 2.33,8.54 3.23,17.73 2.72,27.57 -0.52,9.84 -2.33,19.29 -5.44,28.35 -3.11,9.06 -7.51,16.7 -13.2,22.91 2.59,0 5.18,0 7.76,0 2.59,0 5.18,-0.52 7.77,-1.56 7.25,-12.94 12.43,-20.32 15.53,-22.13 3.11,-1.81 4.92,-2.72 5.44,-2.72zm-38.83 -45.82c-21.74,-7.25 -37.41,-8.41 -46.98,-3.5 -9.58,4.92 -14.63,12.17 -15.15,21.75 -0.52,9.58 3.24,19.67 11.26,30.29 8.03,10.61 19.03,17.73 33.01,21.36 4.66,-7.25 8.93,-14.76 12.81,-22.52 3.88,-7.77 6.73,-14.89 8.54,-21.36 1.81,-6.47 2.59,-12.17 2.33,-17.09 -0.26,-4.92 -2.2,-7.9 -5.83,-8.93z"/>
  <path id="_26" class="fil0" d="M1144.48 1012.43c0,2.07 -2.33,3.88 -6.99,5.44 -4.66,1.56 -7.77,3.88 -9.32,6.99 -2.59,11.39 -5.44,24.59 -8.54,39.61 -6.21,26.41 -15.27,66.01 -27.18,118.82l3.1 0c27.44,-1.04 41.16,4.92 41.16,17.86 0,3.1 -1.04,4.66 -3.11,4.66 -0.52,0 -2.72,-1.29 -6.6,-3.88 -3.88,-2.59 -11.26,-3.88 -22.13,-3.88 -5.18,0 -10.35,0.26 -15.53,0.78 -19.16,77.66 -43.75,137.98 -73.78,180.95 -55.92,81.81 -115.46,122.71 -178.62,122.71 -24.85,0 -45.69,-7.25 -62.52,-21.75 -16.83,-14.49 -25.24,-33.91 -25.24,-58.25 0,-55.4 39.35,-108.47 118.04,-159.21 66.79,-42.97 131.51,-69.38 194.16,-79.22 3.63,-19.67 9.58,-49.44 17.86,-89.31 -34.69,61.61 -65.49,92.42 -92.42,92.42 -16.05,0 -24.08,-8.8 -24.08,-26.41 0,-26.4 12.95,-58.76 38.83,-97.08 25.88,-38.31 51,-61.61 75.33,-69.9 9.32,-3.62 17.86,-5.44 25.63,-5.44 7.25,0 16.05,2.46 26.4,7.38 10.36,4.92 15.53,10.49 15.53,16.7zm-36.5 2.33c-2.07,-0.52 -4.4,-0.78 -6.99,-0.78 -20.71,0 -42.2,13.2 -64.46,39.61 -31.58,38.31 -47.37,69.64 -47.37,93.97 0,10.87 3.62,16.31 10.87,16.31 11.39,0 26.15,-11.91 44.27,-35.73 25.37,-32.1 46.59,-69.89 63.68,-113.38zm-47.37 183.28c-34.17,5.7 -74.81,20.45 -121.93,44.27 -47.11,23.82 -83.35,47.63 -108.72,71.45 -38.83,37.28 -58.25,74.3 -58.25,111.06 0,20.19 6.34,36.37 19.03,48.54 12.68,12.17 29.12,18.25 49.32,18.25 32.1,0 63.68,-13.46 94.75,-40.39 24.85,-21.23 46.86,-48.41 66.01,-81.54 27.44,-46.6 47.37,-103.81 59.8,-171.63z"/>
  <path id="_27" class="fil0" d="M1266.4 968.94c-8.8,13.98 -17.73,30.93 -26.79,50.87 -9.06,19.93 -16.18,38.96 -21.36,57.08 12.95,-23.3 28.73,-45.56 47.37,-66.79 24.85,-28.48 46.86,-42.71 66.01,-42.71 15.53,0 23.3,11.13 23.3,33.39 0,32.1 -10.1,68.6 -30.29,109.5 -13.46,27.96 -31.07,52.29 -52.81,73 -25.89,24.33 -52.29,36.5 -79.22,36.5 -20.71,0 -31.07,-3.88 -31.07,-11.65 0,-3.1 1.56,-4.66 4.66,-4.66 1.56,0 5.31,0.91 11.26,2.72 5.95,1.81 11,2.72 15.15,2.72 23.3,0 46.34,-13.2 69.12,-39.61 17.09,-20.19 31.07,-43.75 41.94,-70.67 9.84,-23.3 14.76,-48.93 14.76,-76.88 0,-17.08 -3.88,-25.63 -11.65,-25.63 -17.09,0 -39.87,23.56 -68.34,70.67 -26.92,44.01 -40.39,76.88 -40.39,98.63 0,5.7 1.94,10.1 5.83,13.2 3.88,3.11 5.83,5.7 5.83,7.77 0,2.07 -1.29,3.1 -3.88,3.1 -19.16,0 -28.73,-13.98 -28.73,-41.94 0,-19.68 4.79,-45.17 14.37,-76.5 9.58,-31.32 24.2,-67.18 43.88,-107.56 16.57,-32.62 45.3,-81.54 86.2,-146.78 63.17,-100.96 114.68,-151.44 154.55,-151.44 23.3,0 34.95,10.61 34.95,31.84 0,37.28 -32.62,89.31 -97.86,156.1 -41.94,42.45 -90.86,81.03 -146.78,115.72zm229.88 -257.84c0,-10.87 -4.4,-16.57 -13.2,-17.09 -13.46,0 -34.43,11.39 -62.91,34.17 -50.22,39.87 -93.45,100.96 -129.69,183.28 -5.7,13.98 -9.84,24.85 -12.43,32.62 37.28,-21.75 80.25,-56.69 128.92,-104.84 58.51,-56.44 88.28,-99.15 89.31,-128.14z"/>
  <path id="_28" class="fil0" d="M1617.44 1090.87c0,3.62 -1.56,8.03 -4.66,13.2 -14.5,23.82 -31.32,44.53 -50.48,62.13 -24.85,22.78 -48.15,34.17 -69.9,34.17 -28.99,0 -43.49,-18.12 -43.49,-54.37 0,-8.28 3.88,-24.59 11.65,-48.93 -18.12,26.4 -29.77,42.71 -34.95,48.93 -17.08,20.19 -32.36,30.29 -45.82,30.29 -17.09,0 -25.63,-14.5 -25.63,-43.49 0,-16.57 5.44,-36.5 16.31,-59.8 11.91,-26.92 24.85,-40.39 38.83,-40.39 7.76,0 11.65,2.07 11.65,6.22 0,0.52 -6.6,12.3 -19.8,35.34 -13.2,23.04 -19.8,40.77 -19.8,53.2 0,16.57 4.92,24.85 14.76,24.85 16.57,0 46.34,-37.79 89.31,-113.38 3.62,-7.25 9.06,-17.34 16.31,-30.29 3.63,-4.14 7.51,-6.21 11.65,-6.21 4.66,0 8.93,1.94 12.81,5.83 3.88,3.88 5.83,8.41 5.83,13.59 0,-0.52 -9.19,16.83 -27.57,52.03 -18.38,35.21 -27.57,62.39 -27.57,81.54 0,18.12 8.54,27.18 25.63,27.18 14.5,0 31.07,-8.29 49.71,-24.85 12.42,-10.87 26.4,-26.41 41.94,-46.6 12.94,-16.57 19.93,-24.85 20.97,-24.85 1.55,0 2.33,1.55 2.33,4.66z"/>
  <path id="_29" class="fil0" d="M1596.47 1090.09c-5.7,6.22 -10.1,9.32 -13.2,9.32 -2.07,0 -3.11,-0.78 -3.11,-2.33 0,-1.55 1.56,-4.4 4.66,-8.54 5.7,-10.87 11.78,-21.49 18.25,-31.84 6.47,-10.35 13.72,-19.42 21.74,-27.18 8.03,-7.77 16.83,-14.11 26.41,-19.03 9.58,-4.92 20.06,-7.38 31.45,-7.38 38.31,0 57.47,20.45 57.47,61.35 0,9.84 -2.07,19.93 -6.21,30.29l3.1 -3.1c32.1,-22.27 52.81,-45.3 62.13,-69.12 1.56,-5.18 1.56,-10.1 0,-14.76 -0.52,-2.07 -1.03,-3.88 -1.55,-5.44 -0.52,-1.55 -0.26,-2.72 0.78,-3.49 1.04,-0.78 3.11,-0.78 6.21,0 3.11,0.78 8.03,2.72 14.76,5.83 13.98,5.69 15.79,24.59 5.44,56.69 -0.52,2.59 -1.56,5.7 -3.11,9.32 -1.55,3.63 -3.11,7.51 -4.66,11.65 -1.55,4.14 -3.11,8.03 -4.66,11.65 -1.55,3.63 -2.59,6.47 -3.11,8.54 -3.1,8.28 -5.56,14.37 -7.38,18.25 -1.81,3.88 -3.75,9.19 -5.82,15.92 19.67,-15.53 33.39,-25.37 41.16,-29.51 5.7,-19.16 18.64,-39.87 38.83,-62.13 29,-30.55 55.66,-45.82 79.99,-45.82 16.57,0 24.85,6.47 24.85,19.42 0,5.18 -3.88,14.24 -11.65,27.18 -7.25,12.43 -13.2,18.64 -17.86,18.64 -2.07,0 -3.1,-1.29 -3.1,-3.88 0,-2.07 0.9,-5.44 2.72,-10.1 1.81,-4.66 2.72,-8.28 2.72,-10.87 0,-10.87 -6.73,-16.31 -20.19,-16.31 -18.64,0 -35.47,12.17 -50.48,36.5 -13.98,22.78 -20.97,43.75 -20.97,62.91 0,32.1 13.98,48.15 41.94,48.15 35.21,0 71.97,-24.08 110.28,-72.23 5.18,-6.21 9.58,-9.32 13.2,-9.32 2.07,0 3.11,0.78 3.11,2.33 0,2.07 -1.56,4.92 -4.66,8.54 -17.61,25.88 -42.71,49.96 -75.33,72.23 -19.16,11.91 -38.83,17.86 -59.02,17.86 -38.32,0 -57.47,-20.45 -57.47,-61.35 0,-2.07 0,-4.14 0,-6.22 -27.44,20.19 -45.3,41.16 -53.59,62.91 -1.03,2.59 -0.26,4.92 2.33,6.99 2.59,2.07 4.4,4.4 5.44,6.99 0.52,2.07 1.03,3.88 1.55,5.44 0.52,1.55 0.13,2.72 -1.16,3.49 -1.29,0.78 -3.5,0.78 -6.6,0 -3.11,-0.78 -7.77,-2.72 -13.98,-5.83 -13.98,-5.18 -15.79,-24.08 -5.44,-56.69 1.03,-4.66 2.98,-10.22 5.82,-16.7 2.85,-6.47 4.79,-11.78 5.83,-15.92 3.11,-8.28 5.56,-15.79 7.38,-22.52 1.81,-6.73 3.49,-13.46 5.05,-20.19 -29,23.3 -46.08,34.17 -51.26,32.62 -2.07,0 -3.37,-1.03 -3.88,-3.1 -6.73,15.53 -17.86,31.58 -33.39,48.15 -28.99,30.54 -55.66,45.82 -79.99,45.82 -16.57,0 -24.85,-6.47 -24.85,-19.42 0,-4.66 3.88,-13.72 11.65,-27.18 6.73,-12.43 12.68,-18.64 17.86,-18.64 2.07,0 3.11,1.29 3.11,3.88 0,2.07 -0.9,5.44 -2.72,10.1 -1.81,4.66 -2.72,8.28 -2.72,10.87 0,10.87 6.73,16.31 20.19,16.31 18.64,0 35.47,-12.17 50.48,-36.5 13.98,-22.27 20.97,-43.23 20.97,-62.91 0,-32.1 -13.98,-48.15 -41.94,-48.15 -8.8,0 -16.44,1.56 -22.91,4.66 -6.47,3.11 -12.43,7.64 -17.86,13.59 -5.44,5.95 -10.61,12.94 -15.53,20.97 -4.92,8.03 -10.22,16.96 -15.92,26.79l-1.55 1.55z"/>
  <path id="_30" class="fil0" d="M2189.81 1201.15c0,3.1 -0.78,4.66 -2.33,4.66 -0.52,0 -2.85,-1.29 -6.99,-3.88 -4.14,-2.59 -11.65,-3.88 -22.52,-3.88 -5.18,0 -10.1,0.26 -14.76,0.78 -19.67,77.66 -44.27,137.98 -73.78,180.95 -55.92,81.81 -115.72,122.71 -179.4,122.71 -24.85,0 -45.69,-7.25 -62.52,-21.75 -16.83,-14.49 -25.24,-33.91 -25.24,-58.25 0,-55.4 39.61,-108.47 118.82,-159.21 66.27,-42.97 130.73,-69.38 193.38,-79.22 7.25,-32.1 15.53,-79.73 24.85,-142.9 -6.21,15.02 -17.34,34.82 -33.39,59.41 -16.05,24.59 -29.77,42.84 -41.16,54.75 -13.46,13.98 -26.15,20.97 -38.05,20.97 -16.57,0 -24.85,-14.5 -24.85,-43.49 0,-16.57 5.18,-36.5 15.53,-59.8 11.91,-26.92 25.11,-40.39 39.61,-40.39 7.25,0 10.87,2.07 10.87,6.22 0,0.52 -6.47,12.3 -19.42,35.34 -12.94,23.04 -19.42,40.77 -19.42,53.2 0,16.57 4.66,24.85 13.98,24.85 16.05,0 51,-52.03 104.84,-156.1 1.04,-7.77 7.51,-11.65 19.42,-11.65 9.32,0 13.98,2.07 13.98,6.22 0,6.73 -3.37,28.73 -10.1,66.01 -7.77,44.01 -16.31,86.21 -25.63,126.59l3.1 0c27.44,-1.04 41.16,4.92 41.16,17.86zm-76.11 -3.11c-34.17,5.7 -74.81,20.45 -121.93,44.27 -47.11,23.82 -83.1,47.63 -107.95,71.45 -39.35,37.28 -59.02,74.3 -59.02,111.06 0,20.19 6.34,36.37 19.03,48.54 12.68,12.17 29.38,18.25 50.09,18.25 31.58,0 62.91,-13.46 93.97,-40.39 24.85,-21.23 46.86,-48.41 66.01,-81.54 27.44,-46.6 47.37,-103.81 59.8,-171.63z"/>
  <path id="_31" class="fil0" d="M2494.24 1155.33c-10.35,10.36 -19.93,17.34 -28.73,20.97 -8.8,3.62 -16.44,4.79 -22.91,3.49 -6.47,-1.29 -11.65,-4.92 -15.53,-10.87 -3.88,-5.95 -5.83,-13.59 -5.83,-22.91 0,-4.14 1.29,-10.49 3.88,-19.03 2.59,-8.54 5.95,-18.77 10.1,-30.68 -8.8,13.46 -16.57,24.33 -23.3,32.62 -6.73,8.28 -11.39,13.98 -13.98,17.08 -17.09,20.19 -32.36,30.29 -45.82,30.29 -17.08,0 -25.63,-14.5 -25.63,-43.49 0,-7.25 0.78,-14.76 2.33,-22.52 -6.22,9.32 -11.39,16.96 -15.53,22.91 -4.14,5.95 -7.51,10.22 -10.1,12.81 -17.08,20.19 -32.36,30.29 -45.82,30.29 -17.09,0 -25.63,-14.5 -25.63,-43.49 0,-16.57 5.44,-36.5 16.31,-59.8 11.39,-26.92 24.33,-40.39 38.83,-40.39 7.76,0 11.65,2.07 11.65,6.22 0,0 -6.73,11.91 -20.19,35.72 -12.94,22.27 -19.42,39.87 -19.42,52.81 0,16.57 4.92,24.85 14.76,24.85 13.46,0 35.98,-25.11 67.57,-75.33 0,-0.52 0.52,-1.81 1.55,-3.88 5.18,-12.43 11.13,-22.52 17.86,-30.29 0.52,-1.03 1.04,-1.81 1.56,-2.33 0.52,-0.52 1.03,-1.29 1.55,-2.33l-1.55 3.88c6.21,-6.21 12.68,-9.32 19.42,-9.32 7.76,0 11.65,2.07 11.65,6.22 0,0 -6.73,11.91 -20.19,35.72 -12.95,22.27 -19.42,39.87 -19.42,52.81 0,16.57 4.92,24.85 14.76,24.85 16.57,0 46.34,-37.79 89.31,-113.38 3.62,-6.73 9.06,-16.83 16.31,-30.29 4.14,-4.14 8.03,-6.21 11.65,-6.21 4.66,0 8.93,1.94 12.82,5.83 3.88,3.88 5.82,8.41 5.82,13.59 0,0 -9.32,17.34 -27.96,52.03 -18.12,35.21 -27.18,61.87 -27.18,79.99 0,5.69 0.78,9.97 2.33,12.81 1.56,2.85 4.14,3.88 7.77,3.11 3.62,-0.78 8.54,-3.88 14.76,-9.32 6.21,-5.44 14.24,-13.59 24.08,-24.46 2.59,-3.11 4.4,-2.59 5.44,1.55 1.04,4.14 -2.07,10.1 -9.32,17.86zm-128.92 116.49c2.59,-5.7 6.47,-8.54 11.65,-8.54 0,-1.04 4.66,1.68 13.98,8.15 9.32,6.47 17.34,9.19 24.08,8.15 19.67,-1.03 34.95,-13.98 45.82,-38.83 10.36,-23.3 14.5,-48.67 12.43,-76.11l3.11 -3.11c9.32,-0.52 12.17,13.2 8.54,41.16 -2.59,24.85 -7.51,45.3 -14.76,61.35 -10.35,24.33 -27.18,37.8 -50.48,40.38 -8.8,0 -20.45,-3.1 -34.95,-9.32 -16.57,-8.28 -23.04,-16.05 -19.42,-23.3z"/>
  <path id="_32" class="fil0" d="M2777.71 1096.31c0,2.59 -1.55,6.21 -4.66,10.87 -22.78,36.76 -44.27,60.32 -64.46,70.67 -9.32,4.66 -18.64,6.99 -27.96,6.99 -31.58,0 -47.37,-22.26 -47.37,-66.79 0,-7.25 0.52,-15.01 1.55,-23.3 -34.69,61.61 -65.49,92.42 -92.42,92.42 -16.05,0 -24.08,-8.8 -24.08,-26.41 0,-26.92 12.94,-59.41 38.83,-97.47 25.89,-38.05 51,-61.22 75.33,-69.51 8.8,-3.62 17.34,-5.44 25.63,-5.44 18.64,0 32.1,6.47 40.38,19.42 1.56,2.59 2.33,4.4 2.33,5.44 0,0.52 -1.81,1.29 -5.44,2.33 -3.63,1.03 -6.22,2.85 -7.77,5.44 -12.42,20.19 -18.64,50.48 -18.64,90.86 0,37.28 8.03,55.92 24.08,55.92 11.39,0 27.57,-12.56 48.54,-37.67 20.97,-25.11 32.23,-37.66 33.78,-37.66 1.55,0 2.33,1.29 2.33,3.88zm-114.16 -81.54c-2.07,-0.52 -4.4,-0.78 -6.99,-0.78 -20.71,0 -42.2,13.2 -64.46,39.61 -31.58,38.31 -47.37,69.64 -47.37,93.97 0,10.87 3.63,16.31 10.87,16.31 11.39,0 26.15,-11.91 44.27,-35.73 25.37,-32.1 46.6,-69.89 63.68,-113.38z"/>
  <path id="_33" class="fil0" d="M2960.21 1060.58c11.39,1.04 17.09,6.99 17.09,17.86 0,1.04 -1.04,4.14 -3.11,9.32 -5.69,11.91 -11,22.26 -15.92,31.06 -4.92,8.8 -7.38,18.12 -7.38,27.96 0,19.68 9.32,29.51 27.96,29.51 14.5,0 30.03,-7.51 46.6,-22.52 11.39,-9.84 23.56,-23.82 36.5,-41.94 10.87,-15.01 17.08,-22.52 18.64,-22.52 1.55,0 2.33,1.56 2.33,4.66 0,3.63 -1.55,8.03 -4.66,13.2 -35.21,58.51 -71.71,87.76 -109.5,87.76 -29.51,0 -44.27,-18.64 -44.27,-55.91 0,-3.63 0,-7.12 0,-10.49 0,-3.37 0.26,-6.6 0.78,-9.71 2.07,-7.25 4.92,-15.01 8.54,-23.3 -3.11,1.03 -6.21,1.81 -9.32,2.33 -3.11,0.52 -5.95,0.78 -8.54,0.78 -8.8,11.91 -17.6,23.17 -26.4,33.78 -8.8,10.61 -14.5,17.22 -17.09,19.8 -14.5,13.98 -28.73,23.43 -42.71,28.35 -13.98,4.92 -26.15,5.56 -36.5,1.94 -10.35,-3.63 -17.99,-11.39 -22.91,-23.3 -4.92,-11.91 -5.56,-27.96 -1.94,-48.15 1.55,-9.84 4.4,-16.57 8.54,-20.19 4.14,-3.63 8.54,-5.44 13.2,-5.44 4.66,0 8.8,1.43 12.42,4.27 3.63,2.85 5.95,6.08 6.99,9.71 -8.29,21.23 -12.3,38.32 -12.04,51.26 0.26,12.95 3.88,20.71 10.87,23.3 6.99,2.59 16.7,-0.39 29.12,-8.93 12.42,-8.54 26.4,-23.69 41.94,-45.43 3.11,-4.14 7.77,-10.87 13.98,-20.19 -15.53,-0.52 -29.38,-4.14 -41.55,-10.87 -12.17,-6.73 -20.32,-15.4 -24.46,-26.02 -4.14,-10.61 -3.37,-22 2.33,-34.17 5.7,-12.17 18.38,-23.95 38.05,-35.34 13.98,-7.77 25.89,-11.78 35.73,-12.04 9.83,-0.26 17.73,2.07 23.69,6.99 5.95,4.92 10.1,11.65 12.43,20.19 2.33,8.54 3.23,17.73 2.72,27.57 -0.52,9.84 -2.33,19.29 -5.44,28.35 -3.11,9.06 -7.51,16.7 -13.2,22.91 2.59,0 5.18,0 7.76,0 2.59,0 5.18,-0.52 7.77,-1.56 7.25,-12.94 12.43,-20.32 15.53,-22.13 3.11,-1.81 4.92,-2.72 5.44,-2.72zm-38.83 -45.82c-21.74,-7.25 -37.41,-8.41 -46.98,-3.5 -9.58,4.92 -14.63,12.17 -15.15,21.75 -0.52,9.58 3.24,19.67 11.26,30.29 8.03,10.61 19.03,17.73 33.01,21.36 4.66,-7.25 8.93,-14.76 12.81,-22.52 3.88,-7.77 6.73,-14.89 8.54,-21.36 1.81,-6.47 2.59,-12.17 2.33,-17.09 -0.26,-4.92 -2.2,-7.9 -5.83,-8.93z"/>
  <path id="_34" class="fil0" d="M3373.37 1091.65c0,2.07 -1.55,4.92 -4.66,8.54 -18.12,26.4 -43.23,50.48 -75.33,72.23 -18.64,11.91 -38.31,17.86 -59.02,17.86 -38.31,0 -57.47,-20.45 -57.47,-61.35 0,-25.37 14.11,-53.33 42.32,-83.88 28.22,-30.55 54.75,-45.82 79.6,-45.82 16.57,0 24.85,6.47 24.85,19.42 0,5.18 -3.75,14.11 -11.26,26.8 -7.51,12.68 -13.59,19.03 -18.25,19.03 -2.07,0 -3.1,-1.29 -3.1,-3.88 0,-2.07 0.9,-5.44 2.72,-10.1 1.81,-4.66 2.72,-8.28 2.72,-10.87 0,-10.87 -6.73,-16.31 -20.19,-16.31 -18.64,0 -35.47,12.17 -50.48,36.5 -13.98,22.26 -20.97,43.23 -20.97,62.91 0,32.1 13.98,48.15 41.94,48.15 35.2,0 71.96,-24.08 110.28,-72.23 5.18,-6.21 9.58,-9.32 13.2,-9.32 2.07,0 3.11,0.78 3.11,2.33z"/>
  <path id="_35" class="fil0" d="M3598.6 1090.87c0,3.62 -1.56,8.03 -4.66,13.2 -14.5,23.82 -31.32,44.53 -50.48,62.13 -24.85,22.78 -48.15,34.17 -69.9,34.17 -28.99,0 -43.49,-18.12 -43.49,-54.37 0,-8.28 3.88,-24.59 11.65,-48.93 -18.12,26.4 -29.77,42.71 -34.95,48.93 -17.08,20.19 -32.36,30.29 -45.82,30.29 -17.09,0 -25.63,-14.5 -25.63,-43.49 0,-16.57 5.44,-36.5 16.31,-59.8 11.91,-26.92 24.85,-40.39 38.83,-40.39 7.76,0 11.65,2.07 11.65,6.22 0,0.52 -6.6,12.3 -19.8,35.34 -13.2,23.04 -19.8,40.77 -19.8,53.2 0,16.57 4.92,24.85 14.76,24.85 16.57,0 46.34,-37.79 89.31,-113.38 3.62,-7.25 9.06,-17.34 16.31,-30.29 3.63,-4.14 7.51,-6.21 11.65,-6.21 4.66,0 8.93,1.94 12.81,5.83 3.88,3.88 5.83,8.41 5.83,13.59 0,-0.52 -9.19,16.83 -27.57,52.03 -18.38,35.21 -27.57,62.39 -27.57,81.54 0,18.12 8.54,27.18 25.63,27.18 14.5,0 31.07,-8.29 49.71,-24.85 12.42,-10.87 26.4,-26.41 41.94,-46.6 12.94,-16.57 19.93,-24.85 20.97,-24.85 1.55,0 2.33,1.55 2.33,4.66z"/>
  <path id="_36" class="fil0" d="M3753.14 1051.26c-17.09,22.27 -33.39,43.23 -48.93,62.91 -15.53,19.68 -28.47,34.69 -38.83,45.05 -14.5,13.98 -28.22,23.04 -41.16,27.18 -12.94,4.14 -23.81,4.01 -32.62,-0.39 -8.8,-4.4 -15.15,-12.94 -19.03,-25.63 -3.88,-12.68 -4.01,-29.12 -0.39,-49.32 1.55,-9.84 4.4,-16.57 8.54,-20.19 4.14,-3.63 8.54,-5.44 13.2,-5.44 4.66,0 8.8,1.43 12.43,4.27 3.62,2.85 5.95,6.08 6.99,9.71 -8.28,21.23 -12.3,38.32 -12.04,51.26 0.26,12.95 3.88,20.71 10.87,23.3 6.99,2.59 16.7,-0.39 29.12,-8.93 12.43,-8.54 26.41,-23.69 41.94,-45.43 3.11,-4.14 8.93,-12.04 17.47,-23.69 8.54,-11.65 20.32,-25.76 35.34,-42.32 5.18,-6.22 10.1,-11.91 14.76,-17.09 4.66,-5.18 12.17,-13.46 22.52,-24.85 3.62,-3.62 7.76,-5.44 12.42,-5.44 11.91,0 17.86,5.95 17.86,17.86 0,2.59 -1.03,5.69 -3.11,9.32 -28.99,47.63 -43.49,85.43 -43.49,113.38 0,19.68 9.32,29.51 27.96,29.51 14.5,0 30.03,-7.51 46.6,-22.52 11.39,-9.84 23.56,-23.82 36.5,-41.94 10.87,-15.01 17.08,-22.52 18.64,-22.52 1.55,0 2.33,1.56 2.33,4.66 0,3.63 -1.55,8.03 -4.66,13.2 -35.21,58.51 -71.71,87.76 -109.5,87.76 -29.51,0 -44.27,-18.64 -44.27,-55.91 0,-32.62 7.51,-61.87 22.52,-87.76z"/>
  <path id="_37" class="fil0" d="M4125.92 1096.31c0,2.59 -1.55,6.21 -4.66,10.87 -22.78,36.76 -44.27,60.32 -64.46,70.67 -9.32,4.66 -18.64,6.99 -27.96,6.99 -31.58,0 -47.37,-22.26 -47.37,-66.79 0,-7.25 0.52,-15.01 1.55,-23.3 -34.69,61.61 -65.49,92.42 -92.42,92.42 -16.05,0 -24.08,-8.8 -24.08,-26.41 0,-26.92 12.94,-59.41 38.83,-97.47 25.89,-38.05 51,-61.22 75.33,-69.51 8.8,-3.62 17.34,-5.44 25.63,-5.44 18.64,0 32.1,6.47 40.38,19.42 1.56,2.59 2.33,4.4 2.33,5.44 0,0.52 -1.81,1.29 -5.44,2.33 -3.63,1.03 -6.22,2.85 -7.77,5.44 -12.42,20.19 -18.64,50.48 -18.64,90.86 0,37.28 8.03,55.92 24.08,55.92 11.39,0 27.57,-12.56 48.54,-37.67 20.97,-25.11 32.23,-37.66 33.78,-37.66 1.55,0 2.33,1.29 2.33,3.88zm-114.16 -81.54c-2.07,-0.52 -4.4,-0.78 -6.99,-0.78 -20.71,0 -42.2,13.2 -64.46,39.61 -31.58,38.31 -47.37,69.64 -47.37,93.97 0,10.87 3.63,16.31 10.87,16.31 11.39,0 26.15,-11.91 44.27,-35.73 25.37,-32.1 46.6,-69.89 63.68,-113.38z"/>
  <path id="_38" class="fil0" d="M4308.42 968.94c-8.8,13.98 -17.73,30.93 -26.79,50.87 -9.06,19.93 -16.18,38.96 -21.36,57.08 12.95,-23.3 28.73,-45.56 47.37,-66.79 24.85,-28.48 46.86,-42.71 66.01,-42.71 15.53,0 23.3,11.13 23.3,33.39 0,32.1 -10.1,68.6 -30.29,109.5 -13.46,27.96 -31.07,52.29 -52.81,73 -25.89,24.33 -52.29,36.5 -79.22,36.5 -20.71,0 -31.07,-3.88 -31.07,-11.65 0,-3.1 1.56,-4.66 4.66,-4.66 1.56,0 5.31,0.91 11.26,2.72 5.95,1.81 11,2.72 15.15,2.72 23.3,0 46.34,-13.2 69.12,-39.61 17.09,-20.19 31.07,-43.75 41.94,-70.67 9.84,-23.3 14.76,-48.93 14.76,-76.88 0,-17.08 -3.88,-25.63 -11.65,-25.63 -17.09,0 -39.87,23.56 -68.34,70.67 -26.92,44.01 -40.39,76.88 -40.39,98.63 0,5.7 1.94,10.1 5.83,13.2 3.88,3.11 5.83,5.7 5.83,7.77 0,2.07 -1.29,3.1 -3.88,3.1 -19.16,0 -28.73,-13.98 -28.73,-41.94 0,-19.68 4.79,-45.17 14.37,-76.5 9.58,-31.32 24.2,-67.18 43.88,-107.56 16.57,-32.62 45.3,-81.54 86.2,-146.78 63.17,-100.96 114.68,-151.44 154.55,-151.44 23.3,0 34.95,10.61 34.95,31.84 0,37.28 -32.62,89.31 -97.86,156.1 -41.94,42.45 -90.86,81.03 -146.78,115.72zm229.88 -257.84c0,-10.87 -4.4,-16.57 -13.2,-17.09 -13.46,0 -34.43,11.39 -62.91,34.17 -50.22,39.87 -93.45,100.96 -129.69,183.28 -5.7,13.98 -9.84,24.85 -12.43,32.62 37.28,-21.75 80.25,-56.69 128.92,-104.84 58.51,-56.44 88.28,-99.15 89.31,-128.14z"/>
  <path id="_39" class="fil0" d="M4526.66 1090.09c-5.7,6.22 -10.1,9.32 -13.2,9.32 -2.07,0 -3.11,-0.78 -3.11,-2.33 0,-1.55 1.56,-4.4 4.66,-8.54 5.7,-10.87 11.78,-21.49 18.25,-31.84 6.47,-10.35 13.72,-19.42 21.74,-27.18 8.03,-7.77 16.83,-14.11 26.41,-19.03 9.58,-4.92 20.06,-7.38 31.45,-7.38 38.31,0 57.47,20.45 57.47,61.35 0,9.84 -2.07,19.93 -6.21,30.29l3.1 -3.1c32.1,-22.27 52.81,-45.3 62.13,-69.12 1.56,-5.18 1.56,-10.1 0,-14.76 -0.52,-2.07 -1.03,-3.88 -1.55,-5.44 -0.52,-1.55 -0.26,-2.72 0.78,-3.49 1.04,-0.78 3.11,-0.78 6.21,0 3.11,0.78 8.03,2.72 14.76,5.83 13.98,5.69 15.79,24.59 5.44,56.69 -0.52,2.59 -1.56,5.7 -3.11,9.32 -1.55,3.63 -3.11,7.51 -4.66,11.65 -1.55,4.14 -3.11,8.03 -4.66,11.65 -1.55,3.63 -2.59,6.47 -3.11,8.54 -3.1,8.28 -5.56,14.37 -7.38,18.25 -1.81,3.88 -3.75,9.19 -5.82,15.92 19.67,-15.53 33.39,-25.37 41.16,-29.51 5.7,-19.16 18.64,-39.87 38.83,-62.13 29,-30.55 55.66,-45.82 79.99,-45.82 16.57,0 24.85,6.47 24.85,19.42 0,5.18 -3.88,14.24 -11.65,27.18 -7.25,12.43 -13.2,18.64 -17.86,18.64 -2.07,0 -3.1,-1.29 -3.1,-3.88 0,-2.07 0.9,-5.44 2.72,-10.1 1.81,-4.66 2.72,-8.28 2.72,-10.87 0,-10.87 -6.73,-16.31 -20.19,-16.31 -18.64,0 -35.47,12.17 -50.48,36.5 -13.98,22.78 -20.97,43.75 -20.97,62.91 0,32.1 13.98,48.15 41.94,48.15 35.21,0 71.97,-24.08 110.28,-72.23 5.18,-6.21 9.58,-9.32 13.2,-9.32 2.07,0 3.11,0.78 3.11,2.33 0,2.07 -1.56,4.92 -4.66,8.54 -17.61,25.88 -42.71,49.96 -75.33,72.23 -19.16,11.91 -38.83,17.86 -59.02,17.86 -38.32,0 -57.47,-20.45 -57.47,-61.35 0,-2.07 0,-4.14 0,-6.22 -27.44,20.19 -45.3,41.16 -53.59,62.91 -1.03,2.59 -0.26,4.92 2.33,6.99 2.59,2.07 4.4,4.4 5.44,6.99 0.52,2.07 1.03,3.88 1.55,5.44 0.52,1.55 0.13,2.72 -1.16,3.49 -1.29,0.78 -3.5,0.78 -6.6,0 -3.11,-0.78 -7.77,-2.72 -13.98,-5.83 -13.98,-5.18 -15.79,-24.08 -5.44,-56.69 1.03,-4.66 2.98,-10.22 5.82,-16.7 2.85,-6.47 4.79,-11.78 5.83,-15.92 3.11,-8.28 5.56,-15.79 7.38,-22.52 1.81,-6.73 3.49,-13.46 5.05,-20.19 -29,23.3 -46.08,34.17 -51.26,32.62 -2.07,0 -3.37,-1.03 -3.88,-3.1 -6.73,15.53 -17.86,31.58 -33.39,48.15 -28.99,30.54 -55.66,45.82 -79.99,45.82 -16.57,0 -24.85,-6.47 -24.85,-19.42 0,-4.66 3.88,-13.72 11.65,-27.18 6.73,-12.43 12.68,-18.64 17.86,-18.64 2.07,0 3.11,1.29 3.11,3.88 0,2.07 -0.9,5.44 -2.72,10.1 -1.81,4.66 -2.72,8.28 -2.72,10.87 0,10.87 6.73,16.31 20.19,16.31 18.64,0 35.47,-12.17 50.48,-36.5 13.98,-22.27 20.97,-43.23 20.97,-62.91 0,-32.1 -13.98,-48.15 -41.94,-48.15 -8.8,0 -16.44,1.56 -22.91,4.66 -6.47,3.11 -12.43,7.64 -17.86,13.59 -5.44,5.95 -10.61,12.94 -15.53,20.97 -4.92,8.03 -10.22,16.96 -15.92,26.79l-1.55 1.55z"/>
  <path id="_40" class="fil0" d="M5193.77 1090.87c0,3.62 -1.56,8.03 -4.66,13.2 -14.5,23.82 -31.32,44.53 -50.48,62.13 -24.85,22.78 -48.15,34.17 -69.9,34.17 -28.99,0 -43.49,-18.12 -43.49,-54.37 0,-8.28 3.88,-24.59 11.65,-48.93 -18.12,26.4 -29.77,42.71 -34.95,48.93 -17.08,20.19 -32.36,30.29 -45.82,30.29 -17.09,0 -25.63,-14.5 -25.63,-43.49 0,-16.57 5.44,-36.5 16.31,-59.8 11.91,-26.92 24.85,-40.39 38.83,-40.39 7.76,0 11.65,2.07 11.65,6.22 0,0.52 -6.6,12.3 -19.8,35.34 -13.2,23.04 -19.8,40.77 -19.8,53.2 0,16.57 4.92,24.85 14.76,24.85 16.57,0 46.34,-37.79 89.31,-113.38 3.62,-7.25 9.06,-17.34 16.31,-30.29 3.63,-4.14 7.51,-6.21 11.65,-6.21 4.66,0 8.93,1.94 12.81,5.83 3.88,3.88 5.83,8.41 5.83,13.59 0,-0.52 -9.19,16.83 -27.57,52.03 -18.38,35.21 -27.57,62.39 -27.57,81.54 0,18.12 8.54,27.18 25.63,27.18 14.5,0 31.07,-8.29 49.71,-24.85 12.42,-10.87 26.4,-26.41 41.94,-46.6 12.94,-16.57 19.93,-24.85 20.97,-24.85 1.55,0 2.33,1.55 2.33,4.66z"/>
  <path id="_41" class="fil0" d="M5393.36 1201.15c0,3.1 -0.78,4.66 -2.33,4.66 -1.03,0 -3.37,-1.29 -6.99,-3.88 -3.62,-2.59 -10.87,-3.88 -21.75,-3.88 -5.18,0 -10.35,0.26 -15.53,0.78 -1.03,50.22 -25.63,110.54 -73.78,180.95 -55.92,81.81 -115.72,122.71 -179.4,122.71 -24.85,0 -45.56,-7.25 -62.13,-21.75 -16.57,-14.49 -24.85,-33.91 -24.85,-58.25 0,-55.4 39.35,-108.47 118.05,-159.21 66.79,-42.97 131.25,-69.38 193.38,-79.22 -0.52,-32.62 -13.2,-48.93 -38.05,-48.93 -5.18,0 -13.07,2.46 -23.69,7.38 -10.61,4.92 -17.73,7.38 -21.36,7.38 -6.73,0 -10.1,-3.11 -10.1,-9.32 0,-3.11 2.33,-6.99 6.99,-11.65 55.92,-51.26 83.88,-85.69 83.88,-103.29 0,-11.39 -6.47,-17.09 -19.42,-17.09 -31.58,0 -64.72,27.7 -99.41,83.1 -3.63,5.18 -6.22,7.76 -7.77,7.76 -2.07,0 -3.11,-1.29 -3.11,-3.88 0,-2.59 1.04,-5.7 3.11,-9.32 11.39,-23.82 26.41,-44.01 45.05,-60.58 21.74,-19.16 44.01,-28.73 66.79,-28.73 27.96,0 41.94,11.65 41.94,34.95 0,25.37 -20.71,54.62 -62.13,87.76l2.33 0c17.08,-0.52 31.71,5.56 43.88,18.25 12.17,12.68 19.03,27.83 20.58,45.43l3.11 0c24.33,-0.52 38.31,3.11 41.94,10.87 0.52,2.07 0.78,4.4 0.78,6.99zm-75.33 -3.11c-34.69,5.7 -75.59,20.45 -122.71,44.27 -47.11,23.82 -83.1,47.63 -107.95,71.45 -39.35,37.28 -59.02,74.3 -59.02,111.06 0,20.19 6.34,36.37 19.03,48.54 12.68,12.17 29.38,18.25 50.09,18.25 59.02,0 112.61,-40.64 160.76,-121.93 38.83,-65.75 58.76,-122.96 59.8,-171.63z"/>
  <path id="_42" class="fil0" d="M5545.58 1048.16c1.55,-1.56 3.11,-4.14 4.66,-7.77 1.55,-3.62 3.24,-7.51 5.05,-11.65 1.81,-4.14 3.62,-8.16 5.44,-12.04 1.81,-3.88 3.49,-6.6 5.05,-8.16 3.63,-3.62 7.77,-5.44 12.43,-5.44 11.91,0 17.86,5.95 17.86,17.86 0,2.59 -1.04,5.69 -3.11,9.32 -28.99,47.63 -43.49,85.43 -43.49,113.39 0,19.67 9.32,29.51 27.96,29.51 14.5,0 30.03,-7.51 46.6,-22.52 11.39,-9.84 23.56,-23.82 36.5,-41.94 10.87,-15.01 17.09,-22.52 18.64,-22.52 1.56,0 2.33,1.55 2.33,4.66 0,3.62 -1.56,8.03 -4.66,13.2 -35.21,58.51 -71.71,87.76 -109.5,87.76 -29.51,0 -44.27,-18.64 -44.27,-55.92 0,-20.71 3.11,-40.13 9.32,-58.25 -12.42,3.1 -25.11,6.73 -38.05,10.87 -12.94,4.14 -26.4,9.06 -40.38,14.76 -1.04,4.14 -2.33,8.15 -3.88,12.04 -1.55,3.88 -2.85,7.9 -3.88,12.04 -4.14,24.34 -8.8,40.9 -13.98,49.71 -5.18,8.8 -11.13,13.2 -17.86,13.2 -4.66,0 -6.99,-4.66 -6.99,-13.98 0,-2.07 0.52,-4.14 1.55,-6.22 5.7,-13.46 11.39,-29.38 17.09,-47.76 5.7,-18.38 11.39,-40 17.09,-64.85 1.03,-4.14 2.07,-9.19 3.1,-15.15 1.04,-5.95 2.59,-13.07 4.66,-21.36 1.56,-3.62 5.18,-7.25 10.87,-10.87 5.69,-3.63 10.87,-5.44 15.53,-5.44 3.62,0 5.44,1.55 5.44,4.66 0,2.59 -2.07,10.49 -6.21,23.69 -4.14,13.2 -10.1,32.23 -17.86,57.08 7.25,-2.59 16.05,-5.56 26.4,-8.93 10.36,-3.37 22.52,-7.12 36.5,-11.26 3.63,-0.52 8.8,-2.07 15.53,-4.66 2.59,-5.69 5.44,-11.39 8.54,-17.08z"/>
  <path id="_43" class="fil0" d="M5902.82 1090.87c0,3.62 -1.56,8.03 -4.66,13.2 -14.5,23.82 -31.32,44.53 -50.48,62.13 -24.85,22.78 -48.15,34.17 -69.9,34.17 -28.99,0 -43.49,-18.12 -43.49,-54.37 0,-8.28 3.88,-24.59 11.65,-48.93 -18.12,26.4 -29.77,42.71 -34.95,48.93 -17.08,20.19 -32.36,30.29 -45.82,30.29 -17.09,0 -25.63,-14.5 -25.63,-43.49 0,-16.57 5.44,-36.5 16.31,-59.8 11.91,-26.92 24.85,-40.39 38.83,-40.39 7.76,0 11.65,2.07 11.65,6.22 0,0.52 -6.6,12.3 -19.8,35.34 -13.2,23.04 -19.8,40.77 -19.8,53.2 0,16.57 4.92,24.85 14.76,24.85 16.57,0 46.34,-37.79 89.31,-113.38 3.62,-7.25 9.06,-17.34 16.31,-30.29 3.63,-4.14 7.51,-6.21 11.65,-6.21 4.66,0 8.93,1.94 12.81,5.83 3.88,3.88 5.83,8.41 5.83,13.59 0,-0.52 -9.19,16.83 -27.57,52.03 -18.38,35.21 -27.57,62.39 -27.57,81.54 0,18.12 8.54,27.18 25.63,27.18 14.5,0 31.07,-8.29 49.71,-24.85 12.42,-10.87 26.4,-26.41 41.94,-46.6 12.94,-16.57 19.93,-24.85 20.97,-24.85 1.55,0 2.33,1.55 2.33,4.66z"/>
  <path id="_44" class="fil0" d="M6036.4 798.08c0,10.87 -9.32,27.44 -27.96,49.71 -18.64,22.26 -32.88,33.39 -42.71,33.39 -0.52,0 -0.78,-0.52 -0.78,-1.56 0,-1.55 1.81,-4.4 5.44,-8.54 6.73,-7.76 19.42,-25.88 38.05,-54.36l-1.55 0.78c-8.28,0 -12.43,-5.69 -12.43,-17.08 0,-14.5 8.8,-21.75 26.41,-21.75 3.62,0 7.12,2.2 10.49,6.6 3.37,4.4 5.05,8.67 5.05,12.81zm-60.58 0c0,10.36 -9.32,26.79 -27.96,49.32 -18.64,22.52 -32.62,33.78 -41.94,33.78 -1.04,-0.52 -1.56,-1.04 -1.56,-1.56 0,-2.07 1.81,-4.92 5.44,-8.54 6.73,-7.76 19.42,-25.88 38.05,-54.36l-1.56 0.78c-8.28,0 -12.42,-5.69 -12.42,-17.08 0,-6.22 2.72,-11.39 8.15,-15.53 5.44,-4.14 11.52,-6.21 18.25,-6.21 3.63,0 7.12,2.2 10.49,6.6 3.37,4.4 5.05,8.67 5.05,12.81z"/>
 </g>
</svg>
