<?xml version="1.0" encoding="UTF-8"?>
<!DOCTYPE svg PUBLIC "-//W3C//DTD SVG 1.1//EN" "http://www.w3.org/Graphics/SVG/1.1/DTD/svg11.dtd">
<!-- Creator: CorelDRAW -->
<svg xmlns="http://www.w3.org/2000/svg" xml:space="preserve" width="134.946mm" height="102.117mm" version="1.1" style="shape-rendering:geometricPrecision; text-rendering:geometricPrecision; image-rendering:optimizeQuality; fill-rule:evenodd; clip-rule:evenodd"
viewBox="0 0 872.82 660.48"
 xmlns:xlink="http://www.w3.org/1999/xlink"
 xmlns:xodm="http://www.corel.com/coreldraw/odm/2003">
 <defs>
  <style type="text/css">
   <![CDATA[
    .fil0 {fill:white;fill-rule:nonzero}
   ]]>
  </style>
 </defs>
 <g id="Слой_x0020_1">
  <metadata id="CorelCorpID_0Corel-Layer"/>
  <g id="_2631504940832">
   <path class="fil0" d="M28.5 2.68c0,0.45 -0.39,1.12 -1.17,2.01 -1.34,1.45 -4.08,5.25 -8.21,11.4 2.01,0 3.02,1.23 3.02,3.69 0,3.02 -1.9,4.53 -5.7,4.53 -2.23,0 -3.35,-1.4 -3.35,-4.19 0,-2.24 2.01,-5.76 6.03,-10.56 4.02,-4.81 7.04,-7.21 9.05,-7.21 0.22,0 0.34,0.11 0.34,0.34zm-13.07 0c0,0.45 -0.39,1.12 -1.17,2.01 -1.34,1.45 -4.08,5.25 -8.21,11.4 2.01,0 3.02,1.23 3.02,3.69 0,3.02 -1.9,4.53 -5.7,4.53 -2.24,0 -3.35,-1.4 -3.35,-4.19 0,-2.24 2.01,-5.76 6.03,-10.56 4.02,-4.81 7.04,-7.21 9.05,-7.21 0.22,0 0.34,0.11 0.34,0.34z"/>
   <path id="_1" class="fil0" d="M140.97 13.07c0,7.6 -4.19,14.58 -12.57,20.95 -7.82,6.15 -15.7,9.22 -23.64,9.22 -8.16,0 -12.24,-3.13 -12.24,-9.39 0,-4.47 1.01,-6.71 3.02,-6.71 0.78,0 1.17,0.5 1.17,1.51 0,0.34 -0.06,0.84 -0.17,1.51 -0.11,0.67 -0.17,1.17 -0.17,1.51 0,4.36 2.85,6.54 8.55,6.54 5.92,0 12.63,-2.85 20.12,-8.55 7.49,-5.7 11.23,-11.34 11.23,-16.93 0,-5.48 -4.64,-8.21 -13.91,-8.21 -1.9,0 -3.74,0.11 -5.53,0.34 -9.61,1.01 -20.56,5.06 -32.85,12.15 -12.29,7.1 -22.52,15.39 -30.68,24.89 -9.05,10.73 -13.58,21.01 -13.58,30.84 0,6.15 2.07,10.84 6.2,14.08 3.69,2.91 8.72,4.36 15.09,4.36 20.34,0 40.06,-7.93 59.17,-23.8 0.45,-0.34 0.89,-0.5 1.34,-0.5 1.34,0 2.01,0.73 2.01,2.18 0,0.56 -0.22,1.06 -0.67,1.51 -8.16,7.49 -17.82,13.86 -29,19.11 -12.29,5.81 -23.41,8.72 -33.36,8.72 -8.16,0 -14.75,-1.68 -19.78,-5.03 -5.92,-3.91 -8.88,-9.72 -8.88,-17.43 0,-9.16 3.74,-19.17 11.23,-30 8.83,-12.85 20.28,-23.52 34.36,-32.02 15.09,-9.28 29.95,-13.91 44.59,-13.91 12.63,0 18.94,4.36 18.94,13.07z"/>
   <path id="_2" class="fil0" d="M193.94 72.08c0,0.45 -0.11,0.78 -0.34,1.01 -2.79,3.91 -5.92,7.54 -9.39,10.9 -4.81,4.47 -8.83,6.7 -12.07,6.7 -5.25,0 -7.88,-5.81 -7.88,-17.43 0,-1.79 0.06,-3.8 0.17,-6.03 -4.02,3.58 -8.55,10 -13.58,19.28 -1.68,3.13 -3.52,4.69 -5.53,4.69 -0.67,0 -1.17,-0.22 -1.51,-0.67 -0.34,-1.23 -0.5,-2.79 -0.5,-4.69 0,-3.24 0.73,-9.16 2.18,-17.77 0.78,-4.36 1.17,-7.15 1.17,-8.38 0,-0.89 -0.17,-1.34 -0.5,-1.34 -1.9,1.68 -4.97,5.31 -9.22,10.9 -4.58,6.03 -9.5,13.13 -14.75,21.29 -0.67,1.01 -1.23,1.51 -1.68,1.51 -0.89,0 -1.34,-1.01 -1.34,-3.02 0,-0.56 0.06,-1.01 0.17,-1.34 2.57,-6.03 5.2,-14.53 7.88,-25.48 0.22,-1.56 0.67,-3.8 1.34,-6.7 0.22,-0.78 0.98,-1.56 2.26,-2.35 1.29,-0.78 2.37,-1.17 3.27,-1.17 0.78,0 1.17,0.34 1.17,1.01 0,1.12 -2.63,9.61 -7.88,25.48 4.02,-5.36 8.16,-10.9 12.4,-16.59 1.34,-1.79 3.35,-4.47 6.03,-8.05 1.68,-2.01 3.41,-3.02 5.2,-3.02 1.79,0 2.68,1.01 2.68,3.02 0,1.45 -0.39,4.33 -1.17,8.63 -0.78,4.3 -1.68,10.59 -2.68,18.86 3.13,-4.47 7.99,-11.01 14.58,-19.61 1.79,-2.12 3.58,-3.18 5.36,-3.18 1.68,0 2.51,1.06 2.51,3.18 0,1.79 -0.28,4.44 -0.84,7.96 -0.56,3.52 -0.84,6.17 -0.84,7.96 0,5.81 1.51,8.72 4.53,8.72 4.25,0 9.67,-4.69 16.26,-14.08 0.67,-1.12 1.23,-1.68 1.68,-1.68 0.56,0 0.84,0.5 0.84,1.51zm-16.93 -31.18c-14.08,-3.35 -24.42,-3.18 -31.01,0.5 -1.23,0.67 -2.23,1.73 -3.02,3.18 -0.34,0.78 -0.5,1.84 -0.5,3.18 0,1.34 -0.17,2.35 -0.5,3.02l-0.67 0.5c-1.12,0.78 -1.59,-0.03 -1.42,-2.43 0.17,-2.4 0.7,-4.44 1.59,-6.12 1.12,-2.57 3.02,-4.53 5.7,-5.87 4.92,-2.91 11.4,-4.02 19.44,-3.35 2.01,0 8.77,0.95 20.28,2.85 7.04,1.23 11.68,1.23 13.91,0 1.34,-0.78 2.29,-1.79 2.85,-3.02 0.67,-1.45 0.81,-2.79 0.42,-4.02 -0.39,-1.23 -0.36,-2.29 0.08,-3.19 0.22,-0.11 0.34,-0.17 0.34,-0.17 0.89,-0.56 1.31,0.56 1.26,3.35 -0.06,2.79 -0.42,4.86 -1.09,6.2 -1.68,3.24 -3.46,5.48 -5.36,6.7 -2.79,1.56 -7.21,1.84 -13.24,0.84 -0.67,-0.34 -2.01,-0.61 -4.02,-0.84 -0.89,0 -2.57,-0.45 -5.03,-1.34z"/>
   <path id="_3" class="fil0" d="M248.92 70.57c0,0.78 -0.34,1.73 -1.01,2.85 -2.91,4.81 -7.71,9.61 -14.42,14.42 -7.15,5.36 -13.19,8.05 -18.1,8.05 -1.01,0 -2.51,-0.06 -4.53,-0.17 -1.9,0 -3.35,0 -4.36,0 -0.45,0 -2.12,-0.39 -5.03,-1.17 -3.46,8.94 -8.16,18.33 -14.08,28.16 -8.38,13.63 -15.2,20.45 -20.45,20.45 -2.79,0 -4.19,-2.07 -4.19,-6.2 0,-5.48 5.03,-15.64 15.09,-30.51 7.15,-9.83 14.36,-19.72 21.62,-29.67l0 -1.01c0,-4.02 -0.06,-7.54 -0.17,-10.56 -4.25,6.93 -6.93,10.39 -8.05,10.39 -0.67,0 -1.01,-0.39 -1.01,-1.17 0,-0.45 0.17,-0.89 0.5,-1.34 4.92,-6.93 7.38,-13.13 7.38,-18.61 0,-1.12 -0.31,-2.04 -0.92,-2.77 -0.61,-0.73 -0.92,-1.31 -0.92,-1.76 0,-0.45 1.73,-0.67 5.2,-0.67 3.8,0 5.7,3.8 5.7,11.4 0,1.12 -0.08,2.77 -0.25,4.94 -0.17,2.18 -0.25,3.77 -0.25,4.78 3.13,-5.7 6.59,-10.95 10.39,-15.76 5.81,-7.15 10.67,-10.73 14.58,-10.73 3.58,0 5.36,2.63 5.36,7.88 0,6.59 -2.32,14.25 -6.96,22.96 -4.64,8.72 -9.69,14.81 -15.17,18.27 9.72,-0.22 20.51,-7.77 32.35,-22.63 0.45,-0.56 0.78,-0.84 1.01,-0.84 0.45,0 0.67,0.34 0.67,1.01zm-19.28 -15.25c0,-3.46 -0.95,-5.2 -2.85,-5.2 -0.56,0 -1.12,0.11 -1.68,0.34 -4.02,1.79 -8.27,6.98 -12.74,15.59 -3.35,6.37 -6.03,12.91 -8.05,19.61 1.12,1.68 3.07,3.8 5.87,6.37 4.92,-2.12 9.44,-7.43 13.58,-15.92 3.91,-8.05 5.87,-14.97 5.87,-20.79zm-31.68 30.51c-0.11,-0.11 -0.22,-0.17 -0.34,-0.17 -0.45,0 -1.06,0.56 -1.84,1.68 -2.68,4.02 -6.7,9.95 -12.07,17.77 -2.35,3.35 -5.31,8.44 -8.88,15.25 -4.13,7.93 -6.2,13.07 -6.2,15.42 0,1.01 0.34,1.51 1.01,1.51 4.92,0 11.68,-8.05 20.28,-24.14 2.23,-4.25 4.64,-11.57 7.21,-21.96 -0.11,-0.56 -0.17,-1.12 -0.17,-1.68 0,-1.34 0.34,-2.57 1.01,-3.69z"/>
   <path id="_4" class="fil0" d="M296.69 71.74c0,0.56 -0.34,1.34 -1.01,2.35 -4.92,7.93 -9.55,13.02 -13.91,15.25 -2.01,1.01 -4.02,1.51 -6.03,1.51 -6.82,0 -10.23,-4.81 -10.23,-14.42 0,-1.56 0.11,-3.24 0.34,-5.03 -7.49,13.3 -14.14,19.95 -19.95,19.95 -3.46,0 -5.2,-1.9 -5.2,-5.7 0,-5.81 2.79,-12.82 8.38,-21.04 5.59,-8.21 11.01,-13.21 16.26,-15 1.9,-0.78 3.74,-1.17 5.53,-1.17 4.02,0 6.93,1.4 8.72,4.19 0.34,0.56 0.5,0.95 0.5,1.17 0,0.11 -0.39,0.28 -1.17,0.5 -0.78,0.22 -1.34,0.61 -1.68,1.17 -2.68,4.36 -4.02,10.9 -4.02,19.61 0,8.05 1.73,12.07 5.2,12.07 2.46,0 5.95,-2.71 10.48,-8.13 4.53,-5.42 6.96,-8.13 7.29,-8.13 0.34,0 0.5,0.28 0.5,0.84zm-24.64 -17.6c-0.45,-0.11 -0.95,-0.17 -1.51,-0.17 -4.47,0 -9.11,2.85 -13.91,8.55 -6.82,8.27 -10.23,15.03 -10.23,20.28 0,2.35 0.78,3.52 2.35,3.52 2.46,0 5.64,-2.57 9.56,-7.71 5.48,-6.93 10.06,-15.09 13.74,-24.47z"/>
   <path id="_5" class="fil0" d="M334.75 70.74c0,0.45 -0.34,1.06 -1.01,1.84 -3.91,5.7 -9.33,10.9 -16.26,15.59 -4.02,2.57 -8.27,3.85 -12.74,3.85 -8.27,0 -12.4,-4.41 -12.4,-13.24 0,-5.48 3.05,-11.51 9.14,-18.1 6.09,-6.59 11.82,-9.89 17.18,-9.89 3.58,0 5.36,1.4 5.36,4.19 0,1.12 -0.81,3.05 -2.43,5.78 -1.62,2.74 -2.93,4.11 -3.94,4.11 -0.45,0 -0.67,-0.28 -0.67,-0.84 0,-0.45 0.2,-1.17 0.59,-2.18 0.39,-1.01 0.59,-1.79 0.59,-2.35 0,-2.35 -1.45,-3.52 -4.36,-3.52 -4.02,0 -7.65,2.63 -10.9,7.88 -3.02,4.81 -4.53,9.33 -4.53,13.58 0,6.93 3.02,10.39 9.05,10.39 7.6,0 15.53,-5.2 23.8,-15.59 1.12,-1.34 2.07,-2.01 2.85,-2.01 0.45,0 0.67,0.17 0.67,0.5z"/>
   <path id="_6" class="fil0" d="M397.94 72.08c0,0.45 -0.11,0.78 -0.34,1.01 -2.79,3.91 -5.92,7.54 -9.39,10.9 -4.81,4.47 -8.83,6.7 -12.07,6.7 -5.25,0 -7.88,-5.81 -7.88,-17.43 0,-1.79 0.06,-3.8 0.17,-6.03 -4.02,3.58 -8.55,10 -13.58,19.28 -1.68,3.13 -3.52,4.69 -5.53,4.69 -0.67,0 -1.17,-0.22 -1.51,-0.67 -0.34,-1.23 -0.5,-2.79 -0.5,-4.69 0,-3.24 0.73,-9.16 2.18,-17.77 0.78,-4.36 1.17,-7.15 1.17,-8.38 0,-0.89 -0.17,-1.34 -0.5,-1.34 -1.9,1.68 -4.97,5.31 -9.22,10.9 -4.58,6.03 -9.5,13.13 -14.75,21.29 -0.67,1.01 -1.23,1.51 -1.68,1.51 -0.89,0 -1.34,-1.01 -1.34,-3.02 0,-0.56 0.06,-1.01 0.17,-1.34 2.57,-6.03 5.2,-14.53 7.88,-25.48 0.22,-1.56 0.67,-3.8 1.34,-6.7 0.22,-0.78 0.98,-1.56 2.26,-2.35 1.29,-0.78 2.37,-1.17 3.27,-1.17 0.78,0 1.17,0.34 1.17,1.01 0,1.12 -2.63,9.61 -7.88,25.48 4.02,-5.36 8.16,-10.9 12.4,-16.59 1.34,-1.79 3.35,-4.47 6.03,-8.05 1.68,-2.01 3.41,-3.02 5.2,-3.02 1.79,0 2.68,1.01 2.68,3.02 0,1.45 -0.39,4.33 -1.17,8.63 -0.78,4.3 -1.68,10.59 -2.68,18.86 3.13,-4.47 7.99,-11.01 14.58,-19.61 1.79,-2.12 3.58,-3.18 5.36,-3.18 1.68,0 2.51,1.06 2.51,3.18 0,1.79 -0.28,4.44 -0.84,7.96 -0.56,3.52 -0.84,6.17 -0.84,7.96 0,5.81 1.51,8.72 4.53,8.72 4.25,0 9.67,-4.69 16.26,-14.08 0.67,-1.12 1.23,-1.68 1.68,-1.68 0.56,0 0.84,0.5 0.84,1.51zm-16.93 -31.18c-14.08,-3.35 -24.42,-3.18 -31.01,0.5 -1.23,0.67 -2.23,1.73 -3.02,3.18 -0.34,0.78 -0.5,1.84 -0.5,3.18 0,1.34 -0.17,2.35 -0.5,3.02l-0.67 0.5c-1.12,0.78 -1.59,-0.03 -1.42,-2.43 0.17,-2.4 0.7,-4.44 1.59,-6.12 1.12,-2.57 3.02,-4.53 5.7,-5.87 4.92,-2.91 11.4,-4.02 19.44,-3.35 2.01,0 8.77,0.95 20.28,2.85 7.04,1.23 11.68,1.23 13.91,0 1.34,-0.78 2.29,-1.79 2.85,-3.02 0.67,-1.45 0.81,-2.79 0.42,-4.02 -0.39,-1.23 -0.36,-2.29 0.08,-3.19 0.22,-0.11 0.34,-0.17 0.34,-0.17 0.89,-0.56 1.31,0.56 1.26,3.35 -0.06,2.79 -0.42,4.86 -1.09,6.2 -1.68,3.24 -3.46,5.48 -5.36,6.7 -2.79,1.56 -7.21,1.84 -13.24,0.84 -0.67,-0.34 -2.01,-0.61 -4.02,-0.84 -0.89,0 -2.57,-0.45 -5.03,-1.34z"/>
   <path id="_7" class="fil0" d="M405.48 63.36c-1.9,3.8 -3.63,7.71 -5.2,11.73 -1.56,4.02 -2.35,7.1 -2.35,9.22 0,3.91 1.84,5.87 5.53,5.87 2.35,0 5,-0.98 7.96,-2.93 2.96,-1.96 5.56,-4.22 7.79,-6.79 -2.91,0.22 -5.34,-0.28 -7.29,-1.51 -1.96,-1.23 -2.99,-3.63 -3.1,-7.21 -0.22,-2.01 0.17,-3.94 1.17,-5.78 1.01,-1.84 2.32,-3.41 3.94,-4.69 1.62,-1.29 3.41,-2.21 5.36,-2.77 1.96,-0.56 3.74,-0.59 5.36,-0.08 1.62,0.5 2.93,1.65 3.94,3.44 1.01,1.79 1.4,4.36 1.17,7.71 -0.11,1.56 -0.45,3.13 -1.01,4.69 2.57,-1.23 5.03,-2.71 7.38,-4.44 2.35,-1.73 4.36,-3.55 6.03,-5.45l2.18 0.5c-0.45,1.12 -1.26,2.32 -2.43,3.6 -1.17,1.29 -2.57,2.54 -4.19,3.77 -1.62,1.23 -3.38,2.4 -5.28,3.52 -1.9,1.12 -3.86,2.07 -5.87,2.85 -1.34,2.01 -2.96,3.83 -4.86,5.45 -1.9,1.62 -3.97,3.05 -6.2,4.27 -2.24,1.23 -4.55,2.23 -6.96,3.02 -2.4,0.78 -4.72,1.29 -6.96,1.51 -6.48,0.67 -9.72,-2.57 -9.72,-9.72 0,-3.02 0.56,-6.37 1.68,-10.06 1.12,-3.69 2.54,-7.4 4.27,-11.15 1.73,-3.74 3.6,-7.32 5.62,-10.73 2.01,-3.41 3.91,-6.29 5.7,-8.63 0.45,-0.56 1.06,-0.78 1.84,-0.67 0.78,0.11 1.56,0.42 2.35,0.92 0.78,0.5 1.42,1.12 1.93,1.84 0.5,0.73 0.75,1.37 0.75,1.93 0,0.67 -0.22,1.29 -0.67,1.84 -0.34,0.56 -0.98,1.54 -1.93,2.93 -0.95,1.4 -1.96,2.91 -3.02,4.53 -1.06,1.62 -2.07,3.16 -3.02,4.61 -0.95,1.45 -1.59,2.4 -1.93,2.85zm17.77 11.4c1.23,-2.46 1.76,-4.41 1.59,-5.87 -0.17,-1.45 -0.75,-2.54 -1.76,-3.27 -1.01,-0.73 -2.24,-1.03 -3.69,-0.92 -1.45,0.11 -2.79,0.53 -4.02,1.26 -1.23,0.73 -2.18,1.73 -2.85,3.02 -0.67,1.28 -0.67,2.82 0,4.61 0.56,1.79 1.7,2.91 3.44,3.35 1.73,0.45 3.77,0.39 6.12,-0.17 0.22,-0.34 0.42,-0.67 0.59,-1.01 0.17,-0.34 0.36,-0.67 0.59,-1.01z"/>
   <path id="_8" class="fil0" d="M514.1 70.57c0,0.78 -0.34,1.73 -1.01,2.85 -7.6,12.63 -15.48,18.94 -23.64,18.94 -6.37,0 -9.55,-4.02 -9.55,-12.07 0,-7.15 1.62,-13.47 4.86,-18.94 -7.82,7.04 -15.81,16.76 -23.97,29.17 -0.67,1.01 -1.17,1.51 -1.51,1.51 -1.01,0 -1.51,-1.01 -1.51,-3.02 0,-0.56 0.11,-1.01 0.34,-1.34 2.35,-5.7 4.81,-13.8 7.38,-24.31 0.34,-1.79 0.89,-4.41 1.68,-7.88 0.34,-0.78 1.12,-1.56 2.35,-2.35 1.23,-0.78 2.35,-1.17 3.35,-1.17 0.78,0 1.17,0.34 1.17,1.01 0,1.12 -2.63,9.61 -7.88,25.48 1.34,-1.79 5.53,-6.54 12.57,-14.25 2.35,-2.68 5.81,-6.48 10.39,-11.4 0.89,-0.78 1.79,-1.17 2.68,-1.17 2.57,0 3.86,1.29 3.86,3.86 0,0.56 -0.22,1.23 -0.67,2.01 -6.26,10.28 -9.39,18.44 -9.39,24.47 0,4.25 2.01,6.37 6.03,6.37 3.13,0 6.48,-1.62 10.06,-4.86 2.35,-2.01 4.97,-5.03 7.88,-9.05 2.35,-3.24 3.69,-4.86 4.02,-4.86 0.34,0 0.5,0.34 0.5,1.01z"/>
   <path id="_9" class="fil0" d="M551.99 72.41c0,0.22 -0.11,0.45 -0.34,0.67 -1.56,2.68 -3.94,4.97 -7.12,6.87 -3.18,1.9 -6.29,2.85 -9.3,2.85 -2.23,0 -4.3,-0.56 -6.2,-1.68 -5.14,8.16 -10.45,12.24 -15.92,12.24 -3.91,0 -5.87,-2.29 -5.87,-6.87 0,-6.37 2.79,-13.86 8.38,-22.46 -0.22,-1.23 -0.34,-2.46 -0.34,-3.69 0,-4.02 1.34,-7.93 4.02,-11.73 2.68,-3.8 5.98,-5.7 9.89,-5.7 2.57,0 4.64,1.51 6.2,4.53 1.23,2.57 1.84,5.25 1.84,8.05 0,6.03 -2.35,13.69 -7.04,22.96 1.68,1.01 3.58,1.51 5.7,1.51 3.69,0 7.15,-1.45 10.39,-4.36 3.24,-2.91 4.75,-4.36 4.53,-4.36 0.78,0 1.17,0.39 1.17,1.17zm-19.78 -12.74c0,-2.46 -0.39,-4.97 -1.17,-7.54 -1.12,-3.58 -2.57,-5.36 -4.36,-5.36 -2.57,0 -4.58,1.56 -6.03,4.69 -1.12,2.46 -1.62,5.14 -1.51,8.05 1.79,-2.12 3.58,-3.18 5.36,-3.18 1.68,0 2.91,0.56 3.69,1.68 0,0.11 0,0.39 0,0.84 0.11,0.34 0.17,0.61 0.17,0.84 0,0.34 -0.56,0.5 -1.68,0.5 -2.01,0 -4.13,2.12 -6.37,6.37 1.45,4.25 4.02,7.71 7.71,10.39 2.79,-7.04 4.19,-12.8 4.19,-17.27zm-5.53 19.61c-3.69,-2.46 -6.48,-5.31 -8.38,-8.55 -3.35,7.04 -5.03,12.12 -5.03,15.25 0,2.23 0.84,3.35 2.51,3.35 1.56,0 3.63,-1.34 6.2,-4.02 2.24,-2.12 3.8,-4.13 4.69,-6.03z"/>
   <path id="_10" class="fil0" d="M581.82 61.01c-2.23,4.69 -4.64,9.36 -7.21,14 -2.57,4.64 -4.97,8.07 -7.21,10.31 -3.13,3.02 -6.09,4.97 -8.88,5.87 -2.79,0.89 -5.14,0.87 -7.04,-0.08 -1.9,-0.95 -3.27,-2.79 -4.11,-5.53 -0.84,-2.74 -0.87,-6.29 -0.08,-10.64 0.34,-2.12 0.95,-3.58 1.84,-4.36 0.89,-0.78 1.84,-1.17 2.85,-1.17 1.01,0 1.9,0.31 2.68,0.92 0.78,0.61 1.29,1.31 1.51,2.09 -1.79,4.58 -2.65,8.27 -2.6,11.06 0.06,2.79 0.84,4.47 2.35,5.03 1.51,0.56 3.6,-0.08 6.29,-1.93 2.68,-1.84 5.7,-5.11 9.05,-9.81 1.23,-1.68 2.65,-4.02 4.27,-7.04 1.62,-3.02 3.27,-7.38 4.94,-13.07 4.13,-2.12 7.1,-3.16 8.88,-3.1 1.79,0.06 2.77,0.78 2.93,2.18 0.17,1.4 -0.25,3.3 -1.26,5.7 -1.01,2.4 -2.12,4.92 -3.35,7.54 -1.23,2.63 -2.38,5.14 -3.44,7.54 -1.06,2.4 -1.59,4.33 -1.59,5.78 0.34,-0.45 0.95,-1.26 1.84,-2.43 0.89,-1.17 2.01,-2.57 3.35,-4.19 1.34,-1.62 2.82,-3.38 4.44,-5.28 1.62,-1.9 3.32,-3.8 5.11,-5.7 2.24,-2.57 5.7,-6.37 10.39,-11.4 0.45,-0.45 0.95,-0.84 1.51,-1.17 0.56,-0.34 1.06,-0.5 1.51,-0.5 2.57,0 3.86,1.29 3.86,3.86 0,0.56 -0.22,1.23 -0.67,2.01 -6.26,10.28 -9.39,18.44 -9.39,24.47 0,4.25 2.01,6.37 6.03,6.37 3.13,0 6.48,-1.62 10.06,-4.86 2.46,-2.12 5.08,-5.14 7.88,-9.05 2.35,-3.24 3.69,-4.86 4.02,-4.86 0.34,0 0.5,0.34 0.5,1.01 0,0.78 -0.34,1.73 -1.01,2.85 -7.6,12.63 -15.48,18.94 -23.64,18.94 -6.37,0 -9.55,-4.02 -9.55,-12.07 0,-3.58 0.36,-6.84 1.09,-9.81 0.73,-2.96 1.87,-5.84 3.44,-8.63 -2.23,2.12 -4.27,4.25 -6.12,6.37 -1.84,2.12 -3.94,4.64 -6.29,7.54 -1.01,1.34 -2.01,2.74 -3.02,4.19 -1.01,1.45 -2.01,2.74 -3.02,3.85 -1.01,1.12 -2.01,1.96 -3.02,2.51 -1.01,0.56 -2.07,0.5 -3.18,-0.17 -1.23,-0.78 -1.59,-2.46 -1.09,-5.03 0.5,-2.57 1.29,-5.31 2.35,-8.21 1.06,-2.91 2.09,-5.53 3.1,-7.88 1.01,-2.35 1.34,-3.69 1.01,-4.02 0,-0.56 -0.39,-0.84 -1.17,-0.84 -0.78,0 -1.17,0.28 -1.17,0.84z"/>
   <path id="_11" class="fil0" d="M670.66 72.41c0,0.22 -0.11,0.45 -0.34,0.67 -1.56,2.68 -3.94,4.97 -7.12,6.87 -3.18,1.9 -6.29,2.85 -9.3,2.85 -2.23,0 -4.3,-0.56 -6.2,-1.68 -5.14,8.16 -10.45,12.24 -15.92,12.24 -3.91,0 -5.87,-2.29 -5.87,-6.87 0,-6.37 2.79,-13.86 8.38,-22.46 -0.22,-1.23 -0.34,-2.46 -0.34,-3.69 0,-4.02 1.34,-7.93 4.02,-11.73 2.68,-3.8 5.98,-5.7 9.89,-5.7 2.57,0 4.64,1.51 6.2,4.53 1.23,2.57 1.84,5.25 1.84,8.05 0,6.03 -2.35,13.69 -7.04,22.96 1.68,1.01 3.58,1.51 5.7,1.51 3.69,0 7.15,-1.45 10.39,-4.36 3.24,-2.91 4.75,-4.36 4.53,-4.36 0.78,0 1.17,0.39 1.17,1.17zm-19.78 -12.74c0,-2.46 -0.39,-4.97 -1.17,-7.54 -1.12,-3.58 -2.57,-5.36 -4.36,-5.36 -2.57,0 -4.58,1.56 -6.03,4.69 -1.12,2.46 -1.62,5.14 -1.51,8.05 1.79,-2.12 3.58,-3.18 5.36,-3.18 1.68,0 2.91,0.56 3.69,1.68 0,0.11 0,0.39 0,0.84 0.11,0.34 0.17,0.61 0.17,0.84 0,0.34 -0.56,0.5 -1.68,0.5 -2.01,0 -4.13,2.12 -6.37,6.37 1.45,4.25 4.02,7.71 7.71,10.39 2.79,-7.04 4.19,-12.8 4.19,-17.27zm-5.53 19.61c-3.69,-2.46 -6.48,-5.31 -8.38,-8.55 -3.35,7.04 -5.03,12.12 -5.03,15.25 0,2.23 0.84,3.35 2.51,3.35 1.56,0 3.63,-1.34 6.2,-4.02 2.24,-2.12 3.8,-4.13 4.69,-6.03z"/>
   <path id="_12" class="fil0" d="M693.29 66.71c-1.68,1.34 -3.07,2.85 -4.19,4.53 -1.12,1.68 -1.98,3.35 -2.6,5.03 -0.61,1.68 -1.03,3.24 -1.26,4.69 -0.22,1.45 -0.34,2.68 -0.34,3.69 0,3.8 1.84,5.59 5.53,5.36 1.56,-0.11 2.85,-0.39 3.86,-0.84 1.01,-0.45 2.46,-1.62 4.36,-3.52l13.41 -17.94c1.23,0.56 1.68,1.06 1.34,1.51 -0.34,0.45 -0.95,1.12 -1.84,2.01 -4.25,6.93 -8.16,12.32 -11.73,16.18 -3.58,3.86 -7.49,5.89 -11.73,6.12 -2.68,-0.11 -5.22,-0.73 -7.63,-1.84 -2.4,-1.12 -3.88,-3.07 -4.44,-5.87 -0.45,-1.68 -0.28,-3.38 0.5,-5.11 0.78,-1.73 1.93,-3.52 3.44,-5.36 1.51,-1.84 3.32,-3.83 5.45,-5.95 2.12,-2.12 4.3,-4.47 6.54,-7.04 1.79,-1.45 2.65,-2.93 2.6,-4.44 -0.06,-1.51 -0.7,-2.65 -1.93,-3.44 -1.23,-0.78 -2.82,-1.01 -4.78,-0.67 -1.96,0.34 -3.88,1.56 -5.78,3.69 -1.01,1.12 -1.87,2.12 -2.6,3.02 -0.73,0.89 -1.37,1.79 -1.93,2.68 -0.56,0.89 -1.12,1.82 -1.68,2.77 -0.56,0.95 -1.23,2.04 -2.01,3.27 -4.02,6.15 -6.65,9.22 -7.88,9.22 -0.45,0 -0.73,-0.22 -0.84,-0.67 0.11,-0.11 0.22,-0.31 0.34,-0.59 0.11,-0.28 0.28,-0.7 0.5,-1.26 1.34,-1.68 2.68,-3.6 4.02,-5.78 1.34,-2.18 2.79,-4.41 4.36,-6.71 1.56,-2.29 3.32,-4.53 5.28,-6.7 1.96,-2.18 4.22,-4.11 6.79,-5.78 4.13,-1.45 7.52,-2.12 10.14,-2.01 2.63,0.11 4.3,0.89 5.03,2.35 0.73,1.45 0.42,3.49 -0.92,6.12 -1.34,2.63 -3.8,5.73 -7.38,9.3z"/>
   <path id="_13" class="fil0" d="M762.02 71.74c0,0.56 -0.34,1.34 -1.01,2.35 -4.92,7.93 -9.55,13.02 -13.91,15.25 -2.01,1.01 -4.02,1.51 -6.03,1.51 -6.82,0 -10.23,-4.81 -10.23,-14.42 0,-1.56 0.11,-3.24 0.34,-5.03 -7.49,13.3 -14.14,19.95 -19.95,19.95 -3.46,0 -5.2,-1.9 -5.2,-5.7 0,-5.81 2.79,-12.82 8.38,-21.04 5.59,-8.21 11.01,-13.21 16.26,-15 1.9,-0.78 3.74,-1.17 5.53,-1.17 4.02,0 6.93,1.4 8.72,4.19 0.34,0.56 0.5,0.95 0.5,1.17 0,0.11 -0.39,0.28 -1.17,0.5 -0.78,0.22 -1.34,0.61 -1.68,1.17 -2.68,4.36 -4.02,10.9 -4.02,19.61 0,8.05 1.73,12.07 5.2,12.07 2.46,0 5.95,-2.71 10.48,-8.13 4.53,-5.42 6.96,-8.13 7.29,-8.13 0.34,0 0.5,0.28 0.5,0.84zm-24.64 -17.6c-0.45,-0.11 -0.95,-0.17 -1.51,-0.17 -4.47,0 -9.11,2.85 -13.91,8.55 -6.82,8.27 -10.23,15.03 -10.23,20.28 0,2.35 0.78,3.52 2.35,3.52 2.46,0 5.64,-2.57 9.56,-7.71 5.48,-6.93 10.06,-15.09 13.74,-24.47z"/>
   <path id="_14" class="fil0" d="M826.39 72.08c0,0.45 -0.11,0.78 -0.34,1.01 -2.79,3.91 -5.92,7.54 -9.39,10.9 -4.81,4.47 -8.83,6.7 -12.07,6.7 -5.25,0 -7.88,-5.81 -7.88,-17.43 0,-1.79 0.06,-3.8 0.17,-6.03 -4.02,3.58 -8.55,10 -13.58,19.28 -1.68,3.13 -3.52,4.69 -5.53,4.69 -0.67,0 -1.17,-0.22 -1.51,-0.67 -0.34,-1.23 -0.5,-2.79 -0.5,-4.69 0,-3.24 0.73,-9.16 2.18,-17.77 0.78,-4.36 1.17,-7.15 1.17,-8.38 0,-0.89 -0.17,-1.34 -0.5,-1.34 -1.9,1.68 -4.97,5.31 -9.22,10.9 -4.58,6.03 -9.5,13.13 -14.75,21.29 -0.67,1.01 -1.23,1.51 -1.68,1.51 -0.89,0 -1.34,-1.01 -1.34,-3.02 0,-0.56 0.06,-1.01 0.17,-1.34 2.57,-6.03 5.2,-14.53 7.88,-25.48 0.22,-1.56 0.67,-3.8 1.34,-6.7 0.22,-0.78 0.98,-1.56 2.26,-2.35 1.29,-0.78 2.37,-1.17 3.27,-1.17 0.78,0 1.17,0.34 1.17,1.01 0,1.12 -2.63,9.61 -7.88,25.48 4.02,-5.36 8.16,-10.9 12.4,-16.59 1.34,-1.79 3.35,-4.47 6.03,-8.05 1.68,-2.01 3.41,-3.02 5.2,-3.02 1.79,0 2.68,1.01 2.68,3.02 0,1.45 -0.39,4.33 -1.17,8.63 -0.78,4.3 -1.68,10.59 -2.68,18.86 3.13,-4.47 7.99,-11.01 14.58,-19.61 1.79,-2.12 3.58,-3.18 5.36,-3.18 1.68,0 2.51,1.06 2.51,3.18 0,1.79 -0.28,4.44 -0.84,7.96 -0.56,3.52 -0.84,6.17 -0.84,7.96 0,5.81 1.51,8.72 4.53,8.72 4.25,0 9.67,-4.69 16.26,-14.08 0.67,-1.12 1.23,-1.68 1.68,-1.68 0.56,0 0.84,0.5 0.84,1.51zm-16.93 -31.18c-14.08,-3.35 -24.42,-3.18 -31.01,0.5 -1.23,0.67 -2.23,1.73 -3.02,3.18 -0.34,0.78 -0.5,1.84 -0.5,3.18 0,1.34 -0.17,2.35 -0.5,3.02l-0.67 0.5c-1.12,0.78 -1.59,-0.03 -1.42,-2.43 0.17,-2.4 0.7,-4.44 1.59,-6.12 1.12,-2.57 3.02,-4.53 5.7,-5.87 4.92,-2.91 11.4,-4.02 19.44,-3.35 2.01,0 8.77,0.95 20.28,2.85 7.04,1.23 11.68,1.23 13.91,0 1.34,-0.78 2.29,-1.79 2.85,-3.02 0.67,-1.45 0.81,-2.79 0.42,-4.02 -0.39,-1.23 -0.36,-2.29 0.08,-3.19 0.22,-0.11 0.34,-0.17 0.34,-0.17 0.89,-0.56 1.31,0.56 1.26,3.35 -0.06,2.79 -0.42,4.86 -1.09,6.2 -1.68,3.24 -3.46,5.48 -5.36,6.7 -2.79,1.56 -7.21,1.84 -13.24,0.84 -0.67,-0.34 -2.01,-0.61 -4.02,-0.84 -0.89,0 -2.57,-0.45 -5.03,-1.34z"/>
   <path id="_15" class="fil0" d="M833.93 63.36c-1.9,3.8 -3.63,7.71 -5.2,11.73 -1.56,4.02 -2.35,7.1 -2.35,9.22 0,3.91 1.84,5.87 5.53,5.87 2.35,0 5,-0.98 7.96,-2.93 2.96,-1.96 5.56,-4.22 7.79,-6.79 -2.91,0.22 -5.34,-0.28 -7.29,-1.51 -1.96,-1.23 -2.99,-3.63 -3.1,-7.21 -0.22,-2.01 0.17,-3.94 1.17,-5.78 1.01,-1.84 2.32,-3.41 3.94,-4.69 1.62,-1.29 3.41,-2.21 5.36,-2.77 1.96,-0.56 3.74,-0.59 5.36,-0.08 1.62,0.5 2.93,1.65 3.94,3.44 1.01,1.79 1.4,4.36 1.17,7.71 -0.11,1.56 -0.45,3.13 -1.01,4.69 2.57,-1.23 5.03,-2.71 7.38,-4.44 2.35,-1.73 4.36,-3.55 6.03,-5.45l2.18 0.5c-0.45,1.12 -1.26,2.32 -2.43,3.6 -1.17,1.29 -2.57,2.54 -4.19,3.77 -1.62,1.23 -3.38,2.4 -5.28,3.52 -1.9,1.12 -3.86,2.07 -5.87,2.85 -1.34,2.01 -2.96,3.83 -4.86,5.45 -1.9,1.62 -3.97,3.05 -6.2,4.27 -2.24,1.23 -4.55,2.23 -6.96,3.02 -2.4,0.78 -4.72,1.29 -6.96,1.51 -6.48,0.67 -9.72,-2.57 -9.72,-9.72 0,-3.02 0.56,-6.37 1.68,-10.06 1.12,-3.69 2.54,-7.4 4.27,-11.15 1.73,-3.74 3.6,-7.32 5.62,-10.73 2.01,-3.41 3.91,-6.29 5.7,-8.63 0.45,-0.56 1.06,-0.78 1.84,-0.67 0.78,0.11 1.56,0.42 2.35,0.92 0.78,0.5 1.42,1.12 1.93,1.84 0.5,0.73 0.75,1.37 0.75,1.93 0,0.67 -0.22,1.29 -0.67,1.84 -0.34,0.56 -0.98,1.54 -1.93,2.93 -0.95,1.4 -1.96,2.91 -3.02,4.53 -1.06,1.62 -2.07,3.16 -3.02,4.61 -0.95,1.45 -1.59,2.4 -1.93,2.85zm17.77 11.4c1.23,-2.46 1.76,-4.41 1.59,-5.87 -0.17,-1.45 -0.75,-2.54 -1.76,-3.27 -1.01,-0.73 -2.24,-1.03 -3.69,-0.92 -1.45,0.11 -2.79,0.53 -4.02,1.26 -1.23,0.73 -2.18,1.73 -2.85,3.02 -0.67,1.28 -0.67,2.82 0,4.61 0.56,1.79 1.7,2.91 3.44,3.35 1.73,0.45 3.77,0.39 6.12,-0.17 0.22,-0.34 0.42,-0.67 0.59,-1.01 0.17,-0.34 0.36,-0.67 0.59,-1.01z"/>
   <path class="fil0" d="M311.45 165.5c0,0.45 -0.5,0.84 -1.51,1.17 -1.01,0.34 -1.68,0.84 -2.01,1.51 -0.56,2.46 -1.17,5.31 -1.84,8.55 -1.34,5.7 -3.3,14.25 -5.87,25.65l0.67 0c5.92,-0.22 8.88,1.06 8.88,3.86 0,0.67 -0.22,1.01 -0.67,1.01 -0.11,0 -0.59,-0.28 -1.42,-0.84 -0.84,-0.56 -2.43,-0.84 -4.78,-0.84 -1.12,0 -2.23,0.06 -3.35,0.17 -4.13,16.76 -9.44,29.78 -15.92,39.06 -12.07,17.66 -24.92,26.48 -38.55,26.48 -5.36,0 -9.86,-1.56 -13.49,-4.69 -3.63,-3.13 -5.45,-7.32 -5.45,-12.57 0,-11.96 8.49,-23.41 25.48,-34.36 14.42,-9.28 28.38,-14.97 41.91,-17.1 0.78,-4.25 2.07,-10.67 3.86,-19.28 -7.49,13.3 -14.14,19.95 -19.95,19.95 -3.46,0 -5.2,-1.9 -5.2,-5.7 0,-5.7 2.79,-12.68 8.38,-20.95 5.59,-8.27 11.01,-13.3 16.26,-15.09 2.01,-0.78 3.86,-1.17 5.53,-1.17 1.56,0 3.46,0.53 5.7,1.59 2.24,1.06 3.35,2.26 3.35,3.6zm-7.88 0.5c-0.45,-0.11 -0.95,-0.17 -1.51,-0.17 -4.47,0 -9.11,2.85 -13.91,8.55 -6.82,8.27 -10.23,15.03 -10.23,20.28 0,2.35 0.78,3.52 2.35,3.52 2.46,0 5.64,-2.57 9.56,-7.71 5.48,-6.93 10.06,-15.09 13.74,-24.47zm-10.23 39.56c-7.38,1.23 -16.15,4.41 -26.32,9.55 -10.17,5.14 -17.99,10.28 -23.47,15.42 -8.38,8.05 -12.57,16.04 -12.57,23.97 0,4.36 1.37,7.85 4.11,10.48 2.74,2.63 6.29,3.94 10.64,3.94 6.93,0 13.74,-2.91 20.45,-8.72 5.36,-4.58 10.11,-10.45 14.25,-17.6 5.92,-10.06 10.23,-22.41 12.91,-37.04z"/>
   <path id="_1_104" class="fil0" d="M378.33 182.43c0,0.78 -0.34,1.73 -1.01,2.85 -2.91,4.81 -7.71,9.61 -14.42,14.42 -7.15,5.36 -13.19,8.05 -18.1,8.05 -1.01,0 -2.51,-0.06 -4.53,-0.17 -1.9,0 -3.35,0 -4.36,0 -0.45,0 -2.12,-0.39 -5.03,-1.17 -3.46,8.94 -8.16,18.33 -14.08,28.16 -8.38,13.63 -15.2,20.45 -20.45,20.45 -2.79,0 -4.19,-2.07 -4.19,-6.2 0,-5.48 5.03,-15.64 15.09,-30.51 7.15,-9.83 14.36,-19.72 21.62,-29.67l0 -1.01c0,-4.02 -0.06,-7.54 -0.17,-10.56 -4.25,6.93 -6.93,10.39 -8.05,10.39 -0.67,0 -1.01,-0.39 -1.01,-1.17 0,-0.45 0.17,-0.89 0.5,-1.34 4.92,-6.93 7.38,-13.13 7.38,-18.61 0,-1.12 -0.31,-2.04 -0.92,-2.77 -0.61,-0.73 -0.92,-1.31 -0.92,-1.76 0,-0.45 1.73,-0.67 5.2,-0.67 3.8,0 5.7,3.8 5.7,11.4 0,1.12 -0.08,2.77 -0.25,4.94 -0.17,2.18 -0.25,3.77 -0.25,4.78 3.13,-5.7 6.59,-10.95 10.39,-15.76 5.81,-7.15 10.67,-10.73 14.58,-10.73 3.58,0 5.36,2.63 5.36,7.88 0,6.59 -2.32,14.25 -6.96,22.96 -4.64,8.72 -9.69,14.81 -15.17,18.27 9.72,-0.22 20.51,-7.77 32.35,-22.63 0.45,-0.56 0.78,-0.84 1.01,-0.84 0.45,0 0.67,0.34 0.67,1.01zm-19.28 -15.25c0,-3.46 -0.95,-5.2 -2.85,-5.2 -0.56,0 -1.12,0.11 -1.68,0.34 -4.02,1.79 -8.27,6.98 -12.74,15.59 -3.35,6.37 -6.03,12.91 -8.05,19.61 1.12,1.68 3.07,3.8 5.87,6.37 4.92,-2.12 9.44,-7.43 13.58,-15.92 3.91,-8.05 5.87,-14.97 5.87,-20.79zm-31.68 30.51c-0.11,-0.11 -0.22,-0.17 -0.34,-0.17 -0.45,0 -1.06,0.56 -1.84,1.68 -2.68,4.02 -6.7,9.95 -12.07,17.77 -2.35,3.35 -5.31,8.44 -8.88,15.25 -4.13,7.93 -6.2,13.07 -6.2,15.42 0,1.01 0.34,1.51 1.01,1.51 4.92,0 11.68,-8.05 20.28,-24.14 2.23,-4.25 4.64,-11.57 7.21,-21.96 -0.11,-0.56 -0.17,-1.12 -0.17,-1.68 0,-1.34 0.34,-2.57 1.01,-3.69z"/>
   <path id="_2_105" class="fil0" d="M411.68 206.23c0,0.67 -0.17,1.01 -0.5,1.01 -0.11,0 -0.62,-0.28 -1.51,-0.84 -0.89,-0.56 -2.51,-0.84 -4.86,-0.84 -1.12,0 -2.18,0.06 -3.18,0.17 -4.25,16.76 -9.55,29.78 -15.92,39.06 -12.07,17.66 -24.98,26.48 -38.72,26.48 -5.36,0 -9.86,-1.56 -13.49,-4.69 -3.63,-3.13 -5.45,-7.32 -5.45,-12.57 0,-11.96 8.55,-23.41 25.65,-34.36 14.3,-9.28 28.22,-14.97 41.74,-17.1 1.56,-6.93 3.35,-17.21 5.36,-30.84 -1.34,3.24 -3.74,7.52 -7.21,12.82 -3.46,5.31 -6.43,9.25 -8.88,11.82 -2.91,3.02 -5.64,4.53 -8.21,4.53 -3.58,0 -5.36,-3.13 -5.36,-9.39 0,-3.58 1.12,-7.88 3.35,-12.91 2.57,-5.81 5.42,-8.72 8.55,-8.72 1.56,0 2.35,0.45 2.35,1.34 0,0.11 -1.4,2.65 -4.19,7.63 -2.79,4.97 -4.19,8.8 -4.19,11.48 0,3.58 1.01,5.36 3.02,5.36 3.46,0 11.01,-11.23 22.63,-33.69 0.22,-1.68 1.62,-2.51 4.19,-2.51 2.01,0 3.02,0.45 3.02,1.34 0,1.45 -0.73,6.2 -2.18,14.25 -1.68,9.5 -3.52,18.61 -5.53,27.32l0.67 0c5.92,-0.22 8.88,1.06 8.88,3.86zm-16.43 -0.67c-7.38,1.23 -16.15,4.41 -26.32,9.55 -10.17,5.14 -17.94,10.28 -23.3,15.42 -8.49,8.05 -12.74,16.04 -12.74,23.97 0,4.36 1.37,7.85 4.11,10.48 2.74,2.63 6.34,3.94 10.81,3.94 6.82,0 13.58,-2.91 20.28,-8.72 5.36,-4.58 10.11,-10.45 14.25,-17.6 5.92,-10.06 10.22,-22.41 12.91,-37.04z"/>
   <path id="_3_106" class="fil0" d="M446.38 178.57c-1.68,1.34 -3.07,2.85 -4.19,4.53 -1.12,1.68 -1.98,3.35 -2.6,5.03 -0.61,1.68 -1.03,3.24 -1.26,4.69 -0.22,1.45 -0.34,2.68 -0.34,3.69 0,3.8 1.84,5.59 5.53,5.36 1.56,-0.11 2.85,-0.39 3.86,-0.84 1.01,-0.45 2.46,-1.62 4.36,-3.52l13.41 -17.94c1.23,0.56 1.68,1.06 1.34,1.51 -0.34,0.45 -0.95,1.12 -1.84,2.01 -4.25,6.93 -8.16,12.32 -11.73,16.18 -3.58,3.86 -7.49,5.89 -11.73,6.12 -2.68,-0.11 -5.22,-0.73 -7.63,-1.84 -2.4,-1.12 -3.88,-3.07 -4.44,-5.87 -0.45,-1.68 -0.28,-3.38 0.5,-5.11 0.78,-1.73 1.93,-3.52 3.44,-5.36 1.51,-1.84 3.32,-3.83 5.45,-5.95 2.12,-2.12 4.3,-4.47 6.54,-7.04 1.79,-1.45 2.65,-2.93 2.6,-4.44 -0.06,-1.51 -0.7,-2.65 -1.93,-3.44 -1.23,-0.78 -2.82,-1.01 -4.78,-0.67 -1.96,0.34 -3.88,1.56 -5.78,3.69 -1.01,1.12 -1.87,2.12 -2.6,3.02 -0.73,0.89 -1.37,1.79 -1.93,2.68 -0.56,0.89 -1.12,1.82 -1.68,2.77 -0.56,0.95 -1.23,2.04 -2.01,3.27 -4.02,6.15 -6.65,9.22 -7.88,9.22 -0.45,0 -0.73,-0.22 -0.84,-0.67 0.11,-0.11 0.22,-0.31 0.34,-0.59 0.11,-0.28 0.28,-0.7 0.5,-1.26 1.34,-1.68 2.68,-3.6 4.02,-5.78 1.34,-2.18 2.79,-4.41 4.36,-6.71 1.56,-2.29 3.32,-4.53 5.28,-6.7 1.96,-2.18 4.22,-4.11 6.79,-5.78 4.13,-1.45 7.52,-2.12 10.14,-2.01 2.63,0.11 4.3,0.89 5.03,2.35 0.73,1.45 0.42,3.49 -0.92,6.12 -1.34,2.63 -3.8,5.73 -7.38,9.3z"/>
   <path id="_4_107" class="fil0" d="M516.62 182.43c0,0.78 -0.34,1.73 -1.01,2.85 -3.13,5.14 -6.76,9.61 -10.9,13.41 -5.36,4.92 -10.39,7.38 -15.09,7.38 -6.26,0 -9.39,-3.91 -9.39,-11.73 0,-1.79 0.84,-5.31 2.51,-10.56 -3.91,5.7 -6.43,9.22 -7.54,10.56 -3.69,4.36 -6.98,6.54 -9.89,6.54 -3.69,0 -5.53,-3.13 -5.53,-9.39 0,-3.58 1.17,-7.88 3.52,-12.91 2.57,-5.81 5.36,-8.72 8.38,-8.72 1.68,0 2.51,0.45 2.51,1.34 0,0.11 -1.42,2.65 -4.27,7.63 -2.85,4.97 -4.27,8.8 -4.27,11.48 0,3.58 1.06,5.36 3.18,5.36 3.58,0 10,-8.16 19.28,-24.47 0.78,-1.56 1.96,-3.74 3.52,-6.54 0.78,-0.89 1.62,-1.34 2.51,-1.34 1.01,0 1.93,0.42 2.77,1.26 0.84,0.84 1.26,1.82 1.26,2.93 0,-0.11 -1.98,3.63 -5.95,11.23 -3.97,7.6 -5.95,13.47 -5.95,17.6 0,3.91 1.84,5.87 5.53,5.87 3.13,0 6.71,-1.79 10.73,-5.36 2.68,-2.35 5.7,-5.7 9.05,-10.06 2.79,-3.58 4.3,-5.36 4.53,-5.36 0.34,0 0.5,0.34 0.5,1.01z"/>
   <path id="_5_108" class="fil0" d="M545.45 172.87c-2.23,4.69 -4.64,9.36 -7.21,14 -2.57,4.64 -4.97,8.07 -7.21,10.31 -3.13,3.02 -6.09,4.97 -8.88,5.87 -2.79,0.89 -5.14,0.87 -7.04,-0.08 -1.9,-0.95 -3.27,-2.79 -4.11,-5.53 -0.84,-2.74 -0.87,-6.29 -0.08,-10.64 0.34,-2.12 0.95,-3.58 1.84,-4.36 0.89,-0.78 1.84,-1.17 2.85,-1.17 1.01,0 1.9,0.31 2.68,0.92 0.78,0.61 1.29,1.31 1.51,2.09 -1.79,4.58 -2.65,8.27 -2.6,11.06 0.06,2.79 0.84,4.47 2.35,5.03 1.51,0.56 3.6,-0.08 6.29,-1.93 2.68,-1.84 5.7,-5.11 9.05,-9.81 1.23,-1.68 2.65,-4.02 4.27,-7.04 1.62,-3.02 3.27,-7.38 4.94,-13.07 4.13,-2.12 7.1,-3.16 8.88,-3.1 1.79,0.06 2.77,0.78 2.93,2.18 0.17,1.4 -0.25,3.3 -1.26,5.7 -1.01,2.4 -2.12,4.92 -3.35,7.54 -1.23,2.63 -2.38,5.14 -3.44,7.54 -1.06,2.4 -1.59,4.33 -1.59,5.78 0.34,-0.45 0.95,-1.26 1.84,-2.43 0.89,-1.17 2.01,-2.57 3.35,-4.19 1.34,-1.62 2.82,-3.38 4.44,-5.28 1.62,-1.9 3.32,-3.8 5.11,-5.7 2.24,-2.57 5.7,-6.37 10.39,-11.4 0.45,-0.45 0.95,-0.84 1.51,-1.17 0.56,-0.34 1.06,-0.5 1.51,-0.5 2.57,0 3.86,1.29 3.86,3.86 0,0.56 -0.22,1.23 -0.67,2.01 -6.26,10.28 -9.39,18.44 -9.39,24.47 0,4.25 2.01,6.37 6.03,6.37 3.13,0 6.48,-1.62 10.06,-4.86 2.46,-2.12 5.08,-5.14 7.88,-9.05 2.35,-3.24 3.69,-4.86 4.02,-4.86 0.34,0 0.5,0.34 0.5,1.01 0,0.78 -0.34,1.73 -1.01,2.85 -7.6,12.63 -15.48,18.94 -23.64,18.94 -6.37,0 -9.55,-4.02 -9.55,-12.07 0,-3.58 0.36,-6.84 1.09,-9.81 0.73,-2.96 1.87,-5.84 3.44,-8.63 -2.23,2.12 -4.27,4.25 -6.12,6.37 -1.84,2.12 -3.94,4.64 -6.29,7.54 -1.01,1.34 -2.01,2.74 -3.02,4.19 -1.01,1.45 -2.01,2.74 -3.02,3.85 -1.01,1.12 -2.01,1.96 -3.02,2.51 -1.01,0.56 -2.07,0.5 -3.18,-0.17 -1.23,-0.78 -1.59,-2.46 -1.09,-5.03 0.5,-2.57 1.29,-5.31 2.35,-8.21 1.06,-2.91 2.09,-5.53 3.1,-7.88 1.01,-2.35 1.34,-3.69 1.01,-4.02 0,-0.56 -0.39,-0.84 -1.17,-0.84 -0.78,0 -1.17,0.28 -1.17,0.84z"/>
   <path id="_6_109" class="fil0" d="M646.69 182.09c0,0.78 -1.45,1.23 -4.36,1.34 -2.01,0.11 -5.03,0.28 -9.05,0.5 -3.35,0.45 -8.6,0.95 -15.76,1.51l-0.84 0c-2.23,0.11 -3.35,-0.28 -3.35,-1.17 0,-1.56 1.96,-2.96 5.87,-4.19 1.79,-0.67 4.3,-1.01 7.54,-1.01 3.91,0 9.11,0.45 15.59,1.34 2.91,0.45 4.36,1.01 4.36,1.68z"/>
   <path class="fil0" d="M139.02 337.76c-2.23,4.69 -4.64,9.36 -7.21,14 -2.57,4.64 -4.97,8.07 -7.21,10.31 -3.13,3.02 -6.09,4.97 -8.88,5.87 -2.79,0.89 -5.14,0.87 -7.04,-0.08 -1.9,-0.95 -3.27,-2.79 -4.11,-5.53 -0.84,-2.74 -0.87,-6.29 -0.08,-10.64 0.34,-2.12 0.95,-3.58 1.84,-4.36 0.89,-0.78 1.84,-1.17 2.85,-1.17 1.01,0 1.9,0.31 2.68,0.92 0.78,0.61 1.29,1.31 1.51,2.09 -1.79,4.58 -2.65,8.27 -2.6,11.06 0.06,2.79 0.84,4.47 2.35,5.03 1.51,0.56 3.6,-0.08 6.29,-1.93 2.68,-1.84 5.7,-5.11 9.05,-9.81 1.23,-1.68 2.65,-4.02 4.27,-7.04 1.62,-3.02 3.27,-7.38 4.94,-13.07 4.13,-2.12 7.1,-3.16 8.88,-3.1 1.79,0.06 2.77,0.78 2.93,2.18 0.17,1.4 -0.25,3.3 -1.26,5.7 -1.01,2.4 -2.12,4.92 -3.35,7.54 -1.23,2.63 -2.38,5.14 -3.44,7.54 -1.06,2.4 -1.59,4.33 -1.59,5.78 0.34,-0.45 0.95,-1.26 1.84,-2.43 0.89,-1.17 2.01,-2.57 3.35,-4.19 1.34,-1.62 2.82,-3.38 4.44,-5.28 1.62,-1.9 3.32,-3.8 5.11,-5.7 2.24,-2.57 5.7,-6.37 10.39,-11.4 0.45,-0.45 0.95,-0.84 1.51,-1.17 0.56,-0.34 1.06,-0.5 1.51,-0.5 2.57,0 3.86,1.29 3.86,3.86 0,0.56 -0.22,1.23 -0.67,2.01 -6.26,10.28 -9.39,18.44 -9.39,24.47 0,4.25 2.01,6.37 6.03,6.37 3.13,0 6.48,-1.62 10.06,-4.86 2.46,-2.12 5.08,-5.14 7.88,-9.05 2.35,-3.24 3.69,-4.86 4.02,-4.86 0.34,0 0.5,0.34 0.5,1.01 0,0.78 -0.34,1.73 -1.01,2.85 -7.6,12.63 -15.48,18.94 -23.64,18.94 -6.37,0 -9.55,-4.02 -9.55,-12.07 0,-3.58 0.36,-6.84 1.09,-9.81 0.73,-2.96 1.87,-5.84 3.44,-8.63 -2.23,2.12 -4.27,4.25 -6.12,6.37 -1.84,2.12 -3.94,4.64 -6.29,7.54 -1.01,1.34 -2.01,2.74 -3.02,4.19 -1.01,1.45 -2.01,2.74 -3.02,3.85 -1.01,1.12 -2.01,1.96 -3.02,2.51 -1.01,0.56 -2.07,0.5 -3.18,-0.17 -1.23,-0.78 -1.59,-2.46 -1.09,-5.03 0.5,-2.57 1.29,-5.31 2.35,-8.21 1.06,-2.91 2.09,-5.53 3.1,-7.88 1.01,-2.35 1.34,-3.69 1.01,-4.02 0,-0.56 -0.39,-0.84 -1.17,-0.84 -0.78,0 -1.17,0.28 -1.17,0.84z"/>
   <path id="_1_110" class="fil0" d="M227.86 349.15c0,0.22 -0.11,0.45 -0.34,0.67 -1.56,2.68 -3.94,4.97 -7.12,6.87 -3.18,1.9 -6.29,2.85 -9.3,2.85 -2.23,0 -4.3,-0.56 -6.2,-1.68 -5.14,8.16 -10.45,12.24 -15.92,12.24 -3.91,0 -5.87,-2.29 -5.87,-6.87 0,-6.37 2.79,-13.86 8.38,-22.46 -0.22,-1.23 -0.34,-2.46 -0.34,-3.69 0,-4.02 1.34,-7.93 4.02,-11.73 2.68,-3.8 5.98,-5.7 9.89,-5.7 2.57,0 4.64,1.51 6.2,4.53 1.23,2.57 1.84,5.25 1.84,8.05 0,6.03 -2.35,13.69 -7.04,22.96 1.68,1.01 3.58,1.51 5.7,1.51 3.69,0 7.15,-1.45 10.39,-4.36 3.24,-2.91 4.75,-4.36 4.53,-4.36 0.78,0 1.17,0.39 1.17,1.17zm-19.78 -12.74c0,-2.46 -0.39,-4.97 -1.17,-7.54 -1.12,-3.58 -2.57,-5.36 -4.36,-5.36 -2.57,0 -4.58,1.56 -6.03,4.69 -1.12,2.46 -1.62,5.14 -1.51,8.05 1.79,-2.12 3.58,-3.18 5.36,-3.18 1.68,0 2.91,0.56 3.69,1.68 0,0.11 0,0.39 0,0.84 0.11,0.34 0.17,0.61 0.17,0.84 0,0.34 -0.56,0.5 -1.68,0.5 -2.01,0 -4.13,2.12 -6.37,6.37 1.45,4.25 4.02,7.71 7.71,10.39 2.79,-7.04 4.19,-12.8 4.19,-17.27zm-5.53 19.61c-3.69,-2.46 -6.48,-5.31 -8.38,-8.55 -3.35,7.04 -5.03,12.12 -5.03,15.25 0,2.23 0.84,3.35 2.51,3.35 1.56,0 3.63,-1.34 6.2,-4.02 2.24,-2.12 3.8,-4.13 4.69,-6.03z"/>
   <path id="_2_111" class="fil0" d="M267.25 340.77c2.46,0.22 3.69,1.51 3.69,3.86 0,0.22 -0.22,0.89 -0.67,2.01 -1.23,2.57 -2.37,4.81 -3.44,6.7 -1.06,1.9 -1.59,3.91 -1.59,6.03 0,4.25 2.01,6.37 6.03,6.37 3.13,0 6.48,-1.62 10.06,-4.86 2.46,-2.12 5.08,-5.14 7.88,-9.05 2.35,-3.24 3.69,-4.86 4.02,-4.86 0.34,0 0.5,0.34 0.5,1.01 0,0.78 -0.34,1.73 -1.01,2.85 -7.6,12.63 -15.48,18.94 -23.64,18.94 -6.37,0 -9.55,-4.02 -9.55,-12.07 0,-0.78 0,-1.54 0,-2.26 0,-0.73 0.06,-1.42 0.17,-2.1 0.45,-1.56 1.06,-3.24 1.84,-5.03 -0.67,0.22 -1.34,0.39 -2.01,0.5 -0.67,0.11 -1.29,0.17 -1.84,0.17 -1.9,2.57 -3.8,5 -5.7,7.29 -1.9,2.29 -3.13,3.72 -3.69,4.27 -3.13,3.02 -6.2,5.06 -9.22,6.12 -3.02,1.06 -5.64,1.2 -7.88,0.42 -2.23,-0.78 -3.88,-2.46 -4.94,-5.03 -1.06,-2.57 -1.2,-6.03 -0.42,-10.39 0.34,-2.12 0.95,-3.58 1.84,-4.36 0.89,-0.78 1.84,-1.17 2.85,-1.17 1.01,0 1.9,0.31 2.68,0.92 0.78,0.61 1.29,1.31 1.51,2.09 -1.79,4.58 -2.65,8.27 -2.6,11.06 0.06,2.79 0.84,4.47 2.35,5.03 1.51,0.56 3.6,-0.08 6.29,-1.93 2.68,-1.84 5.7,-5.11 9.05,-9.81 0.67,-0.89 1.68,-2.35 3.02,-4.36 -3.35,-0.11 -6.34,-0.89 -8.97,-2.35 -2.63,-1.45 -4.39,-3.32 -5.28,-5.62 -0.89,-2.29 -0.73,-4.75 0.5,-7.38 1.23,-2.63 3.97,-5.17 8.21,-7.63 3.02,-1.68 5.59,-2.54 7.71,-2.6 2.12,-0.06 3.83,0.45 5.11,1.51 1.29,1.06 2.18,2.51 2.68,4.36 0.5,1.84 0.7,3.83 0.59,5.95 -0.11,2.12 -0.5,4.16 -1.17,6.12 -0.67,1.96 -1.62,3.6 -2.85,4.95 0.56,0 1.12,0 1.68,0 0.56,0 1.12,-0.11 1.68,-0.34 1.56,-2.79 2.68,-4.39 3.35,-4.78 0.67,-0.39 1.06,-0.59 1.17,-0.59zm-8.38 -9.89c-4.69,-1.56 -8.07,-1.82 -10.14,-0.75 -2.07,1.06 -3.16,2.63 -3.27,4.69 -0.11,2.07 0.7,4.25 2.43,6.54 1.73,2.29 4.11,3.83 7.12,4.61 1.01,-1.56 1.93,-3.18 2.77,-4.86 0.84,-1.68 1.45,-3.21 1.84,-4.61 0.39,-1.4 0.56,-2.63 0.5,-3.69 -0.06,-1.06 -0.47,-1.7 -1.26,-1.93z"/>
   <path id="_3_112" class="fil0" d="M350.73 330.38c0,0.45 -0.5,0.84 -1.51,1.17 -1.01,0.34 -1.68,0.84 -2.01,1.51 -0.56,2.46 -1.17,5.31 -1.84,8.55 -1.34,5.7 -3.3,14.25 -5.87,25.65l0.67 0c5.92,-0.22 8.88,1.06 8.88,3.86 0,0.67 -0.22,1.01 -0.67,1.01 -0.11,0 -0.59,-0.28 -1.42,-0.84 -0.84,-0.56 -2.43,-0.84 -4.78,-0.84 -1.12,0 -2.23,0.06 -3.35,0.17 -4.13,16.76 -9.44,29.78 -15.92,39.06 -12.07,17.66 -24.92,26.48 -38.55,26.48 -5.36,0 -9.86,-1.56 -13.49,-4.69 -3.63,-3.13 -5.45,-7.32 -5.45,-12.57 0,-11.96 8.49,-23.41 25.48,-34.36 14.42,-9.28 28.38,-14.97 41.91,-17.1 0.78,-4.25 2.07,-10.67 3.86,-19.28 -7.49,13.3 -14.14,19.95 -19.95,19.95 -3.46,0 -5.2,-1.9 -5.2,-5.7 0,-5.7 2.79,-12.68 8.38,-20.95 5.59,-8.27 11.01,-13.3 16.26,-15.09 2.01,-0.78 3.86,-1.17 5.53,-1.17 1.56,0 3.46,0.53 5.7,1.59 2.24,1.06 3.35,2.26 3.35,3.6zm-7.88 0.5c-0.45,-0.11 -0.95,-0.17 -1.51,-0.17 -4.47,0 -9.11,2.85 -13.91,8.55 -6.82,8.27 -10.23,15.03 -10.23,20.28 0,2.35 0.78,3.52 2.35,3.52 2.46,0 5.64,-2.57 9.56,-7.71 5.48,-6.93 10.06,-15.09 13.74,-24.47zm-10.23 39.56c-7.38,1.23 -16.15,4.41 -26.32,9.55 -10.17,5.14 -17.99,10.28 -23.47,15.42 -8.38,8.05 -12.57,16.04 -12.57,23.97 0,4.36 1.37,7.85 4.11,10.48 2.74,2.63 6.29,3.94 10.64,3.94 6.93,0 13.74,-2.91 20.45,-8.72 5.36,-4.58 10.11,-10.45 14.25,-17.6 5.92,-10.06 10.23,-22.41 12.91,-37.04z"/>
   <path id="_4_113" class="fil0" d="M377.04 320.99c-1.9,3.02 -3.83,6.68 -5.78,10.98 -1.96,4.3 -3.49,8.41 -4.61,12.32 2.79,-5.03 6.2,-9.83 10.23,-14.42 5.36,-6.15 10.11,-9.22 14.25,-9.22 3.35,0 5.03,2.4 5.03,7.21 0,6.93 -2.18,14.81 -6.54,23.64 -2.91,6.03 -6.71,11.29 -11.4,15.76 -5.59,5.25 -11.29,7.88 -17.1,7.88 -4.47,0 -6.71,-0.84 -6.71,-2.51 0,-0.67 0.34,-1.01 1.01,-1.01 0.34,0 1.15,0.2 2.43,0.59 1.29,0.39 2.38,0.59 3.27,0.59 5.03,0 10,-2.85 14.92,-8.55 3.69,-4.36 6.71,-9.44 9.05,-15.25 2.12,-5.03 3.18,-10.56 3.18,-16.59 0,-3.69 -0.84,-5.53 -2.51,-5.53 -3.69,0 -8.6,5.08 -14.75,15.25 -5.81,9.5 -8.72,16.59 -8.72,21.29 0,1.23 0.42,2.18 1.26,2.85 0.84,0.67 1.26,1.23 1.26,1.68 0,0.45 -0.28,0.67 -0.84,0.67 -4.13,0 -6.2,-3.02 -6.2,-9.05 0,-4.25 1.03,-9.75 3.1,-16.51 2.07,-6.76 5.22,-14.5 9.47,-23.22 3.58,-7.04 9.78,-17.6 18.61,-31.68 13.63,-21.79 24.75,-32.69 33.36,-32.69 5.03,0 7.54,2.29 7.54,6.87 0,8.05 -7.04,19.28 -21.12,33.69 -9.05,9.16 -19.61,17.49 -31.68,24.98zm49.62 -55.65c0,-2.35 -0.95,-3.58 -2.85,-3.69 -2.91,0 -7.43,2.46 -13.58,7.38 -10.84,8.6 -20.17,21.79 -27.99,39.56 -1.23,3.02 -2.12,5.36 -2.68,7.04 8.05,-4.69 17.32,-12.24 27.83,-22.63 12.63,-12.18 19.05,-21.4 19.28,-27.66z"/>
   <path id="_5_114" class="fil0" d="M452.81 347.31c0,0.78 -0.34,1.73 -1.01,2.85 -3.13,5.14 -6.76,9.61 -10.9,13.41 -5.36,4.92 -10.39,7.38 -15.09,7.38 -6.26,0 -9.39,-3.91 -9.39,-11.73 0,-1.79 0.84,-5.31 2.51,-10.56 -3.91,5.7 -6.43,9.22 -7.54,10.56 -3.69,4.36 -6.98,6.54 -9.89,6.54 -3.69,0 -5.53,-3.13 -5.53,-9.39 0,-3.58 1.17,-7.88 3.52,-12.91 2.57,-5.81 5.36,-8.72 8.38,-8.72 1.68,0 2.51,0.45 2.51,1.34 0,0.11 -1.42,2.65 -4.27,7.63 -2.85,4.97 -4.27,8.8 -4.27,11.48 0,3.58 1.06,5.36 3.18,5.36 3.58,0 10,-8.16 19.28,-24.47 0.78,-1.56 1.96,-3.74 3.52,-6.54 0.78,-0.89 1.62,-1.34 2.51,-1.34 1.01,0 1.93,0.42 2.77,1.26 0.84,0.84 1.26,1.82 1.26,2.93 0,-0.11 -1.98,3.63 -5.95,11.23 -3.97,7.6 -5.95,13.47 -5.95,17.6 0,3.91 1.84,5.87 5.53,5.87 3.13,0 6.71,-1.79 10.73,-5.36 2.68,-2.35 5.7,-5.7 9.05,-10.06 2.79,-3.58 4.3,-5.36 4.53,-5.36 0.34,0 0.5,0.34 0.5,1.01z"/>
   <path id="_6_115" class="fil0" d="M448.28 347.14c-1.23,1.34 -2.18,2.01 -2.85,2.01 -0.45,0 -0.67,-0.17 -0.67,-0.5 0,-0.34 0.34,-0.95 1.01,-1.84 1.23,-2.35 2.54,-4.64 3.94,-6.87 1.4,-2.23 2.96,-4.19 4.69,-5.87 1.73,-1.68 3.63,-3.05 5.7,-4.11 2.07,-1.06 4.33,-1.59 6.79,-1.59 8.27,0 12.4,4.41 12.4,13.24 0,2.12 -0.45,4.3 -1.34,6.54l0.67 -0.67c6.93,-4.81 11.4,-9.78 13.41,-14.92 0.34,-1.12 0.34,-2.18 0,-3.18 -0.11,-0.45 -0.22,-0.84 -0.34,-1.17 -0.11,-0.34 -0.06,-0.59 0.17,-0.75 0.22,-0.17 0.67,-0.17 1.34,0 0.67,0.17 1.73,0.59 3.18,1.26 3.02,1.23 3.41,5.31 1.17,12.24 -0.11,0.56 -0.34,1.23 -0.67,2.01 -0.34,0.78 -0.67,1.62 -1.01,2.51 -0.34,0.89 -0.67,1.73 -1.01,2.51 -0.34,0.78 -0.56,1.4 -0.67,1.84 -0.67,1.79 -1.2,3.1 -1.59,3.94 -0.39,0.84 -0.81,1.98 -1.26,3.44 4.25,-3.35 7.21,-5.48 8.88,-6.37 1.23,-4.13 4.02,-8.6 8.38,-13.41 6.26,-6.59 12.01,-9.89 17.27,-9.89 3.58,0 5.36,1.4 5.36,4.19 0,1.12 -0.84,3.07 -2.51,5.87 -1.56,2.68 -2.85,4.02 -3.86,4.02 -0.45,0 -0.67,-0.28 -0.67,-0.84 0,-0.45 0.2,-1.17 0.59,-2.18 0.39,-1.01 0.59,-1.79 0.59,-2.35 0,-2.35 -1.45,-3.52 -4.36,-3.52 -4.02,0 -7.65,2.63 -10.9,7.88 -3.02,4.92 -4.53,9.44 -4.53,13.58 0,6.93 3.02,10.39 9.05,10.39 7.6,0 15.53,-5.2 23.8,-15.59 1.12,-1.34 2.07,-2.01 2.85,-2.01 0.45,0 0.67,0.17 0.67,0.5 0,0.45 -0.34,1.06 -1.01,1.84 -3.8,5.59 -9.22,10.78 -16.26,15.59 -4.13,2.57 -8.38,3.85 -12.74,3.85 -8.27,0 -12.4,-4.41 -12.4,-13.24 0,-0.45 0,-0.89 0,-1.34 -5.92,4.36 -9.78,8.88 -11.57,13.58 -0.22,0.56 -0.06,1.06 0.5,1.51 0.56,0.45 0.95,0.95 1.17,1.51 0.11,0.45 0.22,0.84 0.34,1.17 0.11,0.34 0.03,0.59 -0.25,0.75 -0.28,0.17 -0.75,0.17 -1.42,0 -0.67,-0.17 -1.68,-0.59 -3.02,-1.26 -3.02,-1.12 -3.41,-5.2 -1.17,-12.24 0.22,-1.01 0.64,-2.21 1.26,-3.6 0.62,-1.4 1.03,-2.54 1.26,-3.44 0.67,-1.79 1.2,-3.41 1.59,-4.86 0.39,-1.45 0.75,-2.91 1.09,-4.36 -6.26,5.03 -9.95,7.38 -11.06,7.04 -0.45,0 -0.73,-0.22 -0.84,-0.67 -1.45,3.35 -3.86,6.82 -7.21,10.39 -6.26,6.59 -12.01,9.89 -17.27,9.89 -3.58,0 -5.36,-1.4 -5.36,-4.19 0,-1.01 0.84,-2.96 2.51,-5.87 1.45,-2.68 2.74,-4.02 3.86,-4.02 0.45,0 0.67,0.28 0.67,0.84 0,0.45 -0.2,1.17 -0.59,2.18 -0.39,1.01 -0.59,1.79 -0.59,2.35 0,2.35 1.45,3.52 4.36,3.52 4.02,0 7.65,-2.63 10.9,-7.88 3.02,-4.81 4.53,-9.33 4.53,-13.58 0,-6.93 -3.02,-10.39 -9.05,-10.39 -1.9,0 -3.55,0.34 -4.94,1.01 -1.4,0.67 -2.68,1.65 -3.86,2.93 -1.17,1.29 -2.29,2.79 -3.35,4.53 -1.06,1.73 -2.21,3.66 -3.44,5.78l-0.34 0.34z"/>
   <path id="_7_116" class="fil0" d="M576.35 371.11c0,0.67 -0.17,1.01 -0.5,1.01 -0.11,0 -0.62,-0.28 -1.51,-0.84 -0.89,-0.56 -2.51,-0.84 -4.86,-0.84 -1.12,0 -2.18,0.06 -3.18,0.17 -4.25,16.76 -9.55,29.78 -15.92,39.06 -12.07,17.66 -24.98,26.48 -38.72,26.48 -5.36,0 -9.86,-1.56 -13.49,-4.69 -3.63,-3.13 -5.45,-7.32 -5.45,-12.57 0,-11.96 8.55,-23.41 25.65,-34.36 14.3,-9.28 28.22,-14.97 41.74,-17.1 1.56,-6.93 3.35,-17.21 5.36,-30.84 -1.34,3.24 -3.74,7.52 -7.21,12.82 -3.46,5.31 -6.43,9.25 -8.88,11.82 -2.91,3.02 -5.64,4.53 -8.21,4.53 -3.58,0 -5.36,-3.13 -5.36,-9.39 0,-3.58 1.12,-7.88 3.35,-12.91 2.57,-5.81 5.42,-8.72 8.55,-8.72 1.56,0 2.35,0.45 2.35,1.34 0,0.11 -1.4,2.65 -4.19,7.63 -2.79,4.97 -4.19,8.8 -4.19,11.48 0,3.58 1.01,5.36 3.02,5.36 3.46,0 11.01,-11.23 22.63,-33.69 0.22,-1.68 1.62,-2.51 4.19,-2.51 2.01,0 3.02,0.45 3.02,1.34 0,1.45 -0.73,6.2 -2.18,14.25 -1.68,9.5 -3.52,18.61 -5.53,27.32l0.67 0c5.92,-0.22 8.88,1.06 8.88,3.86zm-16.43 -0.67c-7.38,1.23 -16.15,4.41 -26.32,9.55 -10.17,5.14 -17.94,10.28 -23.3,15.42 -8.49,8.05 -12.74,16.04 -12.74,23.97 0,4.36 1.37,7.85 4.11,10.48 2.74,2.63 6.34,3.94 10.81,3.94 6.82,0 13.58,-2.91 20.28,-8.72 5.36,-4.58 10.11,-10.45 14.25,-17.6 5.92,-10.06 10.22,-22.41 12.91,-37.04z"/>
   <path id="_8_117" class="fil0" d="M642.06 361.22c-2.23,2.24 -4.3,3.74 -6.2,4.53 -1.9,0.78 -3.55,1.03 -4.94,0.75 -1.4,-0.28 -2.51,-1.06 -3.35,-2.35 -0.84,-1.28 -1.26,-2.93 -1.26,-4.94 0,-0.89 0.28,-2.26 0.84,-4.11 0.56,-1.84 1.29,-4.05 2.18,-6.62 -1.9,2.91 -3.58,5.25 -5.03,7.04 -1.45,1.79 -2.46,3.02 -3.02,3.69 -3.69,4.36 -6.98,6.54 -9.89,6.54 -3.69,0 -5.53,-3.13 -5.53,-9.39 0,-1.56 0.17,-3.18 0.5,-4.86 -1.34,2.01 -2.46,3.66 -3.35,4.94 -0.89,1.29 -1.62,2.21 -2.18,2.77 -3.69,4.36 -6.98,6.54 -9.89,6.54 -3.69,0 -5.53,-3.13 -5.53,-9.39 0,-3.58 1.17,-7.88 3.52,-12.91 2.46,-5.81 5.25,-8.72 8.38,-8.72 1.68,0 2.51,0.45 2.51,1.34 0,0 -1.45,2.57 -4.36,7.71 -2.79,4.81 -4.19,8.6 -4.19,11.4 0,3.58 1.06,5.36 3.18,5.36 2.91,0 7.77,-5.42 14.58,-16.26 0,-0.11 0.11,-0.39 0.34,-0.84 1.12,-2.68 2.4,-4.86 3.86,-6.54 0.11,-0.22 0.22,-0.39 0.34,-0.5 0.11,-0.11 0.22,-0.28 0.34,-0.5l-0.34 0.84c1.34,-1.34 2.74,-2.01 4.19,-2.01 1.68,0 2.51,0.45 2.51,1.34 0,0 -1.45,2.57 -4.36,7.71 -2.79,4.81 -4.19,8.6 -4.19,11.4 0,3.58 1.06,5.36 3.18,5.36 3.58,0 10,-8.16 19.28,-24.47 0.78,-1.45 1.96,-3.63 3.52,-6.54 0.89,-0.89 1.73,-1.34 2.51,-1.34 1.01,0 1.93,0.42 2.77,1.26 0.84,0.84 1.26,1.82 1.26,2.93 0,0 -2.01,3.74 -6.03,11.23 -3.91,7.6 -5.87,13.35 -5.87,17.27 0,1.23 0.17,2.15 0.5,2.77 0.34,0.61 0.89,0.84 1.68,0.67 0.78,-0.17 1.84,-0.84 3.18,-2.01 1.34,-1.17 3.07,-2.93 5.2,-5.28 0.56,-0.67 0.95,-0.56 1.17,0.34 0.22,0.89 -0.45,2.18 -2.01,3.86zm-27.83 25.14c0.56,-1.23 1.4,-1.84 2.51,-1.84 0,-0.22 1.01,0.36 3.02,1.76 2.01,1.4 3.74,1.98 5.2,1.76 4.25,-0.22 7.54,-3.02 9.89,-8.38 2.24,-5.03 3.13,-10.5 2.68,-16.43l0.67 -0.67c2.01,-0.11 2.63,2.85 1.84,8.88 -0.56,5.36 -1.62,9.78 -3.18,13.24 -2.23,5.25 -5.87,8.16 -10.9,8.72 -1.9,0 -4.41,-0.67 -7.54,-2.01 -3.58,-1.79 -4.97,-3.46 -4.19,-5.03z"/>
   <path id="_9_118" class="fil0" d="M703.24 348.48c0,0.56 -0.34,1.34 -1.01,2.35 -4.92,7.93 -9.55,13.02 -13.91,15.25 -2.01,1.01 -4.02,1.51 -6.03,1.51 -6.82,0 -10.23,-4.81 -10.23,-14.42 0,-1.56 0.11,-3.24 0.34,-5.03 -7.49,13.3 -14.14,19.95 -19.95,19.95 -3.46,0 -5.2,-1.9 -5.2,-5.7 0,-5.81 2.79,-12.82 8.38,-21.04 5.59,-8.21 11.01,-13.21 16.26,-15 1.9,-0.78 3.74,-1.17 5.53,-1.17 4.02,0 6.93,1.4 8.72,4.19 0.34,0.56 0.5,0.95 0.5,1.17 0,0.11 -0.39,0.28 -1.17,0.5 -0.78,0.22 -1.34,0.61 -1.68,1.17 -2.68,4.36 -4.02,10.9 -4.02,19.61 0,8.05 1.73,12.07 5.2,12.07 2.46,0 5.95,-2.71 10.48,-8.13 4.53,-5.42 6.96,-8.13 7.29,-8.13 0.34,0 0.5,0.28 0.5,0.84zm-24.64 -17.6c-0.45,-0.11 -0.95,-0.17 -1.51,-0.17 -4.47,0 -9.11,2.85 -13.91,8.55 -6.82,8.27 -10.23,15.03 -10.23,20.28 0,2.35 0.78,3.52 2.35,3.52 2.46,0 5.64,-2.57 9.56,-7.71 5.48,-6.93 10.06,-15.09 13.74,-24.47z"/>
   <path id="_10_119" class="fil0" d="M742.63 340.77c2.46,0.22 3.69,1.51 3.69,3.86 0,0.22 -0.22,0.89 -0.67,2.01 -1.23,2.57 -2.37,4.81 -3.44,6.7 -1.06,1.9 -1.59,3.91 -1.59,6.03 0,4.25 2.01,6.37 6.03,6.37 3.13,0 6.48,-1.62 10.06,-4.86 2.46,-2.12 5.08,-5.14 7.88,-9.05 2.35,-3.24 3.69,-4.86 4.02,-4.86 0.34,0 0.5,0.34 0.5,1.01 0,0.78 -0.34,1.73 -1.01,2.85 -7.6,12.63 -15.48,18.94 -23.64,18.94 -6.37,0 -9.55,-4.02 -9.55,-12.07 0,-0.78 0,-1.54 0,-2.26 0,-0.73 0.06,-1.42 0.17,-2.1 0.45,-1.56 1.06,-3.24 1.84,-5.03 -0.67,0.22 -1.34,0.39 -2.01,0.5 -0.67,0.11 -1.29,0.17 -1.84,0.17 -1.9,2.57 -3.8,5 -5.7,7.29 -1.9,2.29 -3.13,3.72 -3.69,4.27 -3.13,3.02 -6.2,5.06 -9.22,6.12 -3.02,1.06 -5.64,1.2 -7.88,0.42 -2.23,-0.78 -3.88,-2.46 -4.94,-5.03 -1.06,-2.57 -1.2,-6.03 -0.42,-10.39 0.34,-2.12 0.95,-3.58 1.84,-4.36 0.89,-0.78 1.84,-1.17 2.85,-1.17 1.01,0 1.9,0.31 2.68,0.92 0.78,0.61 1.29,1.31 1.51,2.09 -1.79,4.58 -2.65,8.27 -2.6,11.06 0.06,2.79 0.84,4.47 2.35,5.03 1.51,0.56 3.6,-0.08 6.29,-1.93 2.68,-1.84 5.7,-5.11 9.05,-9.81 0.67,-0.89 1.68,-2.35 3.02,-4.36 -3.35,-0.11 -6.34,-0.89 -8.97,-2.35 -2.63,-1.45 -4.39,-3.32 -5.28,-5.62 -0.89,-2.29 -0.73,-4.75 0.5,-7.38 1.23,-2.63 3.97,-5.17 8.21,-7.63 3.02,-1.68 5.59,-2.54 7.71,-2.6 2.12,-0.06 3.83,0.45 5.11,1.51 1.29,1.06 2.18,2.51 2.68,4.36 0.5,1.84 0.7,3.83 0.59,5.95 -0.11,2.12 -0.5,4.16 -1.17,6.12 -0.67,1.96 -1.62,3.6 -2.85,4.95 0.56,0 1.12,0 1.68,0 0.56,0 1.12,-0.11 1.68,-0.34 1.56,-2.79 2.68,-4.39 3.35,-4.78 0.67,-0.39 1.06,-0.59 1.17,-0.59zm-8.38 -9.89c-4.69,-1.56 -8.07,-1.82 -10.14,-0.75 -2.07,1.06 -3.16,2.63 -3.27,4.69 -0.11,2.07 0.7,4.25 2.43,6.54 1.73,2.29 4.11,3.83 7.12,4.61 1.01,-1.56 1.93,-3.18 2.77,-4.86 0.84,-1.68 1.45,-3.21 1.84,-4.61 0.39,-1.4 0.56,-2.63 0.5,-3.69 -0.06,-1.06 -0.47,-1.7 -1.26,-1.93z"/>
   <path class="fil0" d="M376.4 458.45c0,0.45 -0.34,1.06 -1.01,1.84 -3.91,5.7 -9.33,10.9 -16.26,15.59 -4.02,2.57 -8.27,3.85 -12.74,3.85 -8.27,0 -12.4,-4.41 -12.4,-13.24 0,-5.48 3.05,-11.51 9.14,-18.1 6.09,-6.59 11.82,-9.89 17.18,-9.89 3.58,0 5.36,1.4 5.36,4.19 0,1.12 -0.81,3.05 -2.43,5.78 -1.62,2.74 -2.93,4.11 -3.94,4.11 -0.45,0 -0.67,-0.28 -0.67,-0.84 0,-0.45 0.2,-1.17 0.59,-2.18 0.39,-1.01 0.59,-1.79 0.59,-2.35 0,-2.35 -1.45,-3.52 -4.36,-3.52 -4.02,0 -7.65,2.63 -10.9,7.88 -3.02,4.81 -4.53,9.33 -4.53,13.58 0,6.93 3.02,10.39 9.05,10.39 7.6,0 15.53,-5.2 23.8,-15.59 1.12,-1.34 2.07,-2.01 2.85,-2.01 0.45,0 0.67,0.17 0.67,0.5z"/>
   <path id="_1_120" class="fil0" d="M425.01 458.28c0,0.78 -0.34,1.73 -1.01,2.85 -3.13,5.14 -6.76,9.61 -10.9,13.41 -5.36,4.92 -10.39,7.38 -15.09,7.38 -6.26,0 -9.39,-3.91 -9.39,-11.73 0,-1.79 0.84,-5.31 2.51,-10.56 -3.91,5.7 -6.43,9.22 -7.54,10.56 -3.69,4.36 -6.98,6.54 -9.89,6.54 -3.69,0 -5.53,-3.13 -5.53,-9.39 0,-3.58 1.17,-7.88 3.52,-12.91 2.57,-5.81 5.36,-8.72 8.38,-8.72 1.68,0 2.51,0.45 2.51,1.34 0,0.11 -1.42,2.65 -4.27,7.63 -2.85,4.97 -4.27,8.8 -4.27,11.48 0,3.58 1.06,5.36 3.18,5.36 3.58,0 10,-8.16 19.28,-24.47 0.78,-1.56 1.96,-3.74 3.52,-6.54 0.78,-0.89 1.62,-1.34 2.51,-1.34 1.01,0 1.93,0.42 2.77,1.26 0.84,0.84 1.26,1.82 1.26,2.93 0,-0.11 -1.98,3.63 -5.95,11.23 -3.97,7.6 -5.95,13.47 -5.95,17.6 0,3.91 1.84,5.87 5.53,5.87 3.13,0 6.71,-1.79 10.73,-5.36 2.68,-2.35 5.7,-5.7 9.05,-10.06 2.79,-3.58 4.3,-5.36 4.53,-5.36 0.34,0 0.5,0.34 0.5,1.01z"/>
   <path id="_2_121" class="fil0" d="M458.37 449.73c-3.69,4.81 -7.21,9.33 -10.56,13.58 -3.35,4.25 -6.15,7.49 -8.38,9.72 -3.13,3.02 -6.09,4.97 -8.88,5.87 -2.79,0.89 -5.14,0.87 -7.04,-0.08 -1.9,-0.95 -3.27,-2.79 -4.11,-5.53 -0.84,-2.74 -0.87,-6.29 -0.08,-10.64 0.34,-2.12 0.95,-3.58 1.84,-4.36 0.89,-0.78 1.84,-1.17 2.85,-1.17 1.01,0 1.9,0.31 2.68,0.92 0.78,0.61 1.29,1.31 1.51,2.09 -1.79,4.58 -2.65,8.27 -2.6,11.06 0.06,2.79 0.84,4.47 2.35,5.03 1.51,0.56 3.6,-0.08 6.29,-1.93 2.68,-1.84 5.7,-5.11 9.05,-9.81 0.67,-0.89 1.93,-2.6 3.77,-5.11 1.84,-2.51 4.39,-5.56 7.63,-9.14 1.12,-1.34 2.18,-2.57 3.18,-3.69 1.01,-1.12 2.63,-2.91 4.86,-5.36 0.78,-0.78 1.68,-1.17 2.68,-1.17 2.57,0 3.86,1.29 3.86,3.86 0,0.56 -0.22,1.23 -0.67,2.01 -6.26,10.28 -9.39,18.44 -9.39,24.47 0,4.25 2.01,6.37 6.03,6.37 3.13,0 6.48,-1.62 10.06,-4.86 2.46,-2.12 5.08,-5.14 7.88,-9.05 2.35,-3.24 3.69,-4.86 4.02,-4.86 0.34,0 0.5,0.34 0.5,1.01 0,0.78 -0.34,1.73 -1.01,2.85 -7.6,12.63 -15.48,18.94 -23.64,18.94 -6.37,0 -9.55,-4.02 -9.55,-12.07 0,-7.04 1.62,-13.35 4.86,-18.94z"/>
   <path id="_3_122" class="fil0" d="M538.83 459.45c0,0.56 -0.34,1.34 -1.01,2.35 -4.92,7.93 -9.55,13.02 -13.91,15.25 -2.01,1.01 -4.02,1.51 -6.03,1.51 -6.82,0 -10.23,-4.81 -10.23,-14.42 0,-1.56 0.11,-3.24 0.34,-5.03 -7.49,13.3 -14.14,19.95 -19.95,19.95 -3.46,0 -5.2,-1.9 -5.2,-5.7 0,-5.81 2.79,-12.82 8.38,-21.04 5.59,-8.21 11.01,-13.21 16.26,-15 1.9,-0.78 3.74,-1.17 5.53,-1.17 4.02,0 6.93,1.4 8.72,4.19 0.34,0.56 0.5,0.95 0.5,1.17 0,0.11 -0.39,0.28 -1.17,0.5 -0.78,0.22 -1.34,0.61 -1.68,1.17 -2.68,4.36 -4.02,10.9 -4.02,19.61 0,8.05 1.73,12.07 5.2,12.07 2.46,0 5.95,-2.71 10.48,-8.13 4.53,-5.42 6.96,-8.13 7.29,-8.13 0.34,0 0.5,0.28 0.5,0.84zm-24.64 -17.6c-0.45,-0.11 -0.95,-0.17 -1.51,-0.17 -4.47,0 -9.11,2.85 -13.91,8.55 -6.82,8.27 -10.23,15.03 -10.23,20.28 0,2.35 0.78,3.52 2.35,3.52 2.46,0 5.64,-2.57 9.56,-7.71 5.48,-6.93 10.06,-15.09 13.74,-24.47z"/>
   <path class="fil0" d="M261.24 545.32c-1.9,3.02 -3.83,6.68 -5.78,10.98 -1.96,4.3 -3.49,8.41 -4.61,12.32 2.79,-5.03 6.2,-9.83 10.23,-14.42 5.36,-6.15 10.11,-9.22 14.25,-9.22 3.35,0 5.03,2.4 5.03,7.21 0,6.93 -2.18,14.81 -6.54,23.64 -2.91,6.03 -6.71,11.29 -11.4,15.76 -5.59,5.25 -11.29,7.88 -17.1,7.88 -4.47,0 -6.71,-0.84 -6.71,-2.51 0,-0.67 0.34,-1.01 1.01,-1.01 0.34,0 1.15,0.2 2.43,0.59 1.29,0.39 2.38,0.59 3.27,0.59 5.03,0 10,-2.85 14.92,-8.55 3.69,-4.36 6.71,-9.44 9.05,-15.25 2.12,-5.03 3.18,-10.56 3.18,-16.59 0,-3.69 -0.84,-5.53 -2.51,-5.53 -3.69,0 -8.6,5.08 -14.75,15.25 -5.81,9.5 -8.72,16.59 -8.72,21.29 0,1.23 0.42,2.18 1.26,2.85 0.84,0.67 1.26,1.23 1.26,1.68 0,0.45 -0.28,0.67 -0.84,0.67 -4.13,0 -6.2,-3.02 -6.2,-9.05 0,-4.25 1.03,-9.75 3.1,-16.51 2.07,-6.76 5.22,-14.5 9.47,-23.22 3.58,-7.04 9.78,-17.6 18.61,-31.68 13.63,-21.79 24.75,-32.69 33.36,-32.69 5.03,0 7.54,2.29 7.54,6.87 0,8.05 -7.04,19.28 -21.12,33.69 -9.05,9.16 -19.61,17.49 -31.68,24.98zm49.62 -55.65c0,-2.35 -0.95,-3.58 -2.85,-3.69 -2.91,0 -7.43,2.46 -13.58,7.38 -10.84,8.6 -20.17,21.79 -27.99,39.56 -1.23,3.02 -2.12,5.36 -2.68,7.04 8.05,-4.69 17.32,-12.24 27.83,-22.63 12.63,-12.18 19.05,-21.4 19.28,-27.66z"/>
   <path id="_1_123" class="fil0" d="M308.34 571.47c-1.23,1.34 -2.18,2.01 -2.85,2.01 -0.45,0 -0.67,-0.17 -0.67,-0.5 0,-0.34 0.34,-0.95 1.01,-1.84 1.23,-2.35 2.54,-4.64 3.94,-6.87 1.4,-2.23 2.96,-4.19 4.69,-5.87 1.73,-1.68 3.63,-3.05 5.7,-4.11 2.07,-1.06 4.33,-1.59 6.79,-1.59 8.27,0 12.4,4.41 12.4,13.24 0,2.12 -0.45,4.3 -1.34,6.54l0.67 -0.67c6.93,-4.81 11.4,-9.78 13.41,-14.92 0.34,-1.12 0.34,-2.18 0,-3.18 -0.11,-0.45 -0.22,-0.84 -0.34,-1.17 -0.11,-0.34 -0.06,-0.59 0.17,-0.75 0.22,-0.17 0.67,-0.17 1.34,0 0.67,0.17 1.73,0.59 3.18,1.26 3.02,1.23 3.41,5.31 1.17,12.24 -0.11,0.56 -0.34,1.23 -0.67,2.01 -0.34,0.78 -0.67,1.62 -1.01,2.51 -0.34,0.89 -0.67,1.73 -1.01,2.51 -0.34,0.78 -0.56,1.4 -0.67,1.84 -0.67,1.79 -1.2,3.1 -1.59,3.94 -0.39,0.84 -0.81,1.98 -1.26,3.44 4.25,-3.35 7.21,-5.48 8.88,-6.37 1.23,-4.13 4.02,-8.6 8.38,-13.41 6.26,-6.59 12.01,-9.89 17.27,-9.89 3.58,0 5.36,1.4 5.36,4.19 0,1.12 -0.84,3.07 -2.51,5.87 -1.56,2.68 -2.85,4.02 -3.86,4.02 -0.45,0 -0.67,-0.28 -0.67,-0.84 0,-0.45 0.2,-1.17 0.59,-2.18 0.39,-1.01 0.59,-1.79 0.59,-2.35 0,-2.35 -1.45,-3.52 -4.36,-3.52 -4.02,0 -7.65,2.63 -10.9,7.88 -3.02,4.92 -4.53,9.44 -4.53,13.58 0,6.93 3.02,10.39 9.05,10.39 7.6,0 15.53,-5.2 23.8,-15.59 1.12,-1.34 2.07,-2.01 2.85,-2.01 0.45,0 0.67,0.17 0.67,0.5 0,0.45 -0.34,1.06 -1.01,1.84 -3.8,5.59 -9.22,10.78 -16.26,15.59 -4.13,2.57 -8.38,3.85 -12.74,3.85 -8.27,0 -12.4,-4.41 -12.4,-13.24 0,-0.45 0,-0.89 0,-1.34 -5.92,4.36 -9.78,8.88 -11.57,13.58 -0.22,0.56 -0.06,1.06 0.5,1.51 0.56,0.45 0.95,0.95 1.17,1.51 0.11,0.45 0.22,0.84 0.34,1.17 0.11,0.34 0.03,0.59 -0.25,0.75 -0.28,0.17 -0.75,0.17 -1.42,0 -0.67,-0.17 -1.68,-0.59 -3.02,-1.26 -3.02,-1.12 -3.41,-5.2 -1.17,-12.24 0.22,-1.01 0.64,-2.21 1.26,-3.6 0.62,-1.4 1.03,-2.54 1.26,-3.44 0.67,-1.79 1.2,-3.41 1.59,-4.86 0.39,-1.45 0.75,-2.91 1.09,-4.36 -6.26,5.03 -9.95,7.38 -11.06,7.04 -0.45,0 -0.73,-0.22 -0.84,-0.67 -1.45,3.35 -3.86,6.82 -7.21,10.39 -6.26,6.59 -12.01,9.89 -17.27,9.89 -3.58,0 -5.36,-1.4 -5.36,-4.19 0,-1.01 0.84,-2.96 2.51,-5.87 1.45,-2.68 2.74,-4.02 3.86,-4.02 0.45,0 0.67,0.28 0.67,0.84 0,0.45 -0.2,1.17 -0.59,2.18 -0.39,1.01 -0.59,1.79 -0.59,2.35 0,2.35 1.45,3.52 4.36,3.52 4.02,0 7.65,-2.63 10.9,-7.88 3.02,-4.81 4.53,-9.33 4.53,-13.58 0,-6.93 -3.02,-10.39 -9.05,-10.39 -1.9,0 -3.55,0.34 -4.94,1.01 -1.4,0.67 -2.68,1.65 -3.86,2.93 -1.17,1.29 -2.29,2.79 -3.35,4.53 -1.06,1.73 -2.21,3.66 -3.44,5.78l-0.34 0.34z"/>
   <path id="_2_124" class="fil0" d="M452.33 571.64c0,0.78 -0.34,1.73 -1.01,2.85 -3.13,5.14 -6.76,9.61 -10.9,13.41 -5.36,4.92 -10.39,7.38 -15.09,7.38 -6.26,0 -9.39,-3.91 -9.39,-11.73 0,-1.79 0.84,-5.31 2.51,-10.56 -3.91,5.7 -6.43,9.22 -7.54,10.56 -3.69,4.36 -6.98,6.54 -9.89,6.54 -3.69,0 -5.53,-3.13 -5.53,-9.39 0,-3.58 1.17,-7.88 3.52,-12.91 2.57,-5.81 5.36,-8.72 8.38,-8.72 1.68,0 2.51,0.45 2.51,1.34 0,0.11 -1.42,2.65 -4.27,7.63 -2.85,4.97 -4.27,8.8 -4.27,11.48 0,3.58 1.06,5.36 3.18,5.36 3.58,0 10,-8.16 19.28,-24.47 0.78,-1.56 1.96,-3.74 3.52,-6.54 0.78,-0.89 1.62,-1.34 2.51,-1.34 1.01,0 1.93,0.42 2.77,1.26 0.84,0.84 1.26,1.82 1.26,2.93 0,-0.11 -1.98,3.63 -5.95,11.23 -3.97,7.6 -5.95,13.47 -5.95,17.6 0,3.91 1.84,5.87 5.53,5.87 3.13,0 6.71,-1.79 10.73,-5.36 2.68,-2.35 5.7,-5.7 9.05,-10.06 2.79,-3.58 4.3,-5.36 4.53,-5.36 0.34,0 0.5,0.34 0.5,1.01z"/>
   <path id="_3_125" class="fil0" d="M495.41 595.44c0,0.67 -0.17,1.01 -0.5,1.01 -0.22,0 -0.73,-0.28 -1.51,-0.84 -0.78,-0.56 -2.35,-0.84 -4.69,-0.84 -1.12,0 -2.23,0.06 -3.35,0.17 -0.22,10.84 -5.53,23.86 -15.92,39.06 -12.07,17.66 -24.98,26.48 -38.72,26.48 -5.36,0 -9.83,-1.56 -13.41,-4.69 -3.58,-3.13 -5.36,-7.32 -5.36,-12.57 0,-11.96 8.49,-23.41 25.48,-34.36 14.42,-9.28 28.33,-14.97 41.74,-17.1 -0.11,-7.04 -2.85,-10.56 -8.21,-10.56 -1.12,0 -2.82,0.53 -5.11,1.59 -2.29,1.06 -3.83,1.59 -4.61,1.59 -1.45,0 -2.18,-0.67 -2.18,-2.01 0,-0.67 0.5,-1.51 1.51,-2.51 12.07,-11.06 18.1,-18.49 18.1,-22.29 0,-2.46 -1.4,-3.69 -4.19,-3.69 -6.82,0 -13.97,5.98 -21.46,17.94 -0.78,1.12 -1.34,1.68 -1.68,1.68 -0.45,0 -0.67,-0.28 -0.67,-0.84 0,-0.56 0.22,-1.23 0.67,-2.01 2.46,-5.14 5.7,-9.5 9.72,-13.07 4.69,-4.13 9.5,-6.2 14.42,-6.2 6.03,0 9.05,2.51 9.05,7.54 0,5.48 -4.47,11.79 -13.41,18.94l0.5 0c3.69,-0.11 6.84,1.2 9.47,3.94 2.63,2.74 4.11,6.01 4.44,9.81l0.67 0c5.25,-0.11 8.27,0.67 9.05,2.35 0.11,0.45 0.17,0.95 0.17,1.51zm-16.26 -0.67c-7.49,1.23 -16.32,4.41 -26.48,9.55 -10.17,5.14 -17.94,10.28 -23.3,15.42 -8.49,8.05 -12.74,16.04 -12.74,23.97 0,4.36 1.37,7.85 4.11,10.48 2.74,2.63 6.34,3.94 10.81,3.94 12.74,0 24.31,-8.77 34.7,-26.32 8.38,-14.19 12.68,-26.54 12.91,-37.04z"/>
   <path id="_4_126" class="fil0" d="M528.27 562.42c0.34,-0.34 0.67,-0.89 1.01,-1.68 0.34,-0.78 0.7,-1.62 1.09,-2.51 0.39,-0.89 0.78,-1.76 1.17,-2.6 0.39,-0.84 0.75,-1.42 1.09,-1.76 0.78,-0.78 1.68,-1.17 2.68,-1.17 2.57,0 3.86,1.29 3.86,3.86 0,0.56 -0.22,1.23 -0.67,2.01 -6.26,10.28 -9.39,18.44 -9.39,24.47 0,4.25 2.01,6.37 6.03,6.37 3.13,0 6.48,-1.62 10.06,-4.86 2.46,-2.12 5.08,-5.14 7.88,-9.05 2.35,-3.24 3.69,-4.86 4.02,-4.86 0.34,0 0.5,0.34 0.5,1.01 0,0.78 -0.34,1.73 -1.01,2.85 -7.6,12.63 -15.48,18.94 -23.64,18.94 -6.37,0 -9.56,-4.02 -9.56,-12.07 0,-4.47 0.67,-8.66 2.01,-12.57 -2.68,0.67 -5.42,1.45 -8.21,2.35 -2.79,0.89 -5.7,1.96 -8.72,3.18 -0.22,0.89 -0.5,1.76 -0.84,2.6 -0.34,0.84 -0.61,1.7 -0.84,2.6 -0.89,5.25 -1.9,8.83 -3.02,10.73 -1.12,1.9 -2.4,2.85 -3.85,2.85 -1.01,0 -1.51,-1.01 -1.51,-3.02 0,-0.45 0.11,-0.89 0.34,-1.34 1.23,-2.91 2.46,-6.34 3.69,-10.31 1.23,-3.97 2.46,-8.63 3.69,-14 0.22,-0.89 0.45,-1.98 0.67,-3.27 0.22,-1.29 0.56,-2.82 1.01,-4.61 0.34,-0.78 1.12,-1.56 2.35,-2.35 1.23,-0.78 2.35,-1.17 3.35,-1.17 0.78,0 1.17,0.34 1.17,1.01 0,0.56 -0.45,2.26 -1.34,5.11 -0.89,2.85 -2.18,6.96 -3.86,12.32 1.56,-0.56 3.46,-1.2 5.7,-1.93 2.24,-0.73 4.86,-1.54 7.88,-2.43 0.78,-0.11 1.9,-0.45 3.35,-1.01 0.56,-1.23 1.17,-2.46 1.84,-3.69z"/>
   <path id="_5_127" class="fil0" d="M605.38 571.64c0,0.78 -0.34,1.73 -1.01,2.85 -3.13,5.14 -6.76,9.61 -10.9,13.41 -5.36,4.92 -10.39,7.38 -15.09,7.38 -6.26,0 -9.39,-3.91 -9.39,-11.73 0,-1.79 0.84,-5.31 2.51,-10.56 -3.91,5.7 -6.43,9.22 -7.54,10.56 -3.69,4.36 -6.98,6.54 -9.89,6.54 -3.69,0 -5.53,-3.13 -5.53,-9.39 0,-3.58 1.17,-7.88 3.52,-12.91 2.57,-5.81 5.36,-8.72 8.38,-8.72 1.68,0 2.51,0.45 2.51,1.34 0,0.11 -1.42,2.65 -4.27,7.63 -2.85,4.97 -4.27,8.8 -4.27,11.48 0,3.58 1.06,5.36 3.18,5.36 3.58,0 10,-8.16 19.28,-24.47 0.78,-1.56 1.96,-3.74 3.52,-6.54 0.78,-0.89 1.62,-1.34 2.51,-1.34 1.01,0 1.93,0.42 2.77,1.26 0.84,0.84 1.26,1.82 1.26,2.93 0,-0.11 -1.98,3.63 -5.95,11.23 -3.97,7.6 -5.95,13.47 -5.95,17.6 0,3.91 1.84,5.87 5.53,5.87 3.13,0 6.71,-1.79 10.73,-5.36 2.68,-2.35 5.7,-5.7 9.05,-10.06 2.79,-3.58 4.3,-5.36 4.53,-5.36 0.34,0 0.5,0.34 0.5,1.01z"/>
   <path id="_6_128" class="fil0" d="M634.21 508.45c0,2.35 -2.01,5.92 -6.03,10.73 -4.02,4.81 -7.1,7.21 -9.22,7.21 -0.11,0 -0.17,-0.11 -0.17,-0.34 0,-0.34 0.39,-0.95 1.17,-1.84 1.45,-1.68 4.19,-5.59 8.21,-11.73l-0.34 0.17c-1.79,0 -2.68,-1.23 -2.68,-3.69 0,-3.13 1.9,-4.69 5.7,-4.69 0.78,0 1.54,0.47 2.26,1.42 0.73,0.95 1.09,1.87 1.09,2.77zm-13.07 0c0,2.24 -2.01,5.78 -6.03,10.64 -4.02,4.86 -7.04,7.29 -9.05,7.29 -0.22,-0.11 -0.34,-0.22 -0.34,-0.34 0,-0.45 0.39,-1.06 1.17,-1.84 1.45,-1.68 4.19,-5.59 8.21,-11.73l-0.34 0.17c-1.79,0 -2.68,-1.23 -2.68,-3.69 0,-1.34 0.59,-2.46 1.76,-3.35 1.17,-0.89 2.49,-1.34 3.94,-1.34 0.78,0 1.54,0.47 2.26,1.42 0.73,0.95 1.09,1.87 1.09,2.77z"/>
  </g>
 </g>
</svg>
