<?xml version="1.0" encoding="UTF-8"?>
<!DOCTYPE svg PUBLIC "-//W3C//DTD SVG 1.1//EN" "http://www.w3.org/Graphics/SVG/1.1/DTD/svg11.dtd">
<!-- Creator: CorelDRAW -->
<svg xmlns="http://www.w3.org/2000/svg" xml:space="preserve" width="116.779mm" height="99.221mm" version="1.1" style="shape-rendering:geometricPrecision; text-rendering:geometricPrecision; image-rendering:optimizeQuality; fill-rule:evenodd; clip-rule:evenodd"
viewBox="0 0 605.12 482.25"
 xmlns:xlink="http://www.w3.org/1999/xlink"
 xmlns:xodm="http://www.corel.com/coreldraw/odm/2003">
 <defs>
  <style type="text/css">
   <![CDATA[
    .fil0 {fill:white;fill-rule:nonzero}
   ]]>
  </style>
 </defs>
 <g id="Слой_x0020_1">
  <metadata id="CorelCorpID_0Corel-Layer"/>
  <g id="_2667141059264">
   <path class="fil0" d="M157.01 2.02c0,0.34 -0.29,0.84 -0.88,1.51 -1.01,1.09 -3.06,3.95 -6.17,8.57 1.51,0 2.27,0.92 2.27,2.77 0,2.27 -1.43,3.4 -4.28,3.4 -1.68,0 -2.52,-1.05 -2.52,-3.15 0,-1.68 1.51,-4.32 4.53,-7.94 3.02,-3.61 5.29,-5.42 6.8,-5.42 0.17,0 0.25,0.08 0.25,0.25zm-9.83 0c0,0.34 -0.29,0.84 -0.88,1.51 -1.01,1.09 -3.06,3.95 -6.17,8.57 1.51,0 2.27,0.92 2.27,2.77 0,2.27 -1.43,3.4 -4.28,3.4 -1.68,0 -2.52,-1.05 -2.52,-3.15 0,-1.68 1.51,-4.32 4.53,-7.94 3.02,-3.61 5.29,-5.42 6.8,-5.42 0.17,0 0.25,0.08 0.25,0.25z"/>
   <path id="_1" class="fil0" d="M241.53 9.83c0,5.71 -3.15,10.96 -9.45,15.75 -5.88,4.62 -11.8,6.93 -17.76,6.93 -6.13,0 -9.2,-2.35 -9.2,-7.05 0,-3.36 0.76,-5.04 2.27,-5.04 0.59,0 0.88,0.38 0.88,1.13 0,0.25 -0.04,0.63 -0.13,1.13 -0.08,0.5 -0.13,0.88 -0.13,1.13 0,3.27 2.14,4.91 6.42,4.91 4.45,0 9.49,-2.14 15.12,-6.42 5.63,-4.28 8.44,-8.52 8.44,-12.72 0,-4.11 -3.48,-6.17 -10.46,-6.17 -1.43,0 -2.81,0.08 -4.16,0.25 -7.22,0.76 -15.45,3.8 -24.69,9.13 -9.24,5.33 -16.92,11.57 -23.05,18.71 -6.8,8.06 -10.2,15.79 -10.2,23.18 0,4.62 1.55,8.15 4.66,10.58 2.77,2.18 6.55,3.28 11.34,3.28 15.28,0 30.11,-5.96 44.46,-17.89 0.34,-0.25 0.67,-0.38 1.01,-0.38 1.01,0 1.51,0.55 1.51,1.64 0,0.42 -0.17,0.8 -0.5,1.13 -6.13,5.63 -13.39,10.41 -21.79,14.36 -9.24,4.37 -17.59,6.55 -25.07,6.55 -6.13,0 -11.08,-1.26 -14.86,-3.78 -4.45,-2.94 -6.68,-7.31 -6.68,-13.1 0,-6.89 2.81,-14.4 8.44,-22.55 6.63,-9.66 15.24,-17.68 25.82,-24.06 11.34,-6.97 22.5,-10.46 33.51,-10.46 9.49,0 14.23,3.27 14.23,9.83z"/>
   <path id="_2" class="fil0" d="M281.34 54.16c0,0.34 -0.08,0.59 -0.25,0.76 -2.1,2.94 -4.45,5.67 -7.05,8.19 -3.61,3.36 -6.63,5.04 -9.07,5.04 -3.95,0 -5.92,-4.37 -5.92,-13.1 0,-1.34 0.04,-2.85 0.13,-4.53 -3.02,2.69 -6.42,7.52 -10.2,14.49 -1.26,2.35 -2.65,3.53 -4.16,3.53 -0.5,0 -0.88,-0.17 -1.13,-0.5 -0.25,-0.92 -0.38,-2.1 -0.38,-3.53 0,-2.44 0.55,-6.89 1.64,-13.35 0.59,-3.27 0.88,-5.37 0.88,-6.3 0,-0.67 -0.13,-1.01 -0.38,-1.01 -1.43,1.26 -3.74,3.99 -6.93,8.19 -3.44,4.53 -7.14,9.87 -11.08,16 -0.5,0.76 -0.92,1.13 -1.26,1.13 -0.67,0 -1.01,-0.76 -1.01,-2.27 0,-0.42 0.04,-0.76 0.13,-1.01 1.93,-4.53 3.9,-10.92 5.92,-19.15 0.17,-1.18 0.5,-2.85 1.01,-5.04 0.17,-0.59 0.73,-1.18 1.7,-1.76 0.97,-0.59 1.78,-0.88 2.46,-0.88 0.59,0 0.88,0.25 0.88,0.76 0,0.84 -1.97,7.22 -5.92,19.15 3.02,-4.03 6.13,-8.19 9.32,-12.47 1.01,-1.34 2.52,-3.36 4.53,-6.05 1.26,-1.51 2.56,-2.27 3.9,-2.27 1.34,0 2.02,0.76 2.02,2.27 0,1.09 -0.29,3.25 -0.88,6.49 -0.59,3.23 -1.26,7.96 -2.02,14.17 2.35,-3.36 6,-8.27 10.96,-14.74 1.34,-1.6 2.69,-2.39 4.03,-2.39 1.26,0 1.89,0.8 1.89,2.39 0,1.34 -0.21,3.34 -0.63,5.98 -0.42,2.65 -0.63,4.64 -0.63,5.98 0,4.37 1.13,6.55 3.4,6.55 3.19,0 7.26,-3.53 12.22,-10.58 0.5,-0.84 0.92,-1.26 1.26,-1.26 0.42,0 0.63,0.38 0.63,1.13zm-12.72 -23.43c-10.58,-2.52 -18.35,-2.39 -23.3,0.38 -0.92,0.5 -1.68,1.3 -2.27,2.39 -0.25,0.59 -0.38,1.39 -0.38,2.39 0,1.01 -0.13,1.76 -0.38,2.27l-0.5 0.38c-0.84,0.59 -1.2,-0.02 -1.07,-1.83 0.13,-1.81 0.52,-3.34 1.2,-4.6 0.84,-1.93 2.27,-3.4 4.28,-4.41 3.69,-2.18 8.57,-3.02 14.61,-2.52 1.51,0 6.59,0.71 15.24,2.14 5.29,0.92 8.78,0.92 10.45,0 1.01,-0.59 1.72,-1.34 2.14,-2.27 0.5,-1.09 0.61,-2.1 0.31,-3.02 -0.29,-0.92 -0.27,-1.72 0.06,-2.39 0.17,-0.08 0.25,-0.13 0.25,-0.13 0.67,-0.42 0.99,0.42 0.94,2.52 -0.04,2.1 -0.31,3.65 -0.82,4.66 -1.26,2.44 -2.6,4.11 -4.03,5.04 -2.1,1.18 -5.42,1.39 -9.95,0.63 -0.5,-0.25 -1.51,-0.46 -3.02,-0.63 -0.67,0 -1.93,-0.34 -3.78,-1.01z"/>
   <path id="_3" class="fil0" d="M322.65 53.03c0,0.59 -0.25,1.3 -0.76,2.14 -2.18,3.61 -5.79,7.22 -10.83,10.83 -5.37,4.03 -9.91,6.05 -13.6,6.05 -0.76,0 -1.89,-0.04 -3.4,-0.13 -1.43,0 -2.52,0 -3.27,0 -0.34,0 -1.6,-0.29 -3.78,-0.88 -2.6,6.72 -6.13,13.77 -10.58,21.16 -6.3,10.25 -11.42,15.37 -15.37,15.37 -2.1,0 -3.15,-1.55 -3.15,-4.66 0,-4.11 3.78,-11.76 11.34,-22.93 5.37,-7.39 10.79,-14.82 16.25,-22.29l0 -0.76c0,-3.02 -0.04,-5.67 -0.13,-7.94 -3.19,5.21 -5.21,7.81 -6.05,7.81 -0.5,0 -0.76,-0.29 -0.76,-0.88 0,-0.34 0.13,-0.67 0.38,-1.01 3.69,-5.21 5.54,-9.87 5.54,-13.98 0,-0.84 -0.23,-1.53 -0.69,-2.08 -0.46,-0.55 -0.69,-0.99 -0.69,-1.32 0,-0.34 1.3,-0.5 3.9,-0.5 2.85,0 4.28,2.85 4.28,8.57 0,0.84 -0.06,2.08 -0.19,3.72 -0.13,1.64 -0.19,2.83 -0.19,3.59 2.35,-4.28 4.95,-8.23 7.81,-11.84 4.37,-5.37 8.02,-8.06 10.96,-8.06 2.69,0 4.03,1.97 4.03,5.92 0,4.95 -1.74,10.71 -5.23,17.26 -3.48,6.55 -7.28,11.13 -11.4,13.73 7.31,-0.17 15.41,-5.84 24.31,-17 0.34,-0.42 0.59,-0.63 0.76,-0.63 0.34,0 0.5,0.25 0.5,0.76zm-14.49 -11.46c0,-2.6 -0.71,-3.9 -2.14,-3.9 -0.42,0 -0.84,0.08 -1.26,0.25 -3.02,1.34 -6.21,5.25 -9.57,11.71 -2.52,4.79 -4.53,9.7 -6.05,14.74 0.84,1.26 2.31,2.86 4.41,4.79 3.69,-1.6 7.1,-5.58 10.2,-11.97 2.94,-6.05 4.41,-11.25 4.41,-15.62zm-23.81 22.92c-0.08,-0.08 -0.17,-0.13 -0.25,-0.13 -0.34,0 -0.8,0.42 -1.39,1.26 -2.02,3.02 -5.04,7.47 -9.07,13.35 -1.76,2.52 -3.99,6.34 -6.68,11.46 -3.11,5.96 -4.66,9.83 -4.66,11.59 0,0.76 0.25,1.13 0.76,1.13 3.69,0 8.78,-6.05 15.24,-18.14 1.68,-3.19 3.48,-8.69 5.42,-16.5 -0.08,-0.42 -0.13,-0.84 -0.13,-1.26 0,-1.01 0.25,-1.93 0.76,-2.77z"/>
   <path id="_4" class="fil0" d="M358.55 53.91c0,0.42 -0.25,1.01 -0.76,1.76 -3.69,5.96 -7.18,9.78 -10.45,11.46 -1.51,0.76 -3.02,1.13 -4.53,1.13 -5.12,0 -7.68,-3.61 -7.68,-10.83 0,-1.18 0.08,-2.44 0.25,-3.78 -5.63,9.99 -10.62,14.99 -14.99,14.99 -2.6,0 -3.9,-1.43 -3.9,-4.28 0,-4.37 2.1,-9.64 6.3,-15.81 4.2,-6.17 8.27,-9.93 12.22,-11.27 1.43,-0.59 2.81,-0.88 4.16,-0.88 3.02,0 5.21,1.05 6.55,3.15 0.25,0.42 0.38,0.71 0.38,0.88 0,0.08 -0.29,0.21 -0.88,0.38 -0.59,0.17 -1.01,0.46 -1.26,0.88 -2.02,3.27 -3.02,8.19 -3.02,14.74 0,6.05 1.3,9.07 3.9,9.07 1.85,0 4.47,-2.04 7.87,-6.11 3.4,-4.07 5.23,-6.11 5.48,-6.11 0.25,0 0.38,0.21 0.38,0.63zm-18.52 -13.23c-0.34,-0.08 -0.71,-0.13 -1.13,-0.13 -3.36,0 -6.84,2.14 -10.46,6.42 -5.12,6.21 -7.68,11.29 -7.68,15.24 0,1.76 0.59,2.65 1.76,2.65 1.85,0 4.24,-1.93 7.18,-5.79 4.11,-5.21 7.56,-11.34 10.33,-18.39z"/>
   <path id="_5" class="fil0" d="M387.14 53.16c0,0.34 -0.25,0.8 -0.76,1.39 -2.94,4.28 -7.01,8.19 -12.22,11.71 -3.02,1.93 -6.21,2.9 -9.57,2.9 -6.21,0 -9.32,-3.32 -9.32,-9.95 0,-4.11 2.29,-8.65 6.86,-13.6 4.58,-4.95 8.88,-7.43 12.91,-7.43 2.69,0 4.03,1.05 4.03,3.15 0,0.84 -0.61,2.29 -1.83,4.35 -1.22,2.06 -2.2,3.09 -2.96,3.09 -0.34,0 -0.5,-0.21 -0.5,-0.63 0,-0.34 0.15,-0.88 0.44,-1.64 0.29,-0.76 0.44,-1.34 0.44,-1.76 0,-1.76 -1.09,-2.65 -3.27,-2.65 -3.02,0 -5.75,1.97 -8.19,5.92 -2.27,3.61 -3.4,7.01 -3.4,10.2 0,5.21 2.27,7.81 6.8,7.81 5.71,0 11.67,-3.9 17.89,-11.71 0.84,-1.01 1.55,-1.51 2.14,-1.51 0.34,0 0.5,0.13 0.5,0.38z"/>
   <path id="_6" class="fil0" d="M434.63 54.16c0,0.34 -0.08,0.59 -0.25,0.76 -2.1,2.94 -4.45,5.67 -7.05,8.19 -3.61,3.36 -6.63,5.04 -9.07,5.04 -3.95,0 -5.92,-4.37 -5.92,-13.1 0,-1.34 0.04,-2.85 0.13,-4.53 -3.02,2.69 -6.42,7.52 -10.2,14.49 -1.26,2.35 -2.65,3.53 -4.16,3.53 -0.5,0 -0.88,-0.17 -1.13,-0.5 -0.25,-0.92 -0.38,-2.1 -0.38,-3.53 0,-2.44 0.55,-6.89 1.64,-13.35 0.59,-3.27 0.88,-5.37 0.88,-6.3 0,-0.67 -0.13,-1.01 -0.38,-1.01 -1.43,1.26 -3.74,3.99 -6.93,8.19 -3.44,4.53 -7.14,9.87 -11.08,16 -0.5,0.76 -0.92,1.13 -1.26,1.13 -0.67,0 -1.01,-0.76 -1.01,-2.27 0,-0.42 0.04,-0.76 0.13,-1.01 1.93,-4.53 3.9,-10.92 5.92,-19.15 0.17,-1.18 0.5,-2.85 1.01,-5.04 0.17,-0.59 0.73,-1.18 1.7,-1.76 0.97,-0.59 1.78,-0.88 2.46,-0.88 0.59,0 0.88,0.25 0.88,0.76 0,0.84 -1.97,7.22 -5.92,19.15 3.02,-4.03 6.13,-8.19 9.32,-12.47 1.01,-1.34 2.52,-3.36 4.53,-6.05 1.26,-1.51 2.56,-2.27 3.9,-2.27 1.34,0 2.02,0.76 2.02,2.27 0,1.09 -0.29,3.25 -0.88,6.49 -0.59,3.23 -1.26,7.96 -2.02,14.17 2.35,-3.36 6,-8.27 10.96,-14.74 1.34,-1.6 2.69,-2.39 4.03,-2.39 1.26,0 1.89,0.8 1.89,2.39 0,1.34 -0.21,3.34 -0.63,5.98 -0.42,2.65 -0.63,4.64 -0.63,5.98 0,4.37 1.13,6.55 3.4,6.55 3.19,0 7.26,-3.53 12.22,-10.58 0.5,-0.84 0.92,-1.26 1.26,-1.26 0.42,0 0.63,0.38 0.63,1.13zm-12.72 -23.43c-10.58,-2.52 -18.35,-2.39 -23.3,0.38 -0.92,0.5 -1.68,1.3 -2.27,2.39 -0.25,0.59 -0.38,1.39 -0.38,2.39 0,1.01 -0.13,1.76 -0.38,2.27l-0.5 0.38c-0.84,0.59 -1.2,-0.02 -1.07,-1.83 0.13,-1.81 0.52,-3.34 1.2,-4.6 0.84,-1.93 2.27,-3.4 4.28,-4.41 3.69,-2.18 8.57,-3.02 14.61,-2.52 1.51,0 6.59,0.71 15.24,2.14 5.29,0.92 8.78,0.92 10.45,0 1.01,-0.59 1.72,-1.34 2.14,-2.27 0.5,-1.09 0.61,-2.1 0.31,-3.02 -0.29,-0.92 -0.27,-1.72 0.06,-2.39 0.17,-0.08 0.25,-0.13 0.25,-0.13 0.67,-0.42 0.99,0.42 0.94,2.52 -0.04,2.1 -0.31,3.65 -0.82,4.66 -1.26,2.44 -2.6,4.11 -4.03,5.04 -2.1,1.18 -5.42,1.39 -9.95,0.63 -0.5,-0.25 -1.51,-0.46 -3.02,-0.63 -0.67,0 -1.93,-0.34 -3.78,-1.01z"/>
   <path id="_7" class="fil0" d="M440.3 47.61c-1.43,2.85 -2.73,5.79 -3.9,8.82 -1.18,3.02 -1.76,5.33 -1.76,6.93 0,2.94 1.39,4.41 4.16,4.41 1.76,0 3.76,-0.73 5.98,-2.2 2.23,-1.47 4.18,-3.17 5.86,-5.1 -2.18,0.17 -4.01,-0.21 -5.48,-1.13 -1.47,-0.92 -2.25,-2.73 -2.33,-5.42 -0.17,-1.51 0.13,-2.96 0.88,-4.35 0.76,-1.39 1.74,-2.56 2.96,-3.53 1.22,-0.97 2.56,-1.66 4.03,-2.08 1.47,-0.42 2.81,-0.44 4.03,-0.06 1.22,0.38 2.2,1.24 2.96,2.58 0.76,1.34 1.05,3.27 0.88,5.79 -0.08,1.18 -0.34,2.35 -0.76,3.53 1.93,-0.92 3.78,-2.04 5.54,-3.34 1.76,-1.3 3.27,-2.67 4.53,-4.09l1.64 0.38c-0.34,0.84 -0.94,1.74 -1.83,2.71 -0.88,0.97 -1.93,1.91 -3.15,2.83 -1.22,0.92 -2.54,1.81 -3.97,2.65 -1.43,0.84 -2.9,1.55 -4.41,2.14 -1.01,1.51 -2.23,2.88 -3.65,4.09 -1.43,1.22 -2.98,2.29 -4.66,3.21 -1.68,0.92 -3.42,1.68 -5.23,2.27 -1.81,0.59 -3.55,0.97 -5.23,1.13 -4.87,0.5 -7.31,-1.93 -7.31,-7.31 0,-2.27 0.42,-4.79 1.26,-7.56 0.84,-2.77 1.91,-5.56 3.21,-8.38 1.3,-2.81 2.71,-5.5 4.22,-8.06 1.51,-2.56 2.94,-4.72 4.28,-6.49 0.34,-0.42 0.8,-0.59 1.39,-0.5 0.59,0.08 1.18,0.31 1.76,0.69 0.59,0.38 1.07,0.84 1.45,1.39 0.38,0.55 0.57,1.03 0.57,1.45 0,0.5 -0.17,0.97 -0.5,1.39 -0.25,0.42 -0.73,1.15 -1.45,2.2 -0.71,1.05 -1.47,2.18 -2.27,3.4 -0.8,1.22 -1.55,2.37 -2.27,3.46 -0.71,1.09 -1.2,1.81 -1.45,2.14zm13.35 8.57c0.92,-1.85 1.32,-3.32 1.2,-4.41 -0.13,-1.09 -0.57,-1.91 -1.32,-2.46 -0.76,-0.55 -1.68,-0.78 -2.77,-0.69 -1.09,0.08 -2.1,0.4 -3.02,0.94 -0.92,0.55 -1.64,1.3 -2.14,2.27 -0.5,0.97 -0.5,2.12 0,3.46 0.42,1.34 1.28,2.18 2.58,2.52 1.3,0.34 2.83,0.29 4.6,-0.13 0.17,-0.25 0.31,-0.5 0.44,-0.76 0.13,-0.25 0.27,-0.5 0.44,-0.76z"/>
   <path class="fil0" d="M42.32 146.31c0,0.59 -0.25,1.3 -0.76,2.14 -5.71,9.49 -11.63,14.23 -17.76,14.23 -4.79,0 -7.18,-3.02 -7.18,-9.07 0,-5.37 1.22,-10.12 3.65,-14.23 -5.88,5.29 -11.88,12.6 -18.01,21.92 -0.5,0.76 -0.88,1.13 -1.13,1.13 -0.76,0 -1.13,-0.76 -1.13,-2.27 0,-0.42 0.08,-0.76 0.25,-1.01 1.76,-4.28 3.61,-10.37 5.54,-18.26 0.25,-1.34 0.67,-3.32 1.26,-5.92 0.25,-0.59 0.84,-1.18 1.76,-1.76 0.92,-0.59 1.76,-0.88 2.52,-0.88 0.59,0 0.88,0.25 0.88,0.76 0,0.84 -1.97,7.22 -5.92,19.15 1.01,-1.34 4.16,-4.91 9.45,-10.71 1.76,-2.02 4.37,-4.87 7.81,-8.57 0.67,-0.59 1.34,-0.88 2.02,-0.88 1.93,0 2.9,0.97 2.9,2.9 0,0.42 -0.17,0.92 -0.5,1.51 -4.7,7.73 -7.05,13.86 -7.05,18.39 0,3.19 1.51,4.79 4.53,4.79 2.35,0 4.87,-1.22 7.56,-3.65 1.76,-1.51 3.74,-3.78 5.92,-6.8 1.76,-2.44 2.77,-3.65 3.02,-3.65 0.25,0 0.38,0.25 0.38,0.76z"/>
   <path id="_1_78" class="fil0" d="M70.79 147.7c0,0.17 -0.08,0.34 -0.25,0.5 -1.18,2.02 -2.96,3.74 -5.35,5.16 -2.39,1.43 -4.72,2.14 -6.99,2.14 -1.68,0 -3.23,-0.42 -4.66,-1.26 -3.86,6.13 -7.85,9.2 -11.97,9.2 -2.94,0 -4.41,-1.72 -4.41,-5.16 0,-4.79 2.1,-10.41 6.3,-16.88 -0.17,-0.92 -0.25,-1.85 -0.25,-2.77 0,-3.02 1.01,-5.96 3.02,-8.82 2.02,-2.85 4.49,-4.28 7.43,-4.28 1.93,0 3.48,1.13 4.66,3.4 0.92,1.93 1.39,3.95 1.39,6.05 0,4.53 -1.76,10.29 -5.29,17.26 1.26,0.76 2.69,1.13 4.28,1.13 2.77,0 5.37,-1.09 7.81,-3.28 2.44,-2.18 3.57,-3.27 3.4,-3.27 0.59,0 0.88,0.29 0.88,0.88zm-14.86 -9.57c0,-1.85 -0.29,-3.74 -0.88,-5.67 -0.84,-2.69 -1.93,-4.03 -3.27,-4.03 -1.93,0 -3.44,1.18 -4.53,3.53 -0.84,1.85 -1.22,3.86 -1.13,6.05 1.34,-1.6 2.69,-2.39 4.03,-2.39 1.26,0 2.18,0.42 2.77,1.26 0,0.08 0,0.29 0,0.63 0.08,0.25 0.13,0.46 0.13,0.63 0,0.25 -0.42,0.38 -1.26,0.38 -1.51,0 -3.11,1.6 -4.79,4.79 1.09,3.19 3.02,5.79 5.79,7.81 2.1,-5.29 3.15,-9.62 3.15,-12.97zm-4.16 14.74c-2.77,-1.85 -4.87,-3.99 -6.3,-6.42 -2.52,5.29 -3.78,9.11 -3.78,11.46 0,1.68 0.63,2.52 1.89,2.52 1.18,0 2.73,-1.01 4.66,-3.02 1.68,-1.6 2.86,-3.11 3.53,-4.53z"/>
   <path id="_2_79" class="fil0" d="M93.21 139.13c-1.68,3.53 -3.48,7.03 -5.42,10.52 -1.93,3.49 -3.74,6.07 -5.42,7.75 -2.35,2.27 -4.58,3.74 -6.68,4.41 -2.1,0.67 -3.86,0.65 -5.29,-0.06 -1.43,-0.71 -2.46,-2.1 -3.09,-4.16 -0.63,-2.06 -0.65,-4.72 -0.06,-8 0.25,-1.6 0.71,-2.69 1.39,-3.27 0.67,-0.59 1.39,-0.88 2.14,-0.88 0.76,0 1.43,0.23 2.02,0.69 0.59,0.46 0.97,0.99 1.13,1.57 -1.34,3.44 -1.99,6.21 -1.95,8.31 0.04,2.1 0.63,3.36 1.76,3.78 1.13,0.42 2.71,-0.06 4.72,-1.45 2.02,-1.39 4.28,-3.84 6.8,-7.37 0.92,-1.26 1.99,-3.02 3.21,-5.29 1.22,-2.27 2.46,-5.54 3.72,-9.83 3.11,-1.6 5.33,-2.37 6.68,-2.33 1.34,0.04 2.08,0.59 2.2,1.64 0.13,1.05 -0.19,2.48 -0.94,4.28 -0.76,1.81 -1.6,3.69 -2.52,5.67 -0.92,1.97 -1.78,3.86 -2.58,5.67 -0.8,1.81 -1.2,3.25 -1.2,4.35 0.25,-0.34 0.71,-0.94 1.39,-1.83 0.67,-0.88 1.51,-1.93 2.52,-3.15 1.01,-1.22 2.12,-2.54 3.34,-3.97 1.22,-1.43 2.5,-2.85 3.84,-4.28 1.68,-1.93 4.28,-4.79 7.81,-8.57 0.34,-0.34 0.71,-0.63 1.13,-0.88 0.42,-0.25 0.8,-0.38 1.13,-0.38 1.93,0 2.9,0.97 2.9,2.9 0,0.42 -0.17,0.92 -0.5,1.51 -4.7,7.73 -7.05,13.86 -7.05,18.39 0,3.19 1.51,4.79 4.53,4.79 2.35,0 4.87,-1.22 7.56,-3.65 1.85,-1.6 3.82,-3.86 5.92,-6.8 1.76,-2.44 2.77,-3.65 3.02,-3.65 0.25,0 0.38,0.25 0.38,0.76 0,0.59 -0.25,1.3 -0.76,2.14 -5.71,9.49 -11.63,14.23 -17.76,14.23 -4.79,0 -7.18,-3.02 -7.18,-9.07 0,-2.69 0.27,-5.14 0.82,-7.37 0.55,-2.23 1.41,-4.39 2.58,-6.49 -1.68,1.6 -3.21,3.19 -4.6,4.79 -1.39,1.6 -2.96,3.48 -4.72,5.67 -0.76,1.01 -1.51,2.06 -2.27,3.15 -0.76,1.09 -1.51,2.06 -2.27,2.9 -0.76,0.84 -1.51,1.47 -2.27,1.89 -0.76,0.42 -1.55,0.38 -2.39,-0.13 -0.92,-0.59 -1.2,-1.85 -0.82,-3.78 0.38,-1.93 0.97,-3.99 1.76,-6.17 0.8,-2.18 1.57,-4.16 2.33,-5.92 0.76,-1.76 1.01,-2.77 0.76,-3.02 0,-0.42 -0.29,-0.63 -0.88,-0.63 -0.59,0 -0.88,0.21 -0.88,0.63z"/>
   <path id="_3_80" class="fil0" d="M159.97 147.7c0,0.17 -0.08,0.34 -0.25,0.5 -1.18,2.02 -2.96,3.74 -5.35,5.16 -2.39,1.43 -4.72,2.14 -6.99,2.14 -1.68,0 -3.23,-0.42 -4.66,-1.26 -3.86,6.13 -7.85,9.2 -11.97,9.2 -2.94,0 -4.41,-1.72 -4.41,-5.16 0,-4.79 2.1,-10.41 6.3,-16.88 -0.17,-0.92 -0.25,-1.85 -0.25,-2.77 0,-3.02 1.01,-5.96 3.02,-8.82 2.02,-2.85 4.49,-4.28 7.43,-4.28 1.93,0 3.48,1.13 4.66,3.4 0.92,1.93 1.39,3.95 1.39,6.05 0,4.53 -1.76,10.29 -5.29,17.26 1.26,0.76 2.69,1.13 4.28,1.13 2.77,0 5.37,-1.09 7.81,-3.28 2.44,-2.18 3.57,-3.27 3.4,-3.27 0.59,0 0.88,0.29 0.88,0.88zm-14.86 -9.57c0,-1.85 -0.29,-3.74 -0.88,-5.67 -0.84,-2.69 -1.93,-4.03 -3.27,-4.03 -1.93,0 -3.44,1.18 -4.53,3.53 -0.84,1.85 -1.22,3.86 -1.13,6.05 1.34,-1.6 2.69,-2.39 4.03,-2.39 1.26,0 2.18,0.42 2.77,1.26 0,0.08 0,0.29 0,0.63 0.08,0.25 0.13,0.46 0.13,0.63 0,0.25 -0.42,0.38 -1.26,0.38 -1.51,0 -3.11,1.6 -4.79,4.79 1.09,3.19 3.02,5.79 5.79,7.81 2.1,-5.29 3.15,-9.62 3.15,-12.97zm-4.16 14.74c-2.77,-1.85 -4.87,-3.99 -6.3,-6.42 -2.52,5.29 -3.78,9.11 -3.78,11.46 0,1.68 0.63,2.52 1.89,2.52 1.18,0 2.73,-1.01 4.66,-3.02 1.68,-1.6 2.86,-3.11 3.53,-4.53z"/>
   <path id="_4_81" class="fil0" d="M176.98 143.41c-1.26,1.01 -2.31,2.14 -3.15,3.4 -0.84,1.26 -1.49,2.52 -1.95,3.78 -0.46,1.26 -0.78,2.44 -0.94,3.53 -0.17,1.09 -0.25,2.02 -0.25,2.77 0,2.86 1.39,4.2 4.16,4.03 1.18,-0.08 2.14,-0.29 2.9,-0.63 0.76,-0.34 1.85,-1.22 3.27,-2.65l10.08 -13.48c0.92,0.42 1.26,0.8 1.01,1.13 -0.25,0.34 -0.71,0.84 -1.39,1.51 -3.19,5.21 -6.13,9.26 -8.82,12.16 -2.69,2.9 -5.63,4.43 -8.82,4.6 -2.02,-0.08 -3.93,-0.55 -5.73,-1.39 -1.81,-0.84 -2.92,-2.31 -3.34,-4.41 -0.34,-1.26 -0.21,-2.54 0.38,-3.84 0.59,-1.3 1.45,-2.65 2.58,-4.03 1.13,-1.39 2.5,-2.88 4.09,-4.47 1.6,-1.6 3.23,-3.36 4.91,-5.29 1.34,-1.09 1.99,-2.2 1.95,-3.34 -0.04,-1.13 -0.52,-1.99 -1.45,-2.58 -0.92,-0.59 -2.12,-0.76 -3.59,-0.5 -1.47,0.25 -2.92,1.18 -4.35,2.77 -0.76,0.84 -1.41,1.6 -1.95,2.27 -0.55,0.67 -1.03,1.34 -1.45,2.02 -0.42,0.67 -0.84,1.36 -1.26,2.08 -0.42,0.71 -0.92,1.53 -1.51,2.46 -3.02,4.62 -5,6.93 -5.92,6.93 -0.34,0 -0.55,-0.17 -0.63,-0.5 0.08,-0.08 0.17,-0.23 0.25,-0.44 0.08,-0.21 0.21,-0.52 0.38,-0.94 1.01,-1.26 2.02,-2.71 3.02,-4.35 1.01,-1.64 2.1,-3.32 3.28,-5.04 1.18,-1.72 2.5,-3.4 3.97,-5.04 1.47,-1.64 3.17,-3.09 5.1,-4.35 3.11,-1.09 5.65,-1.6 7.62,-1.51 1.97,0.08 3.23,0.67 3.78,1.76 0.55,1.09 0.31,2.62 -0.69,4.6 -1.01,1.97 -2.85,4.3 -5.54,6.99z"/>
   <path id="_5_82" class="fil0" d="M228.62 147.19c0,0.42 -0.25,1.01 -0.76,1.76 -3.69,5.96 -7.18,9.78 -10.45,11.46 -1.51,0.76 -3.02,1.13 -4.53,1.13 -5.12,0 -7.68,-3.61 -7.68,-10.83 0,-1.18 0.08,-2.44 0.25,-3.78 -5.63,9.99 -10.62,14.99 -14.99,14.99 -2.6,0 -3.9,-1.43 -3.9,-4.28 0,-4.37 2.1,-9.64 6.3,-15.81 4.2,-6.17 8.27,-9.93 12.22,-11.27 1.43,-0.59 2.81,-0.88 4.16,-0.88 3.02,0 5.21,1.05 6.55,3.15 0.25,0.42 0.38,0.71 0.38,0.88 0,0.08 -0.29,0.21 -0.88,0.38 -0.59,0.17 -1.01,0.46 -1.26,0.88 -2.02,3.27 -3.02,8.19 -3.02,14.74 0,6.05 1.3,9.07 3.9,9.07 1.85,0 4.47,-2.04 7.87,-6.11 3.4,-4.07 5.23,-6.11 5.48,-6.11 0.25,0 0.38,0.21 0.38,0.63zm-18.52 -13.23c-0.34,-0.08 -0.71,-0.13 -1.13,-0.13 -3.36,0 -6.84,2.14 -10.46,6.42 -5.12,6.21 -7.68,11.29 -7.68,15.24 0,1.76 0.59,2.65 1.76,2.65 1.85,0 4.24,-1.93 7.18,-5.79 4.11,-5.21 7.56,-11.34 10.33,-18.39z"/>
   <path id="_6_83" class="fil0" d="M276.99 147.45c0,0.34 -0.08,0.59 -0.25,0.76 -2.1,2.94 -4.45,5.67 -7.05,8.19 -3.61,3.36 -6.63,5.04 -9.07,5.04 -3.95,0 -5.92,-4.37 -5.92,-13.1 0,-1.34 0.04,-2.85 0.13,-4.53 -3.02,2.69 -6.42,7.52 -10.2,14.49 -1.26,2.35 -2.65,3.53 -4.16,3.53 -0.5,0 -0.88,-0.17 -1.13,-0.5 -0.25,-0.92 -0.38,-2.1 -0.38,-3.53 0,-2.44 0.55,-6.89 1.64,-13.35 0.59,-3.27 0.88,-5.37 0.88,-6.3 0,-0.67 -0.13,-1.01 -0.38,-1.01 -1.43,1.26 -3.74,3.99 -6.93,8.19 -3.44,4.53 -7.14,9.87 -11.08,16 -0.5,0.76 -0.92,1.13 -1.26,1.13 -0.67,0 -1.01,-0.76 -1.01,-2.27 0,-0.42 0.04,-0.76 0.13,-1.01 1.93,-4.53 3.9,-10.92 5.92,-19.15 0.17,-1.18 0.5,-2.85 1.01,-5.04 0.17,-0.59 0.73,-1.18 1.7,-1.76 0.97,-0.59 1.78,-0.88 2.46,-0.88 0.59,0 0.88,0.25 0.88,0.76 0,0.84 -1.97,7.22 -5.92,19.15 3.02,-4.03 6.13,-8.19 9.32,-12.47 1.01,-1.34 2.52,-3.36 4.53,-6.05 1.26,-1.51 2.56,-2.27 3.9,-2.27 1.34,0 2.02,0.76 2.02,2.27 0,1.09 -0.29,3.25 -0.88,6.49 -0.59,3.23 -1.26,7.96 -2.02,14.17 2.35,-3.36 6,-8.27 10.96,-14.74 1.34,-1.6 2.69,-2.39 4.03,-2.39 1.26,0 1.89,0.8 1.89,2.39 0,1.34 -0.21,3.34 -0.63,5.98 -0.42,2.65 -0.63,4.64 -0.63,5.98 0,4.37 1.13,6.55 3.4,6.55 3.19,0 7.26,-3.53 12.22,-10.58 0.5,-0.84 0.92,-1.26 1.26,-1.26 0.42,0 0.63,0.38 0.63,1.13zm-12.72 -23.43c-10.58,-2.52 -18.35,-2.39 -23.3,0.38 -0.92,0.5 -1.68,1.3 -2.27,2.39 -0.25,0.59 -0.38,1.39 -0.38,2.39 0,1.01 -0.13,1.76 -0.38,2.27l-0.5 0.38c-0.84,0.59 -1.2,-0.02 -1.07,-1.83 0.13,-1.81 0.52,-3.34 1.2,-4.6 0.84,-1.93 2.27,-3.4 4.28,-4.41 3.69,-2.18 8.57,-3.02 14.61,-2.52 1.51,0 6.59,0.71 15.24,2.14 5.29,0.92 8.78,0.92 10.45,0 1.01,-0.59 1.72,-1.34 2.14,-2.27 0.5,-1.09 0.61,-2.1 0.31,-3.02 -0.29,-0.92 -0.27,-1.72 0.06,-2.39 0.17,-0.08 0.25,-0.13 0.25,-0.13 0.67,-0.42 0.99,0.42 0.94,2.52 -0.04,2.1 -0.31,3.65 -0.82,4.66 -1.26,2.44 -2.6,4.11 -4.03,5.04 -2.1,1.18 -5.42,1.39 -9.95,0.63 -0.5,-0.25 -1.51,-0.46 -3.02,-0.63 -0.67,0 -1.93,-0.34 -3.78,-1.01z"/>
   <path id="_7_84" class="fil0" d="M282.66 140.9c-1.43,2.85 -2.73,5.79 -3.9,8.82 -1.18,3.02 -1.76,5.33 -1.76,6.93 0,2.94 1.39,4.41 4.16,4.41 1.76,0 3.76,-0.73 5.98,-2.2 2.23,-1.47 4.18,-3.17 5.86,-5.1 -2.18,0.17 -4.01,-0.21 -5.48,-1.13 -1.47,-0.92 -2.25,-2.73 -2.33,-5.42 -0.17,-1.51 0.13,-2.96 0.88,-4.35 0.76,-1.39 1.74,-2.56 2.96,-3.53 1.22,-0.97 2.56,-1.66 4.03,-2.08 1.47,-0.42 2.81,-0.44 4.03,-0.06 1.22,0.38 2.2,1.24 2.96,2.58 0.76,1.34 1.05,3.27 0.88,5.79 -0.08,1.18 -0.34,2.35 -0.76,3.53 1.93,-0.92 3.78,-2.04 5.54,-3.34 1.76,-1.3 3.27,-2.67 4.53,-4.09l1.64 0.38c-0.34,0.84 -0.94,1.74 -1.83,2.71 -0.88,0.97 -1.93,1.91 -3.15,2.83 -1.22,0.92 -2.54,1.81 -3.97,2.65 -1.43,0.84 -2.9,1.55 -4.41,2.14 -1.01,1.51 -2.23,2.88 -3.65,4.09 -1.43,1.22 -2.98,2.29 -4.66,3.21 -1.68,0.92 -3.42,1.68 -5.23,2.27 -1.81,0.59 -3.55,0.97 -5.23,1.13 -4.87,0.5 -7.31,-1.93 -7.31,-7.31 0,-2.27 0.42,-4.79 1.26,-7.56 0.84,-2.77 1.91,-5.56 3.21,-8.38 1.3,-2.81 2.71,-5.5 4.22,-8.06 1.51,-2.56 2.94,-4.72 4.28,-6.49 0.34,-0.42 0.8,-0.59 1.39,-0.5 0.59,0.08 1.18,0.31 1.76,0.69 0.59,0.38 1.07,0.84 1.45,1.39 0.38,0.55 0.57,1.03 0.57,1.45 0,0.5 -0.17,0.97 -0.5,1.39 -0.25,0.42 -0.73,1.15 -1.45,2.2 -0.71,1.05 -1.47,2.18 -2.27,3.4 -0.8,1.22 -1.55,2.37 -2.27,3.46 -0.71,1.09 -1.2,1.81 -1.45,2.14zm13.35 8.57c0.92,-1.85 1.32,-3.32 1.2,-4.41 -0.13,-1.09 -0.57,-1.91 -1.32,-2.46 -0.76,-0.55 -1.68,-0.78 -2.77,-0.69 -1.09,0.08 -2.1,0.4 -3.02,0.94 -0.92,0.55 -1.64,1.3 -2.14,2.27 -0.5,0.97 -0.5,2.12 0,3.46 0.42,1.34 1.28,2.18 2.58,2.52 1.3,0.34 2.83,0.29 4.6,-0.13 0.17,-0.25 0.31,-0.5 0.44,-0.76 0.13,-0.25 0.27,-0.5 0.44,-0.76z"/>
   <path id="_8" class="fil0" d="M353.2 133.59c0,0.34 -0.38,0.63 -1.13,0.88 -0.76,0.25 -1.26,0.63 -1.51,1.13 -0.42,1.85 -0.88,3.99 -1.39,6.42 -1.01,4.28 -2.48,10.71 -4.41,19.27l0.5 0c4.45,-0.17 6.68,0.8 6.68,2.9 0,0.5 -0.17,0.76 -0.5,0.76 -0.08,0 -0.44,-0.21 -1.07,-0.63 -0.63,-0.42 -1.83,-0.63 -3.59,-0.63 -0.84,0 -1.68,0.04 -2.52,0.13 -3.11,12.6 -7.1,22.38 -11.97,29.35 -9.07,13.27 -18.73,19.9 -28.97,19.9 -4.03,0 -7.41,-1.18 -10.14,-3.53 -2.73,-2.35 -4.09,-5.5 -4.09,-9.45 0,-8.99 6.38,-17.59 19.15,-25.82 10.83,-6.97 21.33,-11.25 31.49,-12.85 0.59,-3.19 1.55,-8.02 2.9,-14.49 -5.63,9.99 -10.62,14.99 -14.99,14.99 -2.6,0 -3.9,-1.43 -3.9,-4.28 0,-4.28 2.1,-9.53 6.3,-15.75 4.2,-6.21 8.27,-9.99 12.22,-11.34 1.51,-0.59 2.9,-0.88 4.16,-0.88 1.18,0 2.6,0.4 4.28,1.2 1.68,0.8 2.52,1.7 2.52,2.71zm-5.92 0.38c-0.34,-0.08 -0.71,-0.13 -1.13,-0.13 -3.36,0 -6.84,2.14 -10.45,6.42 -5.12,6.21 -7.68,11.29 -7.68,15.24 0,1.76 0.59,2.65 1.76,2.65 1.85,0 4.24,-1.93 7.18,-5.79 4.11,-5.21 7.56,-11.34 10.33,-18.39zm-7.68 29.73c-5.54,0.92 -12.13,3.32 -19.78,7.18 -7.64,3.86 -13.52,7.73 -17.63,11.59 -6.3,6.05 -9.45,12.05 -9.45,18.01 0,3.27 1.03,5.9 3.09,7.87 2.06,1.97 4.72,2.96 8,2.96 5.21,0 10.33,-2.18 15.37,-6.55 4.03,-3.44 7.6,-7.85 10.71,-13.23 4.45,-7.56 7.68,-16.84 9.7,-27.84z"/>
   <path id="_9" class="fil0" d="M403.46 146.31c0,0.59 -0.25,1.3 -0.76,2.14 -2.18,3.61 -5.79,7.22 -10.83,10.83 -5.37,4.03 -9.91,6.05 -13.6,6.05 -0.76,0 -1.89,-0.04 -3.4,-0.13 -1.43,0 -2.52,0 -3.27,0 -0.34,0 -1.6,-0.29 -3.78,-0.88 -2.6,6.72 -6.13,13.77 -10.58,21.16 -6.3,10.25 -11.42,15.37 -15.37,15.37 -2.1,0 -3.15,-1.55 -3.15,-4.66 0,-4.11 3.78,-11.76 11.34,-22.93 5.37,-7.39 10.79,-14.82 16.25,-22.29l0 -0.76c0,-3.02 -0.04,-5.67 -0.13,-7.94 -3.19,5.21 -5.21,7.81 -6.05,7.81 -0.5,0 -0.76,-0.29 -0.76,-0.88 0,-0.34 0.13,-0.67 0.38,-1.01 3.69,-5.21 5.54,-9.87 5.54,-13.98 0,-0.84 -0.23,-1.53 -0.69,-2.08 -0.46,-0.55 -0.69,-0.99 -0.69,-1.32 0,-0.34 1.3,-0.5 3.9,-0.5 2.85,0 4.28,2.85 4.28,8.57 0,0.84 -0.06,2.08 -0.19,3.72 -0.13,1.64 -0.19,2.83 -0.19,3.59 2.35,-4.28 4.95,-8.23 7.81,-11.84 4.37,-5.37 8.02,-8.06 10.96,-8.06 2.69,0 4.03,1.97 4.03,5.92 0,4.95 -1.74,10.71 -5.23,17.26 -3.48,6.55 -7.28,11.13 -11.4,13.73 7.31,-0.17 15.41,-5.84 24.31,-17 0.34,-0.42 0.59,-0.63 0.76,-0.63 0.34,0 0.5,0.25 0.5,0.76zm-14.49 -11.46c0,-2.6 -0.71,-3.9 -2.14,-3.9 -0.42,0 -0.84,0.08 -1.26,0.25 -3.02,1.34 -6.21,5.25 -9.57,11.71 -2.52,4.79 -4.53,9.7 -6.05,14.74 0.84,1.26 2.31,2.86 4.41,4.79 3.69,-1.6 7.1,-5.58 10.2,-11.97 2.94,-6.05 4.41,-11.25 4.41,-15.62zm-23.81 22.92c-0.08,-0.08 -0.17,-0.13 -0.25,-0.13 -0.34,0 -0.8,0.42 -1.39,1.26 -2.02,3.02 -5.04,7.47 -9.07,13.35 -1.76,2.52 -3.99,6.34 -6.68,11.46 -3.11,5.96 -4.66,9.83 -4.66,11.59 0,0.76 0.25,1.13 0.76,1.13 3.69,0 8.78,-6.05 15.24,-18.14 1.68,-3.19 3.48,-8.69 5.42,-16.5 -0.08,-0.42 -0.13,-0.84 -0.13,-1.26 0,-1.01 0.25,-1.93 0.76,-2.77z"/>
   <path id="_10" class="fil0" d="M428.52 164.2c0,0.5 -0.13,0.76 -0.38,0.76 -0.08,0 -0.46,-0.21 -1.13,-0.63 -0.67,-0.42 -1.89,-0.63 -3.65,-0.63 -0.84,0 -1.64,0.04 -2.39,0.13 -3.19,12.6 -7.18,22.38 -11.97,29.35 -9.07,13.27 -18.77,19.9 -29.1,19.9 -4.03,0 -7.41,-1.18 -10.14,-3.53 -2.73,-2.35 -4.09,-5.5 -4.09,-9.45 0,-8.99 6.42,-17.59 19.27,-25.82 10.75,-6.97 21.2,-11.25 31.36,-12.85 1.18,-5.21 2.52,-12.93 4.03,-23.18 -1.01,2.44 -2.81,5.65 -5.42,9.64 -2.6,3.99 -4.83,6.95 -6.68,8.88 -2.18,2.27 -4.24,3.4 -6.17,3.4 -2.69,0 -4.03,-2.35 -4.03,-7.05 0,-2.69 0.84,-5.92 2.52,-9.7 1.93,-4.37 4.07,-6.55 6.42,-6.55 1.18,0 1.76,0.34 1.76,1.01 0,0.08 -1.05,1.99 -3.15,5.73 -2.1,3.74 -3.15,6.61 -3.15,8.63 0,2.69 0.76,4.03 2.27,4.03 2.6,0 8.27,-8.44 17,-25.32 0.17,-1.26 1.22,-1.89 3.15,-1.89 1.51,0 2.27,0.34 2.27,1.01 0,1.09 -0.55,4.66 -1.64,10.71 -1.26,7.14 -2.65,13.98 -4.16,20.53l0.5 0c4.45,-0.17 6.68,0.8 6.68,2.9zm-12.34 -0.5c-5.54,0.92 -12.13,3.32 -19.78,7.18 -7.64,3.86 -13.48,7.73 -17.51,11.59 -6.38,6.05 -9.57,12.05 -9.57,18.01 0,3.27 1.03,5.9 3.09,7.87 2.06,1.97 4.77,2.96 8.12,2.96 5.12,0 10.2,-2.18 15.24,-6.55 4.03,-3.44 7.6,-7.85 10.71,-13.23 4.45,-7.56 7.68,-16.84 9.7,-27.84z"/>
   <path id="_11" class="fil0" d="M454.6 143.41c-1.26,1.01 -2.31,2.14 -3.15,3.4 -0.84,1.26 -1.49,2.52 -1.95,3.78 -0.46,1.26 -0.78,2.44 -0.94,3.53 -0.17,1.09 -0.25,2.02 -0.25,2.77 0,2.86 1.39,4.2 4.16,4.03 1.18,-0.08 2.14,-0.29 2.9,-0.63 0.76,-0.34 1.85,-1.22 3.27,-2.65l10.08 -13.48c0.92,0.42 1.26,0.8 1.01,1.13 -0.25,0.34 -0.71,0.84 -1.39,1.51 -3.19,5.21 -6.13,9.26 -8.82,12.16 -2.69,2.9 -5.63,4.43 -8.82,4.6 -2.02,-0.08 -3.93,-0.55 -5.73,-1.39 -1.81,-0.84 -2.92,-2.31 -3.34,-4.41 -0.34,-1.26 -0.21,-2.54 0.38,-3.84 0.59,-1.3 1.45,-2.65 2.58,-4.03 1.13,-1.39 2.5,-2.88 4.09,-4.47 1.6,-1.6 3.23,-3.36 4.91,-5.29 1.34,-1.09 1.99,-2.2 1.95,-3.34 -0.04,-1.13 -0.52,-1.99 -1.45,-2.58 -0.92,-0.59 -2.12,-0.76 -3.59,-0.5 -1.47,0.25 -2.92,1.18 -4.35,2.77 -0.76,0.84 -1.41,1.6 -1.95,2.27 -0.55,0.67 -1.03,1.34 -1.45,2.02 -0.42,0.67 -0.84,1.36 -1.26,2.08 -0.42,0.71 -0.92,1.53 -1.51,2.46 -3.02,4.62 -5,6.93 -5.92,6.93 -0.34,0 -0.55,-0.17 -0.63,-0.5 0.08,-0.08 0.17,-0.23 0.25,-0.44 0.08,-0.21 0.21,-0.52 0.38,-0.94 1.01,-1.26 2.02,-2.71 3.02,-4.35 1.01,-1.64 2.1,-3.32 3.28,-5.04 1.18,-1.72 2.5,-3.4 3.97,-5.04 1.47,-1.64 3.17,-3.09 5.1,-4.35 3.11,-1.09 5.65,-1.6 7.62,-1.51 1.97,0.08 3.23,0.67 3.78,1.76 0.55,1.09 0.31,2.62 -0.69,4.6 -1.01,1.97 -2.85,4.3 -5.54,6.99z"/>
   <path id="_12" class="fil0" d="M507.38 146.31c0,0.59 -0.25,1.3 -0.76,2.14 -2.35,3.86 -5.08,7.22 -8.19,10.08 -4.03,3.7 -7.81,5.54 -11.34,5.54 -4.7,0 -7.05,-2.94 -7.05,-8.82 0,-1.34 0.63,-3.99 1.89,-7.94 -2.94,4.28 -4.83,6.93 -5.67,7.94 -2.77,3.27 -5.25,4.91 -7.43,4.91 -2.77,0 -4.16,-2.35 -4.16,-7.05 0,-2.69 0.88,-5.92 2.65,-9.7 1.93,-4.37 4.03,-6.55 6.3,-6.55 1.26,0 1.89,0.34 1.89,1.01 0,0.08 -1.07,1.99 -3.21,5.73 -2.14,3.74 -3.21,6.61 -3.21,8.63 0,2.69 0.8,4.03 2.39,4.03 2.69,0 7.52,-6.13 14.49,-18.39 0.59,-1.18 1.47,-2.81 2.65,-4.91 0.59,-0.67 1.22,-1.01 1.89,-1.01 0.76,0 1.45,0.31 2.08,0.94 0.63,0.63 0.94,1.36 0.94,2.2 0,-0.08 -1.49,2.73 -4.47,8.44 -2.98,5.71 -4.47,10.12 -4.47,13.23 0,2.94 1.39,4.41 4.16,4.41 2.35,0 5.04,-1.34 8.06,-4.03 2.02,-1.76 4.28,-4.28 6.8,-7.56 2.1,-2.69 3.23,-4.03 3.4,-4.03 0.25,0 0.38,0.25 0.38,0.76z"/>
   <path id="_13" class="fil0" d="M529.04 139.13c-1.68,3.53 -3.48,7.03 -5.42,10.52 -1.93,3.49 -3.74,6.07 -5.42,7.75 -2.35,2.27 -4.58,3.74 -6.68,4.41 -2.1,0.67 -3.86,0.65 -5.29,-0.06 -1.43,-0.71 -2.46,-2.1 -3.09,-4.16 -0.63,-2.06 -0.65,-4.72 -0.06,-8 0.25,-1.6 0.71,-2.69 1.39,-3.27 0.67,-0.59 1.39,-0.88 2.14,-0.88 0.76,0 1.43,0.23 2.02,0.69 0.59,0.46 0.97,0.99 1.13,1.57 -1.34,3.44 -1.99,6.21 -1.95,8.31 0.04,2.1 0.63,3.36 1.76,3.78 1.13,0.42 2.71,-0.06 4.72,-1.45 2.02,-1.39 4.28,-3.84 6.8,-7.37 0.92,-1.26 1.99,-3.02 3.21,-5.29 1.22,-2.27 2.46,-5.54 3.72,-9.83 3.11,-1.6 5.33,-2.37 6.68,-2.33 1.34,0.04 2.08,0.59 2.2,1.64 0.13,1.05 -0.19,2.48 -0.94,4.28 -0.76,1.81 -1.6,3.69 -2.52,5.67 -0.92,1.97 -1.78,3.86 -2.58,5.67 -0.8,1.81 -1.2,3.25 -1.2,4.35 0.25,-0.34 0.71,-0.94 1.39,-1.83 0.67,-0.88 1.51,-1.93 2.52,-3.15 1.01,-1.22 2.12,-2.54 3.34,-3.97 1.22,-1.43 2.5,-2.85 3.84,-4.28 1.68,-1.93 4.28,-4.79 7.81,-8.57 0.34,-0.34 0.71,-0.63 1.13,-0.88 0.42,-0.25 0.8,-0.38 1.13,-0.38 1.93,0 2.9,0.97 2.9,2.9 0,0.42 -0.17,0.92 -0.5,1.51 -4.7,7.73 -7.05,13.86 -7.05,18.39 0,3.19 1.51,4.79 4.53,4.79 2.35,0 4.87,-1.22 7.56,-3.65 1.85,-1.6 3.82,-3.86 5.92,-6.8 1.76,-2.44 2.77,-3.65 3.02,-3.65 0.25,0 0.38,0.25 0.38,0.76 0,0.59 -0.25,1.3 -0.76,2.14 -5.71,9.49 -11.63,14.23 -17.76,14.23 -4.79,0 -7.18,-3.02 -7.18,-9.07 0,-2.69 0.27,-5.14 0.82,-7.37 0.55,-2.23 1.41,-4.39 2.58,-6.49 -1.68,1.6 -3.21,3.19 -4.6,4.79 -1.39,1.6 -2.96,3.48 -4.72,5.67 -0.76,1.01 -1.51,2.06 -2.27,3.15 -0.76,1.09 -1.51,2.06 -2.27,2.9 -0.76,0.84 -1.51,1.47 -2.27,1.89 -0.76,0.42 -1.55,0.38 -2.39,-0.13 -0.92,-0.59 -1.2,-1.85 -0.82,-3.78 0.38,-1.93 0.97,-3.99 1.76,-6.17 0.8,-2.18 1.57,-4.16 2.33,-5.92 0.76,-1.76 1.01,-2.77 0.76,-3.02 0,-0.42 -0.29,-0.63 -0.88,-0.63 -0.59,0 -0.88,0.21 -0.88,0.63z"/>
   <path id="_14" class="fil0" d="M605.12 146.06c0,0.59 -1.09,0.92 -3.28,1.01 -1.51,0.08 -3.78,0.21 -6.8,0.38 -2.52,0.34 -6.47,0.71 -11.84,1.13l-0.63 0c-1.68,0.08 -2.52,-0.21 -2.52,-0.88 0,-1.18 1.47,-2.23 4.41,-3.15 1.34,-0.5 3.23,-0.76 5.67,-0.76 2.94,0 6.84,0.34 11.71,1.01 2.18,0.34 3.28,0.76 3.28,1.26z"/>
   <path class="fil0" d="M79.08 249.42c-1.68,3.53 -3.48,7.03 -5.42,10.52 -1.93,3.49 -3.74,6.07 -5.42,7.75 -2.35,2.27 -4.58,3.74 -6.68,4.41 -2.1,0.67 -3.86,0.65 -5.29,-0.06 -1.43,-0.71 -2.46,-2.1 -3.09,-4.16 -0.63,-2.06 -0.65,-4.72 -0.06,-8 0.25,-1.6 0.71,-2.69 1.39,-3.27 0.67,-0.59 1.39,-0.88 2.14,-0.88 0.76,0 1.43,0.23 2.02,0.69 0.59,0.46 0.97,0.99 1.13,1.57 -1.34,3.44 -1.99,6.21 -1.95,8.31 0.04,2.1 0.63,3.36 1.76,3.78 1.13,0.42 2.71,-0.06 4.72,-1.45 2.02,-1.39 4.28,-3.84 6.8,-7.37 0.92,-1.26 1.99,-3.02 3.21,-5.29 1.22,-2.27 2.46,-5.54 3.72,-9.83 3.11,-1.6 5.33,-2.37 6.68,-2.33 1.34,0.04 2.08,0.59 2.2,1.64 0.13,1.05 -0.19,2.48 -0.94,4.28 -0.76,1.81 -1.6,3.69 -2.52,5.67 -0.92,1.97 -1.78,3.86 -2.58,5.67 -0.8,1.81 -1.2,3.25 -1.2,4.35 0.25,-0.34 0.71,-0.94 1.39,-1.83 0.67,-0.88 1.51,-1.93 2.52,-3.15 1.01,-1.22 2.12,-2.54 3.34,-3.97 1.22,-1.43 2.5,-2.85 3.84,-4.28 1.68,-1.93 4.28,-4.79 7.81,-8.57 0.34,-0.34 0.71,-0.63 1.13,-0.88 0.42,-0.25 0.8,-0.38 1.13,-0.38 1.93,0 2.9,0.97 2.9,2.9 0,0.42 -0.17,0.92 -0.5,1.51 -4.7,7.73 -7.05,13.86 -7.05,18.39 0,3.19 1.51,4.79 4.53,4.79 2.35,0 4.87,-1.22 7.56,-3.65 1.85,-1.6 3.82,-3.86 5.92,-6.8 1.76,-2.44 2.77,-3.65 3.02,-3.65 0.25,0 0.38,0.25 0.38,0.76 0,0.59 -0.25,1.3 -0.76,2.14 -5.71,9.49 -11.63,14.23 -17.76,14.23 -4.79,0 -7.18,-3.02 -7.18,-9.07 0,-2.69 0.27,-5.14 0.82,-7.37 0.55,-2.23 1.41,-4.39 2.58,-6.49 -1.68,1.6 -3.21,3.19 -4.6,4.79 -1.39,1.6 -2.96,3.48 -4.72,5.67 -0.76,1.01 -1.51,2.06 -2.27,3.15 -0.76,1.09 -1.51,2.06 -2.27,2.9 -0.76,0.84 -1.51,1.47 -2.27,1.89 -0.76,0.42 -1.55,0.38 -2.39,-0.13 -0.92,-0.59 -1.2,-1.85 -0.82,-3.78 0.38,-1.93 0.97,-3.99 1.76,-6.17 0.8,-2.18 1.57,-4.16 2.33,-5.92 0.76,-1.76 1.01,-2.77 0.76,-3.02 0,-0.42 -0.29,-0.63 -0.88,-0.63 -0.59,0 -0.88,0.21 -0.88,0.63z"/>
   <path id="_1_85" class="fil0" d="M145.84 257.99c0,0.17 -0.08,0.34 -0.25,0.5 -1.18,2.02 -2.96,3.74 -5.35,5.16 -2.39,1.43 -4.72,2.14 -6.99,2.14 -1.68,0 -3.23,-0.42 -4.66,-1.26 -3.86,6.13 -7.85,9.2 -11.97,9.2 -2.94,0 -4.41,-1.72 -4.41,-5.16 0,-4.79 2.1,-10.41 6.3,-16.88 -0.17,-0.92 -0.25,-1.85 -0.25,-2.77 0,-3.02 1.01,-5.96 3.02,-8.82 2.02,-2.85 4.49,-4.28 7.43,-4.28 1.93,0 3.48,1.13 4.66,3.4 0.92,1.93 1.39,3.95 1.39,6.05 0,4.53 -1.76,10.29 -5.29,17.26 1.26,0.76 2.69,1.13 4.28,1.13 2.77,0 5.37,-1.09 7.81,-3.28 2.44,-2.18 3.57,-3.27 3.4,-3.27 0.59,0 0.88,0.29 0.88,0.88zm-14.86 -9.57c0,-1.85 -0.29,-3.74 -0.88,-5.67 -0.84,-2.69 -1.93,-4.03 -3.27,-4.03 -1.93,0 -3.44,1.18 -4.53,3.53 -0.84,1.85 -1.22,3.86 -1.13,6.05 1.34,-1.6 2.69,-2.39 4.03,-2.39 1.26,0 2.18,0.42 2.77,1.26 0,0.08 0,0.29 0,0.63 0.08,0.25 0.13,0.46 0.13,0.63 0,0.25 -0.42,0.38 -1.26,0.38 -1.51,0 -3.11,1.6 -4.79,4.79 1.09,3.19 3.02,5.79 5.79,7.81 2.1,-5.29 3.15,-9.62 3.15,-12.97zm-4.16 14.74c-2.77,-1.85 -4.87,-3.99 -6.3,-6.42 -2.52,5.29 -3.78,9.11 -3.78,11.46 0,1.68 0.63,2.52 1.89,2.52 1.18,0 2.73,-1.01 4.66,-3.02 1.68,-1.6 2.86,-3.11 3.53,-4.53z"/>
   <path id="_2_86" class="fil0" d="M175.44 251.69c1.85,0.17 2.77,1.13 2.77,2.9 0,0.17 -0.17,0.67 -0.5,1.51 -0.92,1.93 -1.78,3.61 -2.58,5.04 -0.8,1.43 -1.2,2.94 -1.2,4.53 0,3.19 1.51,4.79 4.53,4.79 2.35,0 4.87,-1.22 7.56,-3.65 1.85,-1.6 3.82,-3.86 5.92,-6.8 1.76,-2.44 2.77,-3.65 3.02,-3.65 0.25,0 0.38,0.25 0.38,0.76 0,0.59 -0.25,1.3 -0.76,2.14 -5.71,9.49 -11.63,14.23 -17.76,14.23 -4.79,0 -7.18,-3.02 -7.18,-9.07 0,-0.59 0,-1.15 0,-1.7 0,-0.55 0.04,-1.07 0.13,-1.57 0.34,-1.18 0.8,-2.44 1.39,-3.78 -0.5,0.17 -1.01,0.29 -1.51,0.38 -0.5,0.08 -0.97,0.13 -1.39,0.13 -1.43,1.93 -2.85,3.76 -4.28,5.48 -1.43,1.72 -2.35,2.79 -2.77,3.21 -2.35,2.27 -4.66,3.8 -6.93,4.6 -2.27,0.8 -4.24,0.9 -5.92,0.31 -1.68,-0.59 -2.92,-1.85 -3.72,-3.78 -0.8,-1.93 -0.9,-4.53 -0.31,-7.81 0.25,-1.6 0.71,-2.69 1.39,-3.27 0.67,-0.59 1.39,-0.88 2.14,-0.88 0.76,0 1.43,0.23 2.02,0.69 0.59,0.46 0.97,0.99 1.13,1.57 -1.34,3.44 -1.99,6.21 -1.95,8.31 0.04,2.1 0.63,3.36 1.76,3.78 1.13,0.42 2.71,-0.06 4.72,-1.45 2.02,-1.39 4.28,-3.84 6.8,-7.37 0.5,-0.67 1.26,-1.76 2.27,-3.28 -2.52,-0.08 -4.77,-0.67 -6.74,-1.76 -1.97,-1.09 -3.3,-2.5 -3.97,-4.22 -0.67,-1.72 -0.55,-3.57 0.38,-5.54 0.92,-1.97 2.98,-3.88 6.17,-5.73 2.27,-1.26 4.2,-1.91 5.79,-1.95 1.6,-0.04 2.88,0.34 3.84,1.13 0.97,0.8 1.64,1.89 2.02,3.27 0.38,1.39 0.52,2.88 0.44,4.47 -0.08,1.6 -0.38,3.13 -0.88,4.6 -0.5,1.47 -1.22,2.71 -2.14,3.72 0.42,0 0.84,0 1.26,0 0.42,0 0.84,-0.08 1.26,-0.25 1.18,-2.1 2.02,-3.3 2.52,-3.59 0.5,-0.29 0.8,-0.44 0.88,-0.44zm-6.3 -7.43c-3.53,-1.18 -6.07,-1.36 -7.62,-0.57 -1.55,0.8 -2.37,1.97 -2.46,3.53 -0.08,1.55 0.52,3.19 1.83,4.91 1.3,1.72 3.09,2.88 5.35,3.46 0.76,-1.18 1.45,-2.39 2.08,-3.65 0.63,-1.26 1.09,-2.41 1.39,-3.46 0.29,-1.05 0.42,-1.97 0.38,-2.77 -0.04,-0.8 -0.36,-1.28 -0.94,-1.45z"/>
   <path id="_3_87" class="fil0" d="M238.17 243.88c0,0.34 -0.38,0.63 -1.13,0.88 -0.76,0.25 -1.26,0.63 -1.51,1.13 -0.42,1.85 -0.88,3.99 -1.39,6.42 -1.01,4.28 -2.48,10.71 -4.41,19.27l0.5 0c4.45,-0.17 6.68,0.8 6.68,2.9 0,0.5 -0.17,0.76 -0.5,0.76 -0.08,0 -0.44,-0.21 -1.07,-0.63 -0.63,-0.42 -1.83,-0.63 -3.59,-0.63 -0.84,0 -1.68,0.04 -2.52,0.13 -3.11,12.6 -7.1,22.38 -11.97,29.35 -9.07,13.27 -18.73,19.9 -28.97,19.9 -4.03,0 -7.41,-1.18 -10.14,-3.53 -2.73,-2.35 -4.09,-5.5 -4.09,-9.45 0,-8.99 6.38,-17.59 19.15,-25.82 10.83,-6.97 21.33,-11.25 31.49,-12.85 0.59,-3.19 1.55,-8.02 2.9,-14.49 -5.63,9.99 -10.62,14.99 -14.99,14.99 -2.6,0 -3.9,-1.43 -3.9,-4.28 0,-4.28 2.1,-9.53 6.3,-15.75 4.2,-6.21 8.27,-9.99 12.22,-11.34 1.51,-0.59 2.9,-0.88 4.16,-0.88 1.18,0 2.6,0.4 4.28,1.2 1.68,0.8 2.52,1.7 2.52,2.71zm-5.92 0.38c-0.34,-0.08 -0.71,-0.13 -1.13,-0.13 -3.36,0 -6.84,2.14 -10.45,6.42 -5.12,6.21 -7.68,11.29 -7.68,15.24 0,1.76 0.59,2.65 1.76,2.65 1.85,0 4.24,-1.93 7.18,-5.79 4.11,-5.21 7.56,-11.34 10.33,-18.39zm-7.68 29.73c-5.54,0.92 -12.13,3.32 -19.78,7.18 -7.64,3.86 -13.52,7.73 -17.63,11.59 -6.3,6.05 -9.45,12.05 -9.45,18.01 0,3.27 1.03,5.9 3.09,7.87 2.06,1.97 4.72,2.96 8,2.96 5.21,0 10.33,-2.18 15.37,-6.55 4.03,-3.44 7.6,-7.85 10.71,-13.23 4.45,-7.56 7.68,-16.84 9.7,-27.84z"/>
   <path id="_4_88" class="fil0" d="M257.95 236.83c-1.43,2.27 -2.88,5.02 -4.35,8.25 -1.47,3.23 -2.62,6.32 -3.46,9.26 2.1,-3.78 4.66,-7.39 7.68,-10.83 4.03,-4.62 7.6,-6.93 10.71,-6.93 2.52,0 3.78,1.81 3.78,5.42 0,5.21 -1.64,11.13 -4.91,17.76 -2.18,4.53 -5.04,8.48 -8.57,11.84 -4.2,3.95 -8.48,5.92 -12.85,5.92 -3.36,0 -5.04,-0.63 -5.04,-1.89 0,-0.5 0.25,-0.76 0.76,-0.76 0.25,0 0.86,0.15 1.83,0.44 0.97,0.29 1.78,0.44 2.46,0.44 3.78,0 7.52,-2.14 11.21,-6.42 2.77,-3.27 5.04,-7.1 6.8,-11.46 1.6,-3.78 2.39,-7.94 2.39,-12.47 0,-2.77 -0.63,-4.16 -1.89,-4.16 -2.77,0 -6.47,3.82 -11.08,11.46 -4.37,7.14 -6.55,12.47 -6.55,16 0,0.92 0.31,1.64 0.94,2.14 0.63,0.5 0.94,0.92 0.94,1.26 0,0.34 -0.21,0.5 -0.63,0.5 -3.11,0 -4.66,-2.27 -4.66,-6.8 0,-3.19 0.78,-7.33 2.33,-12.41 1.55,-5.08 3.93,-10.9 7.12,-17.45 2.69,-5.29 7.35,-13.23 13.98,-23.81 10.25,-16.38 18.6,-24.56 25.07,-24.56 3.78,0 5.67,1.72 5.67,5.16 0,6.05 -5.29,14.49 -15.87,25.32 -6.8,6.89 -14.74,13.14 -23.81,18.77zm37.29 -41.82c0,-1.76 -0.71,-2.69 -2.14,-2.77 -2.18,0 -5.58,1.85 -10.2,5.54 -8.15,6.47 -15.16,16.38 -21.04,29.73 -0.92,2.27 -1.6,4.03 -2.02,5.29 6.05,-3.53 13.02,-9.2 20.91,-17 9.49,-9.15 14.32,-16.08 14.49,-20.78z"/>
   <path id="_5_89" class="fil0" d="M314.89 256.6c0,0.59 -0.25,1.3 -0.76,2.14 -2.35,3.86 -5.08,7.22 -8.19,10.08 -4.03,3.7 -7.81,5.54 -11.34,5.54 -4.7,0 -7.05,-2.94 -7.05,-8.82 0,-1.34 0.63,-3.99 1.89,-7.94 -2.94,4.28 -4.83,6.93 -5.67,7.94 -2.77,3.27 -5.25,4.91 -7.43,4.91 -2.77,0 -4.16,-2.35 -4.16,-7.05 0,-2.69 0.88,-5.92 2.65,-9.7 1.93,-4.37 4.03,-6.55 6.3,-6.55 1.26,0 1.89,0.34 1.89,1.01 0,0.08 -1.07,1.99 -3.21,5.73 -2.14,3.74 -3.21,6.61 -3.21,8.63 0,2.69 0.8,4.03 2.39,4.03 2.69,0 7.52,-6.13 14.49,-18.39 0.59,-1.18 1.47,-2.81 2.65,-4.91 0.59,-0.67 1.22,-1.01 1.89,-1.01 0.76,0 1.45,0.31 2.08,0.94 0.63,0.63 0.94,1.36 0.94,2.2 0,-0.08 -1.49,2.73 -4.47,8.44 -2.98,5.71 -4.47,10.12 -4.47,13.23 0,2.94 1.39,4.41 4.16,4.41 2.35,0 5.04,-1.34 8.06,-4.03 2.02,-1.76 4.28,-4.28 6.8,-7.56 2.1,-2.69 3.23,-4.03 3.4,-4.03 0.25,0 0.38,0.25 0.38,0.76z"/>
   <path id="_6_90" class="fil0" d="M311.48 256.48c-0.92,1.01 -1.64,1.51 -2.14,1.51 -0.34,0 -0.5,-0.13 -0.5,-0.38 0,-0.25 0.25,-0.71 0.76,-1.39 0.92,-1.76 1.91,-3.48 2.96,-5.16 1.05,-1.68 2.23,-3.15 3.53,-4.41 1.3,-1.26 2.73,-2.29 4.28,-3.09 1.55,-0.8 3.25,-1.2 5.1,-1.2 6.21,0 9.32,3.32 9.32,9.95 0,1.6 -0.34,3.23 -1.01,4.91l0.5 -0.5c5.21,-3.61 8.57,-7.35 10.08,-11.21 0.25,-0.84 0.25,-1.64 0,-2.39 -0.08,-0.34 -0.17,-0.63 -0.25,-0.88 -0.08,-0.25 -0.04,-0.44 0.13,-0.57 0.17,-0.13 0.5,-0.13 1.01,0 0.5,0.13 1.3,0.44 2.39,0.94 2.27,0.92 2.56,3.99 0.88,9.19 -0.08,0.42 -0.25,0.92 -0.5,1.51 -0.25,0.59 -0.5,1.22 -0.76,1.89 -0.25,0.67 -0.5,1.3 -0.76,1.89 -0.25,0.59 -0.42,1.05 -0.5,1.39 -0.5,1.34 -0.9,2.33 -1.2,2.96 -0.29,0.63 -0.61,1.49 -0.94,2.58 3.19,-2.52 5.42,-4.11 6.68,-4.79 0.92,-3.11 3.02,-6.47 6.3,-10.08 4.7,-4.95 9.03,-7.43 12.97,-7.43 2.69,0 4.03,1.05 4.03,3.15 0,0.84 -0.63,2.31 -1.89,4.41 -1.18,2.02 -2.14,3.02 -2.9,3.02 -0.34,0 -0.5,-0.21 -0.5,-0.63 0,-0.34 0.15,-0.88 0.44,-1.64 0.29,-0.76 0.44,-1.34 0.44,-1.76 0,-1.76 -1.09,-2.65 -3.28,-2.65 -3.02,0 -5.75,1.97 -8.19,5.92 -2.27,3.69 -3.4,7.1 -3.4,10.2 0,5.21 2.27,7.81 6.8,7.81 5.71,0 11.67,-3.9 17.89,-11.71 0.84,-1.01 1.55,-1.51 2.14,-1.51 0.34,0 0.5,0.13 0.5,0.38 0,0.34 -0.25,0.8 -0.76,1.39 -2.86,4.2 -6.93,8.1 -12.22,11.71 -3.11,1.93 -6.3,2.9 -9.57,2.9 -6.21,0 -9.32,-3.32 -9.32,-9.95 0,-0.34 0,-0.67 0,-1.01 -4.45,3.28 -7.35,6.68 -8.69,10.2 -0.17,0.42 -0.04,0.8 0.38,1.13 0.42,0.34 0.71,0.71 0.88,1.13 0.08,0.34 0.17,0.63 0.25,0.88 0.08,0.25 0.02,0.44 -0.19,0.57 -0.21,0.13 -0.57,0.13 -1.07,0 -0.5,-0.13 -1.26,-0.44 -2.27,-0.94 -2.27,-0.84 -2.56,-3.9 -0.88,-9.2 0.17,-0.76 0.48,-1.66 0.94,-2.71 0.46,-1.05 0.78,-1.91 0.94,-2.58 0.5,-1.34 0.9,-2.56 1.2,-3.65 0.29,-1.09 0.57,-2.18 0.82,-3.28 -4.7,3.78 -7.47,5.54 -8.31,5.29 -0.34,0 -0.55,-0.17 -0.63,-0.5 -1.09,2.52 -2.9,5.12 -5.42,7.81 -4.7,4.95 -9.03,7.43 -12.97,7.43 -2.69,0 -4.03,-1.05 -4.03,-3.15 0,-0.76 0.63,-2.23 1.89,-4.41 1.09,-2.02 2.06,-3.02 2.9,-3.02 0.34,0 0.5,0.21 0.5,0.63 0,0.34 -0.15,0.88 -0.44,1.64 -0.29,0.76 -0.44,1.34 -0.44,1.76 0,1.76 1.09,2.65 3.27,2.65 3.02,0 5.75,-1.97 8.19,-5.92 2.27,-3.61 3.4,-7.01 3.4,-10.2 0,-5.21 -2.27,-7.81 -6.8,-7.81 -1.43,0 -2.67,0.25 -3.72,0.76 -1.05,0.5 -2.02,1.24 -2.9,2.2 -0.88,0.97 -1.72,2.1 -2.52,3.4 -0.8,1.3 -1.66,2.75 -2.58,4.35l-0.25 0.25z"/>
   <path id="_7_91" class="fil0" d="M407.72 274.49c0,0.5 -0.13,0.76 -0.38,0.76 -0.08,0 -0.46,-0.21 -1.13,-0.63 -0.67,-0.42 -1.89,-0.63 -3.65,-0.63 -0.84,0 -1.64,0.04 -2.39,0.13 -3.19,12.6 -7.18,22.38 -11.97,29.35 -9.07,13.27 -18.77,19.9 -29.1,19.9 -4.03,0 -7.41,-1.18 -10.14,-3.53 -2.73,-2.35 -4.09,-5.5 -4.09,-9.45 0,-8.99 6.42,-17.59 19.27,-25.82 10.75,-6.97 21.2,-11.25 31.36,-12.85 1.18,-5.21 2.52,-12.93 4.03,-23.18 -1.01,2.44 -2.81,5.65 -5.42,9.64 -2.6,3.99 -4.83,6.95 -6.68,8.88 -2.18,2.27 -4.24,3.4 -6.17,3.4 -2.69,0 -4.03,-2.35 -4.03,-7.05 0,-2.69 0.84,-5.92 2.52,-9.7 1.93,-4.37 4.07,-6.55 6.42,-6.55 1.18,0 1.76,0.34 1.76,1.01 0,0.08 -1.05,1.99 -3.15,5.73 -2.1,3.74 -3.15,6.61 -3.15,8.63 0,2.69 0.76,4.03 2.27,4.03 2.6,0 8.27,-8.44 17,-25.32 0.17,-1.26 1.22,-1.89 3.15,-1.89 1.51,0 2.27,0.34 2.27,1.01 0,1.09 -0.55,4.66 -1.64,10.71 -1.26,7.14 -2.65,13.98 -4.16,20.53l0.5 0c4.45,-0.17 6.68,0.8 6.68,2.9zm-12.34 -0.5c-5.54,0.92 -12.13,3.32 -19.78,7.18 -7.64,3.86 -13.48,7.73 -17.51,11.59 -6.38,6.05 -9.57,12.05 -9.57,18.01 0,3.27 1.03,5.9 3.09,7.87 2.06,1.97 4.77,2.96 8.12,2.96 5.12,0 10.2,-2.18 15.24,-6.55 4.03,-3.44 7.6,-7.85 10.71,-13.23 4.45,-7.56 7.68,-16.84 9.7,-27.84z"/>
   <path id="_8_92" class="fil0" d="M457.1 267.06c-1.68,1.68 -3.23,2.81 -4.66,3.4 -1.43,0.59 -2.67,0.78 -3.72,0.57 -1.05,-0.21 -1.89,-0.8 -2.52,-1.76 -0.63,-0.97 -0.94,-2.2 -0.94,-3.72 0,-0.67 0.21,-1.7 0.63,-3.09 0.42,-1.39 0.97,-3.04 1.64,-4.98 -1.43,2.18 -2.69,3.95 -3.78,5.29 -1.09,1.34 -1.85,2.27 -2.27,2.77 -2.77,3.27 -5.25,4.91 -7.43,4.91 -2.77,0 -4.16,-2.35 -4.16,-7.05 0,-1.18 0.13,-2.39 0.38,-3.65 -1.01,1.51 -1.85,2.75 -2.52,3.72 -0.67,0.97 -1.22,1.66 -1.64,2.08 -2.77,3.27 -5.25,4.91 -7.43,4.91 -2.77,0 -4.16,-2.35 -4.16,-7.05 0,-2.69 0.88,-5.92 2.65,-9.7 1.85,-4.37 3.95,-6.55 6.3,-6.55 1.26,0 1.89,0.34 1.89,1.01 0,0 -1.09,1.93 -3.27,5.79 -2.1,3.61 -3.15,6.47 -3.15,8.57 0,2.69 0.8,4.03 2.39,4.03 2.18,0 5.84,-4.07 10.96,-12.22 0,-0.08 0.08,-0.29 0.25,-0.63 0.84,-2.02 1.81,-3.65 2.9,-4.91 0.08,-0.17 0.17,-0.29 0.25,-0.38 0.08,-0.08 0.17,-0.21 0.25,-0.38l-0.25 0.63c1.01,-1.01 2.06,-1.51 3.15,-1.51 1.26,0 1.89,0.34 1.89,1.01 0,0 -1.09,1.93 -3.27,5.79 -2.1,3.61 -3.15,6.47 -3.15,8.57 0,2.69 0.8,4.03 2.39,4.03 2.69,0 7.52,-6.13 14.49,-18.39 0.59,-1.09 1.47,-2.73 2.65,-4.91 0.67,-0.67 1.3,-1.01 1.89,-1.01 0.76,0 1.45,0.31 2.08,0.94 0.63,0.63 0.94,1.36 0.94,2.2 0,0 -1.51,2.81 -4.53,8.44 -2.94,5.71 -4.41,10.04 -4.41,12.97 0,0.92 0.13,1.62 0.38,2.08 0.25,0.46 0.67,0.63 1.26,0.5 0.59,-0.13 1.39,-0.63 2.39,-1.51 1.01,-0.88 2.31,-2.2 3.9,-3.97 0.42,-0.5 0.71,-0.42 0.88,0.25 0.17,0.67 -0.34,1.64 -1.51,2.9zm-20.91 18.89c0.42,-0.92 1.05,-1.39 1.89,-1.39 0,-0.17 0.76,0.27 2.27,1.32 1.51,1.05 2.81,1.49 3.9,1.32 3.19,-0.17 5.67,-2.27 7.43,-6.3 1.68,-3.78 2.35,-7.89 2.02,-12.34l0.5 -0.5c1.51,-0.08 1.97,2.14 1.39,6.68 -0.42,4.03 -1.22,7.35 -2.39,9.95 -1.68,3.95 -4.41,6.13 -8.19,6.55 -1.43,0 -3.32,-0.5 -5.67,-1.51 -2.69,-1.34 -3.74,-2.6 -3.15,-3.78z"/>
   <path id="_9_93" class="fil0" d="M503.07 257.49c0,0.42 -0.25,1.01 -0.76,1.76 -3.69,5.96 -7.18,9.78 -10.45,11.46 -1.51,0.76 -3.02,1.13 -4.53,1.13 -5.12,0 -7.68,-3.61 -7.68,-10.83 0,-1.18 0.08,-2.44 0.25,-3.78 -5.63,9.99 -10.62,14.99 -14.99,14.99 -2.6,0 -3.9,-1.43 -3.9,-4.28 0,-4.37 2.1,-9.64 6.3,-15.81 4.2,-6.17 8.27,-9.93 12.22,-11.27 1.43,-0.59 2.81,-0.88 4.16,-0.88 3.02,0 5.21,1.05 6.55,3.15 0.25,0.42 0.38,0.71 0.38,0.88 0,0.08 -0.29,0.21 -0.88,0.38 -0.59,0.17 -1.01,0.46 -1.26,0.88 -2.02,3.27 -3.02,8.19 -3.02,14.74 0,6.05 1.3,9.07 3.9,9.07 1.85,0 4.47,-2.04 7.87,-6.11 3.4,-4.07 5.23,-6.11 5.48,-6.11 0.25,0 0.38,0.21 0.38,0.63zm-18.52 -13.23c-0.34,-0.08 -0.71,-0.13 -1.13,-0.13 -3.36,0 -6.84,2.14 -10.46,6.42 -5.12,6.21 -7.68,11.29 -7.68,15.24 0,1.76 0.59,2.65 1.76,2.65 1.85,0 4.24,-1.93 7.18,-5.79 4.11,-5.21 7.56,-11.34 10.33,-18.39z"/>
   <path id="_10_94" class="fil0" d="M532.67 251.69c1.85,0.17 2.77,1.13 2.77,2.9 0,0.17 -0.17,0.67 -0.5,1.51 -0.92,1.93 -1.78,3.61 -2.58,5.04 -0.8,1.43 -1.2,2.94 -1.2,4.53 0,3.19 1.51,4.79 4.53,4.79 2.35,0 4.87,-1.22 7.56,-3.65 1.85,-1.6 3.82,-3.86 5.92,-6.8 1.76,-2.44 2.77,-3.65 3.02,-3.65 0.25,0 0.38,0.25 0.38,0.76 0,0.59 -0.25,1.3 -0.76,2.14 -5.71,9.49 -11.63,14.23 -17.76,14.23 -4.79,0 -7.18,-3.02 -7.18,-9.07 0,-0.59 0,-1.15 0,-1.7 0,-0.55 0.04,-1.07 0.13,-1.57 0.34,-1.18 0.8,-2.44 1.39,-3.78 -0.5,0.17 -1.01,0.29 -1.51,0.38 -0.5,0.08 -0.97,0.13 -1.39,0.13 -1.43,1.93 -2.85,3.76 -4.28,5.48 -1.43,1.72 -2.35,2.79 -2.77,3.21 -2.35,2.27 -4.66,3.8 -6.93,4.6 -2.27,0.8 -4.24,0.9 -5.92,0.31 -1.68,-0.59 -2.92,-1.85 -3.72,-3.78 -0.8,-1.93 -0.9,-4.53 -0.31,-7.81 0.25,-1.6 0.71,-2.69 1.39,-3.27 0.67,-0.59 1.39,-0.88 2.14,-0.88 0.76,0 1.43,0.23 2.02,0.69 0.59,0.46 0.97,0.99 1.13,1.57 -1.34,3.44 -1.99,6.21 -1.95,8.31 0.04,2.1 0.63,3.36 1.76,3.78 1.13,0.42 2.71,-0.06 4.72,-1.45 2.02,-1.39 4.28,-3.84 6.8,-7.37 0.5,-0.67 1.26,-1.76 2.27,-3.28 -2.52,-0.08 -4.77,-0.67 -6.74,-1.76 -1.97,-1.09 -3.3,-2.5 -3.97,-4.22 -0.67,-1.72 -0.55,-3.57 0.38,-5.54 0.92,-1.97 2.98,-3.88 6.17,-5.73 2.27,-1.26 4.2,-1.91 5.79,-1.95 1.6,-0.04 2.88,0.34 3.84,1.13 0.97,0.8 1.64,1.89 2.02,3.27 0.38,1.39 0.52,2.88 0.44,4.47 -0.08,1.6 -0.38,3.13 -0.88,4.6 -0.5,1.47 -1.22,2.71 -2.14,3.72 0.42,0 0.84,0 1.26,0 0.42,0 0.84,-0.08 1.26,-0.25 1.18,-2.1 2.02,-3.3 2.52,-3.59 0.5,-0.29 0.8,-0.44 0.88,-0.44zm-6.3 -7.43c-3.53,-1.18 -6.07,-1.36 -7.62,-0.57 -1.55,0.8 -2.37,1.97 -2.46,3.53 -0.08,1.55 0.52,3.19 1.83,4.91 1.3,1.72 3.09,2.88 5.35,3.46 0.76,-1.18 1.45,-2.39 2.08,-3.65 0.63,-1.26 1.09,-2.41 1.39,-3.46 0.29,-1.05 0.42,-1.97 0.38,-2.77 -0.04,-0.8 -0.36,-1.28 -0.94,-1.45z"/>
   <path class="fil0" d="M257.47 346.02c0,0.34 -0.25,0.8 -0.76,1.39 -2.94,4.28 -7.01,8.19 -12.22,11.71 -3.02,1.93 -6.21,2.9 -9.57,2.9 -6.21,0 -9.32,-3.32 -9.32,-9.95 0,-4.11 2.29,-8.65 6.86,-13.6 4.58,-4.95 8.88,-7.43 12.91,-7.43 2.69,0 4.03,1.05 4.03,3.15 0,0.84 -0.61,2.29 -1.83,4.35 -1.22,2.06 -2.2,3.09 -2.96,3.09 -0.34,0 -0.5,-0.21 -0.5,-0.63 0,-0.34 0.15,-0.88 0.44,-1.64 0.29,-0.76 0.44,-1.34 0.44,-1.76 0,-1.76 -1.09,-2.65 -3.27,-2.65 -3.02,0 -5.75,1.97 -8.19,5.92 -2.27,3.61 -3.4,7.01 -3.4,10.2 0,5.21 2.27,7.81 6.8,7.81 5.71,0 11.67,-3.9 17.89,-11.71 0.84,-1.01 1.55,-1.51 2.14,-1.51 0.34,0 0.5,0.13 0.5,0.38z"/>
   <path id="_1_95" class="fil0" d="M294 345.89c0,0.59 -0.25,1.3 -0.76,2.14 -2.35,3.86 -5.08,7.22 -8.19,10.08 -4.03,3.7 -7.81,5.54 -11.34,5.54 -4.7,0 -7.05,-2.94 -7.05,-8.82 0,-1.34 0.63,-3.99 1.89,-7.94 -2.94,4.28 -4.83,6.93 -5.67,7.94 -2.77,3.27 -5.25,4.91 -7.43,4.91 -2.77,0 -4.16,-2.35 -4.16,-7.05 0,-2.69 0.88,-5.92 2.65,-9.7 1.93,-4.37 4.03,-6.55 6.3,-6.55 1.26,0 1.89,0.34 1.89,1.01 0,0.08 -1.07,1.99 -3.21,5.73 -2.14,3.74 -3.21,6.61 -3.21,8.63 0,2.69 0.8,4.03 2.39,4.03 2.69,0 7.52,-6.13 14.49,-18.39 0.59,-1.18 1.47,-2.81 2.65,-4.91 0.59,-0.67 1.22,-1.01 1.89,-1.01 0.76,0 1.45,0.31 2.08,0.94 0.63,0.63 0.94,1.36 0.94,2.2 0,-0.08 -1.49,2.73 -4.47,8.44 -2.98,5.71 -4.47,10.12 -4.47,13.23 0,2.94 1.39,4.41 4.16,4.41 2.35,0 5.04,-1.34 8.06,-4.03 2.02,-1.76 4.28,-4.28 6.8,-7.56 2.1,-2.69 3.23,-4.03 3.4,-4.03 0.25,0 0.38,0.25 0.38,0.76z"/>
   <path id="_2_96" class="fil0" d="M319.06 339.47c-2.77,3.61 -5.42,7.01 -7.94,10.2 -2.52,3.19 -4.62,5.63 -6.3,7.31 -2.35,2.27 -4.58,3.74 -6.68,4.41 -2.1,0.67 -3.86,0.65 -5.29,-0.06 -1.43,-0.71 -2.46,-2.1 -3.09,-4.16 -0.63,-2.06 -0.65,-4.72 -0.06,-8 0.25,-1.6 0.71,-2.69 1.39,-3.27 0.67,-0.59 1.39,-0.88 2.14,-0.88 0.76,0 1.43,0.23 2.02,0.69 0.59,0.46 0.97,0.99 1.13,1.57 -1.34,3.44 -1.99,6.21 -1.95,8.31 0.04,2.1 0.63,3.36 1.76,3.78 1.13,0.42 2.71,-0.06 4.72,-1.45 2.02,-1.39 4.28,-3.84 6.8,-7.37 0.5,-0.67 1.45,-1.95 2.83,-3.84 1.39,-1.89 3.3,-4.18 5.73,-6.86 0.84,-1.01 1.64,-1.93 2.39,-2.77 0.76,-0.84 1.97,-2.18 3.65,-4.03 0.59,-0.59 1.26,-0.88 2.02,-0.88 1.93,0 2.9,0.97 2.9,2.9 0,0.42 -0.17,0.92 -0.5,1.51 -4.7,7.73 -7.05,13.86 -7.05,18.39 0,3.19 1.51,4.79 4.53,4.79 2.35,0 4.87,-1.22 7.56,-3.65 1.85,-1.6 3.82,-3.86 5.92,-6.8 1.76,-2.44 2.77,-3.65 3.02,-3.65 0.25,0 0.38,0.25 0.38,0.76 0,0.59 -0.25,1.3 -0.76,2.14 -5.71,9.49 -11.63,14.23 -17.76,14.23 -4.79,0 -7.18,-3.02 -7.18,-9.07 0,-5.29 1.22,-10.04 3.65,-14.23z"/>
   <path id="_3_97" class="fil0" d="M379.52 346.78c0,0.42 -0.25,1.01 -0.76,1.76 -3.69,5.96 -7.18,9.78 -10.45,11.46 -1.51,0.76 -3.02,1.13 -4.53,1.13 -5.12,0 -7.68,-3.61 -7.68,-10.83 0,-1.18 0.08,-2.44 0.25,-3.78 -5.63,9.99 -10.62,14.99 -14.99,14.99 -2.6,0 -3.9,-1.43 -3.9,-4.28 0,-4.37 2.1,-9.64 6.3,-15.81 4.2,-6.17 8.27,-9.93 12.22,-11.27 1.43,-0.59 2.81,-0.88 4.16,-0.88 3.02,0 5.21,1.05 6.55,3.15 0.25,0.42 0.38,0.71 0.38,0.88 0,0.08 -0.29,0.21 -0.88,0.38 -0.59,0.17 -1.01,0.46 -1.26,0.88 -2.02,3.27 -3.02,8.19 -3.02,14.74 0,6.05 1.3,9.07 3.9,9.07 1.85,0 4.47,-2.04 7.87,-6.11 3.4,-4.07 5.23,-6.11 5.48,-6.11 0.25,0 0.38,0.21 0.38,0.63zm-18.52 -13.23c-0.34,-0.08 -0.71,-0.13 -1.13,-0.13 -3.36,0 -6.84,2.14 -10.46,6.42 -5.12,6.21 -7.68,11.29 -7.68,15.24 0,1.76 0.59,2.65 1.76,2.65 1.85,0 4.24,-1.93 7.18,-5.79 4.11,-5.21 7.56,-11.34 10.33,-18.39z"/>
   <path class="fil0" d="M170.93 395.71c-1.43,2.27 -2.88,5.02 -4.35,8.25 -1.47,3.23 -2.62,6.32 -3.46,9.26 2.1,-3.78 4.66,-7.39 7.68,-10.83 4.03,-4.62 7.6,-6.93 10.71,-6.93 2.52,0 3.78,1.81 3.78,5.42 0,5.21 -1.64,11.13 -4.91,17.76 -2.18,4.53 -5.04,8.48 -8.57,11.84 -4.2,3.95 -8.48,5.92 -12.85,5.92 -3.36,0 -5.04,-0.63 -5.04,-1.89 0,-0.5 0.25,-0.76 0.76,-0.76 0.25,0 0.86,0.15 1.83,0.44 0.97,0.29 1.78,0.44 2.46,0.44 3.78,0 7.52,-2.14 11.21,-6.42 2.77,-3.27 5.04,-7.1 6.8,-11.46 1.6,-3.78 2.39,-7.94 2.39,-12.47 0,-2.77 -0.63,-4.16 -1.89,-4.16 -2.77,0 -6.47,3.82 -11.08,11.46 -4.37,7.14 -6.55,12.47 -6.55,16 0,0.92 0.31,1.64 0.94,2.14 0.63,0.5 0.94,0.92 0.94,1.26 0,0.34 -0.21,0.5 -0.63,0.5 -3.11,0 -4.66,-2.27 -4.66,-6.8 0,-3.19 0.78,-7.33 2.33,-12.41 1.55,-5.08 3.93,-10.9 7.12,-17.45 2.69,-5.29 7.35,-13.23 13.98,-23.81 10.25,-16.38 18.6,-24.56 25.07,-24.56 3.78,0 5.67,1.72 5.67,5.16 0,6.05 -5.29,14.49 -15.87,25.32 -6.8,6.89 -14.74,13.14 -23.81,18.77zm37.29 -41.82c0,-1.76 -0.71,-2.69 -2.14,-2.77 -2.18,0 -5.58,1.85 -10.2,5.54 -8.15,6.47 -15.16,16.38 -21.04,29.73 -0.92,2.27 -1.6,4.03 -2.02,5.29 6.05,-3.53 13.02,-9.2 20.91,-17 9.49,-9.15 14.32,-16.08 14.49,-20.78z"/>
   <path id="_1_98" class="fil0" d="M206.33 415.36c-0.92,1.01 -1.64,1.51 -2.14,1.51 -0.34,0 -0.5,-0.13 -0.5,-0.38 0,-0.25 0.25,-0.71 0.76,-1.39 0.92,-1.76 1.91,-3.48 2.96,-5.16 1.05,-1.68 2.23,-3.15 3.53,-4.41 1.3,-1.26 2.73,-2.29 4.28,-3.09 1.55,-0.8 3.25,-1.2 5.1,-1.2 6.21,0 9.32,3.32 9.32,9.95 0,1.6 -0.34,3.23 -1.01,4.91l0.5 -0.5c5.21,-3.61 8.57,-7.35 10.08,-11.21 0.25,-0.84 0.25,-1.64 0,-2.39 -0.08,-0.34 -0.17,-0.63 -0.25,-0.88 -0.08,-0.25 -0.04,-0.44 0.13,-0.57 0.17,-0.13 0.5,-0.13 1.01,0 0.5,0.13 1.3,0.44 2.39,0.94 2.27,0.92 2.56,3.99 0.88,9.19 -0.08,0.42 -0.25,0.92 -0.5,1.51 -0.25,0.59 -0.5,1.22 -0.76,1.89 -0.25,0.67 -0.5,1.3 -0.76,1.89 -0.25,0.59 -0.42,1.05 -0.5,1.39 -0.5,1.34 -0.9,2.33 -1.2,2.96 -0.29,0.63 -0.61,1.49 -0.94,2.58 3.19,-2.52 5.42,-4.11 6.68,-4.79 0.92,-3.11 3.02,-6.47 6.3,-10.08 4.7,-4.95 9.03,-7.43 12.97,-7.43 2.69,0 4.03,1.05 4.03,3.15 0,0.84 -0.63,2.31 -1.89,4.41 -1.18,2.02 -2.14,3.02 -2.9,3.02 -0.34,0 -0.5,-0.21 -0.5,-0.63 0,-0.34 0.15,-0.88 0.44,-1.64 0.29,-0.76 0.44,-1.34 0.44,-1.76 0,-1.76 -1.09,-2.65 -3.28,-2.65 -3.02,0 -5.75,1.97 -8.19,5.92 -2.27,3.69 -3.4,7.1 -3.4,10.2 0,5.21 2.27,7.81 6.8,7.81 5.71,0 11.67,-3.9 17.89,-11.71 0.84,-1.01 1.55,-1.51 2.14,-1.51 0.34,0 0.5,0.13 0.5,0.38 0,0.34 -0.25,0.8 -0.76,1.39 -2.86,4.2 -6.93,8.1 -12.22,11.71 -3.11,1.93 -6.3,2.9 -9.57,2.9 -6.21,0 -9.32,-3.32 -9.32,-9.95 0,-0.34 0,-0.67 0,-1.01 -4.45,3.28 -7.35,6.68 -8.69,10.2 -0.17,0.42 -0.04,0.8 0.38,1.13 0.42,0.34 0.71,0.71 0.88,1.13 0.08,0.34 0.17,0.63 0.25,0.88 0.08,0.25 0.02,0.44 -0.19,0.57 -0.21,0.13 -0.57,0.13 -1.07,0 -0.5,-0.13 -1.26,-0.44 -2.27,-0.94 -2.27,-0.84 -2.56,-3.9 -0.88,-9.2 0.17,-0.76 0.48,-1.66 0.94,-2.71 0.46,-1.05 0.78,-1.91 0.94,-2.58 0.5,-1.34 0.9,-2.56 1.2,-3.65 0.29,-1.09 0.57,-2.18 0.82,-3.28 -4.7,3.78 -7.47,5.54 -8.31,5.29 -0.34,0 -0.55,-0.17 -0.63,-0.5 -1.09,2.52 -2.9,5.12 -5.42,7.81 -4.7,4.95 -9.03,7.43 -12.97,7.43 -2.69,0 -4.03,-1.05 -4.03,-3.15 0,-0.76 0.63,-2.23 1.89,-4.41 1.09,-2.02 2.06,-3.02 2.9,-3.02 0.34,0 0.5,0.21 0.5,0.63 0,0.34 -0.15,0.88 -0.44,1.64 -0.29,0.76 -0.44,1.34 -0.44,1.76 0,1.76 1.09,2.65 3.27,2.65 3.02,0 5.75,-1.97 8.19,-5.92 2.27,-3.61 3.4,-7.01 3.4,-10.2 0,-5.21 -2.27,-7.81 -6.8,-7.81 -1.43,0 -2.67,0.25 -3.72,0.76 -1.05,0.5 -2.02,1.24 -2.9,2.2 -0.88,0.97 -1.72,2.1 -2.52,3.4 -0.8,1.3 -1.66,2.75 -2.58,4.35l-0.25 0.25z"/>
   <path id="_2_99" class="fil0" d="M314.53 415.49c0,0.59 -0.25,1.3 -0.76,2.14 -2.35,3.86 -5.08,7.22 -8.19,10.08 -4.03,3.7 -7.81,5.54 -11.34,5.54 -4.7,0 -7.05,-2.94 -7.05,-8.82 0,-1.34 0.63,-3.99 1.89,-7.94 -2.94,4.28 -4.83,6.93 -5.67,7.94 -2.77,3.27 -5.25,4.91 -7.43,4.91 -2.77,0 -4.16,-2.35 -4.16,-7.05 0,-2.69 0.88,-5.92 2.65,-9.7 1.93,-4.37 4.03,-6.55 6.3,-6.55 1.26,0 1.89,0.34 1.89,1.01 0,0.08 -1.07,1.99 -3.21,5.73 -2.14,3.74 -3.21,6.61 -3.21,8.63 0,2.69 0.8,4.03 2.39,4.03 2.69,0 7.52,-6.13 14.49,-18.39 0.59,-1.18 1.47,-2.81 2.65,-4.91 0.59,-0.67 1.22,-1.01 1.89,-1.01 0.76,0 1.45,0.31 2.08,0.94 0.63,0.63 0.94,1.36 0.94,2.2 0,-0.08 -1.49,2.73 -4.47,8.44 -2.98,5.71 -4.47,10.12 -4.47,13.23 0,2.94 1.39,4.41 4.16,4.41 2.35,0 5.04,-1.34 8.06,-4.03 2.02,-1.76 4.28,-4.28 6.8,-7.56 2.1,-2.69 3.23,-4.03 3.4,-4.03 0.25,0 0.38,0.25 0.38,0.76z"/>
   <path id="_3_100" class="fil0" d="M346.9 433.38c0,0.5 -0.13,0.76 -0.38,0.76 -0.17,0 -0.55,-0.21 -1.13,-0.63 -0.59,-0.42 -1.76,-0.63 -3.53,-0.63 -0.84,0 -1.68,0.04 -2.52,0.13 -0.17,8.15 -4.16,17.93 -11.97,29.35 -9.07,13.27 -18.77,19.9 -29.1,19.9 -4.03,0 -7.39,-1.18 -10.08,-3.53 -2.69,-2.35 -4.03,-5.5 -4.03,-9.45 0,-8.99 6.38,-17.59 19.15,-25.82 10.83,-6.97 21.29,-11.25 31.36,-12.85 -0.08,-5.29 -2.14,-7.94 -6.17,-7.94 -0.84,0 -2.12,0.4 -3.84,1.2 -1.72,0.8 -2.88,1.2 -3.46,1.2 -1.09,0 -1.64,-0.5 -1.64,-1.51 0,-0.5 0.38,-1.13 1.13,-1.89 9.07,-8.31 13.6,-13.9 13.6,-16.75 0,-1.85 -1.05,-2.77 -3.15,-2.77 -5.12,0 -10.5,4.49 -16.12,13.48 -0.59,0.84 -1.01,1.26 -1.26,1.26 -0.34,0 -0.5,-0.21 -0.5,-0.63 0,-0.42 0.17,-0.92 0.5,-1.51 1.85,-3.86 4.28,-7.14 7.31,-9.83 3.53,-3.11 7.14,-4.66 10.83,-4.66 4.53,0 6.8,1.89 6.8,5.67 0,4.11 -3.36,8.86 -10.08,14.23l0.38 0c2.77,-0.08 5.14,0.9 7.12,2.96 1.97,2.06 3.09,4.51 3.34,7.37l0.5 0c3.95,-0.08 6.21,0.5 6.8,1.76 0.08,0.34 0.13,0.71 0.13,1.13zm-12.22 -0.5c-5.63,0.92 -12.26,3.32 -19.9,7.18 -7.64,3.86 -13.48,7.73 -17.51,11.59 -6.38,6.05 -9.57,12.05 -9.57,18.01 0,3.27 1.03,5.9 3.09,7.87 2.06,1.97 4.77,2.96 8.12,2.96 9.57,0 18.26,-6.59 26.07,-19.78 6.3,-10.66 9.53,-19.94 9.7,-27.84z"/>
   <path id="_4_101" class="fil0" d="M371.59 408.56c0.25,-0.25 0.5,-0.67 0.76,-1.26 0.25,-0.59 0.52,-1.22 0.82,-1.89 0.29,-0.67 0.59,-1.32 0.88,-1.95 0.29,-0.63 0.57,-1.07 0.82,-1.32 0.59,-0.59 1.26,-0.88 2.02,-0.88 1.93,0 2.9,0.97 2.9,2.9 0,0.42 -0.17,0.92 -0.5,1.51 -4.7,7.73 -7.05,13.86 -7.05,18.39 0,3.19 1.51,4.79 4.53,4.79 2.35,0 4.87,-1.22 7.56,-3.65 1.85,-1.6 3.82,-3.86 5.92,-6.8 1.76,-2.44 2.77,-3.65 3.02,-3.65 0.25,0 0.38,0.25 0.38,0.76 0,0.59 -0.25,1.3 -0.76,2.14 -5.71,9.49 -11.63,14.23 -17.76,14.23 -4.79,0 -7.18,-3.02 -7.18,-9.07 0,-3.36 0.5,-6.51 1.51,-9.45 -2.02,0.5 -4.07,1.09 -6.17,1.76 -2.1,0.67 -4.28,1.47 -6.55,2.39 -0.17,0.67 -0.38,1.32 -0.63,1.95 -0.25,0.63 -0.46,1.28 -0.63,1.95 -0.67,3.95 -1.43,6.63 -2.27,8.06 -0.84,1.43 -1.81,2.14 -2.9,2.14 -0.76,0 -1.13,-0.76 -1.13,-2.27 0,-0.34 0.08,-0.67 0.25,-1.01 0.92,-2.18 1.85,-4.77 2.77,-7.75 0.92,-2.98 1.85,-6.49 2.77,-10.52 0.17,-0.67 0.34,-1.49 0.5,-2.46 0.17,-0.97 0.42,-2.12 0.76,-3.46 0.25,-0.59 0.84,-1.18 1.76,-1.76 0.92,-0.59 1.76,-0.88 2.52,-0.88 0.59,0 0.88,0.25 0.88,0.76 0,0.42 -0.34,1.7 -1.01,3.84 -0.67,2.14 -1.64,5.23 -2.9,9.26 1.18,-0.42 2.6,-0.9 4.28,-1.45 1.68,-0.55 3.65,-1.15 5.92,-1.83 0.59,-0.08 1.43,-0.34 2.52,-0.76 0.42,-0.92 0.88,-1.85 1.39,-2.77z"/>
   <path id="_5_102" class="fil0" d="M429.53 415.49c0,0.59 -0.25,1.3 -0.76,2.14 -2.35,3.86 -5.08,7.22 -8.19,10.08 -4.03,3.7 -7.81,5.54 -11.34,5.54 -4.7,0 -7.05,-2.94 -7.05,-8.82 0,-1.34 0.63,-3.99 1.89,-7.94 -2.94,4.28 -4.83,6.93 -5.67,7.94 -2.77,3.27 -5.25,4.91 -7.43,4.91 -2.77,0 -4.16,-2.35 -4.16,-7.05 0,-2.69 0.88,-5.92 2.65,-9.7 1.93,-4.37 4.03,-6.55 6.3,-6.55 1.26,0 1.89,0.34 1.89,1.01 0,0.08 -1.07,1.99 -3.21,5.73 -2.14,3.74 -3.21,6.61 -3.21,8.63 0,2.69 0.8,4.03 2.39,4.03 2.69,0 7.52,-6.13 14.49,-18.39 0.59,-1.18 1.47,-2.81 2.65,-4.91 0.59,-0.67 1.22,-1.01 1.89,-1.01 0.76,0 1.45,0.31 2.08,0.94 0.63,0.63 0.94,1.36 0.94,2.2 0,-0.08 -1.49,2.73 -4.47,8.44 -2.98,5.71 -4.47,10.12 -4.47,13.23 0,2.94 1.39,4.41 4.16,4.41 2.35,0 5.04,-1.34 8.06,-4.03 2.02,-1.76 4.28,-4.28 6.8,-7.56 2.1,-2.69 3.23,-4.03 3.4,-4.03 0.25,0 0.38,0.25 0.38,0.76z"/>
   <path id="_6_103" class="fil0" d="M451.2 368c0,1.76 -1.51,4.45 -4.53,8.06 -3.02,3.61 -5.33,5.42 -6.93,5.42 -0.08,0 -0.13,-0.08 -0.13,-0.25 0,-0.25 0.29,-0.71 0.88,-1.39 1.09,-1.26 3.15,-4.2 6.17,-8.82l-0.25 0.13c-1.34,0 -2.02,-0.92 -2.02,-2.77 0,-2.35 1.43,-3.53 4.28,-3.53 0.59,0 1.15,0.36 1.7,1.07 0.55,0.71 0.82,1.41 0.82,2.08zm-9.83 0c0,1.68 -1.51,4.35 -4.53,8 -3.02,3.65 -5.29,5.48 -6.8,5.48 -0.17,-0.08 -0.25,-0.17 -0.25,-0.25 0,-0.34 0.29,-0.8 0.88,-1.39 1.09,-1.26 3.15,-4.2 6.17,-8.82l-0.25 0.13c-1.34,0 -2.02,-0.92 -2.02,-2.77 0,-1.01 0.44,-1.85 1.32,-2.52 0.88,-0.67 1.87,-1.01 2.96,-1.01 0.59,0 1.15,0.36 1.7,1.07 0.55,0.71 0.82,1.41 0.82,2.08z"/>
  </g>
 </g>
</svg>
