<?xml version="1.0" encoding="UTF-8"?>
<!DOCTYPE svg PUBLIC "-//W3C//DTD SVG 1.1//EN" "http://www.w3.org/Graphics/SVG/1.1/DTD/svg11.dtd">
<!-- Creator: CorelDRAW -->
<svg xmlns="http://www.w3.org/2000/svg" xml:space="preserve" width="147.671mm" height="88.1478mm" version="1.1" style="shape-rendering:geometricPrecision; text-rendering:geometricPrecision; image-rendering:optimizeQuality; fill-rule:evenodd; clip-rule:evenodd"
viewBox="0 0 1188.46 760.87"
 xmlns:xlink="http://www.w3.org/1999/xlink"
 xmlns:xodm="http://www.corel.com/coreldraw/odm/2003">
 <defs>
  <style type="text/css">
   <![CDATA[
    .fil0 {fill:white;fill-rule:nonzero}
   ]]>
  </style>
 </defs>
 <g id="Слой_x0020_1">
  <metadata id="CorelCorpID_0Corel-Layer"/>
  <g id="_2631507422976">
   <path class="fil0" d="M49.85 3.58c0,0.6 -0.52,1.49 -1.57,2.68 -1.79,1.94 -5.44,7.01 -10.96,15.21 2.68,0 4.03,1.64 4.03,4.92 0,4.03 -2.54,6.04 -7.61,6.04 -2.98,0 -4.47,-1.86 -4.47,-5.59 0,-2.98 2.68,-7.68 8.05,-14.09 5.37,-6.41 9.4,-9.62 12.08,-9.62 0.3,0 0.45,0.15 0.45,0.45zm-17.45 0c0,0.6 -0.52,1.49 -1.57,2.68 -1.79,1.94 -5.44,7.01 -10.96,15.21 2.68,0 4.03,1.64 4.03,4.92 0,4.03 -2.54,6.04 -7.61,6.04 -2.98,0 -4.47,-1.86 -4.47,-5.59 0,-2.98 2.68,-7.68 8.05,-14.09 5.37,-6.41 9.4,-9.62 12.08,-9.62 0.3,0 0.45,0.15 0.45,0.45z"/>
   <path id="_1" class="fil0" d="M199.95 17.45c0,10.14 -5.59,19.46 -16.78,27.96 -10.44,8.2 -20.95,12.3 -31.54,12.3 -10.89,0 -16.33,-4.18 -16.33,-12.53 0,-5.97 1.34,-8.95 4.03,-8.95 1.04,0 1.57,0.67 1.57,2.01 0,0.45 -0.07,1.12 -0.22,2.01 -0.15,0.9 -0.22,1.57 -0.22,2.01 0,5.82 3.8,8.72 11.41,8.72 7.9,0 16.85,-3.8 26.84,-11.41 9.99,-7.61 14.99,-15.14 14.99,-22.59 0,-7.31 -6.19,-10.96 -18.57,-10.96 -2.54,0 -5,0.15 -7.38,0.45 -12.83,1.34 -27.44,6.75 -43.85,16.22 -16.4,9.47 -30.05,20.54 -40.94,33.22 -12.08,14.32 -18.12,28.04 -18.12,41.16 0,8.2 2.76,14.47 8.28,18.79 4.92,3.88 11.63,5.82 20.13,5.82 27.14,0 53.47,-10.59 78.97,-31.77 0.6,-0.45 1.19,-0.67 1.79,-0.67 1.79,0 2.68,0.97 2.68,2.91 0,0.75 -0.3,1.42 -0.89,2.01 -10.89,9.99 -23.79,18.49 -38.7,25.5 -16.4,7.76 -31.24,11.63 -44.52,11.63 -10.89,0 -19.69,-2.24 -26.4,-6.71 -7.9,-5.22 -11.86,-12.98 -11.86,-23.27 0,-12.23 5,-25.58 14.99,-40.04 11.78,-17.15 27.07,-31.39 45.86,-42.73 20.13,-12.38 39.97,-18.57 59.5,-18.57 16.85,0 25.28,5.82 25.28,17.45z"/>
   <path id="_2" class="fil0" d="M270.64 96.19c0,0.6 -0.15,1.04 -0.45,1.34 -3.73,5.22 -7.9,10.07 -12.53,14.54 -6.41,5.97 -11.78,8.95 -16.11,8.95 -7.01,0 -10.51,-7.75 -10.51,-23.27 0,-2.39 0.07,-5.07 0.22,-8.05 -5.37,4.77 -11.41,13.35 -18.12,25.73 -2.24,4.18 -4.7,6.26 -7.38,6.26 -0.89,0 -1.57,-0.3 -2.01,-0.9 -0.45,-1.64 -0.67,-3.73 -0.67,-6.26 0,-4.32 0.97,-12.23 2.91,-23.71 1.04,-5.82 1.57,-9.54 1.57,-11.19 0,-1.19 -0.22,-1.79 -0.67,-1.79 -2.54,2.24 -6.64,7.08 -12.3,14.54 -6.11,8.05 -12.68,17.52 -19.69,28.41 -0.9,1.34 -1.64,2.01 -2.24,2.01 -1.19,0 -1.79,-1.34 -1.79,-4.03 0,-0.75 0.07,-1.34 0.22,-1.79 3.43,-8.05 6.93,-19.39 10.51,-34 0.3,-2.09 0.89,-5.07 1.79,-8.95 0.3,-1.04 1.31,-2.09 3.02,-3.13 1.72,-1.04 3.17,-1.57 4.36,-1.57 1.04,0 1.57,0.45 1.57,1.34 0,1.49 -3.51,12.83 -10.51,34 5.37,-7.16 10.89,-14.54 16.55,-22.15 1.79,-2.39 4.47,-5.97 8.05,-10.74 2.24,-2.68 4.55,-4.03 6.93,-4.03 2.39,0 3.58,1.34 3.58,4.03 0,1.94 -0.52,5.78 -1.57,11.52 -1.04,5.74 -2.24,14.13 -3.58,25.17 4.18,-5.97 10.66,-14.69 19.46,-26.17 2.39,-2.83 4.77,-4.25 7.16,-4.25 2.24,0 3.36,1.42 3.36,4.25 0,2.39 -0.37,5.93 -1.12,10.63 -0.75,4.7 -1.12,8.24 -1.12,10.63 0,7.76 2.01,11.63 6.04,11.63 5.67,0 12.9,-6.26 21.7,-18.79 0.9,-1.49 1.64,-2.24 2.24,-2.24 0.75,0 1.12,0.67 1.12,2.01zm-22.59 -41.61c-18.79,-4.47 -32.59,-4.25 -41.38,0.67 -1.64,0.9 -2.98,2.31 -4.03,4.25 -0.45,1.04 -0.67,2.46 -0.67,4.25 0,1.79 -0.22,3.13 -0.67,4.03l-0.89 0.67c-1.49,1.04 -2.13,-0.04 -1.9,-3.24 0.22,-3.21 0.93,-5.93 2.13,-8.16 1.49,-3.43 4.03,-6.04 7.61,-7.83 6.56,-3.88 15.21,-5.37 25.95,-4.47 2.68,0 11.71,1.27 27.07,3.8 9.4,1.64 15.58,1.64 18.57,0 1.79,-1.04 3.06,-2.39 3.8,-4.03 0.9,-1.94 1.08,-3.73 0.56,-5.37 -0.52,-1.64 -0.48,-3.06 0.11,-4.25 0.3,-0.15 0.45,-0.22 0.45,-0.22 1.19,-0.75 1.75,0.75 1.68,4.47 -0.08,3.73 -0.56,6.49 -1.45,8.28 -2.24,4.32 -4.62,7.31 -7.16,8.95 -3.73,2.09 -9.62,2.46 -17.67,1.12 -0.9,-0.45 -2.68,-0.82 -5.37,-1.12 -1.19,0 -3.43,-0.6 -6.71,-1.79z"/>
   <path id="_3" class="fil0" d="M344.02 94.18c0,1.04 -0.45,2.31 -1.34,3.8 -3.88,6.41 -10.29,12.83 -19.24,19.24 -9.54,7.16 -17.6,10.74 -24.16,10.74 -1.34,0 -3.36,-0.07 -6.04,-0.22 -2.54,0 -4.47,0 -5.82,0 -0.6,0 -2.83,-0.52 -6.71,-1.57 -4.62,11.93 -10.89,24.46 -18.79,37.58 -11.19,18.19 -20.28,27.29 -27.29,27.29 -3.73,0 -5.59,-2.76 -5.59,-8.28 0,-7.31 6.71,-20.88 20.13,-40.71 9.54,-13.12 19.16,-26.32 28.86,-39.59l0 -1.34c0,-5.37 -0.08,-10.07 -0.22,-14.09 -5.67,9.25 -9.25,13.87 -10.74,13.87 -0.9,0 -1.34,-0.52 -1.34,-1.57 0,-0.6 0.22,-1.19 0.67,-1.79 6.56,-9.25 9.84,-17.52 9.84,-24.83 0,-1.49 -0.41,-2.72 -1.23,-3.69 -0.82,-0.97 -1.23,-1.75 -1.23,-2.35 0,-0.6 2.31,-0.9 6.93,-0.9 5.07,0 7.61,5.07 7.61,15.21 0,1.49 -0.11,3.69 -0.33,6.6 -0.22,2.91 -0.34,5.03 -0.34,6.38 4.18,-7.61 8.8,-14.62 13.87,-21.03 7.75,-9.54 14.24,-14.32 19.46,-14.32 4.77,0 7.16,3.5 7.16,10.51 0,8.8 -3.09,19.01 -9.28,30.65 -6.19,11.63 -12.94,19.76 -20.24,24.38 12.97,-0.3 27.37,-10.36 43.17,-30.2 0.6,-0.74 1.04,-1.12 1.34,-1.12 0.6,0 0.9,0.45 0.9,1.34zm-25.73 -20.36c0,-4.62 -1.27,-6.93 -3.8,-6.93 -0.74,0 -1.49,0.15 -2.24,0.45 -5.37,2.39 -11.04,9.32 -17,20.8 -4.47,8.5 -8.05,17.23 -10.74,26.17 1.49,2.24 4.1,5.07 7.83,8.5 6.56,-2.83 12.6,-9.92 18.12,-21.25 5.22,-10.74 7.83,-19.98 7.83,-27.74zm-42.28 40.71c-0.15,-0.15 -0.3,-0.22 -0.45,-0.22 -0.6,0 -1.42,0.75 -2.46,2.24 -3.58,5.37 -8.95,13.27 -16.11,23.71 -3.13,4.47 -7.08,11.26 -11.86,20.36 -5.52,10.59 -8.28,17.45 -8.28,20.58 0,1.34 0.45,2.01 1.34,2.01 6.56,0 15.58,-10.74 27.07,-32.21 2.98,-5.67 6.19,-15.44 9.62,-29.3 -0.15,-0.75 -0.22,-1.49 -0.22,-2.24 0,-1.79 0.45,-3.43 1.34,-4.92z"/>
   <path id="_4" class="fil0" d="M407.77 95.75c0,0.75 -0.45,1.79 -1.34,3.13 -6.56,10.59 -12.75,17.37 -18.57,20.36 -2.68,1.34 -5.37,2.01 -8.05,2.01 -9.1,0 -13.65,-6.41 -13.65,-19.24 0,-2.09 0.15,-4.32 0.45,-6.71 -9.99,17.75 -18.87,26.62 -26.62,26.62 -4.62,0 -6.93,-2.54 -6.93,-7.61 0,-7.75 3.73,-17.11 11.19,-28.07 7.46,-10.96 14.69,-17.63 21.7,-20.02 2.54,-1.04 5,-1.57 7.38,-1.57 5.37,0 9.25,1.86 11.63,5.59 0.45,0.75 0.67,1.27 0.67,1.57 0,0.15 -0.52,0.37 -1.57,0.67 -1.04,0.3 -1.79,0.82 -2.24,1.57 -3.58,5.82 -5.37,14.54 -5.37,26.17 0,10.74 2.31,16.11 6.93,16.11 3.28,0 7.94,-3.62 13.98,-10.85 6.04,-7.23 9.28,-10.85 9.73,-10.85 0.45,0 0.67,0.37 0.67,1.12zm-32.88 -23.49c-0.6,-0.15 -1.27,-0.22 -2.01,-0.22 -5.97,0 -12.16,3.8 -18.57,11.41 -9.1,11.04 -13.65,20.06 -13.65,27.07 0,3.13 1.04,4.7 3.13,4.7 3.28,0 7.53,-3.43 12.75,-10.29 7.31,-9.25 13.42,-20.13 18.34,-32.66z"/>
   <path id="_5" class="fil0" d="M458.55 94.4c0,0.6 -0.45,1.42 -1.34,2.46 -5.22,7.61 -12.45,14.54 -21.7,20.8 -5.37,3.43 -11.04,5.14 -17,5.14 -11.04,0 -16.55,-5.89 -16.55,-17.67 0,-7.31 4.06,-15.36 12.19,-24.16 8.13,-8.8 15.77,-13.2 22.93,-13.2 4.77,0 7.16,1.86 7.16,5.59 0,1.49 -1.08,4.06 -3.24,7.72 -2.16,3.65 -3.92,5.48 -5.26,5.48 -0.6,0 -0.89,-0.37 -0.89,-1.12 0,-0.6 0.26,-1.57 0.78,-2.91 0.52,-1.34 0.78,-2.39 0.78,-3.13 0,-3.13 -1.94,-4.7 -5.82,-4.7 -5.37,0 -10.22,3.51 -14.54,10.51 -4.03,6.41 -6.04,12.45 -6.04,18.12 0,9.25 4.03,13.87 12.08,13.87 10.14,0 20.73,-6.93 31.77,-20.8 1.49,-1.79 2.76,-2.68 3.8,-2.68 0.6,0 0.9,0.22 0.9,0.67z"/>
   <path id="_6" class="fil0" d="M542.89 96.19c0,0.6 -0.15,1.04 -0.45,1.34 -3.73,5.22 -7.9,10.07 -12.53,14.54 -6.41,5.97 -11.78,8.95 -16.11,8.95 -7.01,0 -10.51,-7.75 -10.51,-23.27 0,-2.39 0.07,-5.07 0.22,-8.05 -5.37,4.77 -11.41,13.35 -18.12,25.73 -2.24,4.18 -4.7,6.26 -7.38,6.26 -0.89,0 -1.57,-0.3 -2.01,-0.9 -0.45,-1.64 -0.67,-3.73 -0.67,-6.26 0,-4.32 0.97,-12.23 2.91,-23.71 1.04,-5.82 1.57,-9.54 1.57,-11.19 0,-1.19 -0.22,-1.79 -0.67,-1.79 -2.54,2.24 -6.64,7.08 -12.3,14.54 -6.11,8.05 -12.68,17.52 -19.69,28.41 -0.9,1.34 -1.64,2.01 -2.24,2.01 -1.19,0 -1.79,-1.34 -1.79,-4.03 0,-0.75 0.07,-1.34 0.22,-1.79 3.43,-8.05 6.93,-19.39 10.51,-34 0.3,-2.09 0.89,-5.07 1.79,-8.95 0.3,-1.04 1.31,-2.09 3.02,-3.13 1.72,-1.04 3.17,-1.57 4.36,-1.57 1.04,0 1.57,0.45 1.57,1.34 0,1.49 -3.51,12.83 -10.51,34 5.37,-7.16 10.89,-14.54 16.55,-22.15 1.79,-2.39 4.47,-5.97 8.05,-10.74 2.24,-2.68 4.55,-4.03 6.93,-4.03 2.39,0 3.58,1.34 3.58,4.03 0,1.94 -0.52,5.78 -1.57,11.52 -1.04,5.74 -2.24,14.13 -3.58,25.17 4.18,-5.97 10.66,-14.69 19.46,-26.17 2.39,-2.83 4.77,-4.25 7.16,-4.25 2.24,0 3.36,1.42 3.36,4.25 0,2.39 -0.37,5.93 -1.12,10.63 -0.75,4.7 -1.12,8.24 -1.12,10.63 0,7.76 2.01,11.63 6.04,11.63 5.67,0 12.9,-6.26 21.7,-18.79 0.9,-1.49 1.64,-2.24 2.24,-2.24 0.75,0 1.12,0.67 1.12,2.01zm-22.59 -41.61c-18.79,-4.47 -32.59,-4.25 -41.38,0.67 -1.64,0.9 -2.98,2.31 -4.03,4.25 -0.45,1.04 -0.67,2.46 -0.67,4.25 0,1.79 -0.22,3.13 -0.67,4.03l-0.89 0.67c-1.49,1.04 -2.13,-0.04 -1.9,-3.24 0.22,-3.21 0.93,-5.93 2.13,-8.16 1.49,-3.43 4.03,-6.04 7.61,-7.83 6.56,-3.88 15.21,-5.37 25.95,-4.47 2.68,0 11.71,1.27 27.07,3.8 9.4,1.64 15.58,1.64 18.57,0 1.79,-1.04 3.06,-2.39 3.8,-4.03 0.9,-1.94 1.08,-3.73 0.56,-5.37 -0.52,-1.64 -0.48,-3.06 0.11,-4.25 0.3,-0.15 0.45,-0.22 0.45,-0.22 1.19,-0.75 1.75,0.75 1.68,4.47 -0.08,3.73 -0.56,6.49 -1.45,8.28 -2.24,4.32 -4.62,7.31 -7.16,8.95 -3.73,2.09 -9.62,2.46 -17.67,1.12 -0.9,-0.45 -2.68,-0.82 -5.37,-1.12 -1.19,0 -3.43,-0.6 -6.71,-1.79z"/>
   <path id="_7" class="fil0" d="M552.96 84.56c-2.54,5.07 -4.85,10.29 -6.93,15.66 -2.09,5.37 -3.13,9.47 -3.13,12.3 0,5.22 2.46,7.83 7.38,7.83 3.13,0 6.67,-1.31 10.63,-3.92 3.95,-2.61 7.42,-5.63 10.4,-9.06 -3.88,0.3 -7.12,-0.37 -9.73,-2.01 -2.61,-1.64 -3.99,-4.85 -4.14,-9.62 -0.3,-2.68 0.22,-5.26 1.57,-7.72 1.34,-2.46 3.09,-4.55 5.26,-6.26 2.16,-1.72 4.55,-2.95 7.16,-3.69 2.61,-0.75 5,-0.78 7.16,-0.11 2.16,0.67 3.91,2.2 5.26,4.59 1.34,2.39 1.86,5.82 1.57,10.29 -0.15,2.09 -0.6,4.18 -1.34,6.26 3.43,-1.64 6.71,-3.62 9.84,-5.93 3.13,-2.31 5.82,-4.73 8.05,-7.27l2.91 0.67c-0.6,1.49 -1.68,3.09 -3.24,4.81 -1.57,1.72 -3.43,3.39 -5.59,5.03 -2.16,1.64 -4.51,3.21 -7.05,4.7 -2.54,1.49 -5.15,2.76 -7.83,3.8 -1.79,2.68 -3.95,5.11 -6.49,7.27 -2.54,2.16 -5.29,4.06 -8.28,5.7 -2.98,1.64 -6.08,2.98 -9.28,4.03 -3.21,1.04 -6.3,1.72 -9.28,2.01 -8.65,0.9 -12.97,-3.43 -12.97,-12.97 0,-4.03 0.74,-8.5 2.24,-13.42 1.49,-4.92 3.39,-9.88 5.7,-14.88 2.31,-5 4.81,-9.77 7.49,-14.32 2.68,-4.55 5.22,-8.39 7.61,-11.52 0.6,-0.74 1.42,-1.04 2.46,-0.89 1.04,0.15 2.09,0.56 3.13,1.23 1.04,0.67 1.9,1.49 2.57,2.46 0.67,0.97 1.01,1.83 1.01,2.57 0,0.9 -0.3,1.72 -0.9,2.46 -0.45,0.75 -1.3,2.05 -2.57,3.91 -1.27,1.86 -2.61,3.88 -4.03,6.04 -1.42,2.16 -2.76,4.21 -4.03,6.15 -1.27,1.94 -2.13,3.21 -2.57,3.8zm23.71 15.21c1.64,-3.28 2.35,-5.89 2.13,-7.83 -0.22,-1.94 -1.01,-3.39 -2.35,-4.36 -1.34,-0.97 -2.98,-1.38 -4.92,-1.23 -1.94,0.15 -3.73,0.71 -5.37,1.68 -1.64,0.97 -2.91,2.31 -3.8,4.03 -0.9,1.71 -0.9,3.77 0,6.15 0.74,2.39 2.27,3.88 4.59,4.47 2.31,0.6 5.03,0.52 8.17,-0.22 0.3,-0.45 0.56,-0.9 0.78,-1.34 0.22,-0.45 0.48,-0.9 0.78,-1.34z"/>
   <path id="_8" class="fil0" d="M697.92 94.18c0,1.04 -0.45,2.31 -1.34,3.8 -10.14,16.85 -20.65,25.28 -31.54,25.28 -8.5,0 -12.75,-5.37 -12.75,-16.11 0,-9.54 2.16,-17.97 6.49,-25.28 -10.44,9.39 -21.1,22.37 -31.99,38.92 -0.9,1.34 -1.57,2.01 -2.01,2.01 -1.34,0 -2.01,-1.34 -2.01,-4.03 0,-0.75 0.15,-1.34 0.45,-1.79 3.13,-7.61 6.41,-18.42 9.84,-32.44 0.45,-2.39 1.19,-5.89 2.24,-10.51 0.45,-1.04 1.49,-2.09 3.13,-3.13 1.64,-1.04 3.13,-1.57 4.47,-1.57 1.04,0 1.57,0.45 1.57,1.34 0,1.49 -3.5,12.83 -10.51,34 1.79,-2.39 7.38,-8.72 16.78,-19.01 3.13,-3.58 7.75,-8.65 13.87,-15.21 1.19,-1.04 2.39,-1.57 3.58,-1.57 3.43,0 5.15,1.72 5.15,5.15 0,0.75 -0.3,1.64 -0.9,2.68 -8.35,13.72 -12.53,24.61 -12.53,32.66 0,5.67 2.68,8.5 8.05,8.5 4.18,0 8.65,-2.16 13.42,-6.49 3.13,-2.68 6.64,-6.71 10.51,-12.08 3.13,-4.32 4.92,-6.49 5.37,-6.49 0.45,0 0.67,0.45 0.67,1.34z"/>
   <path id="_9" class="fil0" d="M748.47 96.64c0,0.3 -0.15,0.6 -0.45,0.9 -2.09,3.58 -5.26,6.64 -9.51,9.17 -4.25,2.54 -8.39,3.8 -12.42,3.8 -2.98,0 -5.74,-0.75 -8.28,-2.24 -6.86,10.89 -13.94,16.33 -21.25,16.33 -5.22,0 -7.83,-3.06 -7.83,-9.17 0,-8.5 3.73,-18.49 11.19,-29.98 -0.3,-1.64 -0.45,-3.28 -0.45,-4.92 0,-5.37 1.79,-10.59 5.37,-15.66 3.58,-5.07 7.98,-7.61 13.2,-7.61 3.43,0 6.19,2.01 8.28,6.04 1.64,3.43 2.46,7.01 2.46,10.74 0,8.05 -3.13,18.27 -9.4,30.65 2.24,1.34 4.77,2.01 7.61,2.01 4.92,0 9.54,-1.94 13.87,-5.82 4.32,-3.88 6.34,-5.82 6.04,-5.82 1.04,0 1.57,0.52 1.57,1.57zm-26.4 -17c0,-3.28 -0.52,-6.64 -1.57,-10.07 -1.49,-4.77 -3.43,-7.16 -5.82,-7.16 -3.43,0 -6.11,2.09 -8.05,6.26 -1.49,3.28 -2.16,6.86 -2.01,10.74 2.39,-2.83 4.77,-4.25 7.16,-4.25 2.24,0 3.88,0.75 4.92,2.24 0,0.15 0,0.52 0,1.12 0.15,0.45 0.22,0.82 0.22,1.12 0,0.45 -0.74,0.67 -2.24,0.67 -2.68,0 -5.52,2.83 -8.5,8.5 1.94,5.67 5.37,10.29 10.29,13.87 3.73,-9.4 5.59,-17.08 5.59,-23.04zm-7.38 26.17c-4.92,-3.28 -8.65,-7.08 -11.19,-11.41 -4.47,9.4 -6.71,16.18 -6.71,20.36 0,2.98 1.12,4.47 3.36,4.47 2.09,0 4.85,-1.79 8.28,-5.37 2.98,-2.83 5.07,-5.52 6.26,-8.05z"/>
   <path id="_10" class="fil0" d="M788.29 81.43c-2.98,6.26 -6.19,12.49 -9.62,18.68 -3.43,6.19 -6.64,10.78 -9.62,13.76 -4.18,4.03 -8.13,6.64 -11.86,7.83 -3.73,1.19 -6.86,1.16 -9.39,-0.11 -2.54,-1.27 -4.36,-3.73 -5.48,-7.38 -1.12,-3.65 -1.16,-8.39 -0.11,-14.21 0.45,-2.83 1.27,-4.77 2.46,-5.82 1.19,-1.04 2.46,-1.57 3.8,-1.57 1.34,0 2.54,0.41 3.58,1.23 1.04,0.82 1.72,1.75 2.01,2.8 -2.39,6.11 -3.54,11.04 -3.47,14.76 0.08,3.73 1.12,5.97 3.13,6.71 2.01,0.75 4.81,-0.11 8.39,-2.57 3.58,-2.46 7.61,-6.82 12.08,-13.09 1.64,-2.24 3.54,-5.37 5.7,-9.4 2.16,-4.03 4.36,-9.84 6.6,-17.45 5.52,-2.83 9.47,-4.21 11.86,-4.14 2.39,0.07 3.69,1.04 3.92,2.91 0.22,1.86 -0.34,4.4 -1.68,7.61 -1.34,3.21 -2.83,6.56 -4.47,10.07 -1.64,3.5 -3.17,6.86 -4.59,10.07 -1.42,3.21 -2.13,5.78 -2.13,7.72 0.45,-0.6 1.27,-1.68 2.46,-3.24 1.19,-1.57 2.68,-3.43 4.47,-5.59 1.79,-2.16 3.77,-4.51 5.93,-7.05 2.16,-2.54 4.44,-5.07 6.82,-7.61 2.98,-3.43 7.61,-8.5 13.87,-15.21 0.6,-0.6 1.27,-1.12 2.01,-1.57 0.75,-0.45 1.42,-0.67 2.01,-0.67 3.43,0 5.15,1.72 5.15,5.15 0,0.75 -0.3,1.64 -0.9,2.68 -8.35,13.72 -12.53,24.61 -12.53,32.66 0,5.67 2.68,8.5 8.05,8.5 4.18,0 8.65,-2.16 13.42,-6.49 3.28,-2.83 6.79,-6.86 10.51,-12.08 3.13,-4.32 4.92,-6.49 5.37,-6.49 0.45,0 0.67,0.45 0.67,1.34 0,1.04 -0.45,2.31 -1.34,3.8 -10.14,16.85 -20.65,25.28 -31.54,25.28 -8.5,0 -12.75,-5.37 -12.75,-16.11 0,-4.77 0.48,-9.13 1.45,-13.09 0.97,-3.95 2.5,-7.79 4.59,-11.52 -2.98,2.83 -5.7,5.67 -8.16,8.5 -2.46,2.83 -5.26,6.19 -8.39,10.07 -1.34,1.79 -2.68,3.65 -4.03,5.59 -1.34,1.94 -2.68,3.65 -4.03,5.14 -1.34,1.49 -2.68,2.61 -4.03,3.36 -1.34,0.75 -2.76,0.67 -4.25,-0.22 -1.64,-1.04 -2.13,-3.28 -1.45,-6.71 0.67,-3.43 1.72,-7.08 3.13,-10.96 1.42,-3.88 2.8,-7.38 4.14,-10.51 1.34,-3.13 1.79,-4.92 1.34,-5.37 0,-0.75 -0.52,-1.12 -1.57,-1.12 -1.04,0 -1.57,0.37 -1.57,1.12z"/>
   <path id="_11" class="fil0" d="M906.85 96.64c0,0.3 -0.15,0.6 -0.45,0.9 -2.09,3.58 -5.26,6.64 -9.51,9.17 -4.25,2.54 -8.39,3.8 -12.42,3.8 -2.98,0 -5.74,-0.75 -8.28,-2.24 -6.86,10.89 -13.94,16.33 -21.25,16.33 -5.22,0 -7.83,-3.06 -7.83,-9.17 0,-8.5 3.73,-18.49 11.19,-29.98 -0.3,-1.64 -0.45,-3.28 -0.45,-4.92 0,-5.37 1.79,-10.59 5.37,-15.66 3.58,-5.07 7.98,-7.61 13.2,-7.61 3.43,0 6.19,2.01 8.28,6.04 1.64,3.43 2.46,7.01 2.46,10.74 0,8.05 -3.13,18.27 -9.4,30.65 2.24,1.34 4.77,2.01 7.61,2.01 4.92,0 9.54,-1.94 13.87,-5.82 4.32,-3.88 6.34,-5.82 6.04,-5.82 1.04,0 1.57,0.52 1.57,1.57zm-26.4 -17c0,-3.28 -0.52,-6.64 -1.57,-10.07 -1.49,-4.77 -3.43,-7.16 -5.82,-7.16 -3.43,0 -6.11,2.09 -8.05,6.26 -1.49,3.28 -2.16,6.86 -2.01,10.74 2.39,-2.83 4.77,-4.25 7.16,-4.25 2.24,0 3.88,0.75 4.92,2.24 0,0.15 0,0.52 0,1.12 0.15,0.45 0.22,0.82 0.22,1.12 0,0.45 -0.74,0.67 -2.24,0.67 -2.68,0 -5.52,2.83 -8.5,8.5 1.94,5.67 5.37,10.29 10.29,13.87 3.73,-9.4 5.59,-17.08 5.59,-23.04zm-7.38 26.17c-4.92,-3.28 -8.65,-7.08 -11.19,-11.41 -4.47,9.4 -6.71,16.18 -6.71,20.36 0,2.98 1.12,4.47 3.36,4.47 2.09,0 4.85,-1.79 8.28,-5.37 2.98,-2.83 5.07,-5.52 6.26,-8.05z"/>
   <path id="_12" class="fil0" d="M937.05 89.03c-2.24,1.79 -4.1,3.8 -5.59,6.04 -1.49,2.24 -2.65,4.47 -3.47,6.71 -0.82,2.24 -1.38,4.33 -1.68,6.26 -0.3,1.94 -0.45,3.58 -0.45,4.92 0,5.07 2.46,7.46 7.38,7.16 2.09,-0.15 3.8,-0.52 5.15,-1.12 1.34,-0.6 3.28,-2.16 5.82,-4.7l17.9 -23.94c1.64,0.75 2.24,1.42 1.79,2.01 -0.45,0.6 -1.27,1.49 -2.46,2.68 -5.67,9.25 -10.89,16.44 -15.66,21.59 -4.77,5.15 -9.99,7.87 -15.66,8.17 -3.58,-0.15 -6.97,-0.97 -10.18,-2.46 -3.21,-1.49 -5.18,-4.1 -5.93,-7.83 -0.6,-2.24 -0.37,-4.51 0.67,-6.82 1.04,-2.31 2.57,-4.7 4.59,-7.16 2.01,-2.46 4.44,-5.11 7.27,-7.94 2.83,-2.83 5.74,-5.97 8.72,-9.39 2.39,-1.94 3.54,-3.92 3.47,-5.93 -0.08,-2.01 -0.93,-3.54 -2.57,-4.59 -1.64,-1.04 -3.77,-1.34 -6.38,-0.9 -2.61,0.45 -5.18,2.09 -7.72,4.92 -1.34,1.49 -2.5,2.83 -3.47,4.03 -0.97,1.19 -1.83,2.39 -2.57,3.58 -0.75,1.19 -1.49,2.42 -2.24,3.69 -0.75,1.27 -1.64,2.72 -2.68,4.36 -5.37,8.2 -8.87,12.3 -10.51,12.3 -0.6,0 -0.97,-0.3 -1.12,-0.89 0.15,-0.15 0.3,-0.41 0.45,-0.78 0.15,-0.37 0.37,-0.93 0.67,-1.68 1.79,-2.24 3.58,-4.81 5.37,-7.72 1.79,-2.91 3.73,-5.89 5.82,-8.95 2.09,-3.06 4.44,-6.04 7.05,-8.95 2.61,-2.91 5.63,-5.48 9.06,-7.72 5.52,-1.94 10.03,-2.83 13.53,-2.68 3.5,0.15 5.74,1.19 6.71,3.13 0.97,1.94 0.56,4.66 -1.23,8.16 -1.79,3.51 -5.07,7.64 -9.84,12.42z"/>
   <path id="_13" class="fil0" d="M1028.77 95.75c0,0.75 -0.45,1.79 -1.34,3.13 -6.56,10.59 -12.75,17.37 -18.57,20.36 -2.68,1.34 -5.37,2.01 -8.05,2.01 -9.1,0 -13.65,-6.41 -13.65,-19.24 0,-2.09 0.15,-4.32 0.45,-6.71 -9.99,17.75 -18.87,26.62 -26.62,26.62 -4.62,0 -6.93,-2.54 -6.93,-7.61 0,-7.75 3.73,-17.11 11.19,-28.07 7.46,-10.96 14.69,-17.63 21.7,-20.02 2.54,-1.04 5,-1.57 7.38,-1.57 5.37,0 9.25,1.86 11.63,5.59 0.45,0.75 0.67,1.27 0.67,1.57 0,0.15 -0.52,0.37 -1.57,0.67 -1.04,0.3 -1.79,0.82 -2.24,1.57 -3.58,5.82 -5.37,14.54 -5.37,26.17 0,10.74 2.31,16.11 6.93,16.11 3.28,0 7.94,-3.62 13.98,-10.85 6.04,-7.23 9.28,-10.85 9.73,-10.85 0.45,0 0.67,0.37 0.67,1.12zm-32.88 -23.49c-0.6,-0.15 -1.27,-0.22 -2.01,-0.22 -5.97,0 -12.16,3.8 -18.57,11.41 -9.1,11.04 -13.65,20.06 -13.65,27.07 0,3.13 1.04,4.7 3.13,4.7 3.28,0 7.53,-3.43 12.75,-10.29 7.31,-9.25 13.42,-20.13 18.34,-32.66z"/>
   <path id="_14" class="fil0" d="M1114.67 96.19c0,0.6 -0.15,1.04 -0.45,1.34 -3.73,5.22 -7.9,10.07 -12.53,14.54 -6.41,5.97 -11.78,8.95 -16.11,8.95 -7.01,0 -10.51,-7.75 -10.51,-23.27 0,-2.39 0.07,-5.07 0.22,-8.05 -5.37,4.77 -11.41,13.35 -18.12,25.73 -2.24,4.18 -4.7,6.26 -7.38,6.26 -0.89,0 -1.57,-0.3 -2.01,-0.9 -0.45,-1.64 -0.67,-3.73 -0.67,-6.26 0,-4.32 0.97,-12.23 2.91,-23.71 1.04,-5.82 1.57,-9.54 1.57,-11.19 0,-1.19 -0.22,-1.79 -0.67,-1.79 -2.54,2.24 -6.64,7.08 -12.3,14.54 -6.11,8.05 -12.68,17.52 -19.69,28.41 -0.9,1.34 -1.64,2.01 -2.24,2.01 -1.19,0 -1.79,-1.34 -1.79,-4.03 0,-0.75 0.07,-1.34 0.22,-1.79 3.43,-8.05 6.93,-19.39 10.51,-34 0.3,-2.09 0.89,-5.07 1.79,-8.95 0.3,-1.04 1.31,-2.09 3.02,-3.13 1.72,-1.04 3.17,-1.57 4.36,-1.57 1.04,0 1.57,0.45 1.57,1.34 0,1.49 -3.51,12.83 -10.51,34 5.37,-7.16 10.89,-14.54 16.55,-22.15 1.79,-2.39 4.47,-5.97 8.05,-10.74 2.24,-2.68 4.55,-4.03 6.93,-4.03 2.39,0 3.58,1.34 3.58,4.03 0,1.94 -0.52,5.78 -1.57,11.52 -1.04,5.74 -2.24,14.13 -3.58,25.17 4.18,-5.97 10.66,-14.69 19.46,-26.17 2.39,-2.83 4.77,-4.25 7.16,-4.25 2.24,0 3.36,1.42 3.36,4.25 0,2.39 -0.37,5.93 -1.12,10.63 -0.75,4.7 -1.12,8.24 -1.12,10.63 0,7.76 2.01,11.63 6.04,11.63 5.67,0 12.9,-6.26 21.7,-18.79 0.9,-1.49 1.64,-2.24 2.24,-2.24 0.75,0 1.12,0.67 1.12,2.01zm-22.59 -41.61c-18.79,-4.47 -32.59,-4.25 -41.38,0.67 -1.64,0.9 -2.98,2.31 -4.03,4.25 -0.45,1.04 -0.67,2.46 -0.67,4.25 0,1.79 -0.22,3.13 -0.67,4.03l-0.89 0.67c-1.49,1.04 -2.13,-0.04 -1.9,-3.24 0.22,-3.21 0.93,-5.93 2.13,-8.16 1.49,-3.43 4.03,-6.04 7.61,-7.83 6.56,-3.88 15.21,-5.37 25.95,-4.47 2.68,0 11.71,1.27 27.07,3.8 9.4,1.64 15.58,1.64 18.57,0 1.79,-1.04 3.06,-2.39 3.8,-4.03 0.9,-1.94 1.08,-3.73 0.56,-5.37 -0.52,-1.64 -0.48,-3.06 0.11,-4.25 0.3,-0.15 0.45,-0.22 0.45,-0.22 1.19,-0.75 1.75,0.75 1.68,4.47 -0.08,3.73 -0.56,6.49 -1.45,8.28 -2.24,4.32 -4.62,7.31 -7.16,8.95 -3.73,2.09 -9.62,2.46 -17.67,1.12 -0.9,-0.45 -2.68,-0.82 -5.37,-1.12 -1.19,0 -3.43,-0.6 -6.71,-1.79z"/>
   <path id="_15" class="fil0" d="M1124.74 84.56c-2.54,5.07 -4.85,10.29 -6.93,15.66 -2.09,5.37 -3.13,9.47 -3.13,12.3 0,5.22 2.46,7.83 7.38,7.83 3.13,0 6.67,-1.31 10.63,-3.92 3.95,-2.61 7.42,-5.63 10.4,-9.06 -3.88,0.3 -7.12,-0.37 -9.73,-2.01 -2.61,-1.64 -3.99,-4.85 -4.14,-9.62 -0.3,-2.68 0.22,-5.26 1.57,-7.72 1.34,-2.46 3.09,-4.55 5.26,-6.26 2.16,-1.72 4.55,-2.95 7.16,-3.69 2.61,-0.75 5,-0.78 7.16,-0.11 2.16,0.67 3.91,2.2 5.26,4.59 1.34,2.39 1.86,5.82 1.57,10.29 -0.15,2.09 -0.6,4.18 -1.34,6.26 3.43,-1.64 6.71,-3.62 9.84,-5.93 3.13,-2.31 5.82,-4.73 8.05,-7.27l2.91 0.67c-0.6,1.49 -1.68,3.09 -3.24,4.81 -1.57,1.72 -3.43,3.39 -5.59,5.03 -2.16,1.64 -4.51,3.21 -7.05,4.7 -2.54,1.49 -5.15,2.76 -7.83,3.8 -1.79,2.68 -3.95,5.11 -6.49,7.27 -2.54,2.16 -5.29,4.06 -8.28,5.7 -2.98,1.64 -6.08,2.98 -9.28,4.03 -3.21,1.04 -6.3,1.72 -9.28,2.01 -8.65,0.9 -12.97,-3.43 -12.97,-12.97 0,-4.03 0.74,-8.5 2.24,-13.42 1.49,-4.92 3.39,-9.88 5.7,-14.88 2.31,-5 4.81,-9.77 7.49,-14.32 2.68,-4.55 5.22,-8.39 7.61,-11.52 0.6,-0.74 1.42,-1.04 2.46,-0.89 1.04,0.15 2.09,0.56 3.13,1.23 1.04,0.67 1.9,1.49 2.57,2.46 0.67,0.97 1.01,1.83 1.01,2.57 0,0.9 -0.3,1.72 -0.9,2.46 -0.45,0.75 -1.3,2.05 -2.57,3.91 -1.27,1.86 -2.61,3.88 -4.03,6.04 -1.42,2.16 -2.76,4.21 -4.03,6.15 -1.27,1.94 -2.13,3.21 -2.57,3.8zm23.71 15.21c1.64,-3.28 2.35,-5.89 2.13,-7.83 -0.22,-1.94 -1.01,-3.39 -2.35,-4.36 -1.34,-0.97 -2.98,-1.38 -4.92,-1.23 -1.94,0.15 -3.73,0.71 -5.37,1.68 -1.64,0.97 -2.91,2.31 -3.8,4.03 -0.9,1.71 -0.9,3.77 0,6.15 0.74,2.39 2.27,3.88 4.59,4.47 2.31,0.6 5.03,0.52 8.17,-0.22 0.3,-0.45 0.56,-0.9 0.78,-1.34 0.22,-0.45 0.48,-0.9 0.78,-1.34z"/>
   <path class="fil0" d="M427.46 200.56c0,0.6 -0.67,1.12 -2.01,1.57 -1.34,0.45 -2.24,1.12 -2.68,2.01 -0.75,3.28 -1.57,7.08 -2.46,11.41 -1.79,7.61 -4.4,19.01 -7.83,34.23l0.89 0c7.9,-0.3 11.86,1.42 11.86,5.15 0,0.89 -0.3,1.34 -0.9,1.34 -0.15,0 -0.78,-0.37 -1.9,-1.12 -1.12,-0.75 -3.24,-1.12 -6.38,-1.12 -1.49,0 -2.98,0.07 -4.47,0.22 -5.52,22.37 -12.6,39.74 -21.25,52.12 -16.11,23.56 -33.26,35.35 -51.45,35.35 -7.16,0 -13.16,-2.09 -18.01,-6.26 -4.85,-4.18 -7.27,-9.77 -7.27,-16.78 0,-15.96 11.33,-31.24 34,-45.86 19.24,-12.38 37.88,-19.98 55.93,-22.82 1.04,-5.67 2.76,-14.24 5.15,-25.73 -9.99,17.75 -18.87,26.62 -26.62,26.62 -4.62,0 -6.93,-2.54 -6.93,-7.61 0,-7.61 3.73,-16.93 11.19,-27.96 7.46,-11.04 14.69,-17.75 21.7,-20.13 2.68,-1.04 5.15,-1.57 7.38,-1.57 2.09,0 4.62,0.71 7.61,2.13 2.98,1.42 4.47,3.02 4.47,4.81zm-10.51 0.67c-0.6,-0.15 -1.27,-0.22 -2.01,-0.22 -5.97,0 -12.15,3.8 -18.57,11.41 -9.1,11.04 -13.65,20.06 -13.65,27.07 0,3.13 1.04,4.7 3.13,4.7 3.28,0 7.53,-3.43 12.75,-10.29 7.31,-9.25 13.42,-20.13 18.34,-32.66zm-13.65 52.79c-9.84,1.64 -21.55,5.89 -35.12,12.75 -13.57,6.86 -24.01,13.72 -31.32,20.58 -11.19,10.74 -16.78,21.4 -16.78,31.99 0,5.82 1.83,10.48 5.48,13.98 3.65,3.51 8.39,5.26 14.21,5.26 9.25,0 18.34,-3.88 27.29,-11.63 7.16,-6.11 13.5,-13.94 19.01,-23.49 7.9,-13.42 13.65,-29.9 17.23,-49.44z"/>
   <path id="_1_129" class="fil0" d="M516.72 223.16c0,1.04 -0.45,2.31 -1.34,3.8 -3.88,6.41 -10.29,12.83 -19.24,19.24 -9.54,7.16 -17.6,10.74 -24.16,10.74 -1.34,0 -3.36,-0.07 -6.04,-0.22 -2.54,0 -4.47,0 -5.82,0 -0.6,0 -2.83,-0.52 -6.71,-1.57 -4.62,11.93 -10.89,24.46 -18.79,37.58 -11.19,18.19 -20.28,27.29 -27.29,27.29 -3.73,0 -5.59,-2.76 -5.59,-8.28 0,-7.31 6.71,-20.88 20.13,-40.71 9.54,-13.12 19.16,-26.32 28.86,-39.59l0 -1.34c0,-5.37 -0.08,-10.07 -0.22,-14.09 -5.67,9.25 -9.25,13.87 -10.74,13.87 -0.9,0 -1.34,-0.52 -1.34,-1.57 0,-0.6 0.22,-1.19 0.67,-1.79 6.56,-9.25 9.84,-17.52 9.84,-24.83 0,-1.49 -0.41,-2.72 -1.23,-3.69 -0.82,-0.97 -1.23,-1.75 -1.23,-2.35 0,-0.6 2.31,-0.9 6.93,-0.9 5.07,0 7.61,5.07 7.61,15.21 0,1.49 -0.11,3.69 -0.33,6.6 -0.22,2.91 -0.34,5.03 -0.34,6.38 4.18,-7.61 8.8,-14.62 13.87,-21.03 7.75,-9.54 14.24,-14.32 19.46,-14.32 4.77,0 7.16,3.5 7.16,10.51 0,8.8 -3.09,19.01 -9.28,30.65 -6.19,11.63 -12.94,19.76 -20.24,24.38 12.97,-0.3 27.37,-10.36 43.17,-30.2 0.6,-0.74 1.04,-1.12 1.34,-1.12 0.6,0 0.9,0.45 0.9,1.34zm-25.73 -20.36c0,-4.62 -1.27,-6.93 -3.8,-6.93 -0.74,0 -1.49,0.15 -2.24,0.45 -5.37,2.39 -11.04,9.32 -17,20.8 -4.47,8.5 -8.05,17.23 -10.74,26.17 1.49,2.24 4.1,5.07 7.83,8.5 6.56,-2.83 12.6,-9.92 18.12,-21.25 5.22,-10.74 7.83,-19.98 7.83,-27.74zm-42.28 40.71c-0.15,-0.15 -0.3,-0.22 -0.45,-0.22 -0.6,0 -1.42,0.75 -2.46,2.24 -3.58,5.37 -8.95,13.27 -16.11,23.71 -3.13,4.47 -7.08,11.26 -11.86,20.36 -5.52,10.59 -8.28,17.45 -8.28,20.58 0,1.34 0.45,2.01 1.34,2.01 6.56,0 15.58,-10.74 27.07,-32.21 2.98,-5.67 6.19,-15.44 9.62,-29.3 -0.15,-0.75 -0.22,-1.49 -0.22,-2.24 0,-1.79 0.45,-3.43 1.34,-4.92z"/>
   <path id="_2_130" class="fil0" d="M561.23 254.92c0,0.89 -0.22,1.34 -0.67,1.34 -0.15,0 -0.82,-0.37 -2.01,-1.12 -1.19,-0.75 -3.36,-1.12 -6.49,-1.12 -1.49,0 -2.91,0.07 -4.25,0.22 -5.67,22.37 -12.75,39.74 -21.25,52.12 -16.11,23.56 -33.33,35.35 -51.68,35.35 -7.16,0 -13.16,-2.09 -18.01,-6.26 -4.85,-4.18 -7.27,-9.77 -7.27,-16.78 0,-15.96 11.41,-31.24 34.23,-45.86 19.09,-12.38 37.66,-19.98 55.7,-22.82 2.09,-9.25 4.47,-22.97 7.16,-41.16 -1.79,4.33 -5,10.03 -9.62,17.11 -4.62,7.08 -8.57,12.34 -11.86,15.77 -3.88,4.03 -7.53,6.04 -10.96,6.04 -4.77,0 -7.16,-4.18 -7.16,-12.53 0,-4.77 1.49,-10.51 4.47,-17.22 3.43,-7.75 7.23,-11.63 11.41,-11.63 2.09,0 3.13,0.6 3.13,1.79 0,0.15 -1.86,3.54 -5.59,10.18 -3.73,6.64 -5.59,11.74 -5.59,15.32 0,4.77 1.34,7.16 4.03,7.16 4.62,0 14.69,-14.99 30.2,-44.96 0.3,-2.24 2.16,-3.36 5.59,-3.36 2.68,0 4.03,0.6 4.03,1.79 0,1.94 -0.97,8.28 -2.91,19.01 -2.24,12.68 -4.7,24.83 -7.38,36.46l0.89 0c7.9,-0.3 11.86,1.42 11.86,5.15zm-21.92 -0.9c-9.84,1.64 -21.55,5.89 -35.12,12.75 -13.57,6.86 -23.94,13.72 -31.09,20.58 -11.33,10.74 -17,21.4 -17,31.99 0,5.82 1.83,10.48 5.48,13.98 3.65,3.51 8.46,5.26 14.43,5.26 9.1,0 18.12,-3.88 27.07,-11.63 7.16,-6.11 13.5,-13.94 19.01,-23.49 7.9,-13.42 13.65,-29.9 17.22,-49.44z"/>
   <path id="_3_131" class="fil0" d="M607.54 218.01c-2.24,1.79 -4.1,3.8 -5.59,6.04 -1.49,2.24 -2.65,4.47 -3.47,6.71 -0.82,2.24 -1.38,4.33 -1.68,6.26 -0.3,1.94 -0.45,3.58 -0.45,4.92 0,5.07 2.46,7.46 7.38,7.16 2.09,-0.15 3.8,-0.52 5.15,-1.12 1.34,-0.6 3.28,-2.16 5.82,-4.7l17.9 -23.94c1.64,0.75 2.24,1.42 1.79,2.01 -0.45,0.6 -1.27,1.49 -2.46,2.68 -5.67,9.25 -10.89,16.44 -15.66,21.59 -4.77,5.15 -9.99,7.87 -15.66,8.17 -3.58,-0.15 -6.97,-0.97 -10.18,-2.46 -3.21,-1.49 -5.18,-4.1 -5.93,-7.83 -0.6,-2.24 -0.37,-4.51 0.67,-6.82 1.04,-2.31 2.57,-4.7 4.59,-7.16 2.01,-2.46 4.44,-5.11 7.27,-7.94 2.83,-2.83 5.74,-5.97 8.72,-9.39 2.39,-1.94 3.54,-3.92 3.47,-5.93 -0.08,-2.01 -0.93,-3.54 -2.57,-4.59 -1.64,-1.04 -3.77,-1.34 -6.38,-0.9 -2.61,0.45 -5.18,2.09 -7.72,4.92 -1.34,1.49 -2.5,2.83 -3.47,4.03 -0.97,1.19 -1.83,2.39 -2.57,3.58 -0.75,1.19 -1.49,2.42 -2.24,3.69 -0.75,1.27 -1.64,2.72 -2.68,4.36 -5.37,8.2 -8.87,12.3 -10.51,12.3 -0.6,0 -0.97,-0.3 -1.12,-0.89 0.15,-0.15 0.3,-0.41 0.45,-0.78 0.15,-0.37 0.37,-0.93 0.67,-1.68 1.79,-2.24 3.58,-4.81 5.37,-7.72 1.79,-2.91 3.73,-5.89 5.82,-8.95 2.09,-3.06 4.44,-6.04 7.05,-8.95 2.61,-2.91 5.63,-5.48 9.06,-7.72 5.52,-1.94 10.03,-2.83 13.53,-2.68 3.5,0.15 5.74,1.19 6.71,3.13 0.97,1.94 0.56,4.66 -1.23,8.16 -1.79,3.51 -5.07,7.64 -9.84,12.42z"/>
   <path id="_4_132" class="fil0" d="M701.27 223.16c0,1.04 -0.45,2.31 -1.34,3.8 -4.18,6.86 -9.02,12.83 -14.54,17.9 -7.16,6.56 -13.87,9.84 -20.13,9.84 -8.35,0 -12.53,-5.22 -12.53,-15.66 0,-2.39 1.12,-7.08 3.36,-14.09 -5.22,7.61 -8.58,12.3 -10.07,14.09 -4.92,5.82 -9.32,8.72 -13.2,8.72 -4.92,0 -7.38,-4.18 -7.38,-12.53 0,-4.77 1.57,-10.51 4.7,-17.22 3.43,-7.75 7.16,-11.63 11.19,-11.63 2.24,0 3.36,0.6 3.36,1.79 0,0.15 -1.9,3.54 -5.7,10.18 -3.8,6.64 -5.7,11.74 -5.7,15.32 0,4.77 1.42,7.16 4.25,7.16 4.77,0 13.35,-10.89 25.73,-32.66 1.04,-2.09 2.61,-5 4.7,-8.72 1.04,-1.19 2.16,-1.79 3.36,-1.79 1.34,0 2.57,0.56 3.69,1.68 1.12,1.12 1.68,2.42 1.68,3.91 0,-0.15 -2.65,4.85 -7.94,14.99 -5.29,10.14 -7.94,17.97 -7.94,23.49 0,5.22 2.46,7.83 7.38,7.83 4.18,0 8.95,-2.39 14.32,-7.16 3.58,-3.13 7.61,-7.61 12.08,-13.42 3.73,-4.77 5.74,-7.16 6.04,-7.16 0.45,0 0.67,0.45 0.67,1.34z"/>
   <path id="_5_133" class="fil0" d="M739.75 210.41c-2.98,6.26 -6.19,12.49 -9.62,18.68 -3.43,6.19 -6.64,10.78 -9.62,13.76 -4.18,4.03 -8.13,6.64 -11.86,7.83 -3.73,1.19 -6.86,1.16 -9.39,-0.11 -2.54,-1.27 -4.36,-3.73 -5.48,-7.38 -1.12,-3.65 -1.16,-8.39 -0.11,-14.21 0.45,-2.83 1.27,-4.77 2.46,-5.82 1.19,-1.04 2.46,-1.57 3.8,-1.57 1.34,0 2.54,0.41 3.58,1.23 1.04,0.82 1.72,1.75 2.01,2.8 -2.39,6.11 -3.54,11.04 -3.47,14.76 0.08,3.73 1.12,5.97 3.13,6.71 2.01,0.75 4.81,-0.11 8.39,-2.57 3.58,-2.46 7.61,-6.82 12.08,-13.09 1.64,-2.24 3.54,-5.37 5.7,-9.4 2.16,-4.03 4.36,-9.84 6.6,-17.45 5.52,-2.83 9.47,-4.21 11.86,-4.14 2.39,0.07 3.69,1.04 3.92,2.91 0.22,1.86 -0.34,4.4 -1.68,7.61 -1.34,3.21 -2.83,6.56 -4.47,10.07 -1.64,3.5 -3.17,6.86 -4.59,10.07 -1.42,3.21 -2.13,5.78 -2.13,7.72 0.45,-0.6 1.27,-1.68 2.46,-3.24 1.19,-1.57 2.68,-3.43 4.47,-5.59 1.79,-2.16 3.77,-4.51 5.93,-7.05 2.16,-2.54 4.44,-5.07 6.82,-7.61 2.98,-3.43 7.61,-8.5 13.87,-15.21 0.6,-0.6 1.27,-1.12 2.01,-1.57 0.75,-0.45 1.42,-0.67 2.01,-0.67 3.43,0 5.15,1.72 5.15,5.15 0,0.75 -0.3,1.64 -0.9,2.68 -8.35,13.72 -12.53,24.61 -12.53,32.66 0,5.67 2.68,8.5 8.05,8.5 4.18,0 8.65,-2.16 13.42,-6.49 3.28,-2.83 6.79,-6.86 10.51,-12.08 3.13,-4.32 4.92,-6.49 5.37,-6.49 0.45,0 0.67,0.45 0.67,1.34 0,1.04 -0.45,2.31 -1.34,3.8 -10.14,16.85 -20.65,25.28 -31.54,25.28 -8.5,0 -12.75,-5.37 -12.75,-16.11 0,-4.77 0.48,-9.13 1.45,-13.09 0.97,-3.95 2.5,-7.79 4.59,-11.52 -2.98,2.83 -5.7,5.67 -8.16,8.5 -2.46,2.83 -5.26,6.19 -8.39,10.07 -1.34,1.79 -2.68,3.65 -4.03,5.59 -1.34,1.94 -2.68,3.65 -4.03,5.14 -1.34,1.49 -2.68,2.61 -4.03,3.36 -1.34,0.75 -2.76,0.67 -4.25,-0.22 -1.64,-1.04 -2.13,-3.28 -1.45,-6.71 0.67,-3.43 1.72,-7.08 3.13,-10.96 1.42,-3.88 2.8,-7.38 4.14,-10.51 1.34,-3.13 1.79,-4.92 1.34,-5.37 0,-0.75 -0.52,-1.12 -1.57,-1.12 -1.04,0 -1.57,0.37 -1.57,1.12z"/>
   <path id="_6_134" class="fil0" d="M874.86 222.71c0,1.04 -1.94,1.64 -5.82,1.79 -2.68,0.15 -6.71,0.37 -12.08,0.67 -4.47,0.6 -11.48,1.27 -21.03,2.01l-1.12 0c-2.98,0.15 -4.47,-0.37 -4.47,-1.57 0,-2.09 2.61,-3.95 7.83,-5.59 2.39,-0.89 5.74,-1.34 10.07,-1.34 5.22,0 12.15,0.6 20.8,1.79 3.88,0.6 5.82,1.34 5.82,2.24z"/>
   <path class="fil0" d="M47.13 433.9c-2.98,6.26 -6.19,12.49 -9.62,18.68 -3.43,6.19 -6.64,10.78 -9.62,13.76 -4.18,4.03 -8.13,6.64 -11.86,7.83 -3.73,1.19 -6.86,1.16 -9.39,-0.11 -2.54,-1.27 -4.36,-3.73 -5.48,-7.38 -1.12,-3.65 -1.16,-8.39 -0.11,-14.21 0.45,-2.83 1.27,-4.77 2.46,-5.82 1.19,-1.04 2.46,-1.57 3.8,-1.57 1.34,0 2.54,0.41 3.58,1.23 1.04,0.82 1.72,1.75 2.01,2.8 -2.39,6.11 -3.54,11.04 -3.47,14.76 0.08,3.73 1.12,5.97 3.13,6.71 2.01,0.75 4.81,-0.11 8.39,-2.57 3.58,-2.46 7.61,-6.82 12.08,-13.09 1.64,-2.24 3.54,-5.37 5.7,-9.4 2.16,-4.03 4.36,-9.84 6.6,-17.45 5.52,-2.83 9.47,-4.21 11.86,-4.14 2.39,0.07 3.69,1.04 3.92,2.91 0.22,1.86 -0.34,4.4 -1.68,7.61 -1.34,3.21 -2.83,6.56 -4.47,10.07 -1.64,3.5 -3.17,6.86 -4.59,10.07 -1.42,3.21 -2.13,5.78 -2.13,7.72 0.45,-0.6 1.27,-1.68 2.46,-3.24 1.19,-1.57 2.68,-3.43 4.47,-5.59 1.79,-2.16 3.77,-4.51 5.93,-7.05 2.16,-2.54 4.44,-5.07 6.82,-7.61 2.98,-3.43 7.61,-8.5 13.87,-15.21 0.6,-0.6 1.27,-1.12 2.01,-1.57 0.75,-0.45 1.42,-0.67 2.01,-0.67 3.43,0 5.15,1.72 5.15,5.15 0,0.75 -0.3,1.64 -0.9,2.68 -8.35,13.72 -12.53,24.61 -12.53,32.66 0,5.67 2.68,8.5 8.05,8.5 4.18,0 8.65,-2.16 13.42,-6.49 3.28,-2.83 6.79,-6.86 10.51,-12.08 3.13,-4.32 4.92,-6.49 5.37,-6.49 0.45,0 0.67,0.45 0.67,1.34 0,1.04 -0.45,2.31 -1.34,3.8 -10.14,16.85 -20.65,25.28 -31.54,25.28 -8.5,0 -12.75,-5.37 -12.75,-16.11 0,-4.77 0.48,-9.13 1.45,-13.09 0.97,-3.95 2.5,-7.79 4.59,-11.52 -2.98,2.83 -5.7,5.67 -8.16,8.5 -2.46,2.83 -5.26,6.19 -8.39,10.07 -1.34,1.79 -2.68,3.65 -4.03,5.59 -1.34,1.94 -2.68,3.65 -4.03,5.14 -1.34,1.49 -2.68,2.61 -4.03,3.36 -1.34,0.75 -2.76,0.67 -4.25,-0.22 -1.64,-1.04 -2.13,-3.28 -1.45,-6.71 0.67,-3.43 1.72,-7.08 3.13,-10.96 1.42,-3.88 2.8,-7.38 4.14,-10.51 1.34,-3.13 1.79,-4.92 1.34,-5.37 0,-0.75 -0.52,-1.12 -1.57,-1.12 -1.04,0 -1.57,0.37 -1.57,1.12z"/>
   <path id="_1_135" class="fil0" d="M165.69 449.11c0,0.3 -0.15,0.6 -0.45,0.9 -2.09,3.58 -5.26,6.64 -9.51,9.17 -4.25,2.54 -8.39,3.8 -12.42,3.8 -2.98,0 -5.74,-0.75 -8.28,-2.24 -6.86,10.89 -13.94,16.33 -21.25,16.33 -5.22,0 -7.83,-3.06 -7.83,-9.17 0,-8.5 3.73,-18.49 11.19,-29.98 -0.3,-1.64 -0.45,-3.28 -0.45,-4.92 0,-5.37 1.79,-10.59 5.37,-15.66 3.58,-5.07 7.98,-7.61 13.2,-7.61 3.43,0 6.19,2.01 8.28,6.04 1.64,3.43 2.46,7.01 2.46,10.74 0,8.05 -3.13,18.27 -9.4,30.65 2.24,1.34 4.77,2.01 7.61,2.01 4.92,0 9.54,-1.94 13.87,-5.82 4.32,-3.88 6.34,-5.82 6.04,-5.82 1.04,0 1.57,0.52 1.57,1.57zm-26.4 -17c0,-3.28 -0.52,-6.64 -1.57,-10.07 -1.49,-4.77 -3.43,-7.16 -5.82,-7.16 -3.43,0 -6.11,2.09 -8.05,6.26 -1.49,3.28 -2.16,6.86 -2.01,10.74 2.39,-2.83 4.77,-4.25 7.16,-4.25 2.24,0 3.88,0.75 4.92,2.24 0,0.15 0,0.52 0,1.12 0.15,0.45 0.22,0.82 0.22,1.12 0,0.45 -0.74,0.67 -2.24,0.67 -2.68,0 -5.52,2.83 -8.5,8.5 1.94,5.67 5.37,10.29 10.29,13.87 3.73,-9.4 5.59,-17.08 5.59,-23.04zm-7.38 26.17c-4.92,-3.28 -8.65,-7.08 -11.19,-11.41 -4.47,9.4 -6.71,16.18 -6.71,20.36 0,2.98 1.12,4.47 3.36,4.47 2.09,0 4.85,-1.79 8.28,-5.37 2.98,-2.83 5.07,-5.52 6.26,-8.05z"/>
   <path id="_2_136" class="fil0" d="M218.26 437.93c3.28,0.3 4.92,2.01 4.92,5.15 0,0.3 -0.3,1.19 -0.9,2.68 -1.64,3.43 -3.17,6.41 -4.59,8.95 -1.42,2.54 -2.13,5.22 -2.13,8.05 0,5.67 2.68,8.5 8.05,8.5 4.18,0 8.65,-2.16 13.42,-6.49 3.28,-2.83 6.79,-6.86 10.51,-12.08 3.13,-4.32 4.92,-6.49 5.37,-6.49 0.45,0 0.67,0.45 0.67,1.34 0,1.04 -0.45,2.31 -1.34,3.8 -10.14,16.85 -20.65,25.28 -31.54,25.28 -8.5,0 -12.75,-5.37 -12.75,-16.11 0,-1.04 0,-2.05 0,-3.02 0,-0.97 0.07,-1.9 0.22,-2.8 0.6,-2.09 1.42,-4.32 2.46,-6.71 -0.9,0.3 -1.79,0.52 -2.68,0.67 -0.9,0.15 -1.72,0.22 -2.46,0.22 -2.54,3.43 -5.07,6.67 -7.61,9.73 -2.54,3.06 -4.18,4.96 -4.92,5.7 -4.18,4.03 -8.28,6.75 -12.3,8.17 -4.03,1.42 -7.53,1.6 -10.51,0.56 -2.98,-1.04 -5.18,-3.28 -6.6,-6.71 -1.42,-3.43 -1.6,-8.05 -0.56,-13.87 0.45,-2.83 1.27,-4.77 2.46,-5.82 1.19,-1.04 2.46,-1.57 3.8,-1.57 1.34,0 2.54,0.41 3.58,1.23 1.04,0.82 1.72,1.75 2.01,2.8 -2.39,6.11 -3.54,11.04 -3.47,14.76 0.07,3.73 1.12,5.97 3.13,6.71 2.01,0.75 4.81,-0.11 8.39,-2.57 3.58,-2.46 7.61,-6.82 12.08,-13.09 0.9,-1.19 2.24,-3.13 4.03,-5.82 -4.47,-0.15 -8.46,-1.19 -11.97,-3.13 -3.5,-1.94 -5.85,-4.44 -7.05,-7.49 -1.19,-3.06 -0.97,-6.34 0.67,-9.84 1.64,-3.5 5.29,-6.9 10.96,-10.18 4.03,-2.24 7.46,-3.39 10.29,-3.47 2.83,-0.07 5.11,0.6 6.82,2.01 1.72,1.42 2.91,3.36 3.58,5.82 0.67,2.46 0.93,5.11 0.78,7.94 -0.15,2.83 -0.67,5.56 -1.57,8.16 -0.9,2.61 -2.16,4.81 -3.8,6.6 0.75,0 1.49,0 2.24,0 0.75,0 1.49,-0.15 2.24,-0.45 2.09,-3.73 3.58,-5.85 4.47,-6.38 0.9,-0.52 1.42,-0.78 1.57,-0.78zm-11.19 -13.2c-6.26,-2.09 -10.78,-2.42 -13.53,-1.01 -2.76,1.42 -4.21,3.51 -4.36,6.26 -0.15,2.76 0.93,5.67 3.24,8.72 2.31,3.06 5.48,5.11 9.51,6.15 1.34,-2.09 2.57,-4.25 3.69,-6.49 1.12,-2.24 1.94,-4.29 2.46,-6.15 0.52,-1.86 0.75,-3.51 0.67,-4.92 -0.07,-1.42 -0.63,-2.27 -1.68,-2.57z"/>
   <path id="_3_137" class="fil0" d="M329.66 424.06c0,0.6 -0.67,1.12 -2.01,1.57 -1.34,0.45 -2.24,1.12 -2.68,2.01 -0.75,3.28 -1.57,7.08 -2.46,11.41 -1.79,7.61 -4.4,19.01 -7.83,34.23l0.89 0c7.9,-0.3 11.86,1.42 11.86,5.15 0,0.89 -0.3,1.34 -0.9,1.34 -0.15,0 -0.78,-0.37 -1.9,-1.12 -1.12,-0.75 -3.24,-1.12 -6.38,-1.12 -1.49,0 -2.98,0.07 -4.47,0.22 -5.52,22.37 -12.6,39.74 -21.25,52.12 -16.11,23.56 -33.26,35.35 -51.45,35.35 -7.16,0 -13.16,-2.09 -18.01,-6.26 -4.85,-4.18 -7.27,-9.77 -7.27,-16.78 0,-15.96 11.33,-31.24 34,-45.86 19.24,-12.38 37.88,-19.98 55.93,-22.82 1.04,-5.67 2.76,-14.24 5.15,-25.73 -9.99,17.75 -18.87,26.62 -26.62,26.62 -4.62,0 -6.93,-2.54 -6.93,-7.61 0,-7.61 3.73,-16.93 11.19,-27.96 7.46,-11.04 14.69,-17.75 21.7,-20.13 2.68,-1.04 5.15,-1.57 7.38,-1.57 2.09,0 4.62,0.71 7.61,2.13 2.98,1.42 4.47,3.02 4.47,4.81zm-10.51 0.67c-0.6,-0.15 -1.27,-0.22 -2.01,-0.22 -5.97,0 -12.15,3.8 -18.57,11.41 -9.1,11.04 -13.65,20.06 -13.65,27.07 0,3.13 1.04,4.7 3.13,4.7 3.28,0 7.53,-3.43 12.75,-10.29 7.31,-9.25 13.42,-20.13 18.34,-32.66zm-13.65 52.79c-9.84,1.64 -21.55,5.89 -35.12,12.75 -13.57,6.86 -24.01,13.72 -31.32,20.58 -11.19,10.74 -16.78,21.4 -16.78,31.99 0,5.82 1.83,10.48 5.48,13.98 3.65,3.51 8.39,5.26 14.21,5.26 9.25,0 18.34,-3.88 27.29,-11.63 7.16,-6.11 13.5,-13.94 19.01,-23.49 7.9,-13.42 13.65,-29.9 17.23,-49.44z"/>
   <path id="_4_138" class="fil0" d="M364.78 411.53c-2.54,4.03 -5.11,8.91 -7.72,14.65 -2.61,5.74 -4.66,11.22 -6.15,16.44 3.73,-6.71 8.28,-13.12 13.65,-19.24 7.16,-8.2 13.5,-12.3 19.01,-12.3 4.47,0 6.71,3.21 6.71,9.62 0,9.25 -2.91,19.76 -8.72,31.54 -3.88,8.05 -8.95,15.06 -15.21,21.03 -7.46,7.01 -15.06,10.51 -22.82,10.51 -5.97,0 -8.95,-1.12 -8.95,-3.36 0,-0.89 0.45,-1.34 1.34,-1.34 0.45,0 1.53,0.26 3.24,0.78 1.72,0.52 3.17,0.78 4.36,0.78 6.71,0 13.35,-3.8 19.91,-11.41 4.92,-5.82 8.95,-12.6 12.08,-20.36 2.83,-6.71 4.25,-14.09 4.25,-22.15 0,-4.92 -1.12,-7.38 -3.36,-7.38 -4.92,0 -11.48,6.79 -19.69,20.36 -7.76,12.68 -11.63,22.15 -11.63,28.41 0,1.64 0.56,2.91 1.68,3.8 1.12,0.9 1.68,1.64 1.68,2.24 0,0.6 -0.37,0.89 -1.12,0.89 -5.52,0 -8.28,-4.03 -8.28,-12.08 0,-5.67 1.38,-13.01 4.14,-22.04 2.76,-9.02 6.97,-19.35 12.64,-30.98 4.77,-9.4 13.05,-23.49 24.83,-42.28 18.19,-29.08 33.03,-43.62 44.52,-43.62 6.71,0 10.07,3.06 10.07,9.17 0,10.74 -9.4,25.73 -28.19,44.96 -12.08,12.23 -26.17,23.34 -42.28,33.33zm66.22 -74.27c0,-3.13 -1.27,-4.77 -3.8,-4.92 -3.88,0 -9.92,3.28 -18.12,9.84 -14.47,11.48 -26.92,29.08 -37.36,52.79 -1.64,4.03 -2.83,7.16 -3.58,9.4 10.74,-6.26 23.12,-16.33 37.13,-30.2 16.85,-16.26 25.43,-28.56 25.73,-36.91z"/>
   <path id="_5_139" class="fil0" d="M465.9 446.65c0,1.04 -0.45,2.31 -1.34,3.8 -4.18,6.86 -9.02,12.83 -14.54,17.9 -7.16,6.56 -13.87,9.84 -20.13,9.84 -8.35,0 -12.53,-5.22 -12.53,-15.66 0,-2.39 1.12,-7.08 3.36,-14.09 -5.22,7.61 -8.58,12.3 -10.07,14.09 -4.92,5.82 -9.32,8.72 -13.2,8.72 -4.92,0 -7.38,-4.18 -7.38,-12.53 0,-4.77 1.57,-10.51 4.7,-17.22 3.43,-7.75 7.16,-11.63 11.19,-11.63 2.24,0 3.36,0.6 3.36,1.79 0,0.15 -1.9,3.54 -5.7,10.18 -3.8,6.64 -5.7,11.74 -5.7,15.32 0,4.77 1.42,7.16 4.25,7.16 4.77,0 13.35,-10.89 25.73,-32.66 1.04,-2.09 2.61,-5 4.7,-8.72 1.04,-1.19 2.16,-1.79 3.36,-1.79 1.34,0 2.57,0.56 3.69,1.68 1.12,1.12 1.68,2.42 1.68,3.91 0,-0.15 -2.65,4.85 -7.94,14.99 -5.29,10.14 -7.94,17.97 -7.94,23.49 0,5.22 2.46,7.83 7.38,7.83 4.18,0 8.95,-2.39 14.32,-7.16 3.58,-3.13 7.61,-7.61 12.08,-13.42 3.73,-4.77 5.74,-7.16 6.04,-7.16 0.45,0 0.67,0.45 0.67,1.34z"/>
   <path id="_6_140" class="fil0" d="M459.86 446.43c-1.64,1.79 -2.91,2.68 -3.8,2.68 -0.6,0 -0.9,-0.22 -0.9,-0.67 0,-0.45 0.45,-1.27 1.34,-2.46 1.64,-3.13 3.39,-6.19 5.26,-9.17 1.86,-2.98 3.95,-5.59 6.26,-7.83 2.31,-2.24 4.85,-4.06 7.61,-5.48 2.76,-1.42 5.78,-2.13 9.06,-2.13 11.04,0 16.55,5.89 16.55,17.67 0,2.83 -0.6,5.74 -1.79,8.72l0.89 -0.89c9.25,-6.41 15.21,-13.05 17.9,-19.91 0.45,-1.49 0.45,-2.91 0,-4.25 -0.15,-0.6 -0.3,-1.12 -0.45,-1.57 -0.15,-0.45 -0.07,-0.78 0.22,-1.01 0.3,-0.22 0.9,-0.22 1.79,0 0.9,0.22 2.31,0.78 4.25,1.68 4.03,1.64 4.55,7.08 1.57,16.33 -0.15,0.75 -0.45,1.64 -0.9,2.68 -0.45,1.04 -0.9,2.16 -1.34,3.36 -0.45,1.19 -0.9,2.31 -1.34,3.36 -0.45,1.04 -0.75,1.86 -0.9,2.46 -0.89,2.39 -1.6,4.14 -2.13,5.26 -0.52,1.12 -1.08,2.65 -1.68,4.59 5.67,-4.47 9.62,-7.31 11.86,-8.5 1.64,-5.52 5.37,-11.48 11.19,-17.9 8.35,-8.8 16.03,-13.2 23.04,-13.2 4.77,0 7.16,1.86 7.16,5.59 0,1.49 -1.12,4.1 -3.36,7.83 -2.09,3.58 -3.8,5.37 -5.15,5.37 -0.6,0 -0.89,-0.37 -0.89,-1.12 0,-0.6 0.26,-1.57 0.78,-2.91 0.52,-1.34 0.78,-2.39 0.78,-3.13 0,-3.13 -1.94,-4.7 -5.82,-4.7 -5.37,0 -10.22,3.51 -14.54,10.51 -4.03,6.56 -6.04,12.6 -6.04,18.12 0,9.25 4.03,13.87 12.08,13.87 10.14,0 20.73,-6.93 31.77,-20.8 1.49,-1.79 2.76,-2.68 3.8,-2.68 0.6,0 0.9,0.22 0.9,0.67 0,0.6 -0.45,1.42 -1.34,2.46 -5.07,7.46 -12.3,14.39 -21.7,20.8 -5.52,3.43 -11.19,5.14 -17,5.14 -11.04,0 -16.55,-5.89 -16.55,-17.67 0,-0.6 0,-1.19 0,-1.79 -7.9,5.82 -13.05,11.86 -15.44,18.12 -0.3,0.75 -0.07,1.42 0.67,2.01 0.75,0.6 1.27,1.27 1.57,2.01 0.15,0.6 0.3,1.12 0.45,1.57 0.15,0.45 0.04,0.78 -0.33,1.01 -0.37,0.22 -1.01,0.22 -1.9,0 -0.9,-0.22 -2.24,-0.78 -4.03,-1.68 -4.03,-1.49 -4.55,-6.93 -1.57,-16.33 0.3,-1.34 0.86,-2.95 1.68,-4.81 0.82,-1.86 1.38,-3.39 1.68,-4.59 0.9,-2.39 1.6,-4.55 2.13,-6.49 0.52,-1.94 1.01,-3.88 1.45,-5.82 -8.35,6.71 -13.27,9.84 -14.76,9.4 -0.6,0 -0.97,-0.3 -1.12,-0.89 -1.94,4.47 -5.15,9.1 -9.62,13.87 -8.35,8.8 -16.03,13.2 -23.04,13.2 -4.77,0 -7.16,-1.86 -7.16,-5.59 0,-1.34 1.12,-3.95 3.36,-7.83 1.94,-3.58 3.65,-5.37 5.15,-5.37 0.6,0 0.9,0.37 0.9,1.12 0,0.6 -0.26,1.57 -0.78,2.91 -0.52,1.34 -0.78,2.39 -0.78,3.13 0,3.13 1.94,4.7 5.82,4.7 5.37,0 10.22,-3.5 14.54,-10.51 4.03,-6.41 6.04,-12.45 6.04,-18.12 0,-9.25 -4.03,-13.87 -12.08,-13.87 -2.54,0 -4.73,0.45 -6.6,1.34 -1.86,0.9 -3.58,2.2 -5.15,3.92 -1.57,1.72 -3.06,3.73 -4.47,6.04 -1.42,2.31 -2.95,4.88 -4.59,7.72l-0.45 0.45z"/>
   <path id="_7_141" class="fil0" d="M630.77 478.42c0,0.89 -0.22,1.34 -0.67,1.34 -0.15,0 -0.82,-0.37 -2.01,-1.12 -1.19,-0.75 -3.36,-1.12 -6.49,-1.12 -1.49,0 -2.91,0.07 -4.25,0.22 -5.67,22.37 -12.75,39.74 -21.25,52.12 -16.11,23.56 -33.33,35.35 -51.68,35.35 -7.16,0 -13.16,-2.09 -18.01,-6.26 -4.85,-4.18 -7.27,-9.77 -7.27,-16.78 0,-15.96 11.41,-31.24 34.23,-45.86 19.09,-12.38 37.66,-19.98 55.7,-22.82 2.09,-9.25 4.47,-22.97 7.16,-41.16 -1.79,4.33 -5,10.03 -9.62,17.11 -4.62,7.08 -8.57,12.34 -11.86,15.77 -3.88,4.03 -7.53,6.04 -10.96,6.04 -4.77,0 -7.16,-4.18 -7.16,-12.53 0,-4.77 1.49,-10.51 4.47,-17.22 3.43,-7.75 7.23,-11.63 11.41,-11.63 2.09,0 3.13,0.6 3.13,1.79 0,0.15 -1.86,3.54 -5.59,10.18 -3.73,6.64 -5.59,11.74 -5.59,15.32 0,4.77 1.34,7.16 4.03,7.16 4.62,0 14.69,-14.99 30.2,-44.96 0.3,-2.24 2.16,-3.36 5.59,-3.36 2.68,0 4.03,0.6 4.03,1.79 0,1.94 -0.97,8.28 -2.91,19.01 -2.24,12.68 -4.7,24.83 -7.38,36.46l0.89 0c7.9,-0.3 11.86,1.42 11.86,5.15zm-21.92 -0.9c-9.84,1.64 -21.55,5.89 -35.12,12.75 -13.57,6.86 -23.94,13.72 -31.09,20.58 -11.33,10.74 -17,21.4 -17,31.99 0,5.82 1.83,10.48 5.48,13.98 3.65,3.51 8.46,5.26 14.43,5.26 9.1,0 18.12,-3.88 27.07,-11.63 7.16,-6.11 13.5,-13.94 19.01,-23.49 7.9,-13.42 13.65,-29.9 17.22,-49.44z"/>
   <path id="_8_142" class="fil0" d="M718.46 465.22c-2.98,2.98 -5.74,5 -8.28,6.04 -2.54,1.04 -4.73,1.38 -6.6,1.01 -1.86,-0.37 -3.36,-1.42 -4.47,-3.13 -1.12,-1.71 -1.68,-3.91 -1.68,-6.6 0,-1.19 0.37,-3.02 1.12,-5.48 0.75,-2.46 1.72,-5.41 2.91,-8.84 -2.54,3.88 -4.77,7.01 -6.71,9.4 -1.94,2.39 -3.28,4.03 -4.03,4.92 -4.92,5.82 -9.32,8.72 -13.2,8.72 -4.92,0 -7.38,-4.18 -7.38,-12.53 0,-2.09 0.22,-4.25 0.67,-6.49 -1.79,2.68 -3.28,4.88 -4.47,6.6 -1.19,1.72 -2.16,2.95 -2.91,3.69 -4.92,5.82 -9.32,8.72 -13.2,8.72 -4.92,0 -7.38,-4.18 -7.38,-12.53 0,-4.77 1.57,-10.51 4.7,-17.22 3.28,-7.75 7.01,-11.63 11.19,-11.63 2.24,0 3.36,0.6 3.36,1.79 0,0 -1.94,3.43 -5.82,10.29 -3.73,6.41 -5.59,11.48 -5.59,15.21 0,4.77 1.42,7.16 4.25,7.16 3.88,0 10.37,-7.23 19.46,-21.7 0,-0.15 0.15,-0.52 0.45,-1.12 1.49,-3.58 3.21,-6.49 5.15,-8.72 0.15,-0.3 0.3,-0.52 0.45,-0.67 0.15,-0.15 0.3,-0.37 0.45,-0.67l-0.45 1.12c1.79,-1.79 3.65,-2.68 5.59,-2.68 2.24,0 3.36,0.6 3.36,1.79 0,0 -1.94,3.43 -5.82,10.29 -3.73,6.41 -5.59,11.48 -5.59,15.21 0,4.77 1.42,7.16 4.25,7.16 4.77,0 13.35,-10.89 25.73,-32.66 1.04,-1.94 2.61,-4.85 4.7,-8.72 1.19,-1.19 2.31,-1.79 3.36,-1.79 1.34,0 2.57,0.56 3.69,1.68 1.12,1.12 1.68,2.42 1.68,3.91 0,0 -2.68,5 -8.05,14.99 -5.22,10.14 -7.83,17.82 -7.83,23.04 0,1.64 0.22,2.87 0.67,3.69 0.45,0.82 1.19,1.12 2.24,0.9 1.04,-0.22 2.46,-1.12 4.25,-2.68 1.79,-1.57 4.1,-3.92 6.93,-7.05 0.75,-0.9 1.27,-0.75 1.57,0.45 0.3,1.19 -0.6,2.91 -2.68,5.15zm-37.13 33.56c0.75,-1.64 1.86,-2.46 3.36,-2.46 0,-0.3 1.34,0.48 4.03,2.35 2.68,1.86 5,2.65 6.93,2.35 5.67,-0.3 10.07,-4.03 13.2,-11.19 2.98,-6.71 4.18,-14.02 3.58,-21.92l0.9 -0.9c2.68,-0.15 3.5,3.8 2.46,11.86 -0.75,7.16 -2.16,13.05 -4.25,17.67 -2.98,7.01 -7.83,10.89 -14.54,11.63 -2.54,0 -5.89,-0.89 -10.07,-2.68 -4.77,-2.39 -6.64,-4.62 -5.59,-6.71z"/>
   <path id="_9_143" class="fil0" d="M800.11 448.22c0,0.75 -0.45,1.79 -1.34,3.13 -6.56,10.59 -12.75,17.37 -18.57,20.36 -2.68,1.34 -5.37,2.01 -8.05,2.01 -9.1,0 -13.65,-6.41 -13.65,-19.24 0,-2.09 0.15,-4.32 0.45,-6.71 -9.99,17.75 -18.87,26.62 -26.62,26.62 -4.62,0 -6.93,-2.54 -6.93,-7.61 0,-7.75 3.73,-17.11 11.19,-28.07 7.46,-10.96 14.69,-17.63 21.7,-20.02 2.54,-1.04 5,-1.57 7.38,-1.57 5.37,0 9.25,1.86 11.63,5.59 0.45,0.75 0.67,1.27 0.67,1.57 0,0.15 -0.52,0.37 -1.57,0.67 -1.04,0.3 -1.79,0.82 -2.24,1.57 -3.58,5.82 -5.37,14.54 -5.37,26.17 0,10.74 2.31,16.11 6.93,16.11 3.28,0 7.94,-3.62 13.98,-10.85 6.04,-7.23 9.28,-10.85 9.73,-10.85 0.45,0 0.67,0.37 0.67,1.12zm-32.88 -23.49c-0.6,-0.15 -1.27,-0.22 -2.01,-0.22 -5.97,0 -12.16,3.8 -18.57,11.41 -9.1,11.04 -13.65,20.06 -13.65,27.07 0,3.13 1.04,4.7 3.13,4.7 3.28,0 7.53,-3.43 12.75,-10.29 7.31,-9.25 13.42,-20.13 18.34,-32.66z"/>
   <path id="_10_144" class="fil0" d="M852.68 437.93c3.28,0.3 4.92,2.01 4.92,5.15 0,0.3 -0.3,1.19 -0.9,2.68 -1.64,3.43 -3.17,6.41 -4.59,8.95 -1.42,2.54 -2.13,5.22 -2.13,8.05 0,5.67 2.68,8.5 8.05,8.5 4.18,0 8.65,-2.16 13.42,-6.49 3.28,-2.83 6.79,-6.86 10.51,-12.08 3.13,-4.32 4.92,-6.49 5.37,-6.49 0.45,0 0.67,0.45 0.67,1.34 0,1.04 -0.45,2.31 -1.34,3.8 -10.14,16.85 -20.65,25.28 -31.54,25.28 -8.5,0 -12.75,-5.37 -12.75,-16.11 0,-1.04 0,-2.05 0,-3.02 0,-0.97 0.07,-1.9 0.22,-2.8 0.6,-2.09 1.42,-4.32 2.46,-6.71 -0.9,0.3 -1.79,0.52 -2.68,0.67 -0.9,0.15 -1.72,0.22 -2.46,0.22 -2.54,3.43 -5.07,6.67 -7.61,9.73 -2.54,3.06 -4.18,4.96 -4.92,5.7 -4.18,4.03 -8.28,6.75 -12.3,8.17 -4.03,1.42 -7.53,1.6 -10.51,0.56 -2.98,-1.04 -5.18,-3.28 -6.6,-6.71 -1.42,-3.43 -1.6,-8.05 -0.56,-13.87 0.45,-2.83 1.27,-4.77 2.46,-5.82 1.19,-1.04 2.46,-1.57 3.8,-1.57 1.34,0 2.54,0.41 3.58,1.23 1.04,0.82 1.72,1.75 2.01,2.8 -2.39,6.11 -3.54,11.04 -3.47,14.76 0.07,3.73 1.12,5.97 3.13,6.71 2.01,0.75 4.81,-0.11 8.39,-2.57 3.58,-2.46 7.61,-6.82 12.08,-13.09 0.9,-1.19 2.24,-3.13 4.03,-5.82 -4.47,-0.15 -8.46,-1.19 -11.97,-3.13 -3.5,-1.94 -5.85,-4.44 -7.05,-7.49 -1.19,-3.06 -0.97,-6.34 0.67,-9.84 1.64,-3.5 5.29,-6.9 10.96,-10.18 4.03,-2.24 7.46,-3.39 10.29,-3.47 2.83,-0.07 5.11,0.6 6.82,2.01 1.72,1.42 2.91,3.36 3.58,5.82 0.67,2.46 0.93,5.11 0.78,7.94 -0.15,2.83 -0.67,5.56 -1.57,8.16 -0.9,2.61 -2.16,4.81 -3.8,6.6 0.75,0 1.49,0 2.24,0 0.75,0 1.49,-0.15 2.24,-0.45 2.09,-3.73 3.58,-5.85 4.47,-6.38 0.9,-0.52 1.42,-0.78 1.57,-0.78zm-11.19 -13.2c-6.26,-2.09 -10.78,-2.42 -13.53,-1.01 -2.76,1.42 -4.21,3.51 -4.36,6.26 -0.15,2.76 0.93,5.67 3.24,8.72 2.31,3.06 5.48,5.11 9.51,6.15 1.34,-2.09 2.57,-4.25 3.69,-6.49 1.12,-2.24 1.94,-4.29 2.46,-6.15 0.52,-1.86 0.75,-3.51 0.67,-4.92 -0.07,-1.42 -0.63,-2.27 -1.68,-2.57z"/>
   <path id="_11_145" class="fil0" d="M971.69 446.88c0,0.6 -0.45,1.42 -1.34,2.46 -5.22,7.61 -12.45,14.54 -21.7,20.8 -5.37,3.43 -11.04,5.14 -17,5.14 -11.04,0 -16.55,-5.89 -16.55,-17.67 0,-7.31 4.06,-15.36 12.19,-24.16 8.13,-8.8 15.77,-13.2 22.93,-13.2 4.77,0 7.16,1.86 7.16,5.59 0,1.49 -1.08,4.06 -3.24,7.72 -2.16,3.65 -3.92,5.48 -5.26,5.48 -0.6,0 -0.89,-0.37 -0.89,-1.12 0,-0.6 0.26,-1.57 0.78,-2.91 0.52,-1.34 0.78,-2.39 0.78,-3.13 0,-3.13 -1.94,-4.7 -5.82,-4.7 -5.37,0 -10.22,3.51 -14.54,10.51 -4.03,6.41 -6.04,12.45 -6.04,18.12 0,9.25 4.03,13.87 12.08,13.87 10.14,0 20.73,-6.93 31.77,-20.8 1.49,-1.79 2.76,-2.68 3.8,-2.68 0.6,0 0.9,0.22 0.9,0.67z"/>
   <path id="_12_146" class="fil0" d="M1036.57 446.65c0,1.04 -0.45,2.31 -1.34,3.8 -4.18,6.86 -9.02,12.83 -14.54,17.9 -7.16,6.56 -13.87,9.84 -20.13,9.84 -8.35,0 -12.53,-5.22 -12.53,-15.66 0,-2.39 1.12,-7.08 3.36,-14.09 -5.22,7.61 -8.58,12.3 -10.07,14.09 -4.92,5.82 -9.32,8.72 -13.2,8.72 -4.92,0 -7.38,-4.18 -7.38,-12.53 0,-4.77 1.57,-10.51 4.7,-17.22 3.43,-7.75 7.16,-11.63 11.19,-11.63 2.24,0 3.36,0.6 3.36,1.79 0,0.15 -1.9,3.54 -5.7,10.18 -3.8,6.64 -5.7,11.74 -5.7,15.32 0,4.77 1.42,7.16 4.25,7.16 4.77,0 13.35,-10.89 25.73,-32.66 1.04,-2.09 2.61,-5 4.7,-8.72 1.04,-1.19 2.16,-1.79 3.36,-1.79 1.34,0 2.57,0.56 3.69,1.68 1.12,1.12 1.68,2.42 1.68,3.91 0,-0.15 -2.65,4.85 -7.94,14.99 -5.29,10.14 -7.94,17.97 -7.94,23.49 0,5.22 2.46,7.83 7.38,7.83 4.18,0 8.95,-2.39 14.32,-7.16 3.58,-3.13 7.61,-7.61 12.08,-13.42 3.73,-4.77 5.74,-7.16 6.04,-7.16 0.45,0 0.67,0.45 0.67,1.34z"/>
   <path id="_13_147" class="fil0" d="M1081.08 435.24c-4.92,6.41 -9.62,12.45 -14.09,18.12 -4.47,5.67 -8.2,9.99 -11.19,12.98 -4.18,4.03 -8.13,6.64 -11.86,7.83 -3.73,1.19 -6.86,1.16 -9.39,-0.11 -2.54,-1.27 -4.36,-3.73 -5.48,-7.38 -1.12,-3.65 -1.16,-8.39 -0.11,-14.21 0.45,-2.83 1.27,-4.77 2.46,-5.82 1.19,-1.04 2.46,-1.57 3.8,-1.57 1.34,0 2.54,0.41 3.58,1.23 1.04,0.82 1.72,1.75 2.01,2.8 -2.39,6.11 -3.54,11.04 -3.47,14.76 0.08,3.73 1.12,5.97 3.13,6.71 2.01,0.75 4.81,-0.11 8.39,-2.57 3.58,-2.46 7.61,-6.82 12.08,-13.09 0.9,-1.19 2.57,-3.47 5.03,-6.82 2.46,-3.36 5.85,-7.42 10.18,-12.19 1.49,-1.79 2.91,-3.43 4.25,-4.92 1.34,-1.49 3.5,-3.88 6.49,-7.16 1.04,-1.04 2.24,-1.57 3.58,-1.57 3.43,0 5.15,1.72 5.15,5.15 0,0.74 -0.3,1.64 -0.9,2.68 -8.35,13.72 -12.53,24.61 -12.53,32.66 0,5.67 2.68,8.5 8.05,8.5 4.18,0 8.65,-2.16 13.42,-6.49 3.28,-2.83 6.79,-6.86 10.51,-12.08 3.13,-4.32 4.92,-6.49 5.37,-6.49 0.45,0 0.67,0.45 0.67,1.34 0,1.04 -0.45,2.31 -1.34,3.8 -10.14,16.85 -20.65,25.28 -31.54,25.28 -8.5,0 -12.75,-5.37 -12.75,-16.11 0,-9.4 2.16,-17.82 6.49,-25.28z"/>
   <path id="_14_148" class="fil0" d="M1188.46 448.22c0,0.75 -0.45,1.79 -1.34,3.13 -6.56,10.59 -12.75,17.37 -18.57,20.36 -2.68,1.34 -5.37,2.01 -8.05,2.01 -9.1,0 -13.65,-6.41 -13.65,-19.24 0,-2.09 0.15,-4.32 0.45,-6.71 -9.99,17.75 -18.87,26.62 -26.62,26.62 -4.62,0 -6.93,-2.54 -6.93,-7.61 0,-7.75 3.73,-17.11 11.19,-28.07 7.46,-10.96 14.69,-17.63 21.7,-20.02 2.54,-1.04 5,-1.57 7.38,-1.57 5.37,0 9.25,1.86 11.63,5.59 0.45,0.75 0.67,1.27 0.67,1.57 0,0.15 -0.52,0.37 -1.57,0.67 -1.04,0.3 -1.79,0.82 -2.24,1.57 -3.58,5.82 -5.37,14.54 -5.37,26.17 0,10.74 2.31,16.11 6.93,16.11 3.28,0 7.94,-3.62 13.98,-10.85 6.04,-7.23 9.28,-10.85 9.73,-10.85 0.45,0 0.67,0.37 0.67,1.12zm-32.88 -23.49c-0.6,-0.15 -1.27,-0.22 -2.01,-0.22 -5.97,0 -12.16,3.8 -18.57,11.41 -9.1,11.04 -13.65,20.06 -13.65,27.07 0,3.13 1.04,4.7 3.13,4.7 3.28,0 7.53,-3.43 12.75,-10.29 7.31,-9.25 13.42,-20.13 18.34,-32.66z"/>
   <path class="fil0" d="M360.46 607.19c-2.54,4.03 -5.11,8.91 -7.72,14.65 -2.61,5.74 -4.66,11.22 -6.15,16.44 3.73,-6.71 8.28,-13.12 13.65,-19.24 7.16,-8.2 13.5,-12.3 19.01,-12.3 4.47,0 6.71,3.21 6.71,9.62 0,9.25 -2.91,19.76 -8.72,31.54 -3.88,8.05 -8.95,15.06 -15.21,21.03 -7.46,7.01 -15.06,10.51 -22.82,10.51 -5.97,0 -8.95,-1.12 -8.95,-3.36 0,-0.89 0.45,-1.34 1.34,-1.34 0.45,0 1.53,0.26 3.24,0.78 1.72,0.52 3.17,0.78 4.36,0.78 6.71,0 13.35,-3.8 19.91,-11.41 4.92,-5.82 8.95,-12.6 12.08,-20.36 2.83,-6.71 4.25,-14.09 4.25,-22.15 0,-4.92 -1.12,-7.38 -3.36,-7.38 -4.92,0 -11.48,6.79 -19.69,20.36 -7.76,12.68 -11.63,22.15 -11.63,28.41 0,1.64 0.56,2.91 1.68,3.8 1.12,0.9 1.68,1.64 1.68,2.24 0,0.6 -0.37,0.89 -1.12,0.89 -5.52,0 -8.28,-4.03 -8.28,-12.08 0,-5.67 1.38,-13.01 4.14,-22.04 2.76,-9.02 6.97,-19.35 12.64,-30.98 4.77,-9.4 13.05,-23.49 24.83,-42.28 18.19,-29.08 33.03,-43.62 44.52,-43.62 6.71,0 10.07,3.06 10.07,9.17 0,10.74 -9.4,25.73 -28.19,44.96 -12.08,12.23 -26.17,23.34 -42.28,33.33zm66.22 -74.27c0,-3.13 -1.27,-4.77 -3.8,-4.92 -3.88,0 -9.92,3.28 -18.12,9.84 -14.47,11.48 -26.92,29.08 -37.36,52.79 -1.64,4.03 -2.83,7.16 -3.58,9.4 10.74,-6.26 23.12,-16.33 37.13,-30.2 16.85,-16.26 25.43,-28.56 25.73,-36.91z"/>
   <path id="_1_149" class="fil0" d="M423.32 642.08c-1.64,1.79 -2.91,2.68 -3.8,2.68 -0.6,0 -0.9,-0.22 -0.9,-0.67 0,-0.45 0.45,-1.27 1.34,-2.46 1.64,-3.13 3.39,-6.19 5.26,-9.17 1.86,-2.98 3.95,-5.59 6.26,-7.83 2.31,-2.24 4.85,-4.06 7.61,-5.48 2.76,-1.42 5.78,-2.13 9.06,-2.13 11.04,0 16.55,5.89 16.55,17.67 0,2.83 -0.6,5.74 -1.79,8.72l0.89 -0.89c9.25,-6.41 15.21,-13.05 17.9,-19.91 0.45,-1.49 0.45,-2.91 0,-4.25 -0.15,-0.6 -0.3,-1.12 -0.45,-1.57 -0.15,-0.45 -0.07,-0.78 0.22,-1.01 0.3,-0.22 0.9,-0.22 1.79,0 0.9,0.22 2.31,0.78 4.25,1.68 4.03,1.64 4.55,7.08 1.57,16.33 -0.15,0.75 -0.45,1.64 -0.9,2.68 -0.45,1.04 -0.9,2.16 -1.34,3.36 -0.45,1.19 -0.9,2.31 -1.34,3.36 -0.45,1.04 -0.75,1.86 -0.9,2.46 -0.89,2.39 -1.6,4.14 -2.13,5.26 -0.52,1.12 -1.08,2.65 -1.68,4.59 5.67,-4.47 9.62,-7.31 11.86,-8.5 1.64,-5.52 5.37,-11.48 11.19,-17.9 8.35,-8.8 16.03,-13.2 23.04,-13.2 4.77,0 7.16,1.86 7.16,5.59 0,1.49 -1.12,4.1 -3.36,7.83 -2.09,3.58 -3.8,5.37 -5.15,5.37 -0.6,0 -0.89,-0.37 -0.89,-1.12 0,-0.6 0.26,-1.57 0.78,-2.91 0.52,-1.34 0.78,-2.39 0.78,-3.13 0,-3.13 -1.94,-4.7 -5.82,-4.7 -5.37,0 -10.22,3.51 -14.54,10.51 -4.03,6.56 -6.04,12.6 -6.04,18.12 0,9.25 4.03,13.87 12.08,13.87 10.14,0 20.73,-6.93 31.77,-20.8 1.49,-1.79 2.76,-2.68 3.8,-2.68 0.6,0 0.9,0.22 0.9,0.67 0,0.6 -0.45,1.42 -1.34,2.46 -5.07,7.46 -12.3,14.39 -21.7,20.8 -5.52,3.43 -11.19,5.14 -17,5.14 -11.04,0 -16.55,-5.89 -16.55,-17.67 0,-0.6 0,-1.19 0,-1.79 -7.9,5.82 -13.05,11.86 -15.44,18.12 -0.3,0.75 -0.07,1.42 0.67,2.01 0.75,0.6 1.27,1.27 1.57,2.01 0.15,0.6 0.3,1.12 0.45,1.57 0.15,0.45 0.04,0.78 -0.33,1.01 -0.37,0.22 -1.01,0.22 -1.9,0 -0.9,-0.22 -2.24,-0.78 -4.03,-1.68 -4.03,-1.49 -4.55,-6.93 -1.57,-16.33 0.3,-1.34 0.86,-2.95 1.68,-4.81 0.82,-1.86 1.38,-3.39 1.68,-4.59 0.9,-2.39 1.6,-4.55 2.13,-6.49 0.52,-1.94 1.01,-3.88 1.45,-5.82 -8.35,6.71 -13.27,9.84 -14.76,9.4 -0.6,0 -0.97,-0.3 -1.12,-0.89 -1.94,4.47 -5.15,9.1 -9.62,13.87 -8.35,8.8 -16.03,13.2 -23.04,13.2 -4.77,0 -7.16,-1.86 -7.16,-5.59 0,-1.34 1.12,-3.95 3.36,-7.83 1.94,-3.58 3.65,-5.37 5.15,-5.37 0.6,0 0.9,0.37 0.9,1.12 0,0.6 -0.26,1.57 -0.78,2.91 -0.52,1.34 -0.78,2.39 -0.78,3.13 0,3.13 1.94,4.7 5.82,4.7 5.37,0 10.22,-3.5 14.54,-10.51 4.03,-6.41 6.04,-12.45 6.04,-18.12 0,-9.25 -4.03,-13.87 -12.08,-13.87 -2.54,0 -4.73,0.45 -6.6,1.34 -1.86,0.9 -3.58,2.2 -5.15,3.92 -1.57,1.72 -3.06,3.73 -4.47,6.04 -1.42,2.31 -2.95,4.88 -4.59,7.72l-0.45 0.45z"/>
   <path id="_2_150" class="fil0" d="M615.48 642.31c0,1.04 -0.45,2.31 -1.34,3.8 -4.18,6.86 -9.02,12.83 -14.54,17.9 -7.16,6.56 -13.87,9.84 -20.13,9.84 -8.35,0 -12.53,-5.22 -12.53,-15.66 0,-2.39 1.12,-7.08 3.36,-14.09 -5.22,7.61 -8.58,12.3 -10.07,14.09 -4.92,5.82 -9.32,8.72 -13.2,8.72 -4.92,0 -7.38,-4.18 -7.38,-12.53 0,-4.77 1.57,-10.51 4.7,-17.22 3.43,-7.75 7.16,-11.63 11.19,-11.63 2.24,0 3.36,0.6 3.36,1.79 0,0.15 -1.9,3.54 -5.7,10.18 -3.8,6.64 -5.7,11.74 -5.7,15.32 0,4.77 1.42,7.16 4.25,7.16 4.77,0 13.35,-10.89 25.73,-32.66 1.04,-2.09 2.61,-5 4.7,-8.72 1.04,-1.19 2.16,-1.79 3.36,-1.79 1.34,0 2.57,0.56 3.69,1.68 1.12,1.12 1.68,2.42 1.68,3.91 0,-0.15 -2.65,4.85 -7.94,14.99 -5.29,10.14 -7.94,17.97 -7.94,23.49 0,5.22 2.46,7.83 7.38,7.83 4.18,0 8.95,-2.39 14.32,-7.16 3.58,-3.13 7.61,-7.61 12.08,-13.42 3.73,-4.77 5.74,-7.16 6.04,-7.16 0.45,0 0.67,0.45 0.67,1.34z"/>
   <path id="_3_151" class="fil0" d="M672.97 674.07c0,0.89 -0.22,1.34 -0.67,1.34 -0.3,0 -0.97,-0.37 -2.01,-1.12 -1.04,-0.75 -3.13,-1.12 -6.26,-1.12 -1.49,0 -2.98,0.07 -4.47,0.22 -0.3,14.47 -7.38,31.84 -21.25,52.12 -16.11,23.56 -33.33,35.35 -51.68,35.35 -7.16,0 -13.12,-2.09 -17.9,-6.26 -4.77,-4.18 -7.16,-9.77 -7.16,-16.78 0,-15.96 11.33,-31.24 34,-45.86 19.24,-12.38 37.81,-19.98 55.7,-22.82 -0.15,-9.4 -3.8,-14.09 -10.96,-14.09 -1.49,0 -3.77,0.71 -6.82,2.13 -3.06,1.42 -5.11,2.13 -6.15,2.13 -1.94,0 -2.91,-0.9 -2.91,-2.68 0,-0.9 0.67,-2.01 2.01,-3.36 16.11,-14.76 24.16,-24.68 24.16,-29.75 0,-3.28 -1.86,-4.92 -5.59,-4.92 -9.1,0 -18.64,7.98 -28.63,23.94 -1.04,1.49 -1.79,2.24 -2.24,2.24 -0.6,0 -0.9,-0.37 -0.9,-1.12 0,-0.75 0.3,-1.64 0.9,-2.68 3.28,-6.86 7.61,-12.68 12.98,-17.45 6.26,-5.52 12.68,-8.28 19.24,-8.28 8.05,0 12.08,3.36 12.08,10.07 0,7.31 -5.97,15.73 -17.9,25.28l0.67 0c4.92,-0.15 9.13,1.6 12.64,5.26 3.5,3.65 5.48,8.02 5.93,13.09l0.9 0c7.01,-0.15 11.04,0.9 12.08,3.13 0.15,0.6 0.22,1.27 0.22,2.01zm-21.7 -0.9c-9.99,1.64 -21.77,5.89 -35.35,12.75 -13.57,6.86 -23.94,13.72 -31.09,20.58 -11.33,10.74 -17,21.4 -17,31.99 0,5.82 1.83,10.48 5.48,13.98 3.65,3.51 8.46,5.26 14.43,5.26 17,0 32.44,-11.71 46.31,-35.12 11.19,-18.94 16.93,-35.42 17.22,-49.44z"/>
   <path id="_4_152" class="fil0" d="M716.82 630c0.45,-0.45 0.9,-1.19 1.34,-2.24 0.45,-1.04 0.93,-2.16 1.45,-3.36 0.52,-1.19 1.04,-2.35 1.57,-3.47 0.52,-1.12 1.01,-1.9 1.45,-2.35 1.04,-1.04 2.24,-1.57 3.58,-1.57 3.43,0 5.15,1.72 5.15,5.15 0,0.75 -0.3,1.64 -0.9,2.68 -8.35,13.72 -12.53,24.61 -12.53,32.66 0,5.67 2.68,8.5 8.05,8.5 4.18,0 8.65,-2.16 13.42,-6.49 3.28,-2.83 6.79,-6.86 10.51,-12.08 3.13,-4.32 4.92,-6.49 5.37,-6.49 0.45,0 0.67,0.45 0.67,1.34 0,1.04 -0.45,2.31 -1.34,3.8 -10.14,16.85 -20.66,25.28 -31.54,25.28 -8.5,0 -12.75,-5.37 -12.75,-16.11 0,-5.97 0.9,-11.56 2.68,-16.78 -3.58,0.89 -7.23,1.94 -10.96,3.13 -3.73,1.19 -7.61,2.61 -11.63,4.25 -0.3,1.19 -0.67,2.35 -1.12,3.47 -0.45,1.12 -0.82,2.27 -1.12,3.47 -1.19,7.01 -2.54,11.78 -4.03,14.32 -1.49,2.54 -3.21,3.8 -5.14,3.8 -1.34,0 -2.01,-1.34 -2.01,-4.03 0,-0.6 0.15,-1.19 0.45,-1.79 1.64,-3.88 3.28,-8.46 4.92,-13.76 1.64,-5.29 3.28,-11.52 4.92,-18.68 0.3,-1.19 0.6,-2.65 0.89,-4.36 0.3,-1.72 0.75,-3.77 1.34,-6.15 0.45,-1.04 1.49,-2.09 3.13,-3.13 1.64,-1.04 3.13,-1.57 4.47,-1.57 1.04,0 1.57,0.45 1.57,1.34 0,0.75 -0.6,3.02 -1.79,6.82 -1.19,3.8 -2.91,9.28 -5.15,16.44 2.09,-0.74 4.62,-1.6 7.61,-2.57 2.98,-0.97 6.49,-2.05 10.51,-3.24 1.04,-0.15 2.54,-0.6 4.47,-1.34 0.75,-1.64 1.57,-3.28 2.46,-4.92z"/>
   <path id="_5_153" class="fil0" d="M819.72 642.31c0,1.04 -0.45,2.31 -1.34,3.8 -4.18,6.86 -9.02,12.83 -14.54,17.9 -7.16,6.56 -13.87,9.84 -20.13,9.84 -8.35,0 -12.53,-5.22 -12.53,-15.66 0,-2.39 1.12,-7.08 3.36,-14.09 -5.22,7.61 -8.58,12.3 -10.07,14.09 -4.92,5.82 -9.32,8.72 -13.2,8.72 -4.92,0 -7.38,-4.18 -7.38,-12.53 0,-4.77 1.57,-10.51 4.7,-17.22 3.43,-7.75 7.16,-11.63 11.19,-11.63 2.24,0 3.36,0.6 3.36,1.79 0,0.15 -1.9,3.54 -5.7,10.18 -3.8,6.64 -5.7,11.74 -5.7,15.32 0,4.77 1.42,7.16 4.25,7.16 4.77,0 13.35,-10.89 25.73,-32.66 1.04,-2.09 2.61,-5 4.7,-8.72 1.04,-1.19 2.16,-1.79 3.36,-1.79 1.34,0 2.57,0.56 3.69,1.68 1.12,1.12 1.68,2.42 1.68,3.91 0,-0.15 -2.65,4.85 -7.94,14.99 -5.29,10.14 -7.94,17.97 -7.94,23.49 0,5.22 2.46,7.83 7.38,7.83 4.18,0 8.95,-2.39 14.32,-7.16 3.58,-3.13 7.61,-7.61 12.08,-13.42 3.73,-4.77 5.74,-7.16 6.04,-7.16 0.45,0 0.67,0.45 0.67,1.34z"/>
   <path id="_6_154" class="fil0" d="M858.2 557.97c0,3.13 -2.68,7.9 -8.05,14.32 -5.37,6.41 -9.47,9.62 -12.3,9.62 -0.15,0 -0.22,-0.15 -0.22,-0.45 0,-0.45 0.52,-1.27 1.57,-2.46 1.94,-2.24 5.59,-7.46 10.96,-15.66l-0.45 0.22c-2.39,0 -3.58,-1.64 -3.58,-4.92 0,-4.18 2.54,-6.26 7.61,-6.26 1.04,0 2.05,0.63 3.02,1.9 0.97,1.27 1.45,2.5 1.45,3.69zm-17.45 0c0,2.98 -2.68,7.72 -8.05,14.21 -5.37,6.49 -9.4,9.73 -12.08,9.73 -0.3,-0.15 -0.45,-0.3 -0.45,-0.45 0,-0.6 0.52,-1.42 1.57,-2.46 1.94,-2.24 5.59,-7.46 10.96,-15.66l-0.45 0.22c-2.39,0 -3.58,-1.64 -3.58,-4.92 0,-1.79 0.78,-3.28 2.35,-4.47 1.57,-1.19 3.32,-1.79 5.26,-1.79 1.04,0 2.05,0.63 3.02,1.9 0.97,1.27 1.45,2.5 1.45,3.69z"/>
  </g>
 </g>
</svg>
