<svg xmlns="http://www.w3.org/2000/svg" width="50" height="50" fill="none" class="icon-fill ego-icon-color replaced-svg"><path d="M32.014 9H18.986A10.425 10.425 0 0 0 8.5 19.34v11.32A10.426 10.426 0 0 0 18.986 41h13.028A10.426 10.426 0 0 0 42.5 30.66V19.34A10.425 10.425 0 0 0 32.014 9ZM40.5 30.66A8.423 8.423 0 0 1 32.014 39H18.986a8.423 8.423 0 0 1-8.486-8.34V19.34A8.423 8.423 0 0 1 18.986 11h13.028a8.423 8.423 0 0 1 8.486 8.34v11.32Z" style="fill:#fff"/><path d="M25.5 15.732A9.268 9.268 0 1 0 34.834 25a9.311 9.311 0 0 0-9.334-9.268Zm0 16.223a6.954 6.954 0 1 1 7-6.954 6.987 6.987 0 0 1-7 6.953ZM34.691 14.094a1.923 1.923 0 1 0 1.937 1.923 1.931 1.931 0 0 0-1.937-1.923Z" style="fill:#fff"/></svg>