<svg xmlns="http://www.w3.org/2000/svg" width="50" height="50" fill="none" class="icon-fill replaced-svg ego-icon-color"><path d="M30.672 25 41 32.453V17.547L30.672 25ZM23.882 25.1a2.765 2.765 0 0 0 3.236 0l13.7-9.889A2.04 2.04 0 0 0 38.958 14H12.042a2.04 2.04 0 0 0-1.862 1.211L23.882 25.1ZM28.964 26.233l-.676.488a4.755 4.755 0 0 1-5.576 0l-.676-.488L10.18 34.79A2.039 2.039 0 0 0 12.042 36h26.916a2.04 2.04 0 0 0 1.862-1.21l-11.856-8.557ZM20.328 25 10 17.547v14.906L20.328 25Z" style="fill:#fff"/></svg>