<svg xmlns="http://www.w3.org/2000/svg" width="50" height="50" fill="none" class="icon-fill replaced-svg ego-icon-color"><path d="M38.54 31.17c-.71-.356-4.192-2.069-4.842-2.3-.65-.233-1.12-.355-1.594.354-.473.71-1.83 2.3-2.243 2.777-.413.477-.827.532-1.535.177a19.326 19.326 0 0 1-5.7-3.515 21.34 21.34 0 0 1-3.94-4.906c-.414-.709-.045-1.093.31-1.446.318-.317.708-.827 1.062-1.24.291-.358.53-.756.71-1.182a1.3 1.3 0 0 0-.06-1.24c-.178-.355-1.595-3.84-2.185-5.259-.575-1.38-1.159-1.194-1.594-1.216a27.798 27.798 0 0 0-1.358-.025 2.6 2.6 0 0 0-1.889.886 7.946 7.946 0 0 0-2.479 5.91c0 3.484 2.538 6.852 2.892 7.325.354.473 5 7.626 12.1 10.694a41.132 41.132 0 0 0 4.038 1.492 9.734 9.734 0 0 0 4.463.28c1.361-.2 4.191-1.713 4.782-3.367A5.923 5.923 0 0 0 39.9 32c-.177-.3-.65-.473-1.358-.827l-.003-.004Z" style="fill:#fff"/></svg>