<svg xmlns="http://www.w3.org/2000/svg" width="50" height="50" fill="none" class="icon-fill replaced-svg ego-icon-color"><path d="M37.523 12.3 10.2 23.015s-1.293.442-1.191 1.259c.102.817 1.157 1.191 1.157 1.191l6.874 2.314s2.076 6.806 2.484 8.1c.408 1.294.736 1.324.736 1.324a.779.779 0 0 0 .727-.1l4.442-4.05-.006-.005 6.93 5.313a1.798 1.798 0 0 0 2.553-.884l4.866-24.536c-.003-1.632-2.25-.641-2.25-.641Zm-3.4 5.581c-.511.477-12.966 11.673-12.966 11.673l-.018.153-.028-.022-.64 5.644-2.41-8.194 15.48-9.835s.953-.579.919 0c0 0 .17.1-.34.576l.003.005Z" style="fill:#fff"/></svg>