<svg xmlns="http://www.w3.org/2000/svg" width="50" height="50" fill="none" class="icon-fill ego-icon-color replaced-svg"><path fill-rule="evenodd" d="M36.668 25.452s4.54-6.4 4.99-8.507c.151-.751-.18-1.172-.962-1.172H36.76a1.437 1.437 0 0 0-1.5.962 35.676 35.676 0 0 1-4.72 7.4c-.83.924-1.254 1.2-1.713 1.2-.37 0-.54-.31-.54-1.142v-7.3c0-1.022-.122-1.322-.963-1.322h-6.316a.688.688 0 0 0-.78.66c0 .963 1.472 1.18 1.472 3.788v5.38c0 1.083-.06 1.5-.572 1.5-1.352 0-4.569-4.658-6.372-9.95-.36-1.081-.752-1.381-1.774-1.381H9.043a.938.938 0 0 0-.992.96c0 1.053 1.233 5.923 6.072 12.446 3.247 4.389 7.515 6.764 11.363 6.764 2.345 0 2.916-.391 2.916-1.383v-3.372c0-.841.331-1.2.811-1.2.542 0 1.5.174 3.728 2.375 2.645 2.525 2.826 3.577 4.27 3.577h4.417c.451 0 .872-.211.872-.962 0-.992-1.293-2.765-3.277-4.87-.81-1.082-2.134-2.254-2.555-2.795-.6-.632-.42-.992 0-1.654v-.002Z" clip-rule="evenodd" style="fill:#fff"/></svg>