<?xml version="1.0" encoding="UTF-8" standalone="no"?>
<svg
   width="50"
   height="50"
   fill="none"
   class="icon-fill replaced-svg ego-icon-color"
   version="1.1"
   id="svg4"
   sodipodi:docname="wa.svg"
   inkscape:version="1.1.2 (0a00cf5339, 2022-02-04, custom)"
   xmlns:inkscape="http://www.inkscape.org/namespaces/inkscape"
   xmlns:sodipodi="http://sodipodi.sourceforge.net/DTD/sodipodi-0.dtd"
   xmlns="http://www.w3.org/2000/svg"
   xmlns:svg="http://www.w3.org/2000/svg">
  <defs
     id="defs8" />
  <sodipodi:namedview
     id="namedview6"
     pagecolor="#ffffff"
     bordercolor="#666666"
     borderopacity="1.0"
     inkscape:pageshadow="2"
     inkscape:pageopacity="0.0"
     inkscape:pagecheckerboard="0"
     showgrid="false"
     inkscape:zoom="2.9380287"
     inkscape:cx="90.877261"
     inkscape:cy="33.696063"
     inkscape:window-width="1920"
     inkscape:window-height="1017"
     inkscape:window-x="-8"
     inkscape:window-y="-8"
     inkscape:window-maximized="1"
     inkscape:current-layer="svg4" />
  <path
     d="M37.046 12.842A16.93 16.93 0 0 0 10.4 33.262L8 42.03l8.974-2.353a16.924 16.924 0 0 0 8.09 2.06h.007a16.93 16.93 0 0 0 11.975-28.9v.004ZM25.071 38.88h-.006a14.048 14.048 0 0 1-7.165-1.961l-.514-.3-5.325 1.4 1.421-5.191-.335-.532a14.072 14.072 0 1 1 11.92 6.592l.004-.008Zm7.718-10.535c-.423-.212-2.5-1.235-2.89-1.376-.39-.141-.67-.212-.952.212-.282.424-1.093 1.376-1.339 1.658-.246.282-.494.317-.917.106a11.547 11.547 0 0 1-3.4-2.1 12.751 12.751 0 0 1-2.354-2.93c-.246-.423-.026-.652.186-.863.19-.19.423-.493.634-.74.174-.214.317-.452.423-.706a.779.779 0 0 0-.035-.741c-.106-.211-.952-2.293-1.3-3.14-.343-.824-.692-.712-.952-.725a16.34 16.34 0 0 0-.81-.015 1.555 1.555 0 0 0-1.128.529 4.74 4.74 0 0 0-1.481 3.528 8.227 8.227 0 0 0 1.726 4.375c.212.282 2.983 4.553 7.226 6.385.788.34 1.593.637 2.412.89.863.263 1.775.32 2.664.168a4.354 4.354 0 0 0 2.855-2.01 3.53 3.53 0 0 0 .247-2.011c-.106-.176-.388-.282-.811-.494h-.004Z"
     style="fill:#ffffff"
     id="path2" />
</svg>
