<svg xmlns="http://www.w3.org/2000/svg" xml:space="preserve" width="231.62" height="31.537" style="shape-rendering:geometricPrecision;text-rendering:geometricPrecision;image-rendering:optimizeQuality;fill-rule:evenodd;clip-rule:evenodd" viewBox="0 0 10533.27 1434.2"><path d="M327.57 612.54c-5.55 0-11.1-1.86-11.1-11.1v-38.86c0-288.71 0-340.51 3.7-399.72 3.71-64.76 18.51-96.24 68.48-105.48 22.21-3.7 33.31-5.55 46.25-5.55 7.41 0 14.82-3.7 14.82-11.1 0-11.1-9.26-14.8-29.61-14.8-55.52 0-172.09 5.55-181.35 5.55-9.25 0-125.85-5.55-209.13-5.55-20.35 0-29.61 3.7-29.61 14.8 0 7.41 7.41 11.1 14.82 11.1 16.66 0 48.11 1.86 62.91 5.55 61.07 12.96 75.9 42.56 79.6 105.48 3.71 59.21 3.71 111.02 3.71 399.72v325.69c0 177.64 0 323.86-9.26 401.58-7.39 53.66-16.67 94.38-53.7 101.77-16.66 3.71-38.84 7.41-55.5 7.41-11.1 0-14.82 5.55-14.82 11.1 0 11.1 9.26 14.8 29.61 14.8 55.52 0 172.12-5.55 181.37-5.55 9.26 0 125.83 5.55 227.62 5.55 20.35 0 29.6-5.55 29.6-14.8 0-5.55-3.7-11.1-14.8-11.1-16.66 0-57.37-3.7-83.28-7.41-55.52-7.39-66.62-48.11-72.17-101.77-9.25-77.72-9.25-223.94-9.25-401.58V693.96c0-9.25 5.55-11.1 11.1-11.1h784.63c5.55 0 11.1 3.71 11.1 11.1v194.31c0 177.64 0 323.86-9.25 401.58-7.41 53.66-16.66 94.38-53.66 101.77-16.66 3.71-38.86 7.41-55.52 7.41-11.1 0-14.8 5.55-14.8 11.1 0 11.1 9.25 14.8 29.6 14.8 55.52 0 172.1-5.55 181.35-5.55s125.83 5.55 227.64 5.55c20.35 0 29.61-5.55 29.61-14.8 0-5.55-3.71-11.1-14.82-11.1-16.66 0-57.36-3.7-83.29-7.41-55.52-7.39-66.62-48.11-72.17-101.77-9.25-77.72-9.25-223.94-9.25-401.58V562.58c0-288.71 0-340.51 3.7-399.72 3.7-64.76 18.51-96.24 68.48-105.48 22.21-3.7 33.33-5.55 46.29-5.55 7.39 0 14.8-3.7 14.8-11.1 0-11.1-9.25-14.8-29.6-14.8-55.55 0-172.14 5.55-181.38 5.55-9.25 0-125.83-5.55-209.11-5.55-20.35 0-29.6 3.7-29.6 14.8 0 7.41 7.39 11.1 14.8 11.1 16.66 0 48.11 1.86 62.91 5.55 61.07 12.96 75.88 42.56 79.58 105.48 3.7 59.21 3.7 111.02 3.7 399.72v38.86c0 9.25-5.55 11.1-11.1 11.1H327.59zm2117 266.46c9.26 0 12.96 3.71 16.66 11.1l172.12 455.26c11.1 29.6 0 46.25-11.1 49.97-7.39 1.84-12.94 5.55-12.94 12.94 0 11.1 20.35 11.1 55.52 12.96 127.67 3.7 262.77 3.7 290.53 3.7 20.35 0 37.01-3.7 37.01-14.8 0-9.25-9.26-11.1-20.35-11.1-14.82 0-44.41-1.86-72.17-11.1-38.86-11.1-92.52-40.72-159.14-205.4-112.89-281.31-403.44-1045.59-431.19-1115.91C2287.31 9.26 2279.91 0 2268.8 0c-11.1 0-18.49 11.1-40.7 72.17l-420.09 1149.2c-33.31 92.52-70.32 162.86-155.45 173.96-14.8 1.84-31.45 3.7-44.4 3.7-16.66 0-25.92 3.7-25.92 11.1 0 11.1 11.1 14.8 35.17 14.8 86.97 0 188.74-5.55 209.11-5.55 20.35 0 94.36 5.55 138.81 5.55 16.66 0 33.31-3.7 33.31-14.8 0-7.41-5.55-11.1-24.06-11.1h-16.66c-31.49 0-66.64-16.66-66.64-53.66 0-33.31 9.25-77.72 25.9-123.99l111.05-327.55c3.71-9.26 9.26-14.82 18.51-14.82h397.85zm-377.5-66.6c-5.55 0-9.25-3.71-5.55-12.96l162.86-499.65c9.25-27.76 18.49-27.76 27.74 0l175.8 499.65c1.86 7.41 1.86 12.96-7.39 12.96h-353.45zM3838.01 879c9.25 0 12.96 3.71 16.66 11.1l172.12 455.26c11.1 29.6 0 46.25-11.1 49.97-7.39 1.84-12.94 5.55-12.94 12.94 0 11.1 20.35 11.1 55.52 12.96 127.67 3.7 262.75 3.7 290.51 3.7 20.37 0 37.02-3.7 37.02-14.8 0-9.25-9.26-11.1-20.37-11.1-14.8 0-44.41-1.86-72.15-11.1-38.86-11.1-92.54-40.72-159.14-205.4C4021.25 901.22 3730.7 136.94 3702.95 66.62 3680.74 9.26 3673.34 0 3662.23 0c-11.1 0-18.49 11.1-40.7 72.17l-420.09 1149.2c-33.31 92.52-70.32 162.86-155.45 173.96-14.8 1.84-31.45 3.7-44.41 3.7-16.64 0-25.9 3.7-25.9 11.1 0 11.1 11.1 14.8 35.17 14.8 86.97 0 188.74-5.55 209.11-5.55 20.35 0 94.36 5.55 138.81 5.55 16.66 0 33.31-3.7 33.31-14.8 0-7.41-5.55-11.1-24.06-11.1h-16.66c-31.49 0-66.64-16.66-66.64-53.66 0-33.31 9.25-77.72 25.9-123.99l111.05-327.55c3.71-9.26 9.26-14.82 18.51-14.82h397.85zm-377.5-66.6c-5.55 0-9.25-3.71-5.55-12.96l162.84-499.65c9.26-27.76 18.51-27.76 27.76 0l175.8 499.65c1.86 7.41 1.86 12.96-7.39 12.96h-353.45zM5949.5 49.96c-3.7-35.15-9.25-49.97-22.21-49.97s-20.38 12.96-27.78 29.61l-544.05 1162.16L4789.19 27.74c-9.25-20.35-16.66-27.76-27.76-27.76-11.1 0-18.51 16.66-20.35 37.02L4607.8 1239.86c-9.25 75.87-12.94 142.49-74.01 153.59-27.76 5.55-40.72 5.55-55.52 5.55-9.25 0-18.51 3.7-18.51 11.1 0 12.96 12.96 14.8 31.47 14.8 49.97 0 138.78-5.55 155.43-5.55 14.82 0 109.21 5.55 177.67 5.55 18.51 0 27.76-3.7 27.76-16.66 0-5.55-7.39-9.25-18.49-9.25-11.1 0-35.17 0-66.62-7.41-27.76-5.55-49.97-20.35-49.97-66.62 0-31.45 1.86-57.36 3.7-86.97l75.88-871.63c20.35 49.97 233.15 507.06 249.81 540.37 9.25 18.51 168.39 338.67 216.5 429.34 35.18 66.62 44.45 85.13 57.39 85.13 16.66 0 22.21-16.66 61.07-98.07l458.92-973.42 88.86 966.01c3.7 33.31 5.55 61.07-7.41 66.62-9.25 3.7-12.98 5.55-12.98 12.96 0 9.25 9.28 14.8 51.84 18.49 68.46 5.55 279.42 11.1 320.13 11.1 22.21 0 27.76-3.7 27.76-14.8 0-9.25-11.1-11.1-20.35-11.1-18.51 0-61.07 0-114.73-16.66-79.56-25.9-92.52-129.53-99.93-196.15L5949.49 49.92zm1485.97 512.61c0-288.71 0-340.51 3.7-399.72 3.71-64.76 18.51-101.79 68.48-107.34 18.49-1.84 20.35-1.84 40.7-3.7 16.66-1.86 20.37-5.55 20.37-12.96 0-9.25-9.26-12.94-29.61-12.94-55.52 0-172.1 5.55-181.35 5.55s-133.26-5.55-194.33-5.55c-20.35 0-29.61 3.7-29.61 14.8 0 7.41 5.55 11.1 20.37 11.1 12.94 0 46.25 1.86 66.62 7.41 40.7 9.25 59.23 40.7 62.94 103.63 3.7 59.21 3.7 111.02 3.7 399.72v325.69c0 177.64 0 323.86-9.25 401.58-7.41 53.66-18.55 96.22-55.55 103.63-16.66 3.7-37.01 5.55-48.11 5.55-16.66 0-20.35 7.41-20.35 12.96 0 11.1 9.25 12.94 29.6 12.94 55.52 0 164.73-5.55 173.98-5.55s125.83 5.55 227.62 5.55c20.35 0 27.74-3.7 27.74-12.94 0-5.55-5.53-12.96-22.19-12.96-11.1 0-48.13-3.7-74.03-7.41-55.52-7.39-66.62-48.11-72.17-101.77-9.25-77.72-9.25-223.94-9.25-401.58v-190.6c162.84 194.29 495.96 551.46 606.99 638.43 86.97 68.48 129.53 88.83 290.53 88.83h136.92c20.37 0 27.76-3.7 27.76-12.94 0-9.26-11.1-12.96-25.9-12.96-18.49 0-37.01-1.86-53.66-5.55-88.83-16.66-153.59-57.37-305.33-199.86-86.97-81.42-423.79-423.79-540.37-551.46 48.11-53.68 259.07-262.8 421.93-420.09 111.03-107.34 146.2-129.53 192.45-148.04 25.92-11.1 59.21-18.51 94.38-22.21 16.66-1.86 20.35-5.55 20.35-12.96 0-7.39-5.55-12.94-31.45-12.94-29.61 0-138.79 5.55-196.15 5.55-62.93 0-57.37-5.55-111.03-5.55-16.66 0-27.76 3.7-27.76 11.1 0 7.39 3.71 11.1 16.66 16.66 14.82 5.55 24.06 20.35 24.06 35.15 0 22.21-7.41 40.72-118.46 155.45-112.89 116.57-364.56 381.23-421.91 436.75V562.58zm1360.13 871.62c55.52 0 96.25-42.57 96.25-99.93 0-57.37-40.74-96.24-94.4-96.24-66.62 0-98.07 55.52-98.07 98.07 0 44.41 31.45 98.09 96.22 98.09zm488.55-545.92c0 177.64 0 323.86-9.25 401.58-7.41 53.66-14.83 96.22-51.84 103.63-16.66 3.7-29.61 5.55-44.41 5.55-24.06 0-27.76 7.41-27.76 12.96 0 9.25 9.25 12.94 29.61 12.94 64.76 0 122.15-5.55 181.37-5.55 7.41 0 59.21 1.86 112.87 5.55 53.68 1.86 112.89 5.55 133.24 5.55 316.46 0 471.89-205.4 471.89-403.44 0-216.5-183.19-347.88-320.16-390.44 86.97-90.68 173.98-181.38 173.98-333.12 0-92.52-66.64-277.57-370.13-277.57-85.11 0-157.29 5.55-201.7 5.55-9.25 0-125.87-5.55-209.13-5.55-20.37 0-29.61 3.7-29.61 14.8 0 7.41 7.41 11.1 24.06 11.1 7.39 0 38.86 1.86 53.66 5.55 61.07 12.96 75.9 42.56 79.6 105.48 3.7 59.21 3.7 111.02 3.7 399.72v325.69zm148.04-780.93c0-11.1 5.55-16.66 22.21-20.35 29.61-7.41 68.48-9.26 88.83-9.26 181.35 0 249.81 164.69 249.81 318.29 0 75.87-27.76 142.52-66.62 186.92-38.86 44.41-64.76 48.13-168.39 48.13-68.46 0-101.77-5.55-112.87-7.41-9.26-3.7-12.96-7.41-12.96-20.35V107.35zm0 586.62c0-9.25 3.7-12.94 11.1-12.94 27.76 0 120.28 0 144.34 3.7 44.41 5.55 90.67 11.1 153.59 53.66 142.51 98.07 179.51 259.07 179.51 370.09 0 209.14-161.02 262.8-260.93 262.8-33.31 0-112.89-3.7-162.86-27.76-57.36-27.76-57.36-53.66-62.91-144.34-1.86-27.74-1.86-257.23-1.86-399.72V693.97zM10437 1434.19c55.52 0 96.27-42.57 96.27-99.93 0-57.37-40.75-96.24-94.41-96.24-66.62 0-98.07 55.52-98.07 98.07 0 44.41 31.45 98.09 96.22 98.09z" style="fill:#fff;fill-rule:nonzero"/></svg>