<svg xmlns="http://www.w3.org/2000/svg" xml:space="preserve" width="225.23" height="11.238" style="shape-rendering:geometricPrecision;text-rendering:geometricPrecision;image-rendering:optimizeQuality;fill-rule:evenodd;clip-rule:evenodd" viewBox="0 0 10259.28 511.88"><path d="m345.31 321.69 81.38 11.35c-8.99 56-31.71 99.66-68.43 131.34-36.74 31.71-82 47.5-135.45 47.5-67.02 0-120.94-21.93-161.64-65.78C20.33 402.27 0 339.5 0 257.85c0-53.01 8.81-99.2 26.32-138.93 17.51-39.58 44.18-69.4 80.11-89.07C142.22 9.97 181.16.01 223.43.01c53.15 0 96.84 13.43 130.56 40.39 33.92 26.96 55.66 65.27 65.13 114.78l-80.42 12.29c-7.75-32.93-21.28-57.71-40.99-74.42-19.57-16.53-43.23-24.89-70.96-24.89-41.95 0-75.99 14.96-102.35 44.93-26.17 30.13-39.25 77.42-39.25 142.41 0 65.9 12.6 113.68 37.82 143.48 25.39 29.78 58.36 44.78 98.89 44.78 32.8 0 60.07-9.93 81.83-29.96 21.93-19.85 35.81-50.61 41.63-92.09zm704.04-311.28h397.38v69.07h-157.08v421.98h-83.26V79.48h-157.04V10.41zm1030.28 245.51c0-90.66 25.22-157.83 75.85-201.53 42.09-36.26 93.65-54.4 154.37-54.4 67.31 0 122.52 22.07 165.41 66.25 42.71 43.99 64.16 105 64.16 182.75 0 63.06-9.45 112.57-28.39 148.69-18.9 36.12-46.5 64.2-82.76 84.22-36.12 20.02-75.72 29.97-118.43 29.97-68.74 0-124.26-21.93-166.67-65.92-42.44-44-63.56-107.39-63.56-190.03zm85.15.15c0 62.77 13.7 109.75 41.15 140.81 27.6 31.23 62.15 46.84 103.93 46.84 41.32 0 75.68-15.61 103.26-46.98 27.46-31.38 41.16-79.16 41.16-143.34 0-60.57-13.86-106.46-41.47-137.52-27.58-31.2-61.94-46.81-102.95-46.81-41.78 0-76.33 15.44-103.93 46.5-27.44 31.07-41.15 77.9-41.15 140.5zM3235.1 10.4h128.03l129.77 392.95L3636.55 10.4h118.91v491.05h-83.27V106.12l-144.6 395.33h-74.42L3316.46 87.19v414.26h-81.36V10.4zm1563.56 429.53c-30.89 26.34-60.69 44.8-89.25 55.66-28.53 10.9-59.12 16.27-91.92 16.27-53.95 0-95.39-13.08-124.4-39.44-29.04-26.17-43.54-59.76-43.54-100.61 0-23.96 5.51-45.86 16.41-65.75 11.04-19.85 25.39-35.64 43.06-47.64 17.8-11.95 37.69-21.11 59.89-27.25 16.41-4.27 41.16-8.38 74.11-12.48 67.18-7.85 116.84-17.49 148.56-28.53.31-11.35.48-18.63.48-21.59 0-33.76-7.9-57.59-23.67-71.45-21.3-18.77-52.97-28.06-94.93-28.06-39.25 0-68.26 6.94-86.89 20.64-18.77 13.74-32.47 38-41.46 73.01l-81.38-11.35c7.42-34.84 19.54-63.08 36.6-84.53 17.01-21.45 41.61-37.86 73.79-49.51C4606.14 5.8 4643.5-.03 4685.76-.03c41.95 0 76.15 4.89 102.5 14.82 26.17 9.95 45.57 22.24 57.88 37.22 12.29 14.99 20.93 33.9 26 56.78 2.67 14.19 4.1 39.73 4.1 76.47v110.37c0 77.11 1.74 125.83 5.2 146.51 3.32 20.64 10.24 40.35 20.37 59.29h-87.06c-8.35-17.51-13.7-38-16.1-61.51zm-6.59-184.47c-30.28 12.29-75.72 22.69-136.26 31.2-34.38 4.89-58.67 10.42-72.84 16.56-14.19 6.16-25.08 15.15-32.81 26.79-7.71 11.86-11.66 24.95-11.66 39.44 0 21.93 8.35 40.37 25.22 55.04 16.89 14.65 41.49 22.07 73.8 22.07 32.02 0 60.55-6.94 85.63-20.97 24.91-13.88 43.35-32.95 55.04-57.07 8.99-18.78 13.39-46.36 13.39-82.79l.48-30.27zm742.97-245.07h397.38v69.07h-157.08v421.98h-83.26V79.46h-157.04V10.39zM6565.32 255.9c0-90.66 25.22-157.83 75.85-201.53 42.09-36.26 93.65-54.4 154.37-54.4 67.31 0 122.52 22.07 165.41 66.25 42.71 43.99 64.16 105 64.16 182.75 0 63.06-9.45 112.57-28.39 148.69-18.9 36.12-46.5 64.2-82.76 84.22-36.12 20.02-75.72 29.97-118.43 29.97-68.74 0-124.26-21.93-166.67-65.92-42.44-44-63.56-107.39-63.56-190.03zm85.15.15c0 62.77 13.7 109.75 41.15 140.81 27.6 31.23 62.15 46.84 103.93 46.84 41.3 0 75.68-15.61 103.26-46.98 27.46-31.38 41.16-79.16 41.16-143.34 0-60.57-13.86-106.46-41.47-137.52-27.58-31.2-61.94-46.81-102.95-46.81-41.78 0-76.33 15.44-103.93 46.5-27.44 31.07-41.15 77.9-41.15 140.5zM7737.82 10.38h386.96v490.56h-83.24V79.45h-220.47v244.26c0 56.93-1.88 94.45-5.53 112.76-3.75 18.11-13.88 33.88-30.42 47.45-16.7 13.57-40.68 20.33-72.05 20.33-19.4 0-41.8-1.26-67.04-3.62v-69.22h36.43c17.18 0 29.47-1.74 36.89-5.37 7.42-3.48 12.31-9.14 14.82-16.87 2.36-7.73 3.63-32.8 3.63-75.22V10.38zm1085.94 245.51c0-90.66 25.22-157.83 75.85-201.53 42.09-36.26 93.65-54.4 154.37-54.4 67.31 0 122.52 22.07 165.41 66.25 42.71 43.99 64.16 105 64.16 182.75 0 63.06-9.45 112.57-28.39 148.69-18.9 36.12-46.5 64.2-82.76 84.22-36.12 20.02-75.72 29.97-118.43 29.97-68.74 0-124.26-21.93-166.67-65.92-42.44-44-63.56-107.39-63.56-190.03zm85.15.15c0 62.77 13.7 109.75 41.15 140.81 27.6 31.23 62.15 46.84 103.93 46.84 41.32 0 75.68-15.61 103.26-46.98 27.46-31.38 41.16-79.16 41.16-143.34 0-60.57-13.86-106.46-41.47-137.52-27.58-31.2-61.94-46.81-102.95-46.81-41.78 0-76.33 15.44-103.93 46.5-27.44 31.07-41.15 77.9-41.15 140.5zm1067.5-245.67h282.87v69.07h-199.63v421.98h-83.24V10.37z" style="fill:#fff;fill-rule:nonzero"/></svg>