<?xml version="1.0" encoding="UTF-8"?>
<!DOCTYPE svg PUBLIC "-//W3C//DTD SVG 1.1//EN" "http://www.w3.org/Graphics/SVG/1.1/DTD/svg11.dtd">
<!-- Creator: CorelDRAW -->
<svg xmlns="http://www.w3.org/2000/svg" xml:space="preserve" width="59.5922mm" height="2.9733mm" version="1.1" style="shape-rendering:geometricPrecision; text-rendering:geometricPrecision; image-rendering:optimizeQuality; fill-rule:evenodd; clip-rule:evenodd"
viewBox="0 0 10259.28 511.88"
 xmlns:xlink="http://www.w3.org/1999/xlink"
 xmlns:xodm="http://www.corel.com/coreldraw/odm/2003">
 <defs>
  <style type="text/css">
   <![CDATA[
    .fil0 {fill:white;fill-rule:nonzero}
   ]]>
  </style>
 </defs>
 <g id="Слой_x0020_1">
  <metadata id="CorelCorpID_0Corel-Layer"/>
  <path class="fil0" d="M345.31 321.69l81.38 11.35c-8.99,56 -31.71,99.66 -68.43,131.34 -36.74,31.71 -82,47.5 -135.45,47.5 -67.02,0 -120.94,-21.93 -161.64,-65.78 -40.84,-43.83 -61.17,-106.6 -61.17,-188.25 0,-53.01 8.81,-99.2 26.32,-138.93 17.51,-39.58 44.18,-69.4 80.11,-89.07 35.79,-19.88 74.73,-29.84 117,-29.84 53.15,0 96.84,13.43 130.56,40.39 33.92,26.96 55.66,65.27 65.13,114.78l-80.42 12.29c-7.75,-32.93 -21.28,-57.71 -40.99,-74.42 -19.57,-16.53 -43.23,-24.89 -70.96,-24.89 -41.95,0 -75.99,14.96 -102.35,44.93 -26.17,30.13 -39.25,77.42 -39.25,142.41 0,65.9 12.6,113.68 37.82,143.48 25.39,29.78 58.36,44.78 98.89,44.78 32.8,0 60.07,-9.93 81.83,-29.96 21.93,-19.85 35.81,-50.61 41.63,-92.09zm704.04 -311.28l397.38 0 0 69.07 -157.08 0 0 421.98 -83.26 0 0 -421.98 -157.04 0 0 -69.07zm1030.28 245.51c0,-90.66 25.22,-157.83 75.85,-201.53 42.09,-36.26 93.65,-54.4 154.37,-54.4 67.31,0 122.52,22.07 165.41,66.25 42.71,43.99 64.16,105 64.16,182.75 0,63.06 -9.45,112.57 -28.39,148.69 -18.9,36.12 -46.5,64.2 -82.76,84.22 -36.12,20.02 -75.72,29.97 -118.43,29.97 -68.74,0 -124.26,-21.93 -166.67,-65.92 -42.44,-44 -63.56,-107.39 -63.56,-190.03zm85.15 0.15c0,62.77 13.7,109.75 41.15,140.81 27.6,31.23 62.15,46.84 103.93,46.84 41.32,0 75.68,-15.61 103.26,-46.98 27.46,-31.38 41.16,-79.16 41.16,-143.34 0,-60.57 -13.86,-106.46 -41.47,-137.52 -27.58,-31.2 -61.94,-46.81 -102.95,-46.81 -41.78,0 -76.33,15.44 -103.93,46.5 -27.44,31.07 -41.15,77.9 -41.15,140.5zm1070.32 -245.67l128.03 0 129.77 392.95 143.65 -392.95 118.91 0 0 491.05 -83.27 0 0 -395.33 -144.6 395.33 -74.42 0 -136.71 -414.26 0 414.26 -81.36 0 0 -491.05zm1563.56 429.53c-30.89,26.34 -60.69,44.8 -89.25,55.66 -28.53,10.9 -59.12,16.27 -91.92,16.27 -53.95,0 -95.39,-13.08 -124.4,-39.44 -29.04,-26.17 -43.54,-59.76 -43.54,-100.61 0,-23.96 5.51,-45.86 16.41,-65.75 11.04,-19.85 25.39,-35.64 43.06,-47.64 17.8,-11.95 37.69,-21.11 59.89,-27.25 16.41,-4.27 41.16,-8.38 74.11,-12.48 67.18,-7.85 116.84,-17.49 148.56,-28.53 0.31,-11.35 0.48,-18.63 0.48,-21.59 0,-33.76 -7.9,-57.59 -23.67,-71.45 -21.3,-18.77 -52.97,-28.06 -94.93,-28.06 -39.25,0 -68.26,6.94 -86.89,20.64 -18.77,13.74 -32.47,38 -41.46,73.01l-81.38 -11.35c7.42,-34.84 19.54,-63.08 36.6,-84.53 17.01,-21.45 41.61,-37.86 73.79,-49.51 32.02,-11.52 69.38,-17.35 111.64,-17.35 41.95,0 76.15,4.89 102.5,14.82 26.17,9.95 45.57,22.24 57.88,37.22 12.29,14.99 20.93,33.9 26,56.78 2.67,14.19 4.1,39.73 4.1,76.47l0 110.37c0,77.11 1.74,125.83 5.2,146.51 3.32,20.64 10.24,40.35 20.37,59.29l-87.06 0c-8.35,-17.51 -13.7,-38 -16.1,-61.51zm-6.59 -184.47c-30.28,12.29 -75.72,22.69 -136.26,31.2 -34.38,4.89 -58.67,10.42 -72.84,16.56 -14.19,6.16 -25.08,15.15 -32.81,26.79 -7.71,11.86 -11.66,24.95 -11.66,39.44 0,21.93 8.35,40.37 25.22,55.04 16.89,14.65 41.49,22.07 73.8,22.07 32.02,0 60.55,-6.94 85.63,-20.97 24.91,-13.88 43.35,-32.95 55.04,-57.07 8.99,-18.78 13.39,-46.36 13.39,-82.79l0.48 -30.27zm742.97 -245.07l397.38 0 0 69.07 -157.08 0 0 421.98 -83.26 0 0 -421.98 -157.04 0 0 -69.07zm1030.28 245.51c0,-90.66 25.22,-157.83 75.85,-201.53 42.09,-36.26 93.65,-54.4 154.37,-54.4 67.31,0 122.52,22.07 165.41,66.25 42.71,43.99 64.16,105 64.16,182.75 0,63.06 -9.45,112.57 -28.39,148.69 -18.9,36.12 -46.5,64.2 -82.76,84.22 -36.12,20.02 -75.72,29.97 -118.43,29.97 -68.74,0 -124.26,-21.93 -166.67,-65.92 -42.44,-44 -63.56,-107.39 -63.56,-190.03zm85.15 0.15c0,62.77 13.7,109.75 41.15,140.81 27.6,31.23 62.15,46.84 103.93,46.84 41.3,0 75.68,-15.61 103.26,-46.98 27.46,-31.38 41.16,-79.16 41.16,-143.34 0,-60.57 -13.86,-106.46 -41.47,-137.52 -27.58,-31.2 -61.94,-46.81 -102.95,-46.81 -41.78,0 -76.33,15.44 -103.93,46.5 -27.44,31.07 -41.15,77.9 -41.15,140.5zm1087.35 -245.67l386.96 0 0 490.56 -83.24 0 0 -421.49 -220.47 0 0 244.26c0,56.93 -1.88,94.45 -5.53,112.76 -3.75,18.11 -13.88,33.88 -30.42,47.45 -16.7,13.57 -40.68,20.33 -72.05,20.33 -19.4,0 -41.8,-1.26 -67.04,-3.62l0 -69.22 36.43 0c17.18,0 29.47,-1.74 36.89,-5.37 7.42,-3.48 12.31,-9.14 14.82,-16.87 2.36,-7.73 3.63,-32.8 3.63,-75.22l0 -323.57zm1085.94 245.51c0,-90.66 25.22,-157.83 75.85,-201.53 42.09,-36.26 93.65,-54.4 154.37,-54.4 67.31,0 122.52,22.07 165.41,66.25 42.71,43.99 64.16,105 64.16,182.75 0,63.06 -9.45,112.57 -28.39,148.69 -18.9,36.12 -46.5,64.2 -82.76,84.22 -36.12,20.02 -75.72,29.97 -118.43,29.97 -68.74,0 -124.26,-21.93 -166.67,-65.92 -42.44,-44 -63.56,-107.39 -63.56,-190.03zm85.15 0.15c0,62.77 13.7,109.75 41.15,140.81 27.6,31.23 62.15,46.84 103.93,46.84 41.32,0 75.68,-15.61 103.26,-46.98 27.46,-31.38 41.16,-79.16 41.16,-143.34 0,-60.57 -13.86,-106.46 -41.47,-137.52 -27.58,-31.2 -61.94,-46.81 -102.95,-46.81 -41.78,0 -76.33,15.44 -103.93,46.5 -27.44,31.07 -41.15,77.9 -41.15,140.5zm1067.5 -245.67l282.87 0 0 69.07 -199.63 0 0 421.98 -83.24 0 0 -491.05z"/>
 </g>
</svg>
